<svg width="100" height="90" viewBox="0 0 100 90" fill="none" xmlns="http://www.w3.org/2000/svg">
<path fill-rule="evenodd" clip-rule="evenodd" d="M98.4697 52.7928C98.8102 52.8585 99.0602 52.6016 99.0022 52.2833C98.526 49.7045 96.6418 46.8739 93.9708 45.8943C94.3522 45.5418 94.6884 45.1646 94.9419 44.8489C96.0444 43.4724 96.7903 41.8835 96.7084 40.1213C96.6981 39.8764 96.4378 39.6238 96.1639 39.7236C95.6425 39.9148 95.1527 40.2041 94.6944 40.5539C96.14 37.9102 96.9046 34.6624 95.8866 31.9222C95.8294 31.7686 95.692 31.6432 95.5094 31.6474C94.0083 31.6952 92.9263 34.6419 92.4868 35.7384C92.3699 36.0303 92.2743 36.3307 92.1915 36.6319C92.0337 36.5022 91.8664 36.3802 91.6915 36.2675C92.1429 35.0532 91.6915 34.0223 90.8867 33.2227C90.9926 33.2287 91.1001 33.1801 91.124 33.064C91.5549 30.9946 90.7255 28.9406 88.6194 28.112C86.4902 27.2774 79.5746 26.5503 81.7404 23.1241C81.7788 23.0635 81.7925 23.0063 81.7959 22.95C82.8652 23.1685 83.9361 23.3793 84.9772 23.7163C87.0338 24.3811 87.6457 25.5101 88.0434 27.4353C88.1031 27.7229 88.5468 27.6981 88.6228 27.4353C88.8924 26.5034 88.8327 25.7652 88.5443 25.1662C90.1418 25.9393 91.9415 26.3566 93.4588 26.2858C93.7037 26.2747 93.9665 26.0341 93.8607 25.7798C92.9595 23.6199 91.1018 20.5948 88.7269 19.5434C90.3952 18.7566 91.9236 17.7514 93.0329 16.2606C93.1268 16.1351 93.1003 15.8987 92.9706 15.7997C91.6317 14.7902 90.0385 15.1162 88.6083 16.0054C88.7201 14.937 88.5818 13.8319 88.3079 13.04C87.8147 11.614 86.7736 10.8255 85.5439 10.6642C86.55 7.98896 84.8766 4.72316 84.071 1.98644C83.966 1.6323 83.4924 1.67838 83.3687 1.98644C82.2166 4.85799 81.3983 8.1289 83.4258 10.8332C83.4583 10.8759 83.4958 10.9083 83.5368 10.9313C83.3704 10.9928 83.2031 11.0457 83.0376 11.1268C82.6467 11.3179 82.9889 11.8538 83.3764 11.6831C83.64 11.5671 83.8943 11.4826 84.1418 11.4254C83.9489 11.777 83.7348 12.1312 83.483 12.4998C83.4813 12.5024 83.483 12.5058 83.4813 12.5083C83.4429 12.5203 83.4037 12.5237 83.3653 12.5382C83.1664 12.6065 83.0981 12.7771 83.1195 12.9342C83.0068 12.8326 82.8839 12.7362 82.7517 12.6491C82.9915 12.1166 82.8609 11.3734 82.692 10.8511C82.5802 10.5029 82.3694 10.2145 82.1151 9.95765C81.0979 8.00517 77.6153 7.00247 75.6867 7.93178C76.2858 5.45107 76.3097 2.58976 75.6202 0.266923C75.5502 0.0331035 75.1764 -0.111118 74.9981 0.109048C73.09 2.45493 73.2871 5.60296 74.6909 8.14512C74.7259 8.20997 74.7745 8.24923 74.8257 8.27739C74.818 8.39857 74.8163 8.51889 74.8103 8.64092C74.6883 8.80732 74.5799 8.98994 74.5082 9.19987C74.4886 9.1956 74.469 9.18792 74.4502 9.18195C74.3947 5.85556 70.96 4.07973 67.9451 2.90807C67.6746 2.80225 67.4083 3.06252 67.3998 3.30573C67.2974 6.45291 70.5017 8.8662 73.5508 9.73236C73.5815 9.99008 73.6122 10.2486 73.6515 10.5106C73.7001 10.8366 74.2429 10.8127 74.312 10.5106C74.3461 10.3604 74.3623 10.2188 74.3837 10.0729C74.3837 10.1898 74.3692 10.2973 74.382 10.4236C74.4263 10.8699 75.1534 10.8801 75.1192 10.4236C75.1064 10.2597 75.1269 10.1198 75.1414 9.97813C75.3548 9.87402 75.4333 9.60009 75.2695 9.44649C75.7106 8.37809 77.0973 8.15963 78.4047 8.43526C79.1906 8.60167 79.7726 8.91911 80.259 9.32958C79.8272 9.37737 79.3989 9.50623 79.0285 9.6786C78.2229 10.0498 77.4404 10.7786 77.3371 11.6661C77.2125 12.7422 78.2127 13.3608 79.1514 13.6552C79.1317 14.0128 79.1727 14.378 79.2282 14.6989C79.3135 15.1947 80.0935 14.9822 80.0124 14.4924C79.8443 13.4752 80.143 12.5271 81.3821 12.8719C81.493 12.9034 81.685 12.9785 81.8906 13.0775C81.8881 13.0801 81.8847 13.0792 81.883 13.0818C81.3812 13.4931 79.8392 14.9805 81.2711 15.3458C81.487 15.4004 81.726 15.3987 81.9675 15.3568C81.9632 15.7161 81.9512 16.0643 82.0306 16.4218C82.1449 16.9347 82.9599 16.7162 82.8498 16.2059C82.7705 15.8398 82.8609 15.4234 82.8259 15.0428C83.122 14.867 83.3729 14.64 83.5189 14.39C83.7638 13.9718 83.6682 13.5767 83.4062 13.2328C83.4548 13.2371 83.5069 13.2345 83.5649 13.2183C84.9303 12.8411 85.834 13.4487 85.747 14.8235C85.7111 15.3842 85.4355 15.9175 85.1112 16.3715C84.7025 16.9424 84.0061 17.1387 83.5521 17.6234C83.4412 17.742 83.4677 17.9775 83.6588 18.0116C85.4457 18.3231 86.6234 15.8629 86.6217 14.5052C86.6199 13.1108 85.6292 12.3633 84.426 12.3633C84.746 12.0492 84.9994 11.7173 85.2042 11.3742C86.3904 11.5116 87.2753 12.394 87.6636 13.7867C87.9043 14.6494 87.8471 15.5856 87.6517 16.45C87.6218 16.5789 87.5689 16.6898 87.5254 16.8084C86.5654 17.6379 85.7581 18.6593 85.2563 19.5835C85.0318 19.6885 84.8057 19.8071 84.5762 19.959C84.5446 19.9803 84.5241 20.0059 84.5028 20.0315C83.832 19.5494 82.9966 19.2857 82.0716 19.1406C82.1014 19.1108 82.1227 19.069 82.1262 19.0152C82.2576 16.6966 80.6482 15.5565 78.3885 15.315C75.2191 14.9754 71.3739 16.5166 69.0476 13.9249C69.0775 13.9206 69.1056 13.9189 69.1355 13.9147C72.6906 13.4257 75.3283 12.6705 78.4704 14.8073C78.688 14.9558 78.9355 14.675 78.8186 14.4745C77.8133 12.7609 75.9282 12.4 74.0193 12.4375C74.0278 12.3948 74.0432 12.3539 74.0261 12.3095C72.9347 9.44734 71.018 9.19902 68.8394 9.7409C68.8334 9.73407 68.8368 9.72554 68.83 9.71786C68.0372 8.77575 66.6531 8.47622 65.3705 8.50524C64.5914 7.91898 63.4317 7.6954 62.5092 7.48803C61.1677 7.18595 59.8211 7.24568 58.5138 7.64164C58.2689 7.71673 58.2219 7.94714 58.303 8.11781C57.9582 8.22021 57.6186 8.34908 57.2849 8.51377C57.3105 8.44465 57.3054 8.3687 57.2312 8.30896C56.0476 7.35918 53.9492 7.45048 52.478 7.8601C48.2368 7.96847 46.455 13.936 42.0431 14.2287C42.16 14.093 42.2812 13.9659 42.3964 13.8268C43.2165 12.8241 43.9964 11.7983 44.8933 10.8545C46.2741 9.39785 47.8613 8.89864 49.7003 8.18523C49.9392 8.09221 49.9077 7.77135 49.6389 7.75172C48.1404 7.64334 46.9021 8.08709 45.8004 8.82951C45.8789 8.66567 45.7766 8.44892 45.5376 8.4199C43.5109 8.16219 41.3707 9.6658 39.9276 10.8639C39.1502 11.5091 38.4479 12.2796 37.8651 13.1245C37.988 11.9494 37.9896 10.7299 37.9538 9.44393C37.9453 9.13757 37.5689 8.9925 37.336 9.19987C35.9296 10.4543 33.9959 12.9777 33.4959 15.3372C32.9327 13.2764 32.0844 11.2223 30.4298 9.92266C30.2139 9.75199 29.8742 9.79807 29.7915 10.0839C28.9919 12.848 29.9638 15.6299 31.8352 17.7428C31.8037 17.7317 31.7729 17.7147 31.7414 17.7036C30.2565 17.2001 28.6838 17.5022 27.4626 18.2523C28.7913 16.8724 29.2555 14.6204 29.2846 12.8813C29.2888 12.6782 29.0968 12.4793 28.8784 12.4921C26.052 12.65 25.1697 16.1872 25.6842 18.3794C25.7303 18.5731 25.8822 18.6474 26.0384 18.6423C25.8865 18.8957 26.221 19.1662 26.4736 19.0314C26.5009 19.0169 26.5214 18.9964 26.5487 18.9802C26.2116 19.3122 25.9164 19.6757 25.7073 20.0768C25.6766 17.6959 25.0033 15.2024 24.9222 12.8821C24.9111 12.5655 24.4827 12.3505 24.2378 12.6107C22.0728 14.914 22.2785 18.4921 24.7737 20.4941C24.7737 20.4941 24.7737 20.4941 24.7737 20.4958C24.801 20.7245 24.8334 20.9523 24.8676 21.1802C23.3213 19.2123 21.3927 17.5124 18.6261 17.6225C18.3496 17.6336 18.1303 17.8794 18.2105 18.1456C18.2464 18.2659 18.3061 18.3692 18.3488 18.4853C18.1883 18.6389 18.126 18.8932 18.3274 19.057C18.4699 19.1722 18.6201 19.2976 18.7678 19.4205C19.1381 20.0776 19.6126 20.6622 20.1707 21.1699C19.9258 21.0795 19.6757 21.0103 19.4172 20.9822C18.6227 20.8951 17.6738 21.1759 17.0995 21.7553C17.8786 18.0748 17.1797 14.413 15.6385 10.9706C15.5856 10.8554 15.4209 10.7777 15.2946 10.782C15.2093 10.7863 15.1239 10.7871 15.0377 10.7863C14.8654 10.7871 14.7024 10.9006 14.6589 11.0628C13.855 14.0649 13.6417 17.038 14.7988 19.7482C14.1955 19.1739 13.5478 18.6337 12.9231 18.1055C11.8317 17.183 10.6378 16.3911 9.24942 15.9499C8.93111 15.8484 8.7212 16.1539 8.7613 16.4167C9.14446 18.9316 11.9119 20.314 14.1682 21.0854C14.1852 21.0897 14.198 21.088 14.2143 21.0914C13.7739 21.1136 13.3344 21.2058 12.9453 21.3449C11.7353 21.7792 10.6139 22.6582 10.0473 23.782C9.90054 24.0722 9.81008 24.4212 9.7751 24.7779C8.46093 22.8348 6.1816 21.9661 4.31019 20.4531C4.03455 20.2295 3.61982 20.372 3.60276 20.733C3.46622 23.7146 6.43505 25.3821 8.96355 26.4752C7.76373 26.3396 6.59462 26.9181 5.88804 28.3458C5.19597 29.7453 5.53219 30.9904 6.44529 31.7806C5.9401 32.2294 5.64655 33.0009 5.67556 33.9336C5.72079 35.3493 6.57586 36.5628 7.75947 37.1294C5.44516 36.3187 2.41999 36.2351 0.313054 37.0236C-0.0248754 37.1499 -0.133241 37.58 0.209809 37.7805C2.66577 39.2073 6.08431 39.3447 8.72546 38.179C8.77154 38.179 8.81763 38.1884 8.86456 38.1867C6.3335 40.5173 4.74369 43.8803 4.86657 47.2383C4.88022 47.6027 5.32569 47.7827 5.60388 47.531C8.45836 44.9607 10.4416 42.1446 10.7471 38.5306C10.8443 38.3907 10.9425 38.2507 11.0415 38.1099C11.3913 39.0896 12.1534 39.9071 13.1604 40.3901C13.5282 40.5659 13.9548 40.6606 14.3892 40.6854C12.1491 42.1779 10.6933 44.4726 10.0046 47.1265C9.95003 47.3398 10.0738 47.5848 10.3076 47.6377C13.3925 48.3238 15.5156 45.5964 16.6625 42.8802C16.6625 42.8819 16.6617 42.8827 16.6617 42.8845C16.6677 43.2403 16.7206 43.6013 16.8008 43.9622C16.6881 43.9622 16.5798 44.0058 16.5243 44.1227C15.4209 46.4541 14.9132 48.8503 15.1171 51.4104C15.153 51.8532 15.8433 51.9949 15.9628 51.5196C16.2128 50.5203 16.6019 49.4698 16.9245 48.4074C17.2411 49.1618 17.7676 49.8444 18.4239 50.4188C18.3215 50.4887 18.2558 50.6091 18.289 50.7627C18.5365 51.8874 18.9282 52.9293 19.3975 53.9448C19.3788 53.9704 19.36 53.9969 19.3489 54.0319C18.4853 56.7379 18.8181 59.4106 19.7022 61.9903C19.5879 61.9732 19.4581 62.0125 19.4027 62.1456C18.4853 64.3413 18.6492 66.1965 19.5136 68.2855C19.447 68.3077 19.389 68.3512 19.354 68.4255C18.3872 70.5614 18.435 72.455 19.4479 74.538C18.6022 76.7465 18.7089 78.7314 19.7773 80.9101C19.7799 80.9143 19.7824 80.9195 19.785 80.9246C19.6092 83.285 18.8139 86.2017 19.7918 88.4358C16.9245 88.6577 14.0504 88.8753 11.2727 88.4247C10.8802 88.3624 10.7087 88.8975 11.1063 89.0059C17.8112 90.8551 24.7635 88.1679 31.6083 89.9889C31.9462 90.0803 32.1851 89.5802 31.8523 89.4351C29.2871 88.3258 26.5786 88.1167 23.8205 88.1952C23.841 87.8777 23.8418 87.5628 23.8077 87.2531C24.3795 85.746 24.3906 84.0018 23.9801 82.3847C24.0816 81.8914 24.0688 81.4033 23.9835 80.9237C24.2532 79.8451 24.3061 78.7144 24.1636 77.6084C24.2199 77.5641 24.2651 77.5069 24.2702 77.4258C24.324 76.5955 24.2139 75.8189 24.0134 75.0688C24.6577 73.386 24.3812 71.4728 23.94 69.6799C23.9707 69.6338 23.9878 69.5758 23.9741 69.5126C23.649 68.0269 23.0977 66.6829 22.4952 65.3901C22.578 65.3866 22.6557 65.361 22.6915 65.28C23.684 63.0314 23.4442 60.9466 22.7256 58.9191C23.6353 56.9094 23.3213 54.3672 22.7794 52.3098C22.7649 52.256 22.7402 52.2142 22.7103 52.1792C24.0526 52.2552 25.4103 51.9172 26.5402 51.017C26.5495 51.1526 26.553 51.2917 26.5581 51.4283C24.9853 53.2929 24.1354 55.6097 24.3521 58.0358C24.382 58.3789 24.7916 58.582 25.0715 58.3217C26.1664 57.3053 26.7484 56.0731 27.0206 54.753C27.437 56.4196 28.3075 57.924 29.9433 58.8755C30.1533 58.9967 30.3871 58.9062 30.5194 58.7304C31.7602 57.0801 31.6065 55.23 30.7591 53.5915C31.6313 54.0131 32.6255 54.1821 33.6017 54.0148C33.8295 53.9755 33.9609 53.7102 33.9004 53.5105C33.4634 52.0683 32.1092 50.807 30.5578 50.4802C32.6792 49.8854 33.891 47.787 33.2612 45.6912C33.1656 45.372 32.7006 45.4514 32.6784 45.7662C32.5461 47.7059 32.1663 49.5628 29.7966 49.8555C29.4808 49.8939 29.1719 49.8871 28.8698 49.8504C28.8101 49.6524 28.572 49.649 28.4363 49.7711C28.2324 49.7233 28.031 49.6635 27.8373 49.5876L27.8381 49.585C28.0113 49.3145 27.6222 49.0448 27.3918 49.2548C27.3637 49.2812 27.3346 49.3034 27.3056 49.3299C26.7834 49.0372 26.32 48.6463 25.9326 48.194C27.1913 47.8237 27.9328 46.699 28.0805 45.5324C29.579 45.1313 30.6388 44.0382 30.1934 42.3178C30.126 42.0558 30.015 41.8271 29.8759 41.6215C29.8435 41.2315 29.7513 40.8816 29.6071 40.5693C29.8845 40.3184 30.0748 39.9899 30.2079 39.6272C31.0809 40.1443 31.7926 40.9269 32.3259 41.7478C32.6425 42.2351 32.8738 42.7624 32.8704 43.3436C32.8686 43.6883 32.6698 43.9085 32.413 44.086C32.2995 43.6695 32.1407 43.2625 31.9786 42.9066C31.8284 42.5747 31.2516 42.8136 31.3719 43.1516C31.5434 43.6346 31.6381 44.0809 31.6851 44.5246C31.6322 44.5596 31.5801 44.5937 31.534 44.633C31.4094 44.7371 31.4743 44.959 31.633 44.9914C31.662 44.9982 31.685 44.994 31.7124 44.9991C31.7141 45.4667 31.6577 45.9395 31.5152 46.4558C31.4777 46.5923 31.6492 46.7519 31.7857 46.6554C32.4019 46.2151 32.5862 45.5973 32.558 44.9462C33.9755 44.7584 34.5916 43.3555 34.3996 42.0704C34.1666 40.5164 32.7825 39.0358 31.3343 38.3958C30.981 38.2396 30.6704 38.7278 31.0254 38.9018C32.1621 39.4591 32.977 40.4652 33.4438 41.5891C33.664 42.119 33.6973 42.5423 33.6059 42.9092C33.5889 42.6865 33.5556 42.468 33.4848 42.2666C33.0043 40.9115 31.7294 39.6596 30.3538 39.0418C30.4033 38.7124 30.4195 38.3702 30.3675 38.0169C30.2028 36.8965 29.503 35.7171 28.5686 34.8313C28.7196 34.9107 28.8545 35.0054 29.0209 35.0711C30.0978 35.5004 31.2874 35.2827 32.1715 34.5847C32.4104 34.3953 32.6314 34.1375 32.8277 33.8397C32.9062 36.9562 33.7544 40.5975 36.6047 41.9449C36.905 42.0874 37.2191 41.9116 37.2438 41.5933C37.4964 38.3506 37.7021 34.5531 35.3092 32.0076C35.7965 32.0989 36.3401 32.0844 36.9341 31.9248C37.8915 31.6645 38.7457 30.9963 39.1408 30.1182C39.5317 29.2478 39.4242 27.9396 38.6689 27.2561C39.4037 26.6672 39.7919 25.7362 39.8781 24.7728C40.2963 25.1047 40.6171 25.5229 40.6359 26.0793C40.6598 26.8183 39.7117 27.2748 39.2091 27.6827C39.0034 27.85 39.2296 28.1163 39.4489 28.077C40.4798 27.8969 41.3493 27.1084 41.4014 26.0793C41.4458 25.2123 40.641 24.5714 39.8901 24.1644C39.8756 23.8512 39.8372 23.5406 39.7612 23.2419C39.338 21.6026 38.0699 20.2594 36.4912 19.6134C38.296 18.8479 39.9575 17.8333 41.4637 16.5882C41.7291 16.3698 41.5183 15.9115 41.1778 15.9277C40.8757 15.9431 40.5753 15.9892 40.2749 16.0319C40.6743 15.6948 41.0532 15.3261 41.4193 14.9387C41.4244 14.9387 41.4287 14.9421 41.4347 14.943C41.6838 14.972 41.9236 14.9831 42.1592 14.9848C42.1387 15.0385 42.1284 15.0983 42.1489 15.17C45.3055 26.366 50.3377 37.3359 57.901 46.454C63.3779 53.0565 72.4995 60.1129 81.8522 60.4073C82.1091 61.858 83.326 63.0783 84.7852 63.5135C79.4671 70.1765 73.9911 77.4045 72.1632 85.6957C72.0847 86.0498 72.5993 86.183 72.7273 85.8425C75.6304 78.1332 79.7735 71.8175 84.4985 65.2757C82.8037 69.5305 81.1926 74.0235 80.329 78.3235C80.2505 78.7169 80.8521 78.8859 80.9622 78.4891C82.4001 73.3118 85.5678 68.0474 86.3614 62.7105C86.4408 62.6021 86.5192 62.4938 86.5995 62.3845C86.6498 62.3163 86.6618 62.2523 86.6592 62.1908C86.9016 62.1157 87.1303 62.0099 87.3223 61.8495C86.9007 62.9221 86.7292 64.0076 87.3607 65.0939C87.5544 65.4259 87.7762 65.7212 88.0041 66.0019C88.7815 68.1217 87.417 70.2158 88.3566 72.2536C86.9203 74.4911 85.0318 77.0273 87.1729 79.3433C86.701 80.1267 86.4954 80.9493 87.6175 81.3897C87.7199 81.4298 87.8138 81.4596 87.9094 81.4921C87.2967 83.2986 86.5517 86.8793 88.1603 88.4077C82.5878 87.8137 77.0922 86.5337 71.4183 86.8401C63.5537 87.2659 55.8155 91.0889 48.0243 87.9221C47.601 87.7497 47.2256 88.3334 47.6565 88.5254C53.9492 91.298 61.2061 89.4001 67.6856 88.2174C77.1016 86.4987 86.067 90.7996 95.3455 89.2824C95.7329 89.2184 95.6434 88.5997 95.2534 88.6261C93.2386 88.7635 91.2477 88.6953 89.2679 88.5186C88.6219 87.4348 88.1449 86.6259 88.0775 85.3091C88.0152 84.1025 88.2703 82.8626 88.6083 81.6977C89.2799 81.8761 89.8055 82.0331 90.4234 82.8626C91.7213 84.6068 90.5488 86.2197 89.8636 87.9076C89.7629 88.1534 90.1452 88.3548 90.3218 88.1628C91.8613 86.4996 92.3793 84.4037 91.1496 82.4555C90.7596 81.8377 90.2177 81.2437 89.4787 81.0202C88.3659 80.6848 87.4878 80.6899 87.7609 79.7529C88.3872 79.9919 89.2295 79.9287 89.8064 79.9108C90.4089 79.8903 91.0071 79.8502 91.607 79.9364C92.6984 80.0943 92.5866 81.1174 92.4774 81.9734C92.4032 81.7276 92.3212 81.4895 92.2325 81.2693C92.0857 80.905 91.4841 81.0458 91.6104 81.4332C91.9296 82.4145 92.0755 83.3899 92.0268 84.4174C91.9756 85.5088 91.4158 86.3886 91.1632 87.4212C91.1044 87.6601 91.3988 87.8248 91.5882 87.6576C92.9007 86.4953 93.0355 84.5368 92.6933 82.8276C92.7863 82.8293 92.8793 82.802 92.928 82.7107C93.7421 81.1976 93.521 79.2281 91.432 79.0754C90.3841 78.9986 89.116 79.3015 88.1082 78.9456C88.1628 78.6896 87.8189 78.5181 87.6116 78.7084C85.8536 77.5436 87.7805 74.6046 88.895 72.8569C89.0546 72.9653 89.2253 73.0609 89.3755 73.1462C91.467 74.3222 90.8833 76.1705 90.356 78.0846C90.2689 78.4004 90.7161 78.5693 90.8936 78.3014C91.7401 77.029 92.3537 74.8128 91.2844 73.4662C91.304 73.4534 91.3254 73.4543 91.3433 73.433C91.8929 72.8228 92.0191 71.9899 91.9594 71.1758C92.1736 70.5836 92.1582 69.9982 91.9782 69.4264C93.5578 67.7069 94.2515 65.2621 92.6464 63.3377C92.4296 63.0775 91.8596 62.7813 91.5694 62.6175C89.4719 61.4339 89.6588 59.7673 89.9993 57.8677C90.1861 56.824 90.1435 55.975 89.8619 55.154C91.6915 56.9196 91.5515 58.9395 92.1728 61.2931C92.2504 61.5841 92.6925 61.5098 92.7036 61.224C92.7744 59.4422 92.6831 58.2184 92.311 57.191C92.3861 57.2797 92.4621 57.3676 92.538 57.4564C93.155 60.6812 94.4785 64.087 97.3381 66.0036C97.5318 66.1333 97.828 66.0403 97.9372 65.8534C99.8777 62.5424 96.9225 58.489 93.7352 56.5612C94.0971 56.3283 94.4367 55.9878 94.7064 55.771C95.3489 55.2522 95.983 54.718 96.5778 54.1496C96.8355 53.9039 96.652 53.4422 96.2765 53.4533C95.3498 53.4798 94.3079 53.6743 93.4272 53.9696C93.9401 52.4643 93.9759 50.947 93.6192 49.4016C94.7089 51.0869 96.3994 52.3883 98.4697 52.7928ZM72.4926 7.18765C72.4047 7.06562 72.3185 6.94359 72.2306 6.82327C71.9789 6.47681 71.3892 6.79255 71.6316 7.15864C71.9217 7.59385 72.2178 8.0265 72.5106 8.46257C70.4642 7.51961 68.5672 6.00575 68.2941 3.93295C69.6279 4.45179 70.9566 5.02269 72.0335 5.95455C72.4969 6.35563 72.8015 6.79767 73.0115 7.26701C72.8766 7.07671 72.6513 7.08013 72.4926 7.18765ZM74.94 6.94786C74.2292 5.1285 74.0969 3.02497 75.0655 1.31229C75.365 3.20674 75.1269 5.06791 74.94 6.94786ZM81.3616 12.0407C80.7446 11.905 80.1071 12.0236 79.6455 12.4486C79.4825 12.5996 79.3698 12.778 79.2913 12.9726C78.7537 12.7302 78.0667 12.3257 78.1657 11.719C78.2647 11.1131 78.8552 10.6736 79.3818 10.4031C79.8878 10.1445 80.5441 10.0157 81.0945 10.2205C81.3846 10.5943 81.6577 10.9996 81.9461 11.4254C81.9794 11.7028 81.9845 11.9921 82.0263 12.2634C81.7831 12.1593 81.5501 12.0817 81.3616 12.0407ZM84.5079 10.6787C84.3569 10.6992 84.2058 10.7316 84.0531 10.77C84.0829 10.6924 84.0795 10.6028 84.0147 10.5064C82.616 8.45062 82.6348 5.47582 83.5974 3.15895C83.8883 4.2504 84.2954 5.31112 84.6419 6.3872C85.1726 8.0393 85.0728 9.35262 84.5079 10.6787ZM24.1516 14.0546C24.2096 15.1486 24.3351 16.2375 24.4699 17.329C24.551 17.9895 24.6013 18.6602 24.6559 19.3301C23.422 17.8085 23.2001 15.7391 24.1516 14.0546ZM9.77765 16.9996C11.3837 17.7582 12.5545 19.0442 13.8507 20.1672C12.2379 19.4879 10.4876 18.551 9.77765 16.9996ZM4.5039 21.5915C5.417 22.217 6.40773 22.7725 7.29437 23.4219C7.20477 23.5115 7.15955 23.6395 7.20734 23.7838C7.35582 24.236 7.57599 24.6977 7.85418 25.1235C6.29936 24.2941 4.83842 23.1907 4.5039 21.5915ZM1.58713 37.5194C2.90983 37.2335 4.21631 37.3206 5.60814 37.574C6.07237 37.6585 6.5366 37.7933 7.00339 37.9171C5.21731 38.3164 3.24605 38.1893 1.58713 37.5194ZM25.2021 56.9546C25.226 56.5365 25.2832 56.1243 25.3642 55.7181C25.4769 55.701 25.5844 55.6481 25.6569 55.5449C25.936 55.1498 26.1647 54.7402 26.3567 54.3169C26.157 55.2675 25.7994 56.1695 25.2021 56.9546ZM32.8857 53.2681C31.9402 53.2869 31.0356 52.9029 30.2898 52.3397C29.8717 52.0222 29.5798 51.6655 29.3639 51.2721C30.8735 51.1791 32.2645 51.948 32.8857 53.2681ZM27.699 51.3677C27.7263 51.3233 27.7408 51.2781 27.7485 51.2337C29.7385 52.9763 31.5289 55.492 30.0449 57.9394C28.1086 56.5911 27.5053 54.1974 27.3773 51.9198C27.484 51.7363 27.5872 51.5503 27.699 51.3677ZM30.3726 10.9143C31.15 11.7139 31.7072 12.7097 32.1228 13.7892C31.8805 13.68 31.5349 13.7884 31.5588 14.1075C31.5605 14.1417 31.5724 14.1732 31.5758 14.2065C31.5758 14.2065 31.5741 14.2065 31.5724 14.2065C31.575 14.2133 31.5767 14.2202 31.5792 14.227C31.6611 15.024 31.9505 15.7323 32.3763 16.3886C32.5708 16.8733 32.791 17.3477 33.0291 17.8154C31.1901 15.9943 29.9075 13.4419 30.3726 10.9143ZM26.4215 18.1294C26.1066 16.5746 26.5914 13.8131 28.4397 13.3387C28.374 14.3371 28.1709 15.298 27.7545 16.2298C27.4302 16.956 26.9122 17.5244 26.4215 18.1294ZM31.7345 18.5237C32.9233 19.0186 33.8833 19.9838 34.5301 21.0385C35.1642 22.0728 35.0788 22.8425 34.636 23.5943C33.9533 23.3946 33.2194 23.334 32.5683 23.4228C32.4847 23.4339 32.4019 23.4603 32.3191 23.4757C32.2764 22.5199 31.9974 21.3927 31.1739 20.7996C30.6218 20.401 29.8819 20.3908 29.2999 20.7381C28.7154 21.0863 28.3962 21.7604 28.5157 22.4081C28.6949 23.3801 29.6993 23.9211 30.5783 24.2437C30.6124 24.2565 30.6423 24.2565 30.6738 24.2591C30.5936 24.3393 30.5373 24.4408 30.4699 24.5313C30.4451 24.4724 30.4059 24.4152 30.3342 24.3726C29.206 23.695 27.8987 23.2658 26.5999 23.4117C24.7012 20.3899 28.4918 17.1702 31.7345 18.5237ZM33.2561 25.7081C32.8141 25.8199 32.4121 26.1646 32.1186 26.5828C32.0776 26.6067 32.0366 26.6305 31.994 26.6519C31.8634 26.4641 31.6637 26.2943 31.5733 26.0289C31.4913 25.79 31.2106 25.7149 31.0041 25.7874C30.9307 25.214 31.1568 24.6892 31.965 24.3828C32.628 24.1328 33.4208 24.1072 34.1496 24.2778C34.0352 24.4161 33.9132 24.556 33.7835 24.6986C33.5897 24.9128 33.7698 25.2729 34.0813 25.1892C34.49 25.0783 34.8177 24.8829 35.0746 24.6303C35.2487 24.7276 35.4142 24.8334 35.561 24.9605C36.1012 25.4265 36.2283 26.0981 36.1165 26.7611C36.0039 27.4267 35.5073 27.7595 34.915 27.9106C34.9176 27.8884 34.9329 27.8748 34.9312 27.8517C34.8519 26.9429 34.589 25.3727 33.2561 25.7081ZM30.9802 24.0227C31.0135 23.8665 30.9537 23.6822 30.7609 23.6045C30.155 23.3605 29.4518 22.9773 29.2624 22.3262C29.1549 21.9559 29.3511 21.5599 29.6686 21.3431C30.0193 21.1042 30.4579 21.1076 30.7899 21.3756C31.4564 21.9132 31.5007 22.921 31.5741 23.6805C31.5741 23.6856 31.5775 23.6899 31.5784 23.6959C31.3633 23.7812 31.1653 23.8904 30.9802 24.0227ZM25.3326 23.7573C24.4272 24.1592 23.6916 24.8504 23.2564 25.7012C23.2701 24.7992 22.9842 23.8478 22.3596 22.9415C22.2426 22.7717 22.1078 22.6044 21.9636 22.4431C23.0149 23.0277 24.1763 23.4569 25.3326 23.7573ZM13.2483 29.6165C13.5051 31.7123 16.2179 33.7237 18.1457 31.8045C19.9872 29.9706 16.8972 27.856 15.0352 27.9481C14.8201 27.9584 14.6136 28.1188 14.6256 28.3424C14.6503 28.8143 14.6887 29.3152 15.1291 29.5926C15.4491 29.7923 15.7614 29.3553 15.5216 29.1044C15.4653 29.0447 15.4465 28.8988 15.4405 28.7435C16.3861 28.8288 17.2394 29.3707 17.7446 30.1498C18.3812 31.1329 16.91 31.6671 16.1582 31.72C15.3526 31.7746 14.7655 31.1593 14.4011 30.5594C13.715 29.4279 13.9856 28.0668 14.8031 27.1016C15.1052 26.7458 15.4755 26.5358 15.8715 26.4181C15.9577 26.4326 16.0422 26.4573 16.1275 26.4752C16.1958 26.5887 16.3459 26.6229 16.4518 26.5452C17.2138 26.7406 17.946 27.0538 18.5604 27.408C19.1526 27.7493 19.6979 28.2127 20.1024 28.7622C20.1169 28.8083 20.1238 28.857 20.1366 28.9039C20.0512 29.0362 20.099 29.2265 20.2185 29.3306C20.3337 30.2386 20.0751 31.1755 19.3429 31.8497C18.2959 32.8131 16.5141 32.7116 15.217 32.4325C13.9369 32.1569 12.5895 31.5237 11.7779 30.5091C10.6933 29.1531 11.7199 27.8082 12.9308 26.954C13.3976 26.6254 13.9224 26.4565 14.4686 26.3856C13.5836 27.1502 13.0904 28.3313 13.2483 29.6165ZM20.32 32.1424C21.3577 31.3769 21.6205 30.166 21.1512 29.0498C21.9397 28.6044 22.4927 28.0113 22.8426 27.3397C22.846 27.5906 22.8861 27.8355 22.9561 28.0719C22.8912 28.0796 22.8272 28.0727 22.7623 28.0966C22.2785 28.2741 22.4534 28.7776 22.5183 29.1326C22.5362 29.2342 22.6813 29.3144 22.782 29.276C22.9543 29.2086 23.1284 29.1138 23.1822 28.9261C23.1899 28.8979 23.1865 28.8783 23.1882 28.8544C23.1924 28.8672 23.1907 28.8698 23.1975 28.8843C23.288 29.0899 23.3418 29.3101 23.3955 29.5268C23.6643 30.5893 23.5082 31.7601 23.2436 32.8063C23.1549 33.1536 23.0303 33.4975 22.8852 33.8329C22.0421 34.251 21.3261 34.9004 20.7928 35.6813C20.1434 35.5703 19.5324 34.9738 19.1253 34.4883C19.0809 34.4362 19.0272 34.4115 18.9709 34.3978C18.9657 34.3441 18.9717 34.2954 18.964 34.2417C19.6194 33.652 20.1272 32.9138 20.32 32.1424ZM19.3916 18.7745C19.3455 18.6815 19.3131 18.58 19.2713 18.4827C21.0906 18.6261 22.4748 19.6706 23.6131 20.9788C22.2059 20.2423 20.7399 19.6083 19.3916 18.7745ZM16.84 22.9253C16.8767 22.9236 16.9134 22.9219 16.9518 22.8971C17.7565 22.4022 18.1593 21.6862 19.2311 21.7169C20.2492 21.7468 21.1333 22.5797 21.6828 23.3195C23.0465 25.1551 22.6719 27.2783 20.8491 28.4567C20.3362 26.9668 18.9504 25.7465 17.2761 25.5502C17.1046 25.5314 16.9433 25.5408 16.7803 25.5459C16.9843 24.6798 17.0781 23.7573 16.84 22.9253ZM15.2443 11.9144C15.3834 11.3111 15.2221 12.0339 15.4644 12.6662C15.8288 13.6134 16.072 14.5965 16.2922 15.5821C16.695 17.3801 16.6728 19.1978 16.369 20.9933C14.5505 18.2139 14.495 15.1537 15.2443 11.9144ZM10.0277 26.2653C10.0447 26.2602 10.0618 26.2534 10.078 26.2474C10.2453 26.5043 10.4774 26.7193 10.7957 26.8524C11.0534 26.9608 11.2958 26.7423 11.1746 26.4898C10.7479 25.6125 10.3093 25.0501 10.8042 24.0739C11.248 23.2001 12.1176 22.5541 13.0136 22.1444C13.8038 21.7843 14.8901 21.6154 15.5958 22.2221C16.4612 22.9654 16.3707 24.4519 16.2051 25.6014C16.0805 25.6236 15.9526 25.6373 15.8314 25.6697C15.3262 25.6108 14.8184 25.5946 14.3167 25.6509C13.1612 25.7772 11.8726 26.5222 11.1251 27.5249C10.707 27.1426 10.253 26.8635 9.7879 26.6835C9.96113 26.6058 10.0703 26.4232 10.0277 26.2653ZM5.7626 46.2091C5.93668 43.7011 7.06568 41.2358 8.83042 39.3541C7.99925 40.8287 7.19454 42.3161 6.47004 43.8445C6.24987 44.3096 6.93596 44.72 7.1988 44.2532C7.99669 42.835 8.79202 41.4978 9.64111 40.1776C8.98573 42.4706 7.59988 44.4086 5.7626 46.2091ZM10.9817 46.8952C11.4963 45.1757 12.3582 43.6422 13.5845 42.4151C13.4138 42.7436 13.9361 43.1558 14.3175 42.8699C15.0139 42.3485 15.6786 41.7922 16.3494 41.2417C15.5626 43.7737 13.7679 47.1427 10.9817 46.8952ZM16.9168 39.512C16.9723 39.4121 17.0346 39.3183 17.073 39.2048C17.1404 39 16.8878 38.8259 16.7018 38.9317C16.1753 39.2329 15.7759 39.646 15.176 39.8311C14.565 40.0214 13.9096 39.8533 13.3558 39.5922C12.2183 39.058 11.5168 37.877 11.5492 36.6848C11.5612 36.2394 10.8631 36.2487 10.8324 36.6848C10.817 36.9075 10.8273 37.1243 10.852 37.3385C10.8443 37.3436 10.8375 37.3487 10.8307 37.3538C10.8196 37.3009 10.7966 37.2514 10.7658 37.2062C10.7641 37.1132 10.7752 37.0253 10.7701 36.9306C10.7573 36.6609 10.4817 36.5602 10.2811 36.6302C8.49505 36.6942 7.12285 36.3921 6.59547 34.5173C6.31728 33.5317 6.55537 32.5529 7.19197 32.2687C7.59049 32.4581 8.05472 32.5657 8.54626 32.6186C8.61453 33.2116 8.91831 33.7501 9.58052 33.9942C9.77338 34.0659 9.98246 33.85 9.9176 33.6708C9.78874 33.3081 9.51055 33.0418 9.36377 32.6902C9.19054 32.2755 9.2682 31.8582 9.44911 31.4589C9.62661 31.0655 9.04291 30.7139 8.83298 31.115C8.74594 31.2788 8.68279 31.4614 8.62988 31.6474C8.13067 31.3923 7.66389 31.3172 7.25683 31.388C5.13709 29.8434 7.72788 25.3266 10.7445 28.1666C10.6344 28.4124 10.5474 28.6641 10.5158 28.9261C10.3298 30.4459 11.5176 31.5997 12.7712 32.3352C14.4856 33.3414 17.0636 33.7339 18.8949 32.9591C18.3061 33.7032 17.6849 34.3509 16.5345 34.6461C14.693 35.1172 13.1092 33.7373 12.2532 32.3498C12.0305 31.9896 11.4553 32.3114 11.6678 32.6766C12.6518 34.362 14.2074 35.6198 16.3186 35.462C17.0269 35.4082 17.7429 35.1206 18.3786 34.6956C18.3889 36.3759 17.05 37.2148 15.1939 37.1234C14.4063 37.085 13.6135 36.841 12.9479 36.4399C12.2754 36.0337 12.3309 35.6224 12.2686 34.9679C12.2439 34.7084 11.9529 34.5804 11.7412 34.7588C11.0696 35.3263 11.5646 36.294 12.0783 36.7795C12.8318 37.4921 13.983 37.7677 14.9993 37.8787C17.1302 38.1108 18.6995 37.068 18.9555 35.345C19.3609 35.7999 19.8396 36.1958 20.3891 36.3708C19.9608 37.2207 19.7269 38.1645 19.7602 39.1041C18.8437 39.2935 18.0015 39.7953 17.4246 40.542C17.4485 40.4379 17.4766 40.3312 17.4971 40.2314C17.5517 39.9643 17.3828 39.7944 17.1694 39.7543C17.1379 39.6315 17.0474 39.5359 16.9168 39.512ZM23.1062 39.9395C23.9033 39.4591 24.9154 39.2022 25.7423 39.151C26.9907 39.0734 27.9823 39.4591 28.6224 40.1716C28.4559 40.2774 28.2674 40.3747 28.0608 40.4626C27.1042 40.1861 26.0187 40.1674 25.1782 40.2834C24.6602 40.3551 24.2028 40.5258 23.7966 40.7553C23.5935 40.4404 23.364 40.1682 23.1062 39.9395ZM23.707 42.8145C23.4399 43.0201 23.2308 43.3009 23.1267 43.6977C23.0832 43.8641 23.0747 44.0305 23.0824 44.1969C22.8758 44.0655 22.6838 43.9196 22.5191 43.754C22.5413 43.6567 22.5618 43.5543 22.5874 43.4656C22.7615 42.8776 23.0602 42.4117 23.4348 42.0251C23.4681 42.224 23.5201 42.4364 23.6174 42.6788C23.6396 42.7326 23.6712 42.7778 23.707 42.8145ZM23.2052 41.1641C22.648 41.6386 22.2333 42.2547 21.9662 42.9331C21.8714 42.7078 21.8006 42.468 21.7759 42.2018C21.7076 41.4713 21.9986 40.8799 22.4748 40.4208C22.7427 40.6162 22.9876 40.8637 23.2052 41.1641ZM21.2638 41.3518C20.908 40.8765 20.6964 40.35 20.582 39.8064C21.059 39.8004 21.5378 39.9097 21.9858 40.1247C21.6487 40.4908 21.3978 40.903 21.2638 41.3518ZM20.9336 42.0823C20.9959 42.1523 21.0659 42.1804 21.1358 42.1881C21.1333 42.5883 21.2015 43.0005 21.3586 43.4127C21.4379 43.6201 21.5531 43.8027 21.6777 43.9759C21.4977 45.0469 21.6538 46.1494 22.1496 46.9848C21.1324 47.5259 20.3226 47.6633 19.2841 46.7502C18.6645 46.2049 18.2404 45.4727 17.9409 44.7055C18.1201 44.3889 18.3411 44.0809 18.6082 43.7882C18.8941 43.4733 18.4247 43.015 18.1269 43.3273C17.9579 43.5048 17.806 43.6832 17.6669 43.8607C17.6379 43.7481 17.5978 43.6346 17.5748 43.5228C17.1635 41.6104 18.3718 40.2587 19.855 39.9062C20.012 40.6802 20.3542 41.4278 20.9336 42.0823ZM19.075 50.9282C20.0256 51.5793 21.1649 52 22.3297 52.134C22.2145 52.1954 22.1283 52.3149 22.1556 52.4745C22.3485 53.6342 22.4458 54.7879 22.4449 55.9604C22.4449 56.5945 22.3604 57.2183 22.3049 57.8447C21.3108 55.538 19.8584 53.2843 19.075 50.9282ZM19.8259 54.8016C20.1861 55.5133 20.5641 56.2207 20.9575 56.9367C22.4474 59.6495 22.6011 61.9084 22.2418 64.8499C20.7237 61.6839 19.0537 58.7637 19.8259 54.8016ZM20.3951 88.3889C20.4173 87.2079 20.2202 86.0319 20.2782 84.8372C20.3217 83.9258 20.4105 83.0213 20.4651 82.1133C20.8653 82.7533 21.2963 83.3805 21.688 84.0189C22.5191 85.374 22.8238 86.7377 23.1173 88.2165C22.2136 88.2566 21.3048 88.3198 20.3951 88.3889ZM23.2633 85.2861C22.9433 84.5275 22.5268 83.7936 22.089 83.0895C20.4352 80.4288 19.3267 78.3457 19.9318 75.4127C20.5052 76.3557 21.199 77.2432 21.81 78.1563C22.1804 78.7076 22.45 79.2622 22.6736 79.8272C22.4944 79.8698 22.345 80.0653 22.4475 80.2786C23.2624 81.987 23.2855 83.5973 23.2633 85.2861ZM23.387 79.223C23.0397 78.5318 22.6079 77.8721 22.1949 77.2586C20.3712 74.5449 18.7439 72.3074 19.8498 69.045C20.8713 71.2159 22.0788 73.095 22.9723 75.2301C22.974 75.2506 22.9595 75.2643 22.9663 75.2881C23.3768 76.6356 23.4408 77.9156 23.387 79.223ZM23.1882 69.0629C23.3119 69.9803 23.4254 70.9002 23.5141 71.8193C23.5747 72.4413 23.5525 73.0626 23.5338 73.6838C21.9414 70.0127 18.4742 66.9457 19.8575 62.4229C20.7049 64.7279 21.9653 66.9517 23.1882 69.0629ZM26.7134 49.8274C24.6892 51.4095 22.4125 52.0145 19.8874 50.6662C17.8726 49.5893 17.0295 47.6377 17.5074 45.7825C17.9119 46.495 18.4367 47.1393 19.0579 47.6232C20.1366 48.4637 21.6743 48.5055 22.6198 47.5848C23.2095 48.1676 24.0595 48.485 25.1722 48.3494C25.5844 48.9322 26.1135 49.4331 26.7134 49.8274ZM25.4129 47.4747C25.3822 47.4243 25.3455 47.3757 25.3164 47.3245C25.1338 46.9951 24.6662 47.2289 24.7191 47.5463C24.4511 47.5404 24.1687 47.5114 23.8563 47.4269C23.4885 47.3279 23.2112 47.141 22.9945 46.9063C22.9689 46.844 22.927 46.7971 22.869 46.7621C22.4509 46.204 22.3382 45.4138 22.3852 44.6671C22.6872 44.8813 23.0311 45.0494 23.3981 45.1885C23.6097 45.5418 23.905 45.8516 24.2378 46.07C25.1509 46.6717 26.087 46.3841 26.7945 45.7133C26.8192 45.7133 26.8474 45.715 26.8713 45.7142C26.9523 45.7125 27.0291 45.6971 27.1093 45.6929C26.9259 46.507 26.3567 47.2443 25.4129 47.4747ZM24.7814 43.1968C25.9061 42.9288 26.6306 43.3965 26.9668 44.1073C26.8021 44.4333 26.5555 44.7576 26.2654 45.0127C25.5221 45.0136 24.7481 44.8992 24.0535 44.6603C23.7889 44.0604 24.021 43.3777 24.7814 43.1968ZM25.8003 42.4177C25.3216 42.3562 24.8309 42.369 24.3965 42.4851C24.3948 42.4808 24.3957 42.4783 24.394 42.4748C23.9204 41.2827 24.6551 40.92 25.7679 41.3749C26.5419 41.6898 27.059 42.2837 27.1614 42.9775C26.809 42.6933 26.3609 42.4885 25.8003 42.4177ZM28.0924 44.7422C28.0583 44.4418 27.9781 44.1551 27.8577 43.8863C28.0566 43.1063 27.9926 42.3033 27.5241 41.729C27.2561 41.4005 26.89 41.1291 26.489 40.9217C27.2715 40.9533 28.0523 41.1564 28.6983 41.5507C29.0652 41.7759 29.2931 42.0482 29.4237 42.3375C29.4254 42.4185 29.4407 42.4936 29.4382 42.5764C29.4356 42.6455 29.4766 42.6916 29.5278 42.7232C29.6421 43.5509 29.0234 44.4154 28.0924 44.7422ZM29.3306 37.4051C29.7667 38.441 29.6481 39.2235 29.0832 39.8055C27.6888 38.3318 24.7797 38.2695 22.7828 39.4668C22.7265 39.5009 22.6804 39.5436 22.6267 39.5786C21.9764 39.1741 21.2323 39.0008 20.4924 39.0213C20.4779 38.1304 20.7365 37.2335 21.1973 36.4519C21.3756 36.4339 21.5557 36.3964 21.7443 36.323C22.584 35.9979 23.1344 35.2281 23.5184 34.414C24.2967 34.1043 25.179 34.0164 26.1203 34.2579C27.6197 34.6427 28.7777 36.0926 29.3306 37.4051ZM24.475 32.8635C24.6082 32.7688 24.7379 32.6723 24.8701 32.5785C25.2354 32.4317 25.4914 32.1697 25.7602 31.9035C26.0068 31.7055 26.244 31.4998 26.4727 31.2805C26.4198 32.2619 26.7245 33.2168 27.4003 33.9669C27.146 33.8244 26.8875 33.6989 26.6238 33.6093C25.6586 33.2825 24.7353 33.2594 23.8973 33.4591C23.9195 33.3934 23.9442 33.3251 23.9647 33.2603C24.0048 33.1331 24.0296 32.9983 24.0646 32.8669C24.1815 32.9463 24.33 32.9684 24.475 32.8635ZM24.2113 29.6233C24.568 29.817 24.9751 29.9237 25.3856 29.9791C24.9316 30.2693 24.5757 30.6601 24.3154 31.1295C24.3282 30.6217 24.3052 30.1148 24.2113 29.6233ZM33.0299 30.1925C32.704 30.8035 32.7603 31.551 32.5964 32.2183C32.4548 32.7986 32.2064 33.3542 31.7968 33.8081C31.1764 34.4959 30.2412 34.6094 29.3767 34.3475C27.3363 33.7288 26.8166 31.6133 27.5121 29.9202C27.8407 29.8614 28.1615 29.7743 28.4508 29.654C28.9961 30.2095 29.7172 30.7096 30.4135 30.7762C30.5868 30.7932 30.7148 30.5705 30.6175 30.4365C30.2489 29.9288 29.6523 29.584 29.1455 29.1744C29.2137 29.0046 29.0763 28.8083 28.8758 28.7938C28.834 28.7904 28.7896 28.7989 28.7478 28.7981C28.089 28.0795 27.8031 27.1195 28.0694 26.1894C28.147 25.9137 27.7357 25.8199 27.6325 26.0742C27.2246 27.0794 27.2621 27.9823 27.8466 28.8919C27.7161 28.758 27.4584 28.7196 27.3133 28.9193C27.2792 28.9653 27.2604 29.0165 27.228 29.0643C26.9489 29.1343 26.6699 29.1983 26.3951 29.2188C25.7773 29.2666 25.1347 29.206 24.5817 28.9235C23.7113 28.4806 23.5329 27.4993 23.7454 26.6519C23.998 25.6432 24.7848 24.8342 25.7525 24.4067C25.9786 24.306 26.2133 24.2454 26.4497 24.2002C26.5495 24.2386 26.6639 24.213 26.7518 24.1507C27.8637 24.0415 29.0362 24.4425 29.9818 24.946C30.0628 24.9904 30.1413 24.9947 30.2122 24.981C29.8589 25.9683 30.4622 27.0342 31.0757 27.8065C31.2123 27.9772 31.4879 28.0284 31.674 27.9422C31.7405 28.4218 32.2884 28.6522 32.9062 28.7563C32.9002 29.2435 32.9668 29.7018 33.1144 30.1105C33.0777 30.1302 33.0487 30.1575 33.0299 30.1925ZM32.8021 27.1084C32.9574 26.8669 33.2023 26.6024 33.4814 26.4915C33.542 26.4667 33.5949 26.4676 33.6444 26.4821C33.7724 27.1477 33.6 27.5343 34.0873 28.0121C33.85 28.0147 33.6153 28.0028 33.402 27.9746C32.5376 27.8628 32.314 27.8628 32.8021 27.1084ZM36.4485 40.9072C33.9277 39.1843 33.4797 34.9755 33.5402 32.1202C33.6205 31.743 33.6572 31.3667 33.6307 31.0177C33.734 31.1448 33.8654 31.2421 33.9874 31.3488C33.9302 31.4128 33.9038 31.5015 33.9439 31.615C34.1794 32.2721 34.3484 32.9437 34.4943 33.6238C34.6522 34.3569 34.688 35.159 35.0908 35.8118C35.1838 35.9629 35.4569 35.9475 35.497 35.7615C35.6668 34.9687 35.497 34.0377 35.2214 33.1553C36.7463 35.3502 36.6456 38.2866 36.4485 40.9072ZM38.686 22.6778C39.105 23.4629 39.2321 24.3871 39.0512 25.2473C38.8097 26.395 37.8224 26.7765 36.9307 27.367C36.7173 27.5078 36.7668 27.9063 37.0766 27.8807C37.47 27.8474 37.8053 27.7357 38.1125 27.5897C38.3182 28.368 38.7389 29.002 38.3634 29.8383C38.0682 30.498 37.4034 30.9357 36.7139 31.1602C34.8629 31.7618 33.6922 30.4553 33.5863 28.8237C33.9797 28.8408 34.3433 28.8288 34.56 28.8092C36.0338 28.6795 36.9614 27.7015 37.004 26.2986C37.0373 25.2191 36.4058 24.4383 35.5303 23.957C35.8682 23.2359 35.8904 22.3416 35.6643 21.5736C35.52 21.0846 35.2657 20.6041 34.9449 20.1536C35.0037 20.163 35.0678 20.1612 35.1386 20.1416C35.2675 20.1066 35.3861 20.0563 35.5089 20.0145C36.8982 20.407 38.0007 21.3952 38.686 22.6778ZM34.9901 18.2446C34.7435 18.545 35.0123 18.9392 35.3033 18.9418C35.2751 18.9887 35.2384 19.028 35.2111 19.0775C35.1787 19.133 35.1659 19.1893 35.1642 19.2422C34.8664 19.2021 34.5643 19.1833 34.2579 19.1952C34.2178 19.197 34.1854 19.208 34.153 19.2191C34.0531 19.1227 33.9439 19.0365 33.8389 18.9444C33.9012 18.8565 33.9277 18.7515 33.8876 18.6491C33.949 18.6226 34.0028 18.58 34.048 18.5305C34.112 18.6158 34.1649 18.7054 34.2409 18.7865C34.5754 19.1483 35.0976 18.6261 34.787 18.2634C33.0351 16.2094 35.3972 12.2882 37.2088 10.3229C37.1448 13.2234 37.0057 15.7886 34.9901 18.2446ZM38.081 17.9451C38.0178 17.9033 37.9444 17.8691 37.8454 17.8691C37.6901 17.8691 37.5246 17.8615 37.359 17.8529C38.0776 17.3529 38.919 17.0149 39.7988 16.8425C39.2407 17.2359 38.6723 17.6089 38.081 17.9451ZM36.7472 17.0175C36.806 16.9014 36.8786 16.7871 36.9332 16.6727C37.0527 16.6454 37.1593 16.5686 37.202 16.4176C37.7157 14.5948 38.7509 13.1108 40.1256 11.771C41.7308 10.2085 43.5015 9.71018 45.5538 9.00786C42.4775 11.2488 40.4422 15.7741 36.7472 17.0175ZM95.8328 40.7963C95.7287 42.0115 95.1834 43.1046 94.4393 44.1193C94.1338 44.5357 93.7745 44.8532 93.3956 45.1365C93.9076 44.5835 94.3582 43.9503 94.3352 43.3111C94.3224 42.9877 93.958 42.8785 93.7156 43.0654C93.6098 43.1473 93.5202 43.2386 93.4238 43.3256C94.0143 42.2794 94.8096 41.3535 95.8328 40.7963ZM95.2235 32.5776C95.512 32.2303 95.4565 33.4446 95.4983 33.7919C95.6212 34.8108 95.4155 35.8519 95.1868 36.8418C94.982 37.731 94.6441 38.5733 94.2677 39.4036C94.4128 38.4538 94.2387 37.3513 94.0758 36.5909C93.9785 36.1335 93.277 36.3341 93.3538 36.7821C93.4673 37.4477 93.498 38.1125 93.4647 38.7849C93.4349 39.3959 93.1626 39.995 93.1976 40.5975C93.1276 40.4686 93.0637 40.3355 93.0107 40.2015C93.6687 39.1408 93.4665 38.1312 92.8367 37.3078C93.1874 35.555 94.2029 33.803 95.2235 32.5776ZM92.5576 43.0142C92.0806 43.8394 91.7529 44.7166 91.5925 45.5666C90.798 44.6654 89.9173 43.8112 89.2961 42.8947C89.2466 42.8136 89.1979 42.7317 89.1476 42.6523C89.1382 42.6378 89.1246 42.6302 89.1143 42.6174C88.4777 41.566 88.2217 40.4191 88.8643 39.0145C88.9991 39.1271 89.1348 39.2389 89.2841 39.3464C90.1836 39.995 91.1555 40.5582 91.9586 41.3211C92.5457 41.8809 92.654 42.4458 92.5576 43.0142ZM92.0029 37.5629C91.8604 38.5776 91.9415 39.5982 92.3477 40.5215C90.629 38.8967 87.7063 38.0553 88.0442 35.462C88.214 35.5541 88.3856 35.6463 88.5656 35.7299C89.4907 36.1634 90.4567 36.5056 91.339 37.0202C91.63 37.1909 91.8391 37.3726 92.0029 37.5629ZM91.0694 35.9134C90.1204 35.4398 89.0341 35.0677 88.15 34.542C88.0971 34.4618 88.0067 34.4115 87.9077 34.3901C87.0475 33.8201 86.4322 33.0674 86.4314 31.8523C87.4008 32.2354 88.3949 32.5588 89.3208 33.041C90.6401 33.7305 90.868 34.6743 91.0694 35.9134ZM83.6776 27.4839C85.095 28.0121 86.6055 28.2801 88.0357 28.7759C90.1631 29.5124 90.2024 31.1883 90.6555 33.0085C90.1563 32.5716 89.5589 32.2141 88.9616 31.9478C86.5764 30.8845 83.57 30.4109 83.5607 27.4378C83.5999 27.4523 83.6383 27.4694 83.6776 27.4839ZM88.3642 17.1899C89.1092 16.6292 89.9318 16.2017 90.7724 15.996C91.479 15.8236 92.3366 15.9866 91.6164 16.729C91.0489 17.3144 90.3397 17.7625 89.634 18.1798C89.4411 18.2941 89.2389 18.3914 89.0401 18.4972C89.5128 18.1285 89.9754 17.7454 90.4183 17.3324C90.7468 17.0252 90.3073 16.4491 89.919 16.7128C89.3157 17.1216 88.7593 17.5841 88.1594 17.9963C88.0519 18.0714 88.0092 18.1687 88.0058 18.2634C87.8573 18.3718 87.714 18.4878 87.5638 18.5911C87.929 18.2088 88.191 17.7258 88.3642 17.1899ZM85.3689 20.8747C86.1378 20.605 86.9127 20.3234 87.6713 20.0111C90.0052 20.5137 91.84 23.3272 92.8256 25.4691C90.1213 25.377 87.5305 23.91 85.8101 21.9388C85.8093 21.92 85.8212 21.9004 85.8144 21.8816C85.7922 21.8099 85.7555 21.757 85.7299 21.6896C86.0755 22.0941 86.4476 22.4619 86.9161 22.7512C87.3982 23.0464 88.1551 23.3818 88.7081 23.1378C88.8549 23.0721 88.8472 22.8826 88.7559 22.7819C88.418 22.4099 87.7523 22.3493 87.3052 22.1137C86.7863 21.8407 86.3827 21.4251 86.0175 20.9873C85.8536 20.7902 85.5661 20.9003 85.456 21.0854C85.4116 21.0103 85.3536 20.9532 85.3058 20.8832C85.328 20.8798 85.3467 20.8823 85.3689 20.8747ZM84.6973 21.5497C84.7025 21.5761 84.7042 21.6026 84.7161 21.6299C84.9636 22.1914 85.3297 22.7153 85.7768 23.1949C82.4487 22.0668 77.5667 22.048 77.6017 19.6416C80.2087 19.8472 82.7551 19.7713 84.6973 21.5497ZM73.2888 16.3058C76.8089 16.3578 80.201 15.1316 81.737 19.0655C81.743 19.0809 81.7558 19.0852 81.7652 19.098C80.4596 18.9299 79.0114 18.9555 77.6512 18.8735C77.5394 18.6448 77.1699 18.5894 77.0069 18.8257C76.8669 18.8129 76.7321 18.7933 76.5956 18.7771C76.5956 18.7745 76.5956 18.7728 76.5956 18.7711C76.5802 18.4306 76.1126 18.4119 76.0178 18.6901C74.4895 18.4178 73.235 17.8034 72.694 16.2802C72.8903 16.2913 73.0891 16.3032 73.2888 16.3058ZM68.6397 10.5004C70.9037 9.84245 72.1001 10.9057 73.3903 12.4606C69.9496 12.6679 66.7632 13.9684 63.4556 12.4657C63.8157 12.3522 64.1766 12.2293 64.5342 12.0902C65.9055 11.556 67.2189 10.9143 68.6397 10.5004ZM65.5625 9.27326C65.845 9.29118 66.1266 9.30995 66.409 9.36201C66.9893 9.46953 67.4715 9.74175 67.9766 9.99008C65.0402 10.9322 61.7761 12.8292 59.4507 11.5731C61.329 10.5832 62.7746 9.50879 65.2681 9.51305C65.4473 9.51391 65.5403 9.40212 65.5625 9.27326ZM59.9687 8.50438C60.1812 8.44209 60.2162 8.25094 60.1428 8.10245C61.0115 8.05723 61.8726 8.14342 62.7592 8.34907C63.139 8.43782 63.4991 8.58033 63.8566 8.72114C62.7686 8.78684 61.713 9.23486 60.7402 9.75967C58.4668 10.9868 56.7635 12.3983 54.1343 11.7267C55.9929 10.5243 57.657 9.1811 59.9687 8.50438ZM49.4033 10.2128C50.6381 9.07528 51.9514 8.80989 53.5575 8.49073C53.6582 8.4711 53.7102 8.39857 53.7401 8.3175C54.0908 8.31579 54.4424 8.32774 54.7991 8.35675C55.5262 8.41393 56.2344 8.70236 56.9632 8.67761C53.8092 10.3997 51.0716 14.2586 47.5464 12.1056C48.1557 11.4672 48.7505 10.8153 49.4033 10.2128ZM85.6565 62.4229C85.5345 62.5757 85.4116 62.7276 85.2904 62.8812C84.1358 62.2736 83.0188 61.7428 82.6194 60.4312C82.6791 60.4303 82.7397 60.4372 82.7986 60.4355C83.134 60.997 83.5829 61.4919 84.1623 61.8196C84.3287 61.9357 84.5113 62.0338 84.7118 62.1089C85.0156 62.2224 85.363 62.2761 85.7111 62.2907C85.6932 62.3359 85.6744 62.3794 85.6565 62.4229ZM86.0124 60.1521C86.009 60.1539 86.0064 60.1539 86.003 60.1547C85.9961 60.1513 85.9919 60.1453 85.985 60.1411C85.8229 60.0634 85.6616 59.9926 85.5012 59.926C85.4893 59.9175 85.4833 59.9064 85.4705 59.8996C84.9747 59.6248 84.6982 59.3901 84.1205 59.612C84.0915 59.6231 84.0829 59.6461 84.0582 59.6606C83.9566 59.6598 83.8568 59.6546 83.7561 59.6529C83.6963 59.6376 83.6358 59.6273 83.5777 59.6103C83.4694 59.5787 83.3772 59.6009 83.2944 59.6393C59.8783 58.7552 49.3845 32.8072 42.7693 15.0095C42.7616 14.9873 42.7471 14.972 42.736 14.9532C43.8249 14.8482 44.7764 14.4335 45.6613 13.8089C45.7637 14.4088 46.0454 14.9242 46.4891 15.4038C46.5693 15.49 46.6913 15.3807 46.6461 15.2877C46.3637 14.71 46.0633 14.1784 45.995 13.546C46.1554 13.4214 46.3193 13.3054 46.4763 13.1663C46.9089 14.9652 47.5174 16.764 48.4126 18.3922C48.5372 18.6192 48.8879 18.4597 48.8299 18.2241C48.3665 16.3527 47.5797 14.5487 46.9525 12.7183C46.9849 12.685 47.0173 12.65 47.0498 12.6176C47.0574 12.6244 47.06 12.6338 47.0685 12.6398C48.6677 13.8541 50.2635 13.7628 52.0453 12.9197C52.4967 12.7055 52.92 12.4682 53.3339 12.2225C53.7486 12.4034 54.1531 12.5356 54.5516 12.6227C54.474 12.6756 54.4142 12.7601 54.4074 12.883C53.9321 21.0948 59.7725 30.3751 64.5257 36.8171C64.7211 37.0825 65.1751 36.8384 64.9848 36.5602C60.1642 29.4944 55.7096 21.4302 55.1123 12.883C55.1063 12.8079 55.079 12.7507 55.0431 12.7012C56.0774 12.8275 57.0921 12.6483 58.1827 12.1875C58.3132 12.1329 58.4318 12.0731 58.5539 12.0151C58.5667 13.6749 58.8722 15.6743 60.0046 16.9415C60.142 17.096 60.3621 16.927 60.3288 16.7615C60.0302 15.2502 59.4499 13.8729 59.2383 12.3556C59.5361 12.5177 59.8416 12.6287 60.1505 12.708C60.0959 12.7737 60.0669 12.8599 60.0882 12.9657C60.2973 14.0213 60.4859 15.1444 60.9211 16.1394C61.0226 16.3706 61.4519 16.3758 61.4246 16.0737C61.3264 14.9788 61.0448 13.8583 60.7129 12.8079C61.3307 12.8795 61.9613 12.8335 62.5988 12.6944C62.6099 12.7891 62.6611 12.8804 62.7746 12.9453C64.483 13.9223 66.2648 14.1664 68.1738 14.0196C68.9922 15.4055 70.3575 15.9934 71.8901 16.2059C72.2195 18.277 73.957 19.1236 76.0119 19.4581C76.0818 21.2553 76.4454 23.0311 77.0939 24.7207C77.198 24.9904 77.5735 24.8803 77.5343 24.6047C77.2885 22.9074 76.8473 21.2544 76.6724 19.5528C76.7193 19.5571 76.7662 19.5648 76.8123 19.5707C76.7304 20.2986 76.9744 20.8567 77.4071 21.2945C77.3491 21.3355 77.3055 21.3901 77.3158 21.4729C77.5394 23.3178 77.8176 25.284 78.6965 26.9599C78.7742 27.1084 79.0473 27.0427 79.0319 26.8721C78.8732 25.1124 78.2459 23.4083 77.8782 21.6785C78.6018 22.1649 79.5874 22.4619 80.5193 22.6787C80.7011 22.7205 80.8828 22.7572 81.0646 22.7964C79.578 24.8249 80.9852 26.2576 82.8532 27.14C82.5972 29.293 83.7424 30.6115 85.6275 31.5049C85.6258 31.516 85.619 31.5228 85.6173 31.5348C85.4014 33.1297 86.1668 34.2314 87.3479 35.0438C87.0031 36.3844 87.3837 37.4998 88.255 38.4496C88.2524 38.453 88.2481 38.4555 88.2464 38.459C87.3863 40.0249 87.0364 41.6053 88.2891 43.1123C88.4658 43.3256 88.6526 43.5279 88.8395 43.7318C89.7415 46.751 86.5969 49.1831 87.3436 52.4327C87.4622 52.9481 87.8514 53.4354 88.2866 53.8467C89.2492 55.2812 89.2116 56.359 89.058 57.6458C89.0307 57.6885 89.0094 57.7354 89.0017 57.7943C88.9172 58.3951 88.6731 59.0035 88.3813 59.6197C85.3758 51.2892 85.8152 43.1644 84.9815 34.4797C84.9542 34.1964 84.5139 34.1853 84.513 34.4797C84.4968 42.6916 84.0735 51.5017 87.3829 59.2331C87.0125 59.0436 86.6609 58.8303 86.2991 58.6281C81.2523 53.7733 79.0387 47.2357 76.5862 40.8688C73.5303 32.936 71.5326 24.6815 69.3582 16.4986C69.2772 16.1931 68.7942 16.3229 68.8676 16.6284C71.0376 25.7166 73.3955 34.6222 76.7099 43.3973C78.3953 47.8587 80.166 52.8602 83.2876 56.7216C73.5022 49.6226 68.5518 37.4076 63.0895 27.2911C63.0127 27.1494 62.7566 27.2492 62.8189 27.3994C65.8065 34.6692 69.2797 41.5114 73.9621 47.9278C76.9198 51.9804 80.7872 57.488 85.8997 59.3688C86.1549 59.5787 86.4288 59.7716 86.6985 59.9695C86.4646 60.0096 86.2334 60.0899 86.0124 60.1521ZM87.3615 61.2137C87.3129 61.1557 87.2514 61.1045 87.1661 61.078C86.9408 61.0081 86.7104 60.9441 86.48 60.8801C86.7778 60.7777 87.0586 60.6514 87.2745 60.4594C87.3154 60.4235 87.3291 60.3817 87.3436 60.3416C87.5988 60.3057 87.7967 59.9576 87.5595 59.7605C87.5339 59.74 87.5117 59.7178 87.487 59.6965C87.5143 59.67 87.5365 59.6393 87.5544 59.6069C87.6841 59.8987 87.8146 60.1914 87.9563 60.4798C87.8155 60.7606 87.6747 61.0414 87.5459 61.3247C87.5074 61.2641 87.44 61.2299 87.3615 61.2137ZM91.0472 72.2579C91.0028 72.5327 90.955 72.8109 90.9064 73.0993C90.8671 73.066 90.8441 73.0268 90.8023 72.9952C90.4865 72.7682 90.1708 72.5924 89.8217 72.4175C89.6383 72.3253 89.4872 72.2169 89.3635 72.0957C89.3865 72.0539 89.4164 72.0061 89.436 71.9677C89.6101 71.6341 89.2526 71.3422 88.9701 71.4335C88.7022 70.6169 88.9744 69.5843 89.1237 68.7984C89.2312 68.2292 89.2406 67.7325 89.1647 67.2529C89.8977 67.98 90.5812 68.6584 90.8953 69.5596C90.8159 69.6833 90.7357 69.8079 90.6563 69.9282C90.4822 70.1911 90.8296 70.401 91.0608 70.2619C91.1163 70.7508 91.0711 71.3047 90.8893 71.9566C90.8552 72.0821 90.9371 72.2007 91.0472 72.2579ZM90.6026 63.1082C93.0142 64.4488 92.5619 66.5489 91.5361 68.4724C91.2912 68.0884 90.984 67.7172 90.6316 67.3579C89.1348 65.8355 87.4699 64.8951 88.0374 62.434C88.2063 61.7001 88.5255 61.0541 88.8412 60.4116C88.8532 60.9662 88.9308 61.5337 89.2287 61.9348C89.6272 62.475 90.0069 62.7779 90.6026 63.1082ZM92.6267 52.6375C92.5883 53.4089 92.4689 54.1556 92.3093 54.9117C92.2427 55.2215 92.1531 55.5252 92.0729 55.8316C91.9227 55.9007 91.8493 56.12 91.9816 56.2455C91.9731 56.2958 91.9551 56.3436 91.9483 56.3948C91.3834 55.3989 90.4669 54.5174 89.035 53.3432C86.3059 51.1023 89.1612 48.1906 89.9463 46.0282C90.0641 45.7065 90.1042 45.3882 90.0931 45.0759C90.5104 45.5222 90.92 45.9762 91.2853 46.4686C91.3237 46.5198 91.3518 46.571 91.3885 46.6222C91.2946 46.8082 91.4354 47.0489 91.665 47.0531C91.6693 47.0531 91.6736 47.0523 91.6778 47.0523C92.7983 48.8238 93.0108 50.5314 92.8469 52.3772C92.7343 52.4131 92.6344 52.4881 92.6267 52.6375ZM97.3987 64.977C95.4411 63.4785 94.3429 61.1309 93.6533 58.7671C93.7788 58.9139 93.9034 59.0598 94.028 59.2066C94.668 59.9627 95.1245 60.9654 95.8669 61.6216C96.0018 61.742 96.245 61.6643 96.2398 61.474C96.2151 60.5993 95.5529 59.798 95.011 59.1358C94.5749 58.6042 94.109 58.0973 93.638 57.5955C96.0214 59.5437 98.6898 62.0782 97.3987 64.977ZM93.5629 54.7163C94.0322 54.6514 94.4956 54.5413 94.9607 54.4457C94.7166 54.6514 94.4819 54.869 94.2336 55.0696C93.8675 55.3648 93.2761 55.6788 92.9374 56.0714C92.9203 56.0543 92.9118 56.0253 92.8896 56.0142C93.0509 55.5756 93.1499 55.0951 93.2036 54.6087C93.2898 54.6872 93.4093 54.7384 93.5629 54.7163ZM93.2113 46.4976C93.225 46.489 93.2386 46.4839 93.2514 46.4754C94.2251 47.0019 95.1783 47.4977 96.0137 48.2845C97.0301 49.2428 97.6453 50.4793 97.9901 51.785C95.5802 51.0093 93.795 48.8571 93.2113 46.4976Z" fill="#D33756"/>
<path fill-rule="evenodd" clip-rule="evenodd" d="M79.3042 41.0523C78.0676 35.4372 75.9564 30.0252 74.9682 24.3572C74.9264 24.1174 74.4912 24.1737 74.5236 24.4144C75.3045 30.1669 77.3542 35.5754 78.9099 41.1555C78.979 41.4013 79.3579 41.2963 79.3042 41.0523Z" fill="#D33756"/>
<path fill-rule="evenodd" clip-rule="evenodd" d="M70.0119 45.2012C65.0479 38.5869 59.7144 32.5468 55.6764 25.3137C55.5705 25.1252 55.2923 25.2907 55.3819 25.4793C58.8551 32.7217 63.6954 39.8678 69.7738 45.3787C69.8942 45.4888 70.1169 45.3403 70.0119 45.2012Z" fill="#D33756"/>
<path fill-rule="evenodd" clip-rule="evenodd" d="M60.1148 37.295C59.933 37.0202 59.4799 37.2694 59.6582 37.5501C62.779 42.4544 67.3222 47.0505 72.6037 49.853C72.7888 49.9511 73.0082 49.7036 72.8366 49.5628C68.1534 45.727 63.4685 42.3707 60.1148 37.295Z" fill="#D33756"/>
<path fill-rule="evenodd" clip-rule="evenodd" d="M82.8696 45.2755C82.6724 43.2446 81.7226 41.339 81.3796 39.3259C81.3378 39.0819 80.8966 39.1373 80.9273 39.3848C81.1825 41.4073 81.6902 43.4886 82.5453 45.3592C82.6135 45.5094 82.8849 45.436 82.8696 45.2755Z" fill="#D33756"/>
<path fill-rule="evenodd" clip-rule="evenodd" d="M83.8977 81.6439C84.5027 78.3064 85.1188 74.9229 85.2835 71.5359C85.3014 71.1809 84.7604 71.198 84.7186 71.5359C84.3133 74.8751 83.5017 78.2237 83.5358 81.5978C83.5384 81.7907 83.8618 81.8444 83.8977 81.6439Z" fill="#D33756"/>
<path fill-rule="evenodd" clip-rule="evenodd" d="M79.2196 74.154C78.2809 75.4341 77.7151 76.8251 77.6912 78.4072C77.6895 78.5582 77.9071 78.5727 77.9549 78.4405C78.4575 77.0691 78.862 75.6363 79.5072 74.3145C79.5976 74.1293 79.3433 73.9859 79.2196 74.154Z" fill="#D33756"/>
<path fill-rule="evenodd" clip-rule="evenodd" d="M78.9356 76.6442C78.6429 77.6588 78.3595 78.8245 78.4688 79.881C78.4799 79.9893 78.6411 80.0576 78.7034 79.9416C79.23 78.9602 79.0661 77.7919 79.2786 76.7355C79.3221 76.5213 78.997 76.4291 78.9356 76.6442Z" fill="#D33756"/>
<path fill-rule="evenodd" clip-rule="evenodd" d="M47.939 13.6586C48.5492 16.2033 49.4665 18.7634 50.7372 21.0794C50.8472 21.28 51.1783 21.1409 51.1143 20.9267C50.3719 18.4229 49.2361 16.002 48.2547 13.575C48.1797 13.389 47.8904 13.4581 47.939 13.6586Z" fill="#D33756"/>
<path fill-rule="evenodd" clip-rule="evenodd" d="M82.0742 32.023C82.0802 31.3574 81.6894 30.7387 81.6697 30.0602C81.6612 29.7445 81.1483 29.7437 81.1568 30.0602C81.1765 30.7566 81.3651 31.5656 81.8216 32.1245C81.9052 32.2261 82.0734 32.1365 82.0742 32.023Z" fill="#D33756"/>
<path fill-rule="evenodd" clip-rule="evenodd" d="M25.2011 36.5986C24.422 36.5576 23.8008 36.9433 23.2631 37.4477C22.9619 37.7301 23.4142 38.1551 23.7222 37.8863C24.1668 37.4997 24.6541 37.1968 25.2771 37.2958C25.7396 37.37 26.0826 37.7156 26.5102 37.8684C26.7107 37.9409 26.8242 37.7088 26.7568 37.5603C26.5085 37.021 25.8155 36.631 25.2011 36.5986Z" fill="#D33756"/>
</svg>
