<svg width="90" height="64" viewBox="0 0 90 64" fill="none" xmlns="http://www.w3.org/2000/svg">
<path d="M70.4352 55.9946C70.3548 55.9177 68.3011 55.6799 68.2201 55.7562C68.1874 55.787 68.1934 56.3213 67.9738 56.6166C66.1652 59.0532 61.9255 59.1325 59.1954 58.957C58.3507 58.9025 57.0129 58.2957 56.2813 58.5056C55.9709 58.5946 54.3536 60.0244 53.4726 60.4074C51.2465 61.3749 49.2528 61.3991 46.9111 60.8636C44.5217 60.3172 42.0379 58.0948 39.813 59.5954C36.8839 61.5709 36.6231 63.6276 32.0723 62.8555C27.6123 62.0986 27.599 56.9996 24.3013 55.8015C20.9655 54.5896 17.2819 57.9653 14.1125 55.8602C12.0601 54.497 12.7123 51.5884 11.4961 49.8295C10.2358 48.007 5.67712 47.8835 4.876 45.3326C4.52808 44.2241 4.58073 42.5244 5.69769 41.9127C3.84617 47.7843 10.9691 46.3073 12.742 50.3129C13.6738 52.418 13.1667 54.9841 16.1873 55.2667C19.2623 55.5541 21.4115 53.636 24.6135 54.7487C28.7674 56.1918 28.3323 61.6224 33.7393 61.6962C37.3201 61.7452 38.218 58.3677 40.6771 57.9895C43.1016 57.6168 45.4644 59.6395 47.8533 59.9233C50.6051 60.2501 52.9014 59.7061 55.125 58.0857C55.3029 57.4879 54.1309 56.9572 53.884 56.3631C51.2816 55.9141 48.1945 56.1428 45.6774 55.4258C45.4221 55.3532 44.9289 55.3689 44.9864 55.0113C48.0172 55.0149 50.9379 55.119 53.9433 54.7039C56.4235 54.3615 59.0139 54.3935 61.5921 53.7025C62.1421 53.5555 64.5721 52.7786 64.75 52.4131C62.732 50.7238 60.4654 49.294 58.4572 47.5901C57.5478 46.8186 56.213 45.7634 55.5074 44.857C54.86 44.0256 53.6904 42.3689 54.4964 41.4207C56.8011 44.3197 59.7188 47.0794 62.775 49.202C62.9747 49.3406 63.2548 49.8664 63.5144 49.4507C62.058 47.8714 60.3813 46.4731 58.9412 44.8818C58.3059 44.1799 54.7378 39.9988 54.6634 39.5172C54.6168 39.2177 54.7239 38.6973 54.9913 38.7058C55.4978 38.7215 61.341 44.9653 62.1596 45.8626C64.8389 48.7984 67.3354 51.9037 69.8168 55.0065C70.4032 52.0077 71.6073 48.6962 74.8263 47.6645C76.0836 47.2615 77.2006 47.437 78.4743 47.1127C78.9686 46.9868 83.1267 45.1444 82.7872 44.6361L82.0466 44.14C85.8507 43.4726 88.2492 37.2609 88.2208 33.8839C88.1518 25.713 73.2301 20.1899 66.8562 18.1889C58.7077 15.6313 50.2245 13.6115 41.7704 12.3875C49.0882 12.1975 56.651 14.0248 63.7177 15.8915C70.4328 17.6655 77.5697 19.9327 83.1594 24.1223C83.3929 23.6013 82.6075 22.6756 82.2874 22.2762C79.2796 18.5266 77.4299 20.3321 74.6532 18.7922C74.0463 18.4557 73.3941 17.4429 72.7745 16.9649C70.3741 15.1139 68.7967 15.5357 66.1126 15.2265C62.6594 14.8283 62.3055 11.9209 57.9598 12.2695C56.8664 12.3572 55.7573 13.03 54.6858 12.572C53.2354 11.9518 52.9008 8.85808 51.0462 7.80948C49.6007 6.99203 48.4045 7.22194 47.2119 8.31108C47.3444 6.80989 49.231 6.39602 50.5295 6.59812C53.2687 7.02469 54.4026 11.2753 55.0343 11.4883C55.7821 11.74 58.0826 10.9928 59.1954 11.0103C62.7151 11.066 63.083 13.139 65.2383 13.8778C67.4964 14.6517 69.6716 14.1168 72.1718 15.5919C73.3106 16.2636 74.275 17.835 75.1947 18.2512C76.78 18.9695 78.5021 18.5447 80.4819 19.635C83.0135 21.0297 83.1412 22.7911 84.7537 24.2584C86.2119 25.5854 88.0865 25.5267 88.9088 28.0099C89.6451 30.2341 89.1145 33.7145 89.9495 36.1088C90.3513 39.1197 88.2855 41.615 86.2507 43.5216C85.484 44.2404 83.5841 45.8904 82.7733 46.4677C82.3159 46.7932 79.8278 47.797 79.829 47.9658C84.7985 52.7968 77.1455 57.2217 72.6722 57.8606C69.0508 58.3774 70.9417 56.4792 70.4352 55.9946ZM87.3955 26.9268C86.7807 26.2624 85.6244 25.8794 84.8862 25.3596C84.0355 25.0849 86.6313 27.5785 86.7353 27.7104L88.4677 30.2983C88.5844 29.1765 88.1633 27.7563 87.3955 26.9268ZM87.9782 39.6884C89.4582 38.7536 89.2222 36.7659 89.2089 35.2423L87.9782 39.6884ZM71.4233 56.9833C74.4814 56.3044 80.6943 54.4922 80.0541 50.4509C79.9047 49.507 79.3147 49.055 78.4047 48.8898C74.3888 48.1607 71.7942 51.1703 70.9296 54.7602C72.0889 53.6372 73.0486 52.5438 74.5764 51.8625C74.9104 51.7137 76.8557 50.8732 76.6088 51.9158C74.4396 53.0224 71.7634 54.2774 71.4233 56.9833ZM57.126 56.9494C57.4969 57.5569 62.8972 57.5629 63.8266 57.4189C65.4948 57.1599 69.19 55.2975 66.3213 53.8042C65.1257 53.1822 64.35 54.3343 63.1889 54.8044C61.278 55.5783 59.1542 56.0309 57.0903 55.997C57.1327 56.282 56.9953 56.7352 57.126 56.9494Z" fill="#D33756"/>
<path d="M76.3639 41.4159C81.4411 36.3079 74.7532 28.949 70.1056 26.3042C68.2813 25.2659 64.9395 23.8875 62.884 23.6382C62.2814 23.565 62.5621 24.9948 62.4181 25.6198C62.2705 26.2612 61.5287 27.2959 61.5353 27.7176C61.5456 28.3657 63.5726 28.8158 64.2418 29.2031C65.7666 30.0847 70.4916 36.6249 71.5772 38.4214C72.4739 39.905 73.0989 41.1454 70.6822 41.2925C71.0622 42.1674 72.3843 42.8723 72.2881 43.887C71.4101 43.2106 70.563 41.8861 69.682 41.3046C69.1859 40.9772 68.6111 40.9246 68.13 40.6323C65.3987 38.9738 65.5415 35.9551 63.0226 34.1272C63.3179 33.6794 64.7531 35.5007 64.4899 34.3916C64.2636 33.438 63.543 31.7837 62.7806 31.1563C60.9103 29.6176 59.0067 31.4812 58.8222 31.2857C58.0374 30.4526 61.286 29.0427 62.0327 29.5552C60.5351 27.4441 60.0856 29.8947 58.3278 30.0508L59.3135 27.8296C54.9787 28.8146 57.8783 22.0529 59.7467 23.9383C61.1487 25.3536 58.9123 25.1442 58.8161 25.2108C58.5934 25.3645 58.2867 26.4107 58.3151 26.6999C58.329 26.8439 59.2699 27.069 59.4732 27.0781C60.7929 27.1392 61.6709 23.2316 59.688 23.113C57.5527 22.9853 55.8228 25.448 55.4737 27.3195C55.0538 29.571 55.8398 28.4201 56.7153 29.5637C58.4682 31.8533 56.0431 37.8484 53.2809 37.6977C51.6526 37.6088 52.0683 36.4434 50.4631 38.3712C48.3616 40.8937 47.0359 47.8418 45.1965 51.3881C43.9349 53.8199 42.5735 54.4601 39.8452 53.3516C37.9798 52.5935 40.2415 52.0822 41.1613 51.3065C43.9313 48.9703 42.3018 47.1169 42.3175 44.2592C42.3436 39.5674 45.519 36.4349 49.6722 34.872C48.0077 32.2823 48.2993 28.9853 51.8517 28.6216C52.7091 28.5339 54.1583 28.8322 52.962 29.505C52.101 29.9897 50.2604 30.0629 50.2047 31.647C50.1871 32.1365 50.9114 34.1314 51.1988 34.5858C51.6944 35.3688 51.9879 35.2054 52.5615 35.5745C52.7091 35.6695 52.7515 36.0053 52.8924 36.0949C54.8807 37.3589 57.3664 31.0201 55.4828 30.3019C54.9261 30.0895 55.2395 30.7745 54.9926 30.7969C54.2278 28.9919 53.8146 33.3733 52.6504 31.9059C53.3027 31.4007 53.0655 30.6183 53.3335 29.8741C53.5284 29.3332 54.3537 28.722 54.37 28.6434C54.4844 28.0843 54.3089 27.3745 54.4009 26.7416C54.7294 24.4835 55.5723 23.7054 52.6674 25.7505C51.0784 26.8693 49.7896 28.3354 48.686 29.9225C48.0307 30.8652 47.8146 32.053 46.8375 32.7688C46.2076 30.6347 47.6827 28.7535 48.9377 27.2094C48.8632 26.9316 48.6134 27.0938 48.4409 27.2063C47.52 27.809 46.351 29.5952 45.9298 30.6256C45.5607 31.5284 45.1451 34.6124 44.9811 34.7462C44.9157 34.7994 44.3972 34.8291 44.2235 34.5997C43.9089 34.1834 44.2229 31.6409 44.353 31.0256C45.1626 27.2051 50.555 22.5872 54.4856 23.1469C54.9557 23.2141 55.3956 23.637 55.7181 23.6431C55.8482 23.6455 56.057 22.9932 56.3359 22.7518C57.4958 21.7486 59.0648 21.1018 60.6235 21.4575C61.7078 21.705 61.8264 22.7621 62.4587 23.0791C63.2211 23.4609 65.4096 23.6697 66.48 23.9994C70.4118 25.2108 73.5842 27.1374 76.2435 30.2959C78.8901 33.4416 81.5802 39.4391 76.3639 41.4159ZM71.4204 40.429C71.9299 39.8845 68.8725 36.8845 68.464 36.346C67.2678 34.768 66.3033 33.0247 65.0006 31.5351C66.2368 35.0669 67.0675 39.7562 71.4204 40.429ZM40.5374 52.781C42.0132 52.8542 42.8712 52.9958 43.7135 51.6356C44.5678 50.2548 45.8143 46.4925 46.4762 44.7626C47.6664 41.6501 47.8437 38.7844 50.9078 36.6001C50.1242 35.4916 49.792 35.8329 48.7658 36.4295C46.2862 37.8702 44.5321 40.2118 44.0263 43.0545C43.6814 44.9925 44.0541 47.6518 43.5828 49.2825C43.1386 50.8212 41.5122 51.6562 40.5374 52.781Z" fill="#D33756"/>
<path d="M51.9031 22.3912C51.0342 22.2115 50.1689 21.5229 49.4537 21.0134C43.2801 16.6175 38.1382 11.2402 32.3876 6.45348C29.4929 4.04408 25.9163 0.89164 21.8665 1.3757C20.9057 1.49066 21.1768 2.02495 20.7163 2.21918C20.1409 2.46182 19.4214 2.316 18.7867 2.49631C15.7123 3.37125 14.7103 7.1935 14.389 9.995C19.1643 12.0002 21.7074 16.5219 25.3354 19.9297C28.6367 23.0301 33.1863 26.7876 36.8984 29.3683C37.2433 29.6079 41.8582 32.2756 41.5254 32.5213C36.8409 31.4098 32.5116 28.1339 28.8073 25.1055C26.3417 23.09 23.9099 20.9178 21.7528 18.5707C19.9115 16.5673 16.7936 11.9282 14.3376 10.9135C13.9122 10.7374 13.1571 10.8227 13.1117 10.781C12.7033 10.401 13.9976 5.32865 14.3763 4.51059C15.4267 2.24156 18.9319 0.880748 21.2596 0.275069C28.8237 -1.69142 35.4148 7.37622 40.2862 11.8967C44.1121 15.4455 48.2889 18.6433 51.9031 22.3912Z" fill="#D33756"/>
<path d="M20.2763 17.2087C20.6805 17.6359 20.3731 17.588 19.9786 17.6425C18.6142 17.8295 17.9704 17.7913 16.5751 18.3214C11.6092 20.2092 4.98306 24.4248 4.46814 30.1809C3.39595 42.1547 15.1362 49.6836 25.4189 51.966C27.2377 52.3695 29.1316 52.4996 30.9044 52.9068C31.1779 52.9698 31.7031 52.9074 31.6408 53.2753C23.8287 53.524 15.4986 50.3558 9.53623 45.364C1.97885 39.0373 -0.169761 27.5536 8.73149 21.3486C10.413 20.1765 18.5984 15.4364 20.2763 17.2087Z" fill="#D33756"/>
<path d="M28.0602 45.6181C18.5448 44.5483 9.46929 35.8304 16.824 26.4754C17.9881 24.9947 21.1787 22.2217 22.7477 24.3673C19.712 23.3017 16.8258 27.6189 15.9569 30.0556C13.5693 36.7489 18.3167 40.7436 23.9185 43.0889L32.3841 45.6181C30.9997 45.5074 29.4162 45.7712 28.0602 45.6181Z" fill="#D33756"/>
<path d="M11.875 18.9367L8.67652 20.0579C7.46455 20.8838 6.97627 22.5599 5.82481 23.3834C4.58259 24.2717 3.01242 24.0811 2.19134 25.6797C1.30853 27.3975 1.95173 29.5636 1.74782 31.4127C1.64798 32.3143 1.13971 33.0688 1.02656 33.9032C0.653831 36.64 1.43378 38.5762 4.22015 39.3174C2.09815 39.6799 0.280511 37.5494 0.0396911 35.5914C-0.155143 34.0079 0.425728 33.0785 0.519515 31.6681C0.676229 29.3107 -0.236829 27.5512 0.822052 25.0504C1.76294 22.8286 3.52553 23.1946 5.0842 22.1472C5.88774 21.6075 6.37783 20.5365 7.04826 19.9115C8.51677 18.5428 9.97078 18.4472 11.875 18.9367Z" fill="#D33756"/>
</svg>
