<svg width="145" height="70" viewBox="0 0 145 70" fill="none" xmlns="http://www.w3.org/2000/svg">
<path d="M72.6978 23.0953C73.4303 26.1161 76.3098 28.3665 76.8012 31.5615C77.6261 36.9169 73.9732 41.4352 74.6694 46.8245C75.0052 49.428 75.9951 49.8675 78.4101 50.5923C85.0642 52.5902 87.7472 47.9725 93.6349 46.8315C96.5484 46.2669 103.777 45.9232 106.593 46.4492C110.885 47.2512 114.838 53.3898 114.758 57.6194C118.397 56.8584 121.072 57.091 124.399 58.6774C126.138 59.5051 127.643 61.2201 129.568 61.3943C131.589 61.5766 135.73 60.5806 137.428 59.4455C137.881 59.1427 138.987 57.1214 139.914 57.9935C140.003 58.0765 140.281 60.12 140.269 60.4064C140.219 61.5731 139.265 62.4756 139.17 63.6213C140.9 64.1778 144.079 62.2898 144.911 64.1076C145.919 66.3113 138.093 69.0784 136.348 69.2467C131.212 69.7412 126.008 67.485 121.511 65.3188C119.148 64.1813 117.239 62.1916 114.236 62.0957C112.966 64.9049 112.19 67.7223 109.122 69.0609C108.697 69.2467 105.545 70.0721 105.243 69.9949C104.883 69.9037 103.726 67.5364 103.654 67.0197C103.358 64.8897 106.416 59.94 108.368 59.262C109.314 58.9335 109.944 60.0323 109.884 58.9299C109.741 56.3265 106.252 51.9718 103.768 51.1535C100.597 50.1083 99.3858 51.7812 96.8304 52.6522C87.8185 55.7233 72.816 61.8946 68.0082 49.7319C64.5448 40.9711 72.3176 33.0123 70.814 24.2234C64.3248 33.0368 54.8953 40.3655 49.107 49.6232C44.3905 57.167 43.5562 64.5811 32.3096 63.6365C28.5209 63.3185 25.1968 60.9536 22.7373 58.1911C19.6975 54.774 20.0883 52.6393 14.9447 50.9676C12.5788 50.1984 8.85918 49.8138 6.40087 50.106C4.58259 50.3223 2.9644 52.8287 0.98933 51.4142C-2.8321 48.6774 5.61811 46.2411 6.06508 45.6344C6.28973 45.3293 5.64499 44.4198 5.84858 44.1264C5.93166 44.0071 8.22499 43.4027 8.65909 43.3606C13.048 42.9363 21.6012 46.316 24.8223 49.3543C27.2783 51.6725 28.026 54.8114 31.9784 55.334C38.9801 56.2587 46.6312 47.637 50.0208 42.2828C51.3114 40.244 51.9772 38.0286 53.5497 36.053C55.9331 33.0567 59.9219 30.8577 62.1789 27.6055C53.5743 30.1645 40.6369 37.0209 32.7004 29.4747C28.8509 25.8145 30.4445 16.9777 34.7866 13.9288C38.0148 11.6632 50.8106 9.96344 54.8087 10.3866C57.9925 10.7233 66.9013 13.7745 69.7107 15.3855C70.5718 15.8788 72.3246 17.9667 73.0535 17.4558C73.1951 17.3576 73.848 15.652 74.9806 14.6875C79.2572 11.046 91.2527 2.2805 96.2688 0.684753C108.714 -3.27362 110.463 10.8414 107.727 19.6384C104.225 30.901 97.027 31.669 86.5923 28.9124C81.9799 27.692 76.5836 25.8005 72.6978 23.0953ZM94.2878 26.0974C92.4239 26.2692 90.3553 25.9723 88.4668 26.0974L92.4134 27.2197C97.839 27.6756 100.206 27.1145 103.039 22.4582C105.536 18.3548 106.943 13.2555 105.951 8.43901C105.212 4.84538 100.896 1.22719 97.2259 3.51735L93.3494 5.83088C102.08 4.25384 107.38 5.98636 105.112 15.8998C104.093 20.3551 102.338 24.4093 97.4997 25.5538C96.7567 25.7315 95.025 26.0296 94.2878 26.0974ZM74.192 21.2166C80.3641 22.0899 86.5058 23.5278 92.8007 23.1117C95.0706 22.962 97.4494 22.8089 99.1296 21.1804C100.933 19.4315 104.443 11.3523 102.344 9.41867C99.9123 7.17878 96.0067 8.0918 93.3331 9.38593C91.351 10.3457 87.058 13.9768 85.5568 14.3801C83.033 15.0581 82.813 12.8989 82.6469 12.9679C79.3707 15.4626 74.1019 16.1033 74.192 21.2166ZM67.0569 17.0969C62.4668 16.0647 57.5713 12.7656 52.9366 12.2536C49.8711 11.9157 40.1291 13.2262 37.5 14.7624C33.8798 16.8783 31.5654 23.3349 34.7889 26.6316C36.0117 27.8825 40.3596 29.6033 42.1253 29.8091C48.4834 30.5503 55.1445 26.5673 61.3389 25.4474L64.4278 24.2246C57.6531 25.2393 51.7513 27.8568 44.7193 27.2162C36.076 26.4294 36.9571 18.3981 44.3589 15.9875C52.444 13.3548 58.2312 15.5573 65.915 17.2992C66.2988 17.3869 67.14 17.8007 67.0569 17.0969ZM68.5617 20.4731C61.2031 19.3637 50.063 14.6688 43.2743 19.4058C40.0519 21.655 40.5012 23.3946 44.1436 24.4151C49.3094 25.8624 58.5915 23.3934 63.989 22.0911C65.3522 21.7638 67.5987 21.3932 68.5617 20.4731ZM54.6707 38.8551C58.3119 35.085 62.9629 31.3815 66.3104 27.4114C66.665 26.9905 67.2208 26.8012 67.0569 26.0974L56.1602 36.4072L54.6707 38.8551ZM71.1873 44.1065C71.3698 38.9417 75.4732 34.511 73.8164 29.1007L70.862 40.9641L71.1873 44.1065ZM45.2762 51.9905L40.7387 55.1457C38.5051 56.5766 35.6934 57.7247 33.028 57.9456C25.3875 58.5781 25.3875 52.2103 19.7618 49.1532C18.5145 48.4764 12.8807 46.171 11.6662 45.9828C10.6775 45.8297 11.8183 47.6382 10.7301 48.0532C13.5769 48.5547 16.9923 49.3426 19.4249 50.9921C20.9892 52.0536 22.0376 54.3216 23.3036 55.7466C31.2003 64.6243 41.587 64.1369 45.2762 51.9905ZM80.2026 54.6185C77.4144 54.7155 74.8695 53.0321 73.0793 51.0401L71.1943 48.2379C72.2228 52.727 74.4272 55.2545 79.2712 55.175C79.5988 55.1703 80.3138 55.1212 80.2026 54.6185ZM96.7274 48.2402C93.3495 48.481 89.9504 49.7915 87.7156 52.3599L92.4754 50.5526L96.7274 48.2402ZM110.621 52.7387C110.216 50.3328 107.781 48.1958 105.368 48.2402L110.621 52.7387ZM131.468 67.3727C133.361 67.6288 135.712 67.1869 137.664 67.3727C137.758 66.7824 136.897 66.9379 136.449 66.8724C134.756 66.6257 132.825 67.388 133.533 64.7494C127.715 67.0127 124.778 60.3866 119.47 59.8488L115.885 60.2393C119.854 60.7104 122.485 63.9872 126.143 65.5642C127.273 66.0517 130.396 67.2278 131.468 67.3727Z" fill="#D33756"/>
</svg>
