<svg width="108" height="90" viewBox="0 0 108 90" fill="none" xmlns="http://www.w3.org/2000/svg">
<path d="M85.5308 7.812L86.879 5.67625C89.0871 3.6914 91.7889 2.25834 94.8711 2.63246C96.2676 2.8021 97.8908 4.33339 97.5774 5.79323C96.9873 8.54506 90.5077 10.3692 88.004 10.7406L92.6059 13.8978C96.497 16.8541 100.548 22.7792 98.1748 27.7731C97.9676 28.2097 97.3096 28.6642 97.273 29.1124C97.2435 29.4776 97.6444 29.8053 97.6739 30.2124C97.7632 31.4589 97.2676 33.7803 97.2194 35.1428C97.1489 37.1438 97.3497 39.2367 97.2247 41.2242C97.1801 41.9349 96.7426 42.8805 96.7658 43.4912C96.789 44.0841 97.2801 44.2457 97.1917 44.9903C96.8524 47.8663 93.1666 51.1699 90.5389 52.0913C89.4746 52.4646 88.4344 52.4181 87.5415 52.694C86.4103 53.044 84.9004 54.7262 83.1504 55.2789C79.9985 56.2745 76.7306 55.361 74.4056 55.9852C73.619 56.1959 72.4279 56.9959 71.4663 57.3209C67.4635 58.6763 62.0357 59.9085 57.8892 58.7379C56.9115 58.462 55.8446 57.6352 54.8142 57.5334C53.0293 57.3566 50.6927 58.2039 48.5007 58.0013C47.1087 57.8727 46.0685 57.0486 44.8908 56.887C42.7783 56.5977 40.8604 57.7709 38.6719 57.0289C37.4407 56.612 36.4844 54.6851 35.4121 54.4396C34.3924 54.2057 32.4816 54.7084 31.1745 54.6253C30.6995 54.595 29.4209 54.4378 29.0521 54.2726C28.3066 53.9387 27.2807 52.0128 26.7878 51.7931C26.2655 51.5601 24.2717 52.2217 22.811 51.5128C21.4824 50.1708 20.2823 49.0252 18.4725 48.3163C17.7028 51.5985 18.0939 54.9021 18.2484 58.2156C18.6475 58.1334 18.6796 57.7656 18.71 57.4307C18.7966 56.4905 18.4261 55.1914 18.4609 54.0414C18.4805 53.3851 18.61 50.6172 19.5922 51.2413C20.1172 51.5753 19.152 56.962 19.8198 58.2781C19.9698 58.5727 21.1011 58.7299 21.3886 59.0102C21.4618 59.0816 21.9904 60.2942 22.0056 60.3978C22.1065 61.0754 21.0904 62.2969 21.3315 62.8728C21.444 63.1424 24.1074 65.8934 24.3083 65.9684C24.5262 66.0496 27.0717 65.8237 27.3423 65.6264C27.8244 65.2764 28.67 60.7808 28.7905 59.8745C28.8816 59.187 28.5307 55.7298 30.1593 57.2147C31.7182 58.6361 29.4718 63.9165 29.0263 65.7255C30.2772 66.288 31.5709 67.5121 32.0709 68.8041C32.3638 69.5604 31.8763 69.964 32.737 70.3881C34.7451 71.3756 34.7103 70.1935 35.7415 69.9568C36.2469 69.8408 36.63 70.1827 37.0318 70.1488C37.513 70.1068 38.1978 69.0336 39.1728 69.4702L40.1175 60.8522C40.3907 60.1156 41.48 60.2468 41.43 61.4701C41.3256 64.0166 40.5791 66.9827 40.313 69.555C40.4398 69.9738 41.4506 69.9408 41.964 70.1649C42.1943 70.2649 43.5988 71.1479 43.764 71.2926C44.1533 71.6319 44.0694 72.047 44.1604 72.1292C44.3042 72.2569 47.3587 72.5935 47.9542 72.7247C49.1212 72.9819 54.7865 74.6855 55.3704 74.3149C55.5624 74.1935 55.7294 73.6872 56.0589 73.4185C57.1285 72.5479 58.7821 72.2301 60.0973 72.6167C59.683 71.6399 59.4321 70.5649 59.2598 69.5193C59.1366 68.7738 58.5866 64.4407 58.8482 64.0567C59.5911 62.9639 60.1616 64.5835 60.2625 65.1425C60.4625 66.2496 60.8902 71.7006 61.2456 72.1533C61.3009 72.2238 62.6572 71.6721 61.8982 73.0676C62.9331 73.1212 64.2947 72.8471 65.1733 73.5167C65.3858 73.6792 65.4367 74.0765 65.6537 74.2087C66.8117 74.9132 72.0011 73.7676 73.5984 73.7417C73.5056 73.3319 73.035 73.5676 72.9663 72.9087C72.752 70.8452 76.7851 70.114 76.9396 69.8827C77.0217 69.7604 77.3744 67.5354 77.5378 66.9943C77.9191 65.7273 78.3655 64.3478 78.8316 63.1121C79.011 62.6353 80.5432 57.9031 81.3673 59.7995C81.9415 61.121 77.9315 69.3256 78.3244 69.6934C79.8521 69.5381 80.9227 70.3961 82.2129 70.7854C83.7281 69.3997 87.7496 68.3095 88.8933 66.8746C89.2684 66.405 89.2594 65.5586 89.8023 64.8585C90.2416 64.2916 91.2755 63.8746 91.3791 63.679C91.6068 63.246 91.5925 62.2853 91.8148 61.6951C92.5059 59.8602 93.8095 57.9013 93.8586 55.8378C93.8809 54.8753 93.0434 55.4012 92.6595 54.553C91.8675 52.8038 94.2551 53.403 94.4943 53.0092C94.6443 52.7637 94.5676 50.3556 95.089 50.3467C95.8497 50.3333 94.9542 52.8021 95.2006 53.0432C98.5158 53.161 103.509 53.703 102.528 58.2325C102.407 58.7879 101.747 59.5451 102.051 60.021C102.319 60.4397 106.237 62.1246 107.108 63.0746C108.11 64.1657 108.297 65.563 107.544 66.8479C107.101 67.6023 105.187 68.9631 105.001 69.4577C104.861 69.8274 105.321 70.8479 105.323 71.3827C105.339 74.7346 101.666 77.457 98.7516 78.3088C97.2908 78.7356 94.889 78.7793 93.6863 79.3186C92.555 79.8257 91.9782 81.7213 91.1505 82.6329C89.1469 84.8383 86.2987 85.4777 83.3915 85.2178C82.345 85.1241 81.0405 84.5187 80.0771 84.5928C77.8146 84.7687 75.2503 87.2187 72.3502 87.2527C70.7359 87.2723 68.9769 86.1955 67.4358 86.3589C64.4447 86.675 60.9393 89.6072 57.2758 89.7242C53.6347 89.8402 52.0365 87.3196 48.2971 88.383C44.9337 89.3393 42.7702 90.917 39.0184 89.3107C37.0442 88.4652 36.0344 86.3009 33.829 85.95C29.4352 85.2508 24.9628 87.7893 21.0475 84.1053C19.5466 82.6928 18.91 80.4749 16.5385 80.0642C12.9626 79.4445 9.97056 80.6186 8.30089 76.3766C7.8482 75.2266 7.78213 73.8605 7.38659 72.7908C6.15442 69.4559 -0.61623 70.3613 0.0453889 64.4309C0.264143 62.471 2.02221 61.0129 2.23471 59.854C2.38114 59.0558 1.62578 56.4914 1.81417 54.9503C2.34454 50.6101 7.21606 52.3235 9.25627 50.4663C9.63753 50.119 9.82502 49.6101 10.2599 49.2199C12.5081 47.2064 15.2108 47.2654 18.0198 47.8689C18.3135 46.693 17.335 46.0484 18.2403 44.8234C18.4939 44.4796 19.0618 44.3055 19.1082 44.2269C19.2832 43.9314 18.7493 42.0322 18.7002 41.4519C18.4323 38.2536 18.4296 36.8911 17.6305 33.7473C17.1484 31.8517 18.0671 29.9597 18.2457 27.9525C18.468 25.4471 17.9261 22.9614 18.685 20.5158C20.3547 15.1336 26.0628 12.2933 31.0718 10.7371C31.1236 10.3353 30.5656 10.5174 30.3147 10.5415C27.453 10.8121 22.1984 11.4826 20.3957 8.70488C18.885 6.37627 21.3859 4.82446 23.4154 4.3191C25.603 3.77534 28.228 3.99945 30.4004 4.54946C31.104 4.72803 33.6701 6.01197 33.8531 5.97626C34.0986 5.92804 35.8058 4.42088 36.2701 4.12177C38.1371 2.91817 42.9845 -0.105971 44.8997 1.97621C46.5864 3.81017 44.0979 5.16733 42.7568 6.10841L38.9505 8.03702C41.9622 7.35933 44.9578 6.44323 48.065 6.24144C53.5785 5.88429 61.0107 5.76018 66.5251 6.00304C70.9832 6.19948 75.3083 7.25844 79.6762 8.03702L77.5467 6.45752C75.8949 5.31643 73.4359 1.58155 76.0896 0.289564C79.478 -1.36225 85.2665 4.44409 85.5308 7.812ZM83.5031 5.78609C82.2057 3.2048 79.5316 1.16547 76.5271 1.73958C76.8351 5.67626 81.4272 7.00308 84.0692 9.16115C84.3406 9.25401 84.5227 9.10757 84.4013 8.82899C84.204 8.37809 82.6182 6.75575 82.1557 6.34771C81.4057 5.68609 80.3745 5.02447 79.5218 4.48161C78.9191 4.09767 76.9708 3.48336 76.9682 2.7512C76.9637 1.40743 79.3771 2.92979 79.8852 3.21819L83.5031 5.78609ZM44.1015 2.88603C44.0756 2.84317 43.3256 2.56371 43.2247 2.64049L43.6738 3.76105C42.0997 3.77802 40.7434 4.28874 39.3184 4.92001C38.6175 5.23072 35.4888 6.84234 35.1308 7.25753C34.887 7.53968 34.8397 7.64862 34.9004 8.03702C36.2067 7.71737 37.5273 7.33969 38.7844 6.86022C39.7309 6.4995 44.9774 4.32355 44.1015 2.88603ZM96.1015 5.56375C96.2881 4.54676 95.6131 4.3182 94.8024 4.05302C91.7523 3.053 87.8835 5.43787 86.6549 8.26381C88.6567 7.10754 90.93 5.60573 93.1774 5.00036C94.4881 4.64678 95.2167 4.31372 96.1015 5.56375ZM33.0978 6.46735C32.7415 6.09503 29.3807 5.42895 28.6816 5.36734C27.2289 5.24055 23.1297 5.31376 22.0047 6.22449C21.7431 6.4361 21.3359 7.6022 21.419 7.89149C21.8502 9.39062 29.4539 9.77455 30.6915 9.16472L32.4236 7.59148C30.7745 7.17898 29.0646 6.99235 27.353 7.13074C26.8521 7.17092 22.6627 8.47095 23.6592 6.92717C23.944 6.48609 26.911 6.10664 27.5566 6.09057C29.4495 6.04235 31.079 6.71467 32.7781 6.90128C33.2076 6.94861 33.2611 6.63789 33.0978 6.46735ZM93.6291 6.24057C91.447 6.72808 88.9326 7.81647 87.329 9.38614C89.8505 9.63079 91.9871 7.93256 93.6291 6.24057ZM60.0634 7.54325C59.7545 7.69683 59.1848 7.01556 58.6259 6.92627C49.448 5.45571 37.4291 8.77543 29.1209 12.7246C22.869 15.697 15.559 21.8873 22.2922 28.6338C27.4476 33.8 35.8094 36.4366 42.9979 36.3893L35.7424 34.5348C31.2674 32.6821 22.7565 29.3954 21.502 24.248C20.1252 18.597 23.2601 16.8613 27.6298 14.3853C31.8906 11.971 36.6853 9.97633 41.647 9.84061C41.6979 10.429 41.6765 10.2139 41.3095 10.2817C35.5192 11.363 31.8379 12.4532 27.0467 16.0514C24.2092 18.1818 22.3109 19.9765 23.2538 23.8453C23.6877 25.6248 25.7878 26.9043 27.2717 27.9284C33.9343 32.5276 39.9443 34.7071 48.0016 35.0964C52.1391 35.2964 56.6928 36.625 61.1152 36.8393C64.334 36.9956 67.4832 36.6518 70.6761 36.3893C68.7555 33.2741 73.002 31.641 75.5172 31.4446C77.3074 31.3044 81.3897 31.666 82.9031 32.6026C83.262 32.8249 84.3201 34.1518 84.6254 33.9151C84.7174 31.6258 84.9317 32.4776 86.2799 31.6303C88.6996 30.1097 91.6068 27.5159 94.8131 28.1186C96.0354 28.3481 96.0345 29.2936 97.1908 27.4668C99.9775 23.0685 94.5693 16.9023 91.2595 14.3434C87.454 11.4005 83.2209 10.1138 78.5932 9.00845C73.6475 7.82718 65.3903 6.49502 60.4196 7.11913C59.9928 7.17271 60.117 7.51647 60.0634 7.54325ZM35.3478 9.16649C34.5353 9.22006 33.5942 9.42098 32.8245 9.67723C32.5361 9.77277 31.7959 9.94776 31.7495 10.2871L32.8281 10.1317L35.3478 9.16649ZM19.1475 27.165V33.5776C19.1475 34.425 20.9725 35.183 21.7341 35.2652C23.561 35.4634 23.9342 34.8857 25.4476 34.4768C26.261 34.2571 27.1092 34.1991 27.9262 34.0277C24.5529 32.3741 21.5922 30.0044 19.1475 27.165ZM96.1033 30.0919L91.3854 33.1348C88.8326 34.1696 86.5415 34.7741 84.1129 35.9884C77.2155 39.4376 71.9493 36.8045 64.7233 38.2009L53.5097 38.4125L52.4517 39.9876C54.7276 41.1974 55.9472 42.5742 58.7634 42.1403C59.5482 42.0198 62.5349 40.9153 62.9688 40.384C63.3331 39.9376 63.1822 38.3456 64.7313 39.3018C66.0242 40.1001 65.3179 41.5278 68.0921 41.7894C70.9216 42.0555 73.7386 41.0813 75.3181 38.659C77.1039 39.5161 77.8378 40.9867 80.0164 41.0438C82.7727 41.1161 84.3629 40.0608 85.6531 37.7536C85.9915 37.1491 85.8487 36.4063 86.4924 36.1C86.9996 35.8589 87.3389 36.4571 87.913 36.5964C90.0737 37.1197 92.4273 36.9045 94.1916 35.4911C94.5658 35.191 94.6908 34.7777 94.9917 34.4875C95.247 34.241 95.8301 34.2446 95.8908 33.9928C96.1033 33.0991 95.9238 31.1213 96.1033 30.0919ZM83.5022 33.9187C81.5218 32.6937 72.9779 32.0722 71.9681 34.1937C71.1725 35.8652 73.2913 36.2384 73.6002 35.9402C73.7324 35.8134 73.085 34.9419 73.8386 34.2652C75.2145 33.0294 80.0146 32.9187 81.6441 33.6375C82.2102 33.8866 82.8299 35.0607 83.5022 33.9187ZM81.0262 34.5928C79.0307 34.5071 76.4021 33.9303 74.727 35.2634C76.4494 35.8294 78.1262 35.5294 79.8673 35.1178C80.1744 35.0455 80.9825 34.9661 81.0262 34.5928ZM27.0226 35.7178C25.9887 35.6777 25.2708 35.7866 24.7771 36.7295C28.9361 39.1322 33.9094 38.2304 38.4978 38.1893L36.4817 37.1715C34.8442 37.0072 33.0593 36.6339 31.4245 36.6098C30.5013 36.5964 27.6548 36.958 27.1709 36.808C26.4789 36.592 27.1289 35.8125 27.0226 35.7178ZM95.8792 41.2286C96.0774 39.592 95.7337 37.6179 95.8792 35.9411L94.1863 37.7357C92.0738 39.5251 89.1648 39.3697 86.7951 38.2215C85.3701 39.9902 84.1281 41.8501 81.7584 42.409C78.9521 43.0716 77.3664 41.9037 75.2958 40.2162C73.2449 43.2278 67.6225 45.1037 64.6135 42.5662C64.2269 42.2403 63.8286 41.2805 63.3947 41.359C60.7929 43.3108 58.3393 45.3769 54.9963 43.6323C54.1249 43.1778 51.532 40.6903 51.2025 40.6581C50.7632 40.6153 49.6382 41.2305 48.9364 41.3162C46.9846 41.5546 41.3211 41.0563 39.3354 40.617C38.0684 40.3376 38.7845 39.5894 38.7237 39.542C38.5327 39.3929 34.6174 39.976 33.8942 40.0001C31.1102 40.092 26.6351 39.9161 24.2458 38.3795C23.7199 38.0411 23.1172 37.1241 22.7413 36.9589C21.9074 36.5929 20.3118 36.7438 19.4823 35.9429C19.1823 35.8455 19.5957 37.6009 19.6055 37.8447C19.6707 39.3635 19.1484 43.3689 20.4091 44.2421C20.794 44.5091 21.5332 44.5269 21.8645 44.8287C22.1056 45.0493 21.7556 45.4189 22.0583 45.7252C22.7029 46.377 26.5815 47.7199 27.6494 48.0288C38.6835 51.2271 52.3561 52.5047 63.8045 53.0521C72.7074 53.478 79.5727 50.6449 87.4005 47.152C88.6773 46.5823 90.3202 46.3198 91.5362 45.6618C92.7229 45.0189 93.9104 43.6644 95.2086 43.034C95.4944 42.6894 95.8283 41.6501 95.8792 41.2286ZM48.8489 38.4188C46.6319 38.4849 44.4319 38.3813 42.2443 38.0304L40.0747 39.3143C42.5818 39.2947 44.9997 39.492 47.4623 38.9429C47.8132 38.8643 48.7346 38.7679 48.8489 38.4188ZM52.0007 38.4188L50.8168 38.4706L48.1766 39.9893C49.5775 40.1072 51.2123 39.6599 52.0007 38.4188ZM26.5717 49.4449C24.7413 48.9556 22.9886 47.8984 21.5154 46.7368C21.0225 46.3475 19.7672 44.5323 19.268 45.1734C17.9421 46.877 21.1654 47.777 22.1502 48.3529C23.4369 49.1056 23.3895 49.9449 25.3288 49.894C25.561 49.8877 26.5512 49.7904 26.5717 49.4449ZM36.9246 52.1449C37.0407 52.6271 37.6371 52.5414 37.9442 52.811C38.3148 53.136 38.455 53.6458 38.9621 54.0432C40.9265 55.5798 42.614 54.4789 44.6497 54.4807C46.8007 54.4825 48.431 55.9057 50.3248 55.9771C51.6739 56.028 53.4008 55.4459 54.8142 55.4218C57.5687 55.3745 59.8562 57.1129 62.9143 57.1147C68.6251 57.1182 71.9707 53.6289 76.6431 53.2708C78.4039 53.136 80.2468 53.4735 81.9816 52.9842C83.2754 52.619 84.3102 51.4708 85.6326 51.0101C87.0451 50.5172 88.1416 50.7699 89.3603 50.4627C91.2827 49.977 93.9836 47.5725 94.5265 45.618C92.9193 46.9564 90.8193 47.243 88.9755 48.0529C87.7058 48.61 86.5781 49.4913 85.3504 50.0538C79.5959 52.694 70.8109 54.753 64.4795 54.403C57.1482 53.9985 49.7766 53.9592 42.4693 53.011C40.6157 52.7699 38.7818 52.3458 36.9246 52.1449ZM17.5716 48.3181C15.2689 48.3181 13.0903 48.2699 11.3518 49.9717C10.7188 50.5913 10.3474 51.5654 9.54824 52.1065C8.03303 53.1315 5.99727 52.6789 4.51599 53.8244C2.40703 55.4557 3.86599 56.8655 3.86241 58.7808C3.85616 62.1728 -0.749268 63.7362 2.48918 67.3389C4.27582 69.3256 7.93838 69.5559 8.90804 71.9462C9.63216 73.7319 9.6152 76.7355 11.5063 77.8989C12.8679 78.7364 15.2957 78.4329 16.9109 78.7945C20.1681 79.524 20.4948 81.782 22.6315 83.6499C25.8199 86.4375 30.7789 83.9964 34.6781 85.1044C37.1433 85.8044 38.3844 88.5027 41.1086 88.8045C44.0435 89.1295 47.1614 86.6786 49.8739 86.5634C51.9499 86.475 53.5677 87.8688 55.2776 88.133C59.1071 88.7232 62.8063 85.9339 66.401 85.2196L64.476 84.9901C47.0409 85.5589 17.0894 84.3267 7.63391 66.6961C3.35348 58.7147 7.75267 53.4065 15.5483 50.902C16.0341 50.7458 16.8252 50.8154 16.8725 50.7681C17.0591 50.5806 17.3743 48.7591 17.5716 48.3181ZM30.9611 52.1422C32.4084 52.4592 34.8987 51.9083 36.4737 52.1422L29.1637 50.3386C28.7539 50.8493 30.7236 52.0905 30.9611 52.1422ZM16.8966 51.694C10.8616 53.4405 5.68566 58.1441 8.53125 64.8969C13.5322 76.7623 32.3933 81.7856 44.0131 82.9687C57.3937 84.3312 82.9602 84.6357 93.7345 75.7632C96.4604 73.5185 99.1569 69.5158 98.5266 65.8095C98.0015 62.7255 95.8747 62.2621 93.4068 61.1433C93.6372 61.8835 92.8532 63.1451 92.939 63.696C92.9693 63.8925 95.189 64.88 95.439 66.6443C95.8363 69.4417 92.5613 73.8828 89.7952 71.6131C89.2362 71.1542 88.6192 69.6908 88.2183 69.7854C86.8719 70.5327 85.5406 71.3372 84.1825 72.0604C83.7718 72.2792 82.2414 72.7837 82.1843 72.8747C82.0888 73.0265 82.1468 73.8194 82.0539 74.206C81.3959 76.9382 78.0092 77.9114 75.486 77.9873C74.4324 78.0186 73.7752 77.7355 72.9136 77.2132L72.9288 75.7676L65.418 76.4721C63.9742 79.0391 60.5589 79.7427 57.841 79.0418C56.5205 78.7016 54.9374 77.8373 54.8053 76.4293L44.9328 73.5149C44.6256 73.5444 44.5274 75.3507 44.3006 75.8302C42.7122 79.1793 34.7424 77.2328 33.9299 74.1533C33.8013 73.6676 33.8397 72.5051 33.6442 72.3676C33.5299 72.2872 31.3111 71.5033 31.1817 71.5095C30.8093 71.5283 30.2263 72.1104 29.7227 72.2765C29.0013 72.5149 27.8843 72.8935 27.1458 72.8533C25.1351 72.7453 22.5467 70.764 22.2359 68.7434C22.0538 67.5595 23.011 66.9684 22.9627 66.6854C22.9333 66.5121 20.6672 64.2434 20.5056 64.1737C20.0216 63.9657 19.735 64.8487 19.1198 65.0469C17.4082 65.5996 14.226 64.538 14.0742 62.5996C14.0385 62.146 15.1144 60.0058 15.4448 59.5727C15.6358 59.3218 16.8921 58.3959 16.9082 58.2852C16.9689 57.8763 16.6769 57.1236 16.6653 56.5387C16.6296 54.9244 16.5894 53.2762 16.8966 51.694ZM100.077 56.2691C98.9373 55.1539 96.4238 55.0664 94.9024 55.0584C94.4997 55.1539 94.0863 58.5084 94.097 59.0959C98.6908 60.1522 100.965 65.2326 99.4257 69.5283C97.2721 75.5391 91.1782 78.9847 85.6469 81.4017L79.4539 83.1937C83.1254 83.8044 86.8862 84.7267 89.9264 81.8561C91.3452 80.5168 91.5211 78.5061 93.5809 77.8605C97.1444 76.7427 101.027 77.1695 103.406 73.2855C104.57 71.3854 102.919 70.8595 103.542 68.9193C104.434 66.146 108.305 66.0666 104.502 63.4353C103.726 62.8978 99.6846 61.0469 99.523 60.6495C99.5676 58.9263 101.651 57.8075 100.077 56.2691ZM91.38 69.2425C93.2559 69.255 92.9863 67.4845 92.9515 66.0934C91.9425 66.797 91.1791 67.9773 91.38 69.2425ZM27.4735 69.9166C26.8182 69.1729 25.9574 68.6524 24.9976 69.0211C24.8833 69.6604 25.1592 69.3863 25.494 69.5256C26.119 69.7845 26.7833 69.9791 27.4735 69.9166ZM78.1012 71.2711C76.6342 71.2836 75.1494 71.747 74.0565 72.731C74.477 73.2962 74.4154 72.8997 74.7449 72.7515C75.1904 72.5506 75.5788 72.1926 76.0315 72.0113C76.6476 71.7649 77.7307 71.8363 78.1012 71.2711ZM42.3238 74.1962C41.6577 74.5524 38.0353 73.4131 37.8496 73.5435C37.796 73.581 37.3862 74.4641 37.1496 74.6417C37.7639 74.7355 38.2773 75.1623 38.8898 75.2658C40.1059 75.4712 41.5264 75.1873 42.3238 74.1962ZM60.325 73.5212C59.2937 73.3962 58.0776 73.8203 57.4008 74.6417L59.5134 74.6176L60.325 73.5212ZM79.2262 83.1973C76.8931 83.4705 74.6154 84.1044 72.2993 84.4794C71.1734 84.6615 70.0591 84.6419 68.9841 84.7687C68.6519 84.808 68.3073 84.9374 68.6501 85.2187C70.3511 85.3687 71.6922 86.208 73.427 85.6071L79.2262 83.1973Z" fill="#D33756"/>
<path d="M67.6027 31.0722C65.9688 31.9579 64.2294 32.3016 62.2491 32.1052C61.9285 32.0731 61.7071 31.7124 61.3794 31.7141C60.4981 31.7204 59.0963 32.9552 57.7588 32.7865C57.0052 32.6918 56.774 32.0633 56.3409 31.9374C55.1561 31.5927 51.5632 32.6115 51.7748 30.4489C51.9319 28.8471 53.9882 28.6935 53.1248 30.5382C53.4462 30.782 55.5463 30.3356 56.1061 30.3704C56.915 30.4204 57.6784 31.1838 58.1472 31.1614C58.991 31.1204 60.2597 30.1614 61.141 30.0963C62.4008 30.0034 62.7955 30.9597 62.8973 30.9605C64.5955 30.9855 67.4375 29.9436 69.2438 29.6704C70.5439 29.4739 78.2127 29.0596 78.5529 28.7382C78.6101 28.6846 78.3342 28.1632 78.419 27.831C78.8011 26.3346 84.0227 24.3569 85.5262 24.0113C85.0039 23.2711 84.5682 22.731 84.5057 21.7729C84.3959 20.0889 86.1432 19.5613 84.5262 18.1514C83.8941 17.5996 83.4619 17.7327 82.9744 17.4434C78.6252 14.8647 69.8617 12.8004 64.6473 11.9281C59.0874 10.9977 56.2427 12.2433 50.9846 12.5352C50.256 12.5754 47.4461 12.679 47.2836 11.7254C48.2524 9.695 50.2069 9.98074 52.0007 9.50038C54.3793 8.86376 54.8346 7.28156 57.6356 8.58873C58.3222 8.90927 59.291 9.97181 59.7713 10.062C60.6839 10.2325 61.3919 9.70305 62.2365 9.61109C65.3455 9.27179 65.3553 10.429 67.4741 11.1272C71.1885 12.3513 76.4484 12.546 80.5771 13.7754C82.5646 14.3674 83.9146 15.2906 85.6262 15.9264C87.0432 16.4532 89.9317 16.6282 90.9147 17.838C91.2897 18.3005 91.2344 18.8112 91.5067 19.2711C92.2264 20.4881 93.3665 20.3211 92.8558 22.4533C92.4915 23.9712 91.0228 24.0149 90.4665 24.7881C89.6656 25.9006 90.1933 26.6087 88.3004 27.5721C86.495 28.4909 85.7111 27.9766 84.1539 28.1882C83.0985 28.3319 81.1092 29.2944 79.7243 29.5712C77.0163 30.115 69.2581 30.1748 67.6027 31.0722ZM87.7781 17.9416C89.0888 19.4032 90.4219 20.8702 91.2656 22.6604C92.696 21.622 90.9531 21.1068 90.471 20.3095C90.204 19.8675 90.2442 19.3443 90.0067 18.9737C89.7076 18.5059 88.3629 17.9451 87.7781 17.9416ZM81.703 27.1632C84.0967 27.0542 85.0861 26.923 87.0843 25.6837C91.3496 23.0381 89.4468 22.1265 86.4307 19.5148C86.5718 20.1755 85.7548 21.1354 85.7995 21.6175C85.8486 22.1479 86.6834 22.6274 86.8316 23.2747C87.5915 26.5909 83.0699 25.1997 81.703 27.1632Z" fill="#D33756"/>
<path d="M34.7058 18.4184C34.254 19.1988 36.0031 19.4935 36.0209 20.2979C36.0361 20.9908 34.2915 22.5355 34.6799 23.1078C34.8674 23.3846 37.0745 23.2525 37.504 23.781C37.7335 24.1391 37.2924 24.4694 37.2004 24.8552C36.9906 25.7311 37.4531 26.4346 36.0254 26.2668L36.2495 24.4677C35.354 24.5489 34.5397 24.2078 33.7772 23.7908L33.1004 25.5891C33.6691 25.7391 34.2915 25.015 34.7781 25.1418C36.1656 25.5034 32.8941 27.7115 31.9584 26.3954C31.1646 25.2784 32.728 24.5123 32.4236 24.2417C30.6789 24.8025 27.7726 24.3043 29.495 22.1024C23.8574 19.3086 30.386 18.339 32.8745 17.0372C32.9789 16.5095 32.3423 16.3791 32.2307 15.98C31.8164 14.4889 35.2736 13.4219 36.4665 14.2371C36.6174 14.3398 37.3504 15.6032 37.337 15.7657C37.2969 16.2559 35.7933 17.6399 35.3531 18.0658C35.1701 18.2417 34.7245 18.3854 34.7058 18.4184ZM36.0245 14.7916C35.5692 14.5211 33.5897 14.9755 33.3245 15.6871C33.7191 15.8952 34.5817 15.8059 34.8495 15.9693C35.0388 16.0845 34.9897 16.6649 35.4325 16.5702C35.5254 16.5497 36.4718 15.8675 36.471 15.8032C36.4701 15.7398 36.0567 15.455 35.9379 15.2398C35.8468 15.0755 36.0442 14.8032 36.0245 14.7916ZM33.5477 17.9407C32.0236 18.5675 30.7548 19.7631 29.0494 19.9667C29.2771 20.7149 31.3155 20.3578 31.52 20.6453C31.7236 21.5774 30.511 22.2391 30.2834 22.8935C29.9896 23.7337 32.6271 23.0292 33.037 22.981C33.2512 22.956 33.528 23.1373 33.5459 23.1176C33.587 23.0721 33.6495 22.273 33.8281 21.9301C33.9932 21.6122 34.8986 20.6149 34.8959 20.5265C34.8879 20.3069 32.4843 19.3042 33.5477 17.9407Z" fill="#D33756"/>
<path d="M60.3946 25.2963C60.2687 25.2079 59.8749 24.5355 59.9008 24.3838C60.0687 23.3677 61.6143 24.3614 62.258 24.4463C64.3509 24.7231 67.4545 24.407 69.5028 23.8543C70.843 23.4918 73.5895 21.973 74.6234 21.9775C75.8752 21.9828 75.4734 22.8382 74.6582 23.3837C73.3743 24.2418 70.893 25.2302 69.3724 25.524C67.6947 25.8472 61.675 26.1963 60.3946 25.2963Z" fill="#D33756"/>
<path d="M37.7799 28.5686C37.8522 28.6106 38.3549 29.4713 38.8755 29.8276C41.0166 31.2937 46.9229 31.9785 49.6399 32.3392C50.0515 32.3937 52.4329 32.1687 52.2248 33.125C52.1141 33.633 50.1373 33.4875 49.6408 33.4634C46.7926 33.3294 39.9844 32.2687 37.9398 30.3133C37.2388 29.6437 36.6736 27.9311 37.7799 28.5686Z" fill="#D33756"/>
<path d="M45.6453 15.5247C45.965 15.48 47.4874 15.3005 47.4954 15.8023C47.5016 16.1809 45.9346 16.1756 45.5159 16.2934C43.0346 16.9917 40.9863 19.6131 42.2105 22.2167C42.5515 22.9417 43.6275 23.4623 43.6739 23.6811C43.9159 24.8168 42.1042 23.6721 41.764 23.3382C38.9443 20.5721 42.4899 15.9702 45.6453 15.5247Z" fill="#D33756"/>
<path d="M47.724 22.4408C47.8758 22.5872 47.4133 23.448 47.4981 23.5623C47.8437 24.0239 52.7268 24.2569 52.8991 24.4703C52.9509 24.5346 52.8705 24.9542 52.9018 25.1391C51.8598 25.331 46.6374 24.8052 46.5981 23.4632C46.5838 22.9489 47.341 22.0721 47.724 22.4408Z" fill="#D33756"/>
<path d="M76.7512 21.0891C76.7029 21.1355 76.261 21.0632 76.0779 21.0918L75.8538 18.6158C76.6208 18.3729 76.8521 20.9917 76.7512 21.0891Z" fill="#D33756"/>
<path d="M25.5039 43.6448C25.6486 43.4939 25.9307 43.4305 26.1397 43.4823C32.5353 45.7297 38.9827 47.9806 45.815 48.5395C50.6767 48.9369 55.5786 47.9217 60.4286 47.8583C62.0563 47.8368 63.6573 48.0895 65.1537 48.102C74.0521 48.177 82.3112 46.0761 90.5408 42.868C90.7095 42.8019 92.3113 41.6483 92.2729 42.3555C92.2596 42.6037 91.0997 43.3921 90.7881 43.5662C86.4934 45.9564 78.5263 48.1734 73.6432 48.9235C67.2841 49.8994 61.0661 48.6208 54.5892 48.9967C52.0338 49.1449 49.5151 49.752 46.9275 49.6788C40.0578 49.4842 33.2121 47.7609 26.6709 45.8582C25.929 45.5439 24.8066 44.3707 25.5039 43.6448Z" fill="#D33756"/>
</svg>
