<svg width="202" height="302" viewBox="0 0 202 302" fill="none" xmlns="http://www.w3.org/2000/svg">
<path fill-rule="evenodd" clip-rule="evenodd" d="M195.292 0.968074C185.473 4.51122 166.912 16.2811 166.912 18.4142C166.912 18.9265 167.441 19.004 168.104 18.5888C168.761 18.1782 172.437 15.8098 176.274 13.3249C184.099 8.25883 191.106 3.90488 196.865 2.1655C198.963 1.53096 198.549 1.4514 199.047 0.999756C200.372 -0.199335 199.221 -0.449373 195.292 0.968074ZM160.942 21.6616C159.737 22.8402 142.117 24.8278 132.814 24.8343C126.066 24.839 123.038 25.1749 123.038 25.9177C123.038 26.7136 126.456 26.8079 136.153 26.2779C157.164 25.1301 155.91 25.0741 156.21 27.1737C156.357 28.2001 155.611 30.6926 154.553 32.7128C152.858 35.9499 152.795 36.5639 154.025 37.8918C155.298 39.2691 154.209 39.4968 141.441 40.5307C133.754 41.1531 127.255 41.867 126.999 42.1161C125.722 43.3665 128.31 43.5345 134.935 42.6331C138.959 42.0853 146.273 41.6374 151.187 41.6374C156.115 41.6374 160.387 41.2194 160.713 40.7043C161.037 40.191 160.485 39.7711 159.486 39.7711C157.259 39.7711 154.089 36.5322 154.962 35.1493C155.312 34.595 155.977 34.3701 156.439 34.65C156.9 34.9291 157.729 34.3337 158.281 33.3268C159.552 31.0014 159.583 26.7071 158.328 26.7071C156.44 26.7071 157.423 24.113 159.52 23.5624C163.164 22.6069 163.354 22.8364 162.882 27.6403C162.63 30.2064 162.79 32.306 163.237 32.306C163.685 32.306 164.058 33.0404 164.065 33.939C164.078 35.335 164.215 35.3686 165.005 34.1723C166.032 32.6167 166.282 24.8856 165.38 22.5845C164.813 21.139 162.061 20.5661 160.942 21.6616ZM109.719 26.6455C109.176 27.6384 108.731 29.9927 108.731 31.8767C108.731 34.2805 107.873 36.3642 105.857 38.8548C102.212 43.3563 100.147 48.1722 100.147 52.1689C100.147 53.8877 99.2994 58.4154 98.2627 62.23C96.5134 68.665 95.7552 74.2396 96.7643 73.2533C97.6914 72.3463 102.039 54.0529 102.061 50.9689C102.09 46.7193 104.095 42.9606 106.147 43.3078C107.222 43.4897 107.57 43.1258 107.205 42.1982C106.908 41.4387 107.117 40.0576 107.669 39.1282C108.345 37.9907 108.683 37.8629 108.703 38.7354C108.756 41.1466 114.454 44.0216 114.454 41.6374C114.454 41.1242 113.596 40.7043 112.547 40.7043C110.787 40.7043 110.653 40.1444 110.829 33.4724L111.018 26.2405L111.348 33.0058C111.794 42.1833 113.5 41.629 113.5 32.306C113.5 26.3721 113.214 24.8408 112.103 24.8408C111.335 24.8408 110.262 25.6526 109.719 26.6455ZM115.646 25.4586C114.821 25.7842 114.494 28.1329 114.584 33.0833C114.718 40.4738 114.889 40.2274 115.894 31.1955C116.435 26.332 116.699 25.8542 119.046 25.5034C121.525 25.1329 121.531 25.118 119.223 25.0545C117.912 25.0181 116.303 25.2001 115.646 25.4586ZM118.269 33.5499C118.269 36.5704 118.693 38.838 119.255 38.838C119.892 38.838 120.015 37.0949 119.604 33.939C118.74 27.3193 118.269 27.1821 118.269 33.5499ZM123.315 31.3728C123.04 32.3993 122.436 33.2391 121.973 33.2391C120.467 33.2391 121.084 36.0675 123.038 38.1195L124.946 40.1229V34.8152C124.946 29.4524 124.231 27.9445 123.315 31.3728ZM116.618 42.2841C117.546 42.5211 118.834 42.5052 119.48 42.2496C120.125 41.9939 119.366 41.8007 117.792 41.8194C116.219 41.8381 115.69 42.0471 116.618 42.2841ZM122.084 42.5706C122.084 43.0838 122.514 43.5037 123.038 43.5037C123.563 43.5037 123.992 43.0838 123.992 42.5706C123.992 42.0573 123.563 41.6374 123.038 41.6374C122.514 41.6374 122.084 42.0573 122.084 42.5706ZM166.435 42.5706C166.76 43.0838 167.58 43.5037 168.259 43.5037C168.938 43.5037 174.385 45.761 180.363 48.5203C191.924 53.8551 191.09 54.1469 196.865 55.1622C203.11 56.2605 202.295 55.3276 195.365 53.6927C191.704 52.8295 188.149 50.4137 181.431 47.2988C169.914 41.9612 165.09 40.4402 166.435 42.5706ZM106.689 48.1769C103.598 53.8905 104.856 54.3935 108.214 48.7872C110.764 44.5302 111.099 43.499 109.924 43.5112C109.531 43.5158 108.074 45.6154 106.689 48.1769ZM103.592 55.7344C103.364 56.4492 102.71 58.462 102.139 60.2061C100.887 64.0329 100.827 65.2413 101.924 64.5788C103.044 63.9013 105.325 55.7232 104.594 55.0075C104.272 54.6921 103.82 55.0196 103.592 55.7344ZM99.9089 66.4376C99.516 66.8258 99.2069 68.2283 99.2222 69.5543C99.2479 71.6688 99.3729 71.7603 100.241 70.3027C101.326 68.4765 101.054 65.3066 99.9089 66.4376ZM99.1793 75.4639C99.1688 76.956 98.9332 77.2061 98.3647 76.3289C97.9136 75.6328 97.6074 80.585 97.6637 87.6825C97.7181 94.6055 98.0853 100.585 98.4782 100.97C99.1945 101.67 99.659 91.9377 99.2336 85.1509C99.0686 82.5129 99.3204 81.729 100.168 82.2413C101.029 82.762 101.156 85.3282 100.661 92.1513C100.269 97.5627 100.353 101.359 100.866 101.359C101.784 101.359 102.286 96.1835 102.263 86.9519C102.253 83.1969 101.802 81.0898 100.864 80.4189C99.9404 79.7582 99.7267 78.8055 100.223 77.5626C101.281 74.9106 101.253 73.3643 100.147 73.3643C99.6228 73.3643 99.1869 74.3096 99.1793 75.4639ZM87.277 84.5565C86.3242 85.5857 85.9884 86.4284 86.5302 86.4284C87.73 86.4284 90.1088 83.7615 89.4678 83.1344C89.2151 82.8871 88.2289 83.5263 87.277 84.5565ZM80.1179 86.4834C80.1179 87.0265 80.5471 87.2122 81.0717 86.8949C81.5963 86.5777 82.0255 86.1335 82.0255 85.9067C82.0255 85.68 81.5963 85.4952 81.0717 85.4952C80.5471 85.4952 80.1179 85.9404 80.1179 86.4834ZM75.8259 88.2947C75.5016 88.8079 75.6914 89.2278 76.2465 89.2278C76.8016 89.2278 77.2565 88.8079 77.2565 88.2947C77.2565 87.7814 77.0677 87.3615 76.8359 87.3615C76.6041 87.3615 76.1501 87.7814 75.8259 88.2947ZM90.6095 90.161C90.6095 90.6742 91.0387 91.0941 91.5633 91.0941C92.0879 91.0941 92.5171 90.6742 92.5171 90.161C92.5171 89.6477 92.0879 89.2278 91.5633 89.2278C91.0387 89.2278 90.6095 89.6477 90.6095 90.161ZM107.778 90.705C107.778 91.5177 108.287 92.017 108.911 91.8135C110.679 91.2369 110.972 89.2278 109.287 89.2278C108.458 89.2278 107.778 89.8931 107.778 90.705ZM114.276 94.5309C114.963 94.8005 115.787 94.767 116.103 94.4572C116.42 94.1474 115.857 93.9271 114.852 93.9672C113.741 94.012 113.515 94.2332 114.276 94.5309ZM75.8259 95.7598C75.5016 96.2731 75.906 96.693 76.7234 96.693C77.5407 96.693 78.2103 96.2731 78.2103 95.7598C78.2103 95.2466 77.8069 94.8267 77.3128 94.8267C76.8187 94.8267 76.1501 95.2466 75.8259 95.7598ZM121.131 95.7598C121.131 96.2731 121.56 96.693 122.084 96.693C122.609 96.693 123.038 96.2731 123.038 95.7598C123.038 95.2466 122.609 94.8267 122.084 94.8267C121.56 94.8267 121.131 95.2466 121.131 95.7598ZM110.639 96.693C110.639 97.2062 111.068 97.6261 111.593 97.6261C112.117 97.6261 112.547 97.2062 112.547 96.693C112.547 96.1797 112.117 95.7598 111.593 95.7598C111.068 95.7598 110.639 96.1797 110.639 96.693ZM86.3175 98.6572C76.6661 100.012 66.3414 102.404 64.5197 103.707C62.3241 105.278 61.5372 111.389 63.151 114.333C65.2732 118.204 69.2705 120.279 79.3739 122.756C91.507 125.729 91.7522 126.084 92.3349 141.58C92.8004 153.951 93.0903 153.558 83.4561 153.62C70.8004 153.703 61.0422 156.544 61.0422 160.146C61.0422 161.588 59.8557 161.842 51.6589 162.165C38.9526 162.664 37.1976 163.771 37.1976 171.289C37.1976 174.316 37.4646 177.471 37.7899 178.301C38.6073 180.386 43.2226 182.565 50.047 184.088C61.3817 186.619 62.1515 187.388 63.9121 197.939C65.6547 208.384 66.3672 207.683 54.6042 207.097C47.5633 206.746 41.7672 207.028 36.1045 207.997C24.9462 209.907 22.722 211.068 21.4058 215.669L20.3375 219.401L14.3917 220.052C10.69 220.457 6.85199 221.617 4.22336 223.124C0.0696278 225.506 0 225.627 0 230.499C0 240.484 2.18894 242.909 13.5437 245.503C19.9818 246.972 36.6711 246.494 35.6448 244.87C35.3492 244.401 30.5345 244.142 24.9453 244.292C17.2931 244.498 13.4197 244.158 9.26124 242.911C3.22284 241.102 2.64961 240.342 1.48695 232.597C0.950921 229.031 1.07587 228.15 2.07162 228.471C2.78505 228.7 3.46605 230.579 3.63106 232.772C4.01448 237.854 6.67649 238.314 6.67649 233.299C6.67649 230.463 6.93973 230.038 8.34561 230.595C9.26315 230.959 12.7464 231.485 16.0856 231.764C20.3957 232.125 21.7091 232.516 20.616 233.115C18.6741 234.178 18.5807 236.117 20.5064 235.394C21.5403 235.007 21.937 235.496 21.937 237.16C21.937 238.427 22.371 239.464 22.9023 239.464C23.4822 239.464 23.6634 237.881 23.3563 235.498C22.8975 231.937 22.9595 231.77 23.9667 233.865C24.8985 235.802 25.157 235.921 25.4908 234.565C25.7951 233.326 26.8748 232.932 29.9698 232.932C32.2131 232.932 37.2415 232.668 41.1443 232.345L48.2396 231.758L47.9229 235.844C47.3258 243.531 47.116 243.862 42.018 245.14C39.419 245.792 37.4914 246.64 37.7346 247.025C37.9778 247.41 39.563 247.336 41.2579 246.86C47.1122 245.218 46.9701 244.938 46.599 257.427L46.2585 268.858L50.5506 269.024L54.8426 269.191L50.9969 268.31L47.1513 267.43L47.4613 260.678C47.632 256.965 47.9773 252.977 48.2291 251.816L48.6859 249.704L51.4757 251.722C54.1683 253.669 67.5899 257.141 72.4876 257.158C74.4343 257.164 74.6088 256.982 73.4414 256.17C72.3817 255.432 73.2602 255.299 76.8321 255.652C79.4836 255.915 82.2372 255.776 82.9506 255.344C83.747 254.863 81.5142 254.437 77.1764 254.244C73.2859 254.07 69.8761 254.223 69.5976 254.584C68.8699 255.528 55.4483 252.654 52.8692 251.001C50.274 249.337 48.643 245.192 48.643 240.258C48.643 235.055 50.5258 235.831 50.6803 241.097C50.7518 243.535 50.996 244.585 51.2239 243.43C51.8487 240.254 53.41 240.916 53.4262 244.363C53.4377 246.664 53.6637 247.058 54.3657 245.996C54.8741 245.226 55.2966 243.441 55.3052 242.03C55.3147 240.308 55.8202 239.464 56.8436 239.464C58.1484 239.464 58.2705 240.289 57.6896 245.183C57.2023 249.291 57.31 250.722 58.0731 250.261C58.6568 249.908 59.1651 248.279 59.2014 246.641C59.2386 245.003 59.5963 242.843 59.9978 241.841C60.6149 240.297 60.8238 240.494 61.3608 243.124C61.7099 244.832 61.996 247.137 61.996 248.247C61.996 249.596 62.6283 250.311 63.9036 250.405C65.1664 250.499 65.8111 249.97 65.8111 248.844C65.8111 247.908 66.4368 245.963 67.2017 244.52L68.5924 241.897L77.9213 242.163C83.0517 242.308 87.5755 242.626 87.9752 242.867C88.3748 243.109 88.7019 244.961 88.7019 246.984C88.7019 249.007 89.0453 250.662 89.465 250.662C90.8432 250.662 92.3778 248.592 91.9009 247.376C91.6434 246.721 91.8914 245.907 92.4522 245.569C93.0445 245.21 93.4709 245.733 93.4709 246.819C93.4709 247.846 93.9001 248.945 94.4247 249.262C95.0007 249.61 95.3784 248.331 95.3784 246.028C95.3784 241.904 96.7528 240.867 103.724 239.726C106.762 239.23 106.827 239.292 106.954 242.841C107.031 244.998 107.251 245.614 107.497 244.363C107.724 243.208 108.281 242.264 108.734 242.264C109.187 242.264 109.738 241.108 109.956 239.697C110.239 237.865 110.394 238.246 110.496 241.036C110.808 249.563 107.739 251.892 92.0478 255.031C80.7893 257.284 80.5948 257.63 80.5948 275.39C80.5948 285.137 80.9477 289.047 81.9844 290.787C83.1252 292.704 83.4342 292.834 83.7156 291.522C83.9836 290.277 84.7266 290.042 87.0958 290.452C92.1785 291.334 96.7328 292.604 98.2398 293.559C100.55 295.025 98.1654 297.634 93.3793 298.877C88.3615 300.181 78.5737 300.436 81.5486 299.185C83.0002 298.575 82.4308 298.371 79.1641 298.333C76.0586 298.295 75.2679 298.531 76.3027 299.185C77.3662 299.857 76.876 300.065 74.3952 299.993C70.91 299.894 64.452 298.555 66.5265 298.362C68.4769 298.182 67.878 296.386 65.8674 296.386C64.8487 296.386 63.7509 295.966 63.4267 295.453C63.1024 294.94 62.326 294.534 61.7013 294.55C61.0765 294.568 61.5782 295.408 62.8172 296.417C65.5154 298.616 64.2832 298.876 61.1938 296.758C59.1461 295.355 59.1098 295.16 60.6016 293.547C61.8834 292.162 63.1348 291.923 67.0997 292.307C71.6778 292.751 71.8848 292.684 70.1594 291.319C68.4073 289.932 68.5227 289.854 72.3054 289.854C75.8068 289.854 76.3066 290.114 76.3314 291.953C76.3571 293.792 76.4782 293.855 77.308 292.463C78.6548 290.204 79.5513 274.564 78.753 267.267C78.382 263.879 77.4292 260.331 76.6356 259.383C75.2488 257.727 75.2192 257.732 75.8611 259.527C76.2284 260.553 76.7434 264.345 77.0047 267.953C77.3891 273.252 77.184 274.754 75.9374 275.766C73.9974 277.341 73.9269 281.338 75.8259 282.051C76.6127 282.347 77.2565 283.728 77.2565 285.121C77.2565 287.554 76.9752 287.696 70.0841 288.744C61.768 290.009 58.1808 291.915 58.1808 295.069C58.1808 298.077 62.0685 299.884 71.2563 301.151C88.3767 303.51 105.013 298.856 100.112 293.078C98.7615 291.487 90.4569 288.921 86.6551 288.921C84.4652 288.921 82.0283 286.865 82.0245 285.017C82.0245 284.854 87.9666 284.722 95.2296 284.722C104.681 284.722 109.142 284.353 110.917 283.424C117.885 279.781 113.236 275.01 101.196 273.448C96.6632 272.86 96.3322 272.64 96.3322 270.213C96.3322 267.664 96.4057 267.629 99.8374 268.556C105.57 270.104 118.645 269.194 121.031 267.081C124.989 263.575 122.779 261.351 113.5 259.502C108.833 258.572 108.221 258.179 107.951 255.94C107.782 254.542 108.538 252.011 109.649 250.252L111.651 247.083L117.203 249.29C120.257 250.504 125.589 252.008 129.051 252.633L135.347 253.767L136.345 258.326C136.896 260.833 137.345 264.326 137.345 266.087C137.345 268.831 136.97 269.364 134.722 269.814C125.632 271.632 124.321 276.449 132.195 279.098C135.096 280.074 135.914 280.83 135.914 282.535C135.914 284.523 135.381 284.779 130.035 285.356C120.094 286.429 115.282 290.146 119.055 293.838C121.663 296.388 137.391 298.591 147.741 297.856C156.907 297.204 160.585 295.841 161.009 292.937C161.407 290.219 157.785 287.983 149.824 286.029C144.782 284.792 143.484 284.098 143.24 282.512C142.948 280.608 143.195 280.557 149.917 281.111C161.202 282.043 170.727 279.369 170.727 275.271C170.727 273.45 163.883 270.544 157.715 269.746L152.81 269.111L151.888 261.986L150.968 254.861L150.832 261.285C150.65 270 152.19 274.808 155.386 275.498C156.742 275.791 158.602 276.229 159.52 276.473C160.438 276.716 161.19 276.515 161.19 276.024C161.19 275.533 159.728 274.863 157.944 274.535C156.158 274.208 154.431 273.262 154.106 272.433C153.594 271.127 154.156 271.001 158.326 271.483C160.972 271.79 164.276 272.584 165.669 273.249C172.81 276.655 166.263 279.777 152.793 279.39L143.545 279.123V270.258C143.545 265.382 143.86 259.503 144.247 257.194L144.949 252.995L143.314 256.261C141.991 258.903 141.674 262.235 141.658 273.711C141.643 283.837 141.978 288.228 142.829 289.061C143.783 289.994 144.021 289.886 144.021 288.52C144.021 287.06 144.616 286.877 148.113 287.263C152.929 287.794 158.919 290.38 159.649 292.245C160.555 294.554 156.241 295.825 146.167 296.217C137.219 296.565 136.391 296.454 136.391 294.905C136.391 293.589 136.136 293.462 135.247 294.333C132.918 296.611 120.385 294.743 119.463 291.982C118.767 289.896 125.068 287.062 130.408 287.058C134.652 287.055 135.622 286.713 136.934 284.754C139.028 281.626 139.761 269.516 138.347 261.393C137.722 257.8 137.168 254.337 137.119 253.695C137.068 253.053 136.776 252.521 136.47 252.512C133.865 252.436 121.56 249.345 117.554 247.761C113.927 246.326 112.547 245.279 112.547 243.967C112.547 242.969 112.943 242.393 113.428 242.686C113.913 242.979 114.507 242.479 114.748 241.575C115.016 240.572 115.23 240.952 115.297 242.552C115.447 246.093 117.315 244.803 117.315 241.159C117.315 238.452 117.477 238.329 120.296 238.881C121.936 239.202 123.88 239.464 124.619 239.464C125.357 239.464 126.349 240.408 126.824 241.564C127.622 243.507 127.696 243.524 127.807 241.797C127.913 240.16 128.058 240.218 128.987 242.264C130.043 244.591 130.047 244.592 130.423 242.497C130.794 240.436 131.053 240.397 144.327 240.384C151.765 240.378 158.817 240.118 159.997 239.809C161.88 239.316 162.143 239.596 162.143 242.099C162.143 243.669 162.639 245.252 163.246 245.619C164.038 246.099 164.189 245.328 163.783 242.875C163.469 240.982 163.615 239.464 164.111 239.464C164.602 239.464 165.048 240.199 165.1 241.097C165.163 242.186 165.449 241.953 165.958 240.397L166.722 238.064L166.817 240.631C166.869 242.041 167.389 243.197 167.972 243.197C168.66 243.197 168.82 242.088 168.427 240.039C167.974 237.679 168.188 236.743 169.274 236.335C171.714 235.42 171.245 243.585 168.726 245.88C165.639 248.696 148.504 252.473 147.321 250.6C147.018 250.121 144.113 249.735 140.865 249.743C136.701 249.753 135.382 250.024 136.391 250.662C137.178 251.159 139.924 251.573 142.493 251.581L147.165 251.595L146.529 258.827C146.179 262.804 145.632 267.318 145.315 268.858C144.907 270.827 145.039 271.38 145.758 270.724C146.321 270.211 147.283 265.951 147.898 261.257L149.014 252.722L154.947 252.101C158.21 251.758 163.099 250.472 165.812 249.244C170.982 246.899 172.635 244.531 172.635 239.466C172.635 237.605 173.219 236.609 174.553 236.195C175.608 235.867 177.162 234.292 178.007 232.694C180.007 228.91 179.239 220.047 176.734 218.002C175.791 217.232 175.019 215.797 175.019 214.813C175.019 213.83 174.483 212.85 173.827 212.636C173.14 212.412 172.635 213.033 172.635 214.103C172.635 215.879 172.42 215.904 167.628 214.702C164.874 214.011 158.976 212.967 154.522 212.382C150.067 211.797 146.064 210.828 145.627 210.228C145.026 209.406 144.711 209.424 144.347 210.303C144.055 211.006 142.064 211.47 139.339 211.47C135.746 211.47 134.355 210.989 132.574 209.134C130.396 206.867 130.361 206.578 131.371 199.103C132.343 191.913 132.291 189.976 131.155 191.087C129.994 192.223 128.956 209.02 129.72 214.309C130.678 220.937 131.573 222.544 131.733 217.924C131.802 215.955 132.019 215.45 132.302 216.602C132.987 219.388 133.628 219.788 140.208 221.532C151.113 224.423 147.979 227.062 132.546 227.982C121.533 228.638 115.971 227.935 111.602 225.336C108.529 223.508 108.441 223.317 110.103 222.128C111.076 221.432 114.393 220.584 117.476 220.242C120.558 219.902 123.334 219.221 123.644 218.732C124.408 217.521 113.917 218.803 109.896 220.411C107.207 221.486 106.854 221.994 107.377 224.031L107.985 226.4H97.8659C89.6166 226.4 87.7482 226.148 87.7482 225.033C87.7482 223.102 85.2321 222.011 77.9042 220.762C74.3999 220.165 71.5338 219.28 71.5338 218.797C71.5338 218.271 72.9702 218.215 75.1105 218.66C80.982 219.877 103.187 219.533 105.632 218.186C107.45 217.183 107.778 217.222 107.778 218.436C107.778 219.223 108.145 219.868 108.594 219.868C109.043 219.868 109.365 218.299 109.309 216.381C109.19 212.269 107.166 210.972 99.0982 209.837C95.3546 209.31 93.8829 208.676 93.6502 207.493C93.3679 206.058 94.2387 205.871 101.164 205.871C107.472 205.871 109.263 206.189 110.356 207.504C111.343 208.692 111.847 208.82 112.209 207.97C112.482 207.329 113.575 206.804 114.637 206.804C116.221 206.804 116.461 207.224 115.97 209.137C115.625 210.482 115.783 211.47 116.344 211.47C116.878 211.47 117.315 210.655 117.315 209.659C117.315 208.662 117.745 207.588 118.269 207.271C118.838 206.926 119.248 208.129 119.283 210.248C119.334 213.201 119.483 213.463 120.17 211.798C121.401 208.813 123.032 208.204 123.072 210.715L123.106 212.869L124.549 210.537C125.932 208.3 125.968 208.396 125.432 212.869C125.125 215.436 124.641 218.69 124.357 220.101C124.072 221.515 124.265 222.667 124.786 222.667C126.313 222.667 127.115 215.631 127.154 201.884C127.178 193.918 126.802 188.651 126.167 188.029C125.436 187.314 125.292 189.906 125.665 197.052L126.188 207.077L123.898 206.535C118.738 205.314 101.567 203.816 97.6608 204.246L93.4709 204.708V193.738V182.769L96.4219 181.573C98.9542 180.546 99.7649 180.603 102.136 181.974C107.269 184.94 122.084 188.261 122.084 186.445C122.084 185.934 119.831 185.22 117.077 184.857C110.78 184.027 103.99 181.852 101.816 179.968C100.586 178.9 100.147 177.087 100.147 173.066C100.147 170.066 100.269 167.612 100.419 167.612C100.568 167.612 103.251 168.528 106.38 169.648C111.293 171.407 114.575 171.738 130.43 172.08L148.79 172.476V174.61C148.79 176.325 150.355 177.877 152.085 177.877C152.237 177.877 152.636 176.197 152.972 174.144C153.74 169.441 155.234 169.315 155.726 173.911L156.1 177.41L156.26 173.444C156.348 171.262 156.85 169.478 157.374 169.478C158.741 169.478 158.554 176.291 157.136 178.148C156.481 179.008 152.51 180.551 148.313 181.578C139.933 183.63 138.1 183.865 140.093 182.631C140.893 182.135 137.714 181.836 131.986 181.87C126.802 181.9 121.596 181.617 120.415 181.238C119.202 180.849 118.269 180.935 118.269 181.437C118.269 182.832 121.898 183.444 130.668 183.529C135.614 183.576 138.034 183.89 136.872 184.334C135.825 184.733 133.078 184.852 130.768 184.597C127.757 184.266 126.759 184.438 127.243 185.205C127.615 185.793 128.993 186.275 130.304 186.275C131.651 186.275 132.432 186.681 132.099 187.208C131.228 188.587 133.286 188.341 135.731 186.773C136.904 186.021 140.965 184.767 144.757 183.987C158.071 181.247 160.236 179.414 160.236 170.884C160.236 166.627 158.742 164.342 155.063 162.973C151.356 161.594 139.424 160.144 131.06 160.055C124.851 159.99 121.286 159.418 116.807 157.768C113.522 156.559 108.033 155.092 104.61 154.509L98.3867 153.448L97.7324 146.619C96.8873 137.794 97.9403 129.044 100.184 126.254C101.422 124.714 104.358 123.442 110.092 121.96C114.575 120.801 119.644 118.932 121.356 117.805C124.216 115.924 124.491 115.306 124.743 110.191C125.054 103.883 125.127 103.947 114.307 100.974C108.589 99.4028 101.71 98.9325 105.393 100.365L107.301 101.107L105.393 101.668C104.344 101.976 105.417 102.054 107.778 101.839C110.138 101.625 113.671 101.913 115.629 102.48C118.838 103.409 119.026 103.631 117.537 104.738C116.628 105.413 113.86 105.979 111.384 105.995C107.49 106.021 106.968 105.805 107.51 104.391C108.07 102.925 107.959 102.898 106.422 104.124C104.401 105.733 93.4031 106.411 93.7331 104.905C93.8514 104.365 93.4108 103.733 92.7546 103.497C91.9906 103.223 91.7703 103.6 92.1413 104.546C92.8862 106.445 90.9252 106.466 88.9976 104.58C88.185 103.786 87.2627 103.389 86.947 103.698C86.6313 104.007 87.0042 104.65 87.7758 105.128C88.7449 105.728 87.6118 106 84.1152 106.01C81.229 106.018 79.2871 105.651 79.6 105.156C79.9023 104.678 79.6467 103.984 79.0325 103.612C78.3353 103.19 78.1712 103.341 78.5966 104.013C79.0687 104.762 78.0749 105.091 75.349 105.091C73.1886 105.091 71.6635 104.707 71.9602 104.237C72.2568 103.768 71.9602 103.203 71.3011 102.98C69.5509 102.388 88.1468 99.2302 90.2566 99.7611C91.4937 100.072 91.2361 100.243 89.4173 100.317C87.9752 100.377 86.7944 100.832 86.7944 101.33C86.7944 101.826 87.3314 102.072 87.9866 101.874C88.6428 101.676 90.3768 101.257 91.8408 100.943C93.3049 100.628 94.2682 99.9991 93.9811 99.5447C93.6941 99.0902 93.9983 98.5061 94.6574 98.2457C96.3933 97.5617 92.8938 97.7334 86.3175 98.6572ZM80.8933 102.929C81.581 103.199 82.4041 103.165 82.7208 102.855C83.0374 102.546 82.4747 102.325 81.4694 102.366C80.3582 102.41 80.1322 102.632 80.8933 102.929ZM96.0938 102.91C96.75 103.169 97.823 103.169 98.4782 102.91C99.1344 102.651 98.5975 102.439 97.286 102.439C95.9745 102.439 95.4385 102.651 96.0938 102.91ZM68.414 103.789C68.0973 104.098 67.2742 104.132 66.5865 103.862C65.8254 103.565 66.0515 103.343 67.1626 103.299C68.1679 103.259 68.7307 103.479 68.414 103.789ZM74.2168 103.862C74.9045 104.132 75.7276 104.098 76.0443 103.789C76.3609 103.479 75.7982 103.259 74.7929 103.299C73.6817 103.343 73.4557 103.565 74.2168 103.862ZM83.4628 104.148C83.129 104.676 83.5114 104.833 84.3603 104.515C86.0123 103.894 86.3146 103.225 84.9431 103.225C84.449 103.225 83.7833 103.64 83.4628 104.148ZM113.5 104.158C113.5 104.671 113.904 105.091 114.398 105.091C114.892 105.091 115.561 104.671 115.885 104.158C116.209 103.645 115.805 103.225 114.987 103.225C114.17 103.225 113.5 103.645 113.5 104.158ZM74.9913 106.958C75.7124 106.958 76.3027 107.558 76.3027 108.291C76.3027 109.024 76.8998 110.209 77.6304 110.922C78.361 111.637 79.1698 113.032 79.4273 114.022C79.6858 115.012 79.9462 113.77 80.0072 111.263L80.1179 106.704L84.5434 107.297C86.9765 107.624 91.054 107.891 93.6044 107.891H98.2398V111.623C98.2398 113.676 98.669 115.356 99.1936 115.356C99.7182 115.356 100.147 114.281 100.147 112.968C100.147 111.614 100.56 110.829 101.101 111.157C101.626 111.474 102.062 112.863 102.069 114.244C102.081 116.209 102.286 116.45 103.009 115.356C103.517 114.586 103.94 112.591 103.948 110.923C103.962 107.953 104.051 107.891 108.255 107.891C112.387 107.891 112.547 107.994 112.547 110.69C112.547 112.23 113.008 113.49 113.572 113.49C114.157 113.49 114.465 112.187 114.287 110.457C114.011 107.754 114.261 107.392 116.6 107.129C119.087 106.849 119.23 107.043 119.353 110.862C119.424 113.077 119.668 113.945 119.896 112.79C120.123 111.634 120.678 110.69 121.127 110.69C121.577 110.69 122.124 109.956 122.344 109.057C122.723 107.503 122.778 107.503 123.47 109.059C125.624 113.901 121.523 117.289 109.685 120.446C100.724 122.836 98.566 124.159 97.2459 128.073C95.8219 132.292 96.4305 155.115 98.0385 157.829C99.102 159.623 99.1363 159.615 99.165 157.581C99.1993 155.064 100.035 155.009 108.771 156.954C117.071 158.8 118.841 160.682 111.502 159.86C108.667 159.542 105.382 159.007 104.201 158.672C102.885 158.298 102.055 158.465 102.055 159.104C102.055 159.678 103.02 160.171 104.201 160.202C106.233 160.254 106.253 160.315 104.55 161.368C103.562 161.979 101.499 163.482 99.9652 164.707C97.2803 166.852 96.9302 166.894 90.5065 165.857C86.8373 165.264 82.4632 164.224 80.7846 163.545L77.7334 162.311L83.3159 160.709C86.3871 159.827 89.8684 158.157 91.053 156.998C93.8667 154.246 94.7079 147.366 93.612 136.077C92.6277 125.932 90.9357 123.359 84.5444 122.289C81.416 121.766 80.9915 121.488 82.5023 120.957C84.0313 120.419 83.5572 120.088 80.1179 119.29C77.7573 118.742 74.7929 117.986 73.5311 117.611C71.902 117.127 71.4337 117.242 71.9182 118.008C72.831 119.453 71.9935 119.369 68.6534 117.679C67.1216 116.904 65.4258 115.462 64.8859 114.474C63.6317 112.183 63.6155 108.824 64.8573 108.824C65.3819 108.824 65.8111 109.638 65.8111 110.635C65.8111 111.632 66.2403 112.706 66.7649 113.023C67.3429 113.372 67.7187 112.061 67.7187 109.695C67.7187 105.82 67.7406 105.796 70.6993 106.374C72.3388 106.695 74.2702 106.958 74.9913 106.958ZM90.6095 111.865C90.6095 113.896 91.2438 115.294 92.5171 116.073C94.2692 117.143 94.4247 117.005 94.4247 114.375C94.4247 112.705 94.0279 111.753 93.4709 112.09C92.9463 112.407 92.5171 111.802 92.5171 110.745C92.5171 109.689 92.0879 108.824 91.5633 108.824C91.0387 108.824 90.6095 110.193 90.6095 111.865ZM106.109 109.494C104.7 109.988 104.479 116.289 105.87 116.289C106.395 116.289 106.824 115.659 106.824 114.889C106.824 114.119 107.253 113.49 107.778 113.49C108.88 113.49 109.083 110.062 108.016 109.471C107.623 109.254 106.765 109.264 106.109 109.494ZM109.7 110.457C109.708 111.355 110.131 112.72 110.639 113.49C111.341 114.551 111.567 114.158 111.578 111.857C111.586 110.189 111.164 108.824 110.639 108.824C110.114 108.824 109.692 109.558 109.7 110.457ZM59.1346 114.834C59.1346 115.634 59.5638 116.289 60.0884 116.289C60.613 116.289 61.0422 115.894 61.0422 115.411C61.0422 114.928 60.613 114.273 60.0884 113.956C59.5638 113.639 59.1346 114.035 59.1346 114.834ZM83.4561 118.934C86.2583 120.146 103.171 121 105.393 120.042C106.757 119.454 105.532 119.199 101.101 119.147C97.6914 119.108 91.8971 118.858 88.2251 118.592C83.9569 118.282 82.2372 118.405 83.4561 118.934ZM93.7274 123.468C94.6555 123.705 95.9431 123.689 96.5888 123.433C97.2345 123.177 96.4753 122.984 94.9015 123.003C93.3278 123.022 92.7994 123.231 93.7274 123.468ZM103.962 142.417C103.962 142.93 104.392 143.35 104.916 143.35C105.441 143.35 105.87 142.93 105.87 142.417C105.87 141.904 105.441 141.484 104.916 141.484C104.392 141.484 103.962 141.904 103.962 142.417ZM86.3585 143.286C85.7071 144.317 87.2112 145.431 88.0925 144.569C88.9986 143.681 88.8298 142.417 87.8044 142.417C87.3104 142.417 86.6599 142.808 86.3585 143.286ZM78.6872 146.15C78.3629 146.663 78.7673 147.083 79.5847 147.083C80.4021 147.083 81.0717 146.663 81.0717 146.15C81.0717 145.636 80.6682 145.216 80.1742 145.216C79.6801 145.216 79.0115 145.636 78.6872 146.15ZM87.7482 148.949C87.7482 149.462 88.1774 149.882 88.7019 149.882C89.2265 149.882 89.6557 149.462 89.6557 148.949C89.6557 148.436 89.2265 148.016 88.7019 148.016C88.1774 148.016 87.7482 148.436 87.7482 148.949ZM73.9183 150.815C74.2426 151.329 74.9112 151.748 75.4052 151.748C75.8993 151.748 76.3027 151.329 76.3027 150.815C76.3027 150.302 75.6332 149.882 74.8158 149.882C73.9984 149.882 73.594 150.302 73.9183 150.815ZM85.3637 150.815C85.0394 151.329 85.4686 151.748 86.3175 151.748C87.1664 151.748 87.5956 151.329 87.2713 150.815C86.947 150.302 86.5178 149.882 86.3175 149.882C86.1172 149.882 85.688 150.302 85.3637 150.815ZM104.916 150.815C104.916 151.329 105.56 151.748 106.347 151.748C107.134 151.748 107.778 151.329 107.778 150.815C107.778 150.302 107.134 149.882 106.347 149.882C105.56 149.882 104.916 150.302 104.916 150.815ZM132.576 153.148C132.576 153.918 133.005 154.548 133.53 154.548C134.054 154.548 134.484 153.918 134.484 153.148C134.484 152.378 134.054 151.748 133.53 151.748C133.005 151.748 132.576 152.378 132.576 153.148ZM114.028 153.535C113.721 154.022 113.876 154.665 114.373 154.965C114.87 155.266 115.527 155.113 115.834 154.627C116.141 154.141 115.986 153.498 115.489 153.198C114.992 152.897 114.335 153.049 114.028 153.535ZM120.177 154.603C120.177 155.146 120.606 155.332 121.131 155.015C121.655 154.697 122.084 154.253 122.084 154.026C122.084 153.8 121.655 153.615 121.131 153.615C120.606 153.615 120.177 154.06 120.177 154.603ZM90.6095 155.323C90.6095 156.38 87.463 157.849 80.2571 160.157C74.481 162.008 73.9774 162.027 69.5271 160.581C66.9585 159.747 64.8573 158.677 64.8573 158.206C64.8573 157.073 66.4521 157.118 68.7354 158.313C69.775 158.858 70.58 158.906 70.58 158.422C70.58 157.951 71.4384 157.346 72.4876 157.077C73.7275 156.759 74.3952 157.049 74.3952 157.902C74.3952 158.623 74.8244 159.214 75.349 159.214C75.8735 159.214 76.3027 158.374 76.3027 157.347C76.3027 155.895 76.9389 155.481 79.1641 155.481C80.7378 155.481 82.0255 155.901 82.0255 156.414C82.0255 157.898 85.8425 157.495 86.4491 155.948C87.0195 154.496 90.6095 153.956 90.6095 155.323ZM125.432 155.466C124.729 156.579 125.622 158.281 126.91 158.281C128.07 158.281 128.078 155.755 126.919 155.055C126.431 154.759 125.762 154.945 125.432 155.466ZM52.4581 158.281C52.4581 158.794 53.1019 159.214 53.8888 159.214C54.6757 159.214 55.3195 158.794 55.3195 158.281C55.3195 157.767 54.6757 157.347 53.8888 157.347C53.1019 157.347 52.4581 157.767 52.4581 158.281ZM65.8111 161.08C66.9681 161.812 66.8307 161.987 65.0958 161.999C63.9159 162.007 62.9498 161.593 62.9498 161.08C62.9498 159.911 63.9617 159.911 65.8111 161.08ZM93.7274 160.793C94.6555 161.03 95.9431 161.015 96.5888 160.759C97.2345 160.503 96.4753 160.31 94.9015 160.329C93.3278 160.347 92.7994 160.556 93.7274 160.793ZM126.853 162.845C126.853 164.416 125.796 164.686 117.308 165.28C112.058 165.648 107.565 166.261 107.324 166.642C107.082 167.024 113.632 167.294 121.876 167.241C130.122 167.188 140.087 167.467 144.021 167.862C149.022 168.362 150.695 168.29 149.58 167.622C148.703 167.097 144.625 166.425 140.519 166.128C131.02 165.441 130.708 165.333 131.345 162.952C131.828 161.142 132.321 161.026 137.231 161.564C147.547 162.696 154.055 164.027 156.343 165.471L158.651 166.928L156.005 168.285C152.218 170.225 135.662 171.604 124.234 170.929C115.03 170.386 102.757 167.612 101.624 165.818C100.784 164.488 104.094 163.757 105.562 164.95C106.654 165.836 107.024 165.666 107.448 164.082C108.008 161.981 109.969 161.582 121.369 161.243C126.172 161.1 126.853 161.299 126.853 162.845ZM62.2726 164.813C62.6903 166.376 62.2821 166.694 59.7603 166.772C58.1045 166.823 55.6772 167.188 54.3657 167.584C52.8816 168.031 56.7559 168.437 64.6208 168.657C76.5612 168.992 79.9681 168.54 75.1105 167.267C73.9307 166.958 70.9253 166.698 68.434 166.692C64.5073 166.681 63.9036 166.424 63.9036 164.766C63.9036 162.979 64.2927 162.892 69.8647 163.45C73.1438 163.779 78.8579 164.849 82.5634 165.83C86.2688 166.809 91.3325 167.612 93.8161 167.612H98.3304L98.0471 173.436C97.782 178.868 97.5712 179.35 94.9015 180.612C93.3278 181.356 87.5803 182.932 82.1285 184.116C76.6776 185.298 71.6845 186.699 71.034 187.227C69.7436 188.275 67.7187 199.848 67.7187 206.18C67.7187 209.6 69.5156 218.273 71.1294 222.641C71.5271 223.719 71.799 223.758 72.3894 222.823C73.3145 221.358 82.0703 222.278 84.6293 224.109C86.7314 225.613 86.0294 226.33 81.3855 227.424C77.6066 228.313 57.7516 228.696 55.2861 227.926C54.5174 227.685 52.709 227.236 51.2659 226.926C49.8228 226.618 48.643 225.776 48.643 225.056C48.643 223.724 54.0376 222.035 55.0696 223.045C55.3824 223.351 54.9475 223.601 54.1044 223.601C53.2603 223.601 52.2884 224.048 51.944 224.594C51.5168 225.269 52.4877 225.379 54.9876 224.937C60.0188 224.049 60.9812 223.332 58.1713 222.567L55.7964 221.92L58.4193 221.828C59.8624 221.776 61.0422 222.179 61.0422 222.723C61.0422 224.594 63.1472 222.432 64.5712 219.097C66.4797 214.631 66.3681 198.893 64.3823 192.209C62.5816 186.15 61.1338 185.139 50.5954 182.594C40.6293 180.185 38.1514 178.192 38.1514 172.582C38.1514 168.09 38.0407 168.195 41.4276 169.455C43.1406 170.092 43.8741 171.055 43.8741 172.666C43.8741 173.931 44.3033 175.226 44.8279 175.544C45.3563 175.863 45.7816 175.18 45.7816 174.012C45.7816 171.596 47.2562 172.638 47.9487 175.544C48.2939 176.992 48.56 176.705 49.138 174.263C49.881 171.121 49.8867 171.118 54.5078 171.653C57.0525 171.948 59.1346 171.823 59.1346 171.374C59.1346 170.926 56.3191 170.265 52.8778 169.905C47.9525 169.389 46.7345 168.959 47.1551 167.887C47.4489 167.139 47.6892 166.116 47.6892 165.614C47.6892 165.113 48.0698 164.933 48.5352 165.214C48.9997 165.495 49.9106 165.1 50.5592 164.336C51.3298 163.428 53.4758 162.946 56.7559 162.946C60.9716 162.946 61.8529 163.245 62.2726 164.813ZM129.715 163.879C129.715 164.393 129.26 164.813 128.705 164.813C128.15 164.813 127.96 164.393 128.284 163.879C128.608 163.366 129.062 162.946 129.294 162.946C129.526 162.946 129.715 163.366 129.715 163.879ZM44.4998 168.244C43.752 168.975 40.0589 167.597 40.0589 166.585C40.0589 166.091 41.0251 165.331 42.205 164.898C43.938 164.263 44.412 164.464 44.6667 165.943C44.8403 166.949 44.7649 167.984 44.4998 168.244ZM75.5874 170.175C68.2538 170.344 62.9498 170.846 62.9498 171.372C62.9498 171.87 65.6738 172.278 69.0025 172.278C78.96 172.278 92.5171 171.122 92.5171 170.271C92.5171 169.836 91.5518 169.57 90.3711 169.682C89.1903 169.794 82.5376 170.017 75.5874 170.175ZM93.5605 173.677C93.5939 176.244 93.8715 177.721 94.1767 176.96C94.4819 176.2 95.325 174.996 96.0508 174.286C97.43 172.936 97.3585 171.096 95.9383 171.354C95.4853 171.437 94.7518 170.943 94.3073 170.257C93.8085 169.488 93.5233 170.792 93.5605 173.677ZM103.009 173.048C103.009 174.09 103.563 174.287 111.593 176.097C118.186 177.584 139.709 177.8 141.148 176.395C141.895 175.664 139.442 175.497 132.374 175.797C123.312 176.181 109.555 174.661 104.678 172.737C103.727 172.362 103.009 172.495 103.009 173.048ZM85.8406 175.305C82.9554 175.754 74.6928 175.991 67.4793 175.832C60.2658 175.673 54.3648 175.859 54.3648 176.244C54.3657 176.628 61.8768 176.943 71.0569 176.943C85.6479 176.943 87.7482 177.129 87.7482 178.421C87.7482 179.233 88.2851 179.723 88.9404 179.51C89.5966 179.296 90.1326 178.526 90.1326 177.799C90.1326 177.071 90.5494 176.185 91.0587 175.827C92.7517 174.641 91.1417 174.48 85.8406 175.305ZM45.3439 179.608C46.6286 180.968 54.8416 182.474 56.2695 181.611C56.8723 181.247 55.5112 180.683 53.2431 180.358C50.975 180.034 48.0469 179.496 46.7354 179.162C44.9938 178.719 44.619 178.84 45.3439 179.608ZM104.916 179.532C104.916 180.84 113.574 182.844 114.655 181.785C115.181 181.271 114.025 180.698 111.736 180.34C109.651 180.013 107.264 179.491 106.43 179.178C105.597 178.866 104.916 179.025 104.916 179.532ZM77.0295 183.202C78.216 183.425 79.9328 183.417 80.8447 183.183C81.7565 182.95 80.7855 182.767 78.6872 182.777C76.5889 182.788 75.843 182.979 77.0295 183.202ZM62.7113 184.15C64.4157 184.357 67.2065 184.357 68.9109 184.15C70.6153 183.944 69.2209 183.774 65.8111 183.774C62.4013 183.774 61.0069 183.944 62.7113 184.15ZM91.7541 193.371C91.3058 203.241 92.6907 213.336 94.4933 213.336C94.9798 213.336 95.3784 212.8 95.3784 212.145C95.3784 211.314 96.5573 211.064 99.2842 211.319C102.831 211.649 103.149 211.89 102.747 213.946C102.471 215.363 102.703 216.071 103.372 215.839C103.959 215.635 104.38 214.779 104.307 213.935C104.157 212.206 104.191 212.189 106.269 212.969C108.678 213.874 108.032 215.193 104.47 216.65C100.686 218.197 90.166 218.526 91.0864 217.069C91.4279 216.527 90.4998 216.135 88.8774 216.135C87.338 216.135 84.6302 215.87 82.86 215.546C80.6177 215.134 79.93 215.255 80.5948 215.94C81.1194 216.482 82.8362 217.133 84.4099 217.388C85.9837 217.643 84.6961 217.734 81.5486 217.592C71.9525 217.157 67.8656 214.524 74.3952 212.983C75.7066 212.674 76.2436 212.661 75.5874 212.956C73.0618 214.091 74.5468 215.054 77.3481 214.098C79.516 213.358 79.9595 212.879 79.0172 212.295C78.0787 211.712 78.2895 211.495 79.8012 211.484C80.9391 211.476 82.5529 211.213 83.3894 210.9C84.5587 210.46 84.7552 210.728 84.2421 212.066C83.6621 213.578 83.7775 213.642 85.1367 212.562C87.8588 210.397 89.0367 204.838 88.9213 194.696C88.8183 185.551 89.3047 183.549 91.6453 183.489C91.9524 183.482 92.002 187.928 91.7541 193.371ZM87.1473 187.441C87.958 190.403 87.8607 203.331 87.0185 204.561C86.6332 205.123 85.1672 205.859 83.7613 206.196C82.3555 206.532 80.4613 207.535 79.5513 208.425C78.0911 209.854 72.2892 212.351 70.3416 212.389C68.6658 212.422 70.1947 190.074 71.9888 188.318C72.6145 187.706 82.0998 185.516 84.5368 185.421C85.8797 185.369 86.7677 186.056 87.1473 187.441ZM66.5865 187.845C67.2742 188.115 68.0973 188.081 68.414 187.772C68.7307 187.462 68.1679 187.242 67.1626 187.282C66.0515 187.326 65.8254 187.548 66.5865 187.845ZM99.1936 195.606C99.1936 196.12 99.6228 196.539 100.147 196.539C100.672 196.539 101.101 196.12 101.101 195.606C101.101 195.093 100.672 194.673 100.147 194.673C99.6228 194.673 99.1936 195.093 99.1936 195.606ZM50.1147 196.475C49.4633 197.506 50.9674 198.62 51.8487 197.758C52.7548 196.871 52.5859 195.606 51.5606 195.606C51.0666 195.606 50.4161 195.997 50.1147 196.475ZM109.685 196.539C109.685 197.053 110.329 197.473 111.116 197.473C111.903 197.473 112.547 197.053 112.547 196.539C112.547 196.026 111.903 195.606 111.116 195.606C110.329 195.606 109.685 196.026 109.685 196.539ZM76.7796 198.406C76.4554 198.919 76.8846 199.339 77.7334 199.339C78.5823 199.339 79.0115 198.919 78.6872 198.406C78.3629 197.893 77.9337 197.473 77.7334 197.473C77.5331 197.473 77.1039 197.893 76.7796 198.406ZM95.3784 200.739C95.3784 201.508 96.0222 202.138 96.8091 202.138C97.596 202.138 98.2398 201.508 98.2398 200.739C98.2398 199.969 97.596 199.339 96.8091 199.339C96.0222 199.339 95.3784 199.969 95.3784 200.739ZM113.208 200.868C112.446 201.614 113.308 203.071 114.51 203.071C115.004 203.071 115.408 202.442 115.408 201.672C115.408 200.229 114.282 199.818 113.208 200.868ZM36.8533 201.853C35.9443 202.742 36.1169 204.938 37.0955 204.938C38.2658 204.938 39.2053 202.309 38.2429 201.727C37.8147 201.468 37.189 201.524 36.8533 201.853ZM52.8959 202.201C51.8697 203.825 53.038 204.17 54.3466 202.627C55.0992 201.741 55.1717 201.205 54.5383 201.205C53.9813 201.205 53.2412 201.653 52.8959 202.201ZM78.7282 203.007C78.0768 204.038 79.5809 205.152 80.4622 204.29C81.3683 203.403 81.1995 202.138 80.1742 202.138C79.6801 202.138 79.0296 202.529 78.7282 203.007ZM60.0884 204.06C60.0884 204.603 60.5176 204.788 61.0422 204.471C61.5668 204.154 61.996 203.71 61.996 203.483C61.996 203.256 61.5668 203.071 61.0422 203.071C60.5176 203.071 60.0884 203.517 60.0884 204.06ZM72.0107 204.938C72.335 205.451 72.789 205.871 73.0208 205.871C73.2525 205.871 73.4414 205.451 73.4414 204.938C73.4414 204.424 72.9864 204.005 72.4313 204.005C71.8762 204.005 71.6864 204.424 72.0107 204.938ZM161.19 204.938C161.19 205.451 161.619 205.871 162.143 205.871C162.668 205.871 163.097 205.451 163.097 204.938C163.097 204.424 162.668 204.005 162.143 204.005C161.619 204.005 161.19 204.424 161.19 204.938ZM75.349 206.804C75.349 207.317 75.7782 207.737 76.3027 207.737C76.8273 207.737 77.2565 207.317 77.2565 206.804C77.2565 206.291 76.8273 205.871 76.3027 205.871C75.7782 205.871 75.349 206.291 75.349 206.804ZM86.1859 208.204C85.8835 208.974 84.6093 209.603 83.3541 209.603C80.488 209.603 80.4326 208.862 83.2177 207.766C86.3003 206.554 86.8039 206.628 86.1859 208.204ZM99.1936 207.737C98.1539 208.394 98.9361 208.641 102.055 208.641C104.416 208.641 106.991 208.235 107.778 207.737C108.817 207.08 108.035 206.833 104.916 206.833C102.556 206.833 99.9804 207.24 99.1936 207.737ZM20.0295 209.082C20.0295 209.882 20.4587 210.537 20.9833 210.537C21.5078 210.537 21.937 210.142 21.937 209.659C21.937 209.175 21.5078 208.521 20.9833 208.204C20.4587 207.886 20.0295 208.282 20.0295 209.082ZM138.776 208.67C139.1 209.184 139.554 209.603 139.786 209.603C140.017 209.603 140.206 209.184 140.206 208.67C140.206 208.157 139.751 207.737 139.196 207.737C138.641 207.737 138.451 208.157 138.776 208.67ZM41.9665 209.713C41.9665 210.287 42.803 210.54 43.8283 210.278C44.8527 210.016 45.8913 210.282 46.1374 210.869C46.3835 211.456 46.6191 211.201 46.6601 210.303C46.7249 208.904 47.7236 208.672 53.6504 208.683C57.4531 208.69 61.5677 208.959 62.7924 209.28C64.7648 209.796 64.9498 210.248 64.411 213.232C63.0661 220.674 64.3528 220.151 48.7803 219.593C32.4535 219.009 26.6888 217.801 27.406 215.116C27.6683 214.138 28.2616 213.336 28.7251 213.336C29.1877 213.336 29.5673 212.725 29.5673 211.978C29.5673 211.134 30.9179 210.406 33.144 210.05C35.1117 209.736 37.3645 209.346 38.1514 209.183C41.0852 208.576 41.9665 208.698 41.9665 209.713ZM157.374 209.603C157.374 210.117 157.804 210.537 158.328 210.537C158.853 210.537 159.282 210.117 159.282 209.603C159.282 209.09 158.853 208.67 158.328 208.67C157.804 208.67 157.374 209.09 157.374 209.603ZM132.576 211.415C132.576 211.898 132.147 212.552 131.622 212.869C131.098 213.187 130.668 212.791 130.668 211.991C130.668 211.192 131.098 210.537 131.622 210.537C132.147 210.537 132.576 210.931 132.576 211.415ZM9.53784 212.403C9.53784 212.916 9.96705 213.336 10.4916 213.336C11.0162 213.336 11.4454 212.916 11.4454 212.403C11.4454 211.89 11.0162 211.47 10.4916 211.47C9.96705 211.47 9.53784 211.89 9.53784 212.403ZM26.4742 215.74C25.5357 216.659 23.8446 215.249 23.8446 213.548C23.8446 212.123 23.9705 212.126 25.4565 213.581C26.3435 214.448 26.8013 215.42 26.4742 215.74ZM34.5928 213.28C28.8682 214.193 28.1309 215.589 33.7544 214.867C36.3192 214.538 43.319 214.269 49.3097 214.269C56.3276 214.269 59.9911 213.937 59.6115 213.336C58.9544 212.296 41.0175 212.255 34.5928 213.28ZM88.495 213.555C90.104 214.314 90.9615 214.298 91.7855 213.492C92.6334 212.662 92.1165 212.418 89.608 212.466C86.5178 212.525 86.4501 212.591 88.495 213.555ZM138.691 215.669C138.322 217.106 138.498 218.002 139.149 218.002C139.73 218.002 140.206 216.952 140.206 215.669C140.206 213.44 140.461 213.336 145.929 213.336H151.652L151.804 217.768C151.908 220.788 152.074 221.3 152.326 219.376C152.856 215.315 156.499 213.905 162.96 215.261C167.504 216.214 167.866 216.491 167.866 219.012C167.866 222.215 169.109 222.513 171.065 219.778C172.062 218.387 173.039 218.002 174.458 218.442C176.748 219.153 176.982 220.141 175.205 221.583C173.932 222.617 164.48 224.227 155.944 224.863C153.321 225.059 156.004 225.17 161.906 225.11C171.885 225.008 172.637 225.125 172.636 226.789C172.636 227.773 172.901 228.318 173.225 227.999C174.178 227.067 176.618 229.995 176.281 231.667C176.112 232.509 175.247 233.646 174.359 234.193C173.07 234.988 172.355 234.701 170.801 232.768C168.269 229.619 162.838 227.551 155.053 226.771C149.964 226.26 148.79 225.836 148.79 224.506C148.79 222.753 144.037 220.48 138.084 219.388C135.242 218.867 134.607 218.311 134.267 216.049C133.899 213.596 134.12 213.336 136.574 213.336C138.993 213.336 139.224 213.59 138.691 215.669ZM135.993 215.077C135.582 215.728 135.504 216.512 135.819 216.819C136.673 217.655 137.603 216.427 137.142 215.074C136.819 214.126 136.594 214.125 135.993 215.077ZM141.311 216.135C141.311 217.419 141.527 217.944 141.791 217.302C142.057 216.661 142.057 215.611 141.791 214.969C141.527 214.328 141.311 214.852 141.311 216.135ZM111.593 216.135C113.486 217.333 123.992 217.333 123.992 216.135C123.992 215.598 121.061 215.208 117.077 215.216C112.26 215.227 110.596 215.506 111.593 216.135ZM31.1725 219.237C33.8908 219.987 39.1691 220.899 42.9003 221.266C48.6487 221.83 49.4356 222.11 48.0555 223.099C45.9047 224.636 46.9224 227.069 50.2873 228.436C52.9341 229.51 52.9331 229.511 48.643 230.185C43.7329 230.956 30.5259 229.767 27.7284 228.302C24.8079 226.773 22.8908 223.49 22.8908 220.018C22.8908 217.429 23.1951 216.945 24.5599 217.364C25.4784 217.645 28.4533 218.489 31.1725 219.237ZM9.53784 218.935C9.53784 219.448 9.96705 219.868 10.4916 219.868C11.0162 219.868 11.4454 219.448 11.4454 218.935C11.4454 218.422 11.0162 218.002 10.4916 218.002C9.96705 218.002 9.53784 218.422 9.53784 218.935ZM2.86135 220.28C2.86135 221.079 3.29056 221.734 3.81514 221.734C4.33972 221.734 4.76892 221.34 4.76892 220.856C4.76892 220.373 4.33972 219.719 3.81514 219.401C3.29056 219.084 2.86135 219.48 2.86135 220.28ZM22.3023 224.541C23.2304 226.598 25.137 228.928 26.54 229.719C28.9493 231.078 28.6669 231.128 21.4601 230.614C9.16968 229.738 7.8878 229.369 7.32125 226.547C7.04751 225.183 7.21919 223.668 7.70372 223.181C8.25023 222.63 8.58406 223.002 8.58406 224.161C8.58406 225.187 9.0991 226.531 9.7286 227.147C11.1679 228.555 15.2605 228.617 15.2605 227.232C15.2605 226.595 14.3449 226.422 12.8761 226.784C10.9227 227.263 10.4916 227.028 10.4916 225.485C10.4916 224.449 10.4659 223.286 10.4354 222.901C10.3629 222.005 13.951 221.014 17.7003 220.895C20.2221 220.813 20.844 221.306 22.3023 224.541ZM90.6095 223.125C90.6095 225.36 90.683 225.388 92.5171 223.851C93.5662 222.972 94.4247 221.927 94.4247 221.527C94.4247 221.128 93.5662 220.801 92.5171 220.801C91.1198 220.801 90.6095 221.424 90.6095 223.125ZM155.944 221.734C156.268 222.248 158.414 222.667 160.713 222.667C163.011 222.667 165.157 222.248 165.482 221.734C165.848 221.155 164.042 220.801 160.713 220.801C157.383 220.801 155.577 221.155 155.944 221.734ZM17.2845 223.511C16.5615 223.959 16.2534 224.774 16.5997 225.322C17.4342 226.644 20.0295 225.619 20.0295 223.967C20.0295 222.481 19.1749 222.339 17.2845 223.511ZM66.5865 223.305C67.2742 223.575 68.0973 223.541 68.414 223.231C68.7307 222.921 68.1679 222.701 67.1626 222.741C66.0515 222.786 65.8254 223.007 66.5865 223.305ZM26.9005 224.061C27.798 224.994 37.9558 227.301 41.2512 227.318C46.0535 227.345 43.9561 225.735 38.3898 225.122C35.374 224.789 31.4033 224.258 29.5673 223.94C27.7313 223.622 26.5314 223.676 26.9005 224.061ZM5.96783 226.282C6.32645 227.626 6.02219 227.924 4.64779 227.573C2.80222 227.101 2.39209 226.238 3.49753 225.156C4.60296 224.075 5.48521 224.476 5.96783 226.282ZM75.349 226.4C73.0723 227.114 73.1018 227.151 76.008 227.24C77.6819 227.291 79.3167 226.913 79.641 226.4C80.3191 225.327 78.774 225.327 75.349 226.4ZM112.547 228.252C112.547 228.647 111.903 229.493 111.116 230.133C110.329 230.772 109.685 231.897 109.685 232.634C109.685 233.373 109.256 233.716 108.731 233.399C108.207 233.081 107.778 232.007 107.778 231.011C107.778 229.13 106.27 228.494 105.709 230.139C105.504 230.742 104.251 230.658 102.214 229.906L99.0391 228.733L104.601 227.751C110.183 226.765 112.547 226.914 112.547 228.252ZM87.7482 230.499C87.7482 234.185 90.0592 235.681 91.549 232.959C92.0812 231.985 92.5171 230.568 92.5171 229.808C92.5171 228.759 93.1475 228.591 95.14 229.109C97.3175 229.674 97.8134 230.373 98.0586 233.227C98.3504 236.609 98.2989 236.665 94.9025 236.665C92.8442 236.665 91.6882 237.042 92.0402 237.598C93.7742 240.343 101.101 236.439 101.101 232.77C101.101 231.833 101.372 231.066 101.704 231.066C102.872 231.066 108.731 234.961 108.731 235.737C108.731 236.962 99.5408 239.392 90.7297 240.498C84.9507 241.223 80.199 241.211 73.5396 240.454C64.884 239.469 54.7558 237.358 53.6904 236.316C53.4281 236.058 53.6132 234.667 54.1015 233.223C54.7339 231.355 55.7239 230.514 57.539 230.304C59.9034 230.03 60.0884 230.263 60.0884 233.515C60.0884 236.798 60.1771 236.906 61.4886 235.21C62.2592 234.214 62.946 233.819 63.0146 234.332C63.0833 234.845 63.4839 234.215 63.9036 232.932L64.6675 230.599L64.7772 232.932C64.8373 234.215 65.2016 235.743 65.587 236.328C66.3214 237.441 88.7019 238.574 88.7019 237.498C88.7019 236.621 80.7121 235.732 72.831 235.732C68.9701 235.732 65.8168 235.417 65.8245 235.032C65.8311 234.646 66.0963 233.387 66.412 232.232C66.9194 230.383 67.6271 230.123 72.3607 230.058C75.3156 230.016 79.6648 229.441 82.0255 228.78C84.3861 228.118 86.6399 227.522 87.0328 227.455C87.4258 227.388 87.7482 228.758 87.7482 230.499ZM165.269 230.452C170.105 232.429 169.798 234.462 164.289 236.95C160.177 238.809 158.353 238.986 144.498 238.872C123.492 238.7 111.593 236.522 111.593 232.852C111.593 231.906 112.423 230.697 113.437 230.165C115.996 228.825 116.362 228.935 116.362 231.037C116.362 232.286 116.82 232.702 117.792 232.337C118.579 232.041 119.223 231.32 119.222 230.733C119.222 230.046 120.836 229.758 123.753 229.925C126.245 230.067 131.718 229.781 135.914 229.288C146.274 228.071 160.86 228.65 165.269 230.452ZM136.075 234.098C136.902 238.351 137.345 238.486 137.345 234.488C137.345 232.606 136.926 231.066 136.415 231.066C135.881 231.066 135.736 232.356 136.075 234.098ZM132.576 233.894C132.576 234.906 133.22 235.732 134.007 235.732C134.794 235.732 135.437 235.146 135.437 234.432C135.437 233.717 134.794 232.89 134.007 232.594C133.034 232.229 132.576 232.645 132.576 233.894ZM16.2811 234.565C16.3183 235.463 16.717 237.038 17.1681 238.064C17.8253 239.561 18.0008 239.238 18.0551 236.431C18.0914 234.507 17.6927 232.932 17.1681 232.932C16.6435 232.932 16.2449 233.667 16.2811 234.565ZM51.5044 234.387C51.5044 235.187 51.0752 235.582 50.5506 235.265C50.026 234.948 49.5968 234.294 49.5968 233.81C49.5968 233.327 50.026 232.932 50.5506 232.932C51.0752 232.932 51.5044 233.587 51.5044 234.387ZM140.206 234.919C140.206 235.649 141.887 235.788 145.691 235.368C148.706 235.035 153.213 235.137 155.705 235.593C160.013 236.383 161.946 235.64 158.727 234.432C155.922 233.378 140.206 233.792 140.206 234.919ZM112.224 239.697C111.96 240.339 111.743 239.814 111.743 238.531C111.743 237.248 111.96 236.723 112.224 237.365C112.489 238.007 112.489 239.056 112.224 239.697ZM7.63027 238.486C7.63027 239.403 14.2638 240.75 15.0402 239.99C15.8624 239.186 15.1051 238.844 11.207 238.255C9.24026 237.958 7.63027 238.062 7.63027 238.486ZM26.9196 238.503C29.3861 240.044 40.408 240.827 42.5436 239.614C44.0076 238.783 43.2627 238.58 38.6283 238.549C35.4808 238.528 31.1887 238.278 29.0904 237.993C26.086 237.586 25.6244 237.694 26.9196 238.503ZM64.5607 245.763C64.3213 246.661 64.1248 245.926 64.1248 244.13C64.1248 242.334 64.3213 241.599 64.5607 242.497C64.8011 243.395 64.8011 244.865 64.5607 245.763ZM24.5399 245.627C24.2233 245.936 23.4001 245.97 22.7125 245.7C21.9513 245.403 22.1774 245.181 23.2886 245.137C24.2938 245.097 24.8566 245.317 24.5399 245.627ZM133.053 245.994C134.839 246.747 159.111 247.324 158.249 246.592C158.03 246.408 151.842 246.016 144.498 245.723C136.713 245.412 131.941 245.525 133.053 245.994ZM119.223 246.984C119.223 247.419 120.833 248.212 122.8 248.746C127.207 249.944 129.469 250.018 128.236 248.924C126.881 247.722 119.223 246.074 119.223 246.984ZM97.286 247.862C97.286 248.376 98.7625 248.796 100.568 248.796C102.373 248.796 104.115 248.376 104.439 247.862C104.795 247.299 103.495 246.929 101.157 246.929C99.0286 246.929 97.286 247.349 97.286 247.862ZM30.2827 248.48C30.9389 248.74 32.0119 248.74 32.6671 248.48C33.3233 248.222 32.7863 248.01 31.4749 248.01C30.1634 248.01 29.6274 248.222 30.2827 248.48ZM70.1031 249.729C70.4274 250.242 73.9936 250.62 78.0281 250.569C83.1595 250.504 84.6474 250.251 82.9792 249.729C79.4159 248.613 69.3983 248.613 70.1031 249.729ZM19.0757 250.662C19.0757 251.175 19.5049 251.595 20.0295 251.595C20.5541 251.595 20.9833 251.175 20.9833 250.662C20.9833 250.149 20.5541 249.729 20.0295 249.729C19.5049 249.729 19.0757 250.149 19.0757 250.662ZM28.4733 259.15C28.6584 263.819 28.5201 269.908 28.1662 272.681C27.5815 277.26 27.3049 277.723 25.1522 277.723C21.0166 277.723 14.4813 279.721 12.8513 281.483C10.5012 284.023 11.4721 286.368 15.7374 288.454C18.8649 289.984 21.4439 290.319 30.0442 290.309C41.2025 290.297 46.3129 289.156 49.2029 286.032C52.3198 282.662 47.9916 279.078 39.3427 277.868C36.9391 277.531 34.816 276.799 34.6262 276.241C34.3839 275.531 37.9558 275.357 46.5361 275.659C57.4426 276.044 59.2834 275.88 63.255 274.16C66.928 272.571 67.7187 271.798 67.7187 269.791C67.7187 267.807 66.9366 267.015 63.5125 265.533C58.2409 263.252 52.8759 262.123 53.7295 263.475C54.0681 264.01 55.7439 264.707 57.455 265.023C59.1661 265.338 62.0236 266.467 63.8053 267.531C66.9814 269.426 67.01 269.499 65.236 271.202C64.2412 272.158 62.1391 273.186 60.5653 273.487C58.0826 273.962 57.9872 273.911 59.85 273.109C63.2693 271.636 62.3899 271.292 56.5117 271.802C49.1247 272.444 47.7722 272.881 49.6235 274.026C50.7079 274.697 50.4848 274.896 48.643 274.897C45.094 274.899 41.9169 273.891 42.5102 272.951C42.7982 272.497 42.6141 272.124 42.1019 272.124C41.5907 272.124 40.9212 272.65 40.615 273.291C40.2306 274.098 39.9016 274.14 39.5487 273.426C39.2683 272.86 37.9806 272.594 36.6873 272.835L34.3362 273.275L34.3219 262.669C34.3114 255.475 34.0091 252.512 33.3825 253.461C32.3466 255.03 32.2017 275.543 33.2108 277.723C33.6095 278.583 35.5122 279.246 38.1514 279.443C43.6442 279.854 48.643 281.89 48.643 283.717C48.643 287.801 30.5907 290.486 19.4839 288.054C8.23975 285.592 10.7444 281.823 25.4336 279.101C27.0951 278.794 28.7251 277.852 29.0561 277.008C30.8978 272.313 30.6737 250.663 28.7833 250.661C28.4275 250.661 28.2883 254.481 28.4733 259.15ZM107.962 263.259C108.685 263.914 108.833 263.549 108.458 262.035C107.966 260.04 108.154 259.922 110.951 260.479C121.805 262.636 123.493 263.713 119.764 266.104C116.53 268.177 97.7247 267.767 96.2902 265.592C94.7938 263.322 95.6493 260.489 97.9269 260.172C99.6457 259.932 99.9041 260.234 99.4454 261.95C98.4 265.863 101.01 262.851 102.185 258.788C102.81 256.628 104.003 254.315 104.834 253.648C106.176 252.572 106.38 252.994 106.64 257.381C106.801 260.101 107.396 262.746 107.962 263.259ZM50.5506 257.864C50.5506 262.713 51.2106 265.591 52.3218 265.593C53.245 265.595 52.4229 254.995 51.4204 253.975C50.892 253.436 50.5506 254.961 50.5506 257.864ZM100.945 257.658C100.766 257.832 99.3986 258.275 97.905 258.642C95.5988 259.209 95.2401 259.05 95.5272 257.592C95.9478 255.458 100.478 254.165 100.947 256.045C101.125 256.757 101.124 257.483 100.945 257.658ZM94.4247 264.542C94.4247 273.675 95.1839 278.884 96.4066 278.145C96.8444 277.88 96.935 276.981 96.6079 276.147C96.0842 274.811 96.6784 274.706 101.586 275.271C110.956 276.349 114.684 279.109 110.442 281.829C107.38 283.791 90.5819 284.302 88.3614 282.5C87.1282 281.498 86.4987 281.467 85.4057 282.355C83.4466 283.945 82.2982 282.923 81.8528 279.189C81.4465 275.785 82.5395 274.966 87.5278 274.937C89.3391 274.925 89.5985 275.289 89.1159 277.169C88.6667 278.922 88.9909 279.554 90.6009 280.053C91.734 280.405 92.9148 280.445 93.2248 280.141C93.5348 279.838 93.0254 279.589 92.0926 279.589C90.702 279.589 90.497 279.045 90.9529 276.557C91.259 274.888 91.797 269.639 92.1499 264.892C92.5028 260.145 93.158 256.261 93.6073 256.261C94.0574 256.261 94.4247 259.988 94.4247 264.542ZM90.6095 261.892C90.6095 266.364 90.5132 266.541 88.6228 265.551C86.7276 264.558 86.7124 264.428 88.2937 262.718C90.0392 260.832 89.8303 260.562 87.3495 261.493C85.0232 262.366 85.5516 265.504 88.2251 266.695C89.754 267.376 90.6095 268.521 90.6095 269.886C90.6095 272.43 90.2471 272.689 85.4457 273.571L81.726 274.253L82.2839 267.823C83.0937 258.485 83.624 257.646 88.9404 257.302C90.3234 257.213 90.6095 257.998 90.6095 261.892ZM110.639 262.588C110.639 263.414 116.504 265.765 117.103 265.178C117.482 264.806 112.208 261.86 111.164 261.86C110.875 261.86 110.639 262.187 110.639 262.588ZM38.6283 263.458C37.5791 263.705 36.2915 264.33 35.7669 264.846C34.5537 266.039 42.9966 264.837 44.3033 263.63C45.2561 262.75 42.0495 262.653 38.6283 263.458ZM137.345 275.04C137.345 278.882 137.339 278.889 134.258 278.286C128.543 277.167 126.868 272.779 131.802 271.857C137.133 270.861 137.345 270.983 137.345 275.04ZM132.378 273.111C131.478 273.623 130.99 274.657 131.287 275.414C132.152 277.619 133.994 277 134.144 274.456C134.22 273.174 134.22 272.137 134.144 272.152C134.069 272.168 133.273 272.599 132.378 273.111ZM77.2565 278.843C77.2565 280.35 76.9742 280.62 76.195 279.857C75.6113 279.286 75.4224 278.362 75.7743 277.804C76.7615 276.242 77.2565 276.589 77.2565 278.843ZM99.1936 279.473C99.1936 280.05 99.9442 280.528 100.863 280.536C101.781 280.542 103.605 280.809 104.916 281.129C106.645 281.55 107.03 281.423 106.317 280.667C104.872 279.136 99.1936 278.183 99.1936 279.473ZM36.2438 281.377C38.6454 282.715 43.8741 283.54 43.8741 282.579C43.8741 281.704 39.4008 280.495 36.363 280.551C35.0239 280.576 35.0077 280.688 36.2438 281.377ZM18.3603 282.418C17.1805 282.882 16.2143 283.49 16.2143 283.77C16.2143 284.533 24.1842 283.206 25.2276 282.269C26.4179 281.201 21.1673 281.314 18.3603 282.418ZM29.5673 282.389C28.4523 283.093 28.7156 283.297 30.7595 283.308C32.2026 283.315 33.3825 282.902 33.3825 282.389C33.3825 281.209 31.4339 281.209 29.5673 282.389ZM25.2753 287.055C25.5996 287.568 27.5558 287.988 29.6236 287.988C31.6914 287.988 33.3825 287.568 33.3825 287.055C33.3825 286.541 31.4253 286.121 29.0342 286.121C26.3779 286.121 24.9148 286.484 25.2753 287.055ZM127.092 289.539C126.437 289.798 125.9 290.349 125.9 290.766C125.9 291.486 133.488 290.207 134.377 289.336C134.954 288.772 128.585 288.95 127.092 289.539ZM148.575 291.724C152.547 294.093 153.758 294.075 150.831 291.69C149.592 290.68 147.876 289.856 147.015 289.858C146.084 289.86 146.715 290.614 148.575 291.724ZM85.8406 292.359C85.8406 292.791 88.061 293.661 90.7755 294.292C95.9822 295.501 98.1768 295.154 94.3188 293.731C90.3673 292.275 85.8406 291.541 85.8406 292.359Z" fill="#D33756"/>
</svg>
