<svg width="21" height="936" viewBox="0 0 21 936" fill="none" xmlns="http://www.w3.org/2000/svg">
<path d="M12.5815 0.134241C9.4525 6.25218 7.63251 13.2079 7.33251 21.0546C7.24551 23.3368 7.31951 25.6329 7.31951 28.6466C9.34751 26.2863 11.1825 24.7967 13.2505 26.2535C14.0225 26.7975 14.7295 27.9541 15.1925 29.0999C16.2205 31.6462 15.8305 35.0631 14.4735 36.9247C12.5655 39.5429 10.1445 39.0818 7.23049 35.4273C6.27349 38.5425 6.2365 41.8406 6.7545 44.9027C7.8395 51.3192 8.98651 57.756 10.5265 63.9302C14.7845 81.0008 17.9545 98.484 19.4205 116.677C20.5375 130.545 20.4635 144.368 18.5295 158.085C17.6775 164.129 16.0015 169.606 13.8855 174.805C13.5685 175.583 13.3185 176.76 13.4465 177.6C14.8235 186.645 14.8355 195.819 13.6595 204.776C11.2665 223.006 8.5515 241.138 5.8185 259.256C3.8945 272.012 1.9455 284.773 2.1505 297.955C2.2385 303.599 2.86549 309.312 3.73549 314.805C4.24549 318.02 5.71951 320.863 6.75951 323.874C6.93451 323.872 6.96851 323.872 7.14351 323.872C7.46051 322.88 7.7385 321.851 8.0815 320.881C9.1445 317.872 10.9085 316.591 12.9915 316.457C14.6455 316.351 15.8355 318.183 16.2255 320.976C16.6355 323.911 15.8225 327.264 14.0715 328.091C12.2005 328.974 10.1765 329.071 7.82949 329.598C7.75749 332.296 7.55949 335.746 7.59249 339.189C7.75049 355.766 9.39549 372.009 12.1615 388.004C14.2515 400.093 16.4325 412.154 18.2415 424.346C20.1795 437.404 20.3175 450.628 18.1305 463.681C17.6635 466.468 16.3335 468.899 15.4125 471.505C15.2065 472.089 14.8495 472.755 14.8975 473.315C15.7625 483.389 14.0325 492.883 12.0385 502.204C8.7355 517.635 5.79649 533.214 3.73149 549.154C2.17649 561.157 1.52549 573.371 1.79149 585.592C1.92949 591.938 2.7955 598.292 3.6595 604.532C3.9765 606.823 5.23651 608.797 6.07451 610.936C7.16651 608.686 7.9625 606.77 8.9395 605.11C9.8855 603.502 11.1585 602.815 12.5515 603.578C13.9775 604.36 14.2585 606.343 14.3775 608.383C14.7145 614.123 11.5005 617.82 7.6025 616.113C5.9185 623.032 5.99349 630.341 6.37349 637.632C7.14549 652.423 8.9135 667.049 11.5775 681.293C14.0845 694.695 16.2095 708.277 16.8255 722.257C17.2795 732.572 17.2255 742.907 14.5035 752.686C14.3415 753.268 14.2715 753.982 14.0085 754.413C11.7955 758.058 12.6955 762.465 12.6555 766.695C12.5945 773.253 12.5715 779.839 12.1625 786.357C11.2815 800.376 8.54351 813.811 6.47551 827.453C3.96551 844.013 3.0225 860.81 3.6115 877.762C3.7965 883.092 4.70551 888.384 5.46251 893.63C5.74151 895.567 6.5385 897.322 7.1675 899.385C8.2005 897.571 8.8875 896.067 9.7585 894.901C11.3055 892.828 13.2485 892.859 14.2875 894.738C15.4605 896.859 15.2665 900.412 13.8185 902.493C12.3395 904.618 10.5495 904.823 8.48549 904.264C7.33849 913.461 6.8615 922.369 11.2155 930.111C11.8525 931.244 12.5525 932.304 13.1195 933.515C13.3695 934.05 13.3605 934.882 13.4695 935.577C12.9955 935.532 12.4535 935.699 12.0645 935.394C11.4895 934.943 10.9825 934.217 10.5175 933.498C7.01851 928.091 5.58451 921.398 5.75051 913.86C5.81851 910.786 6.24149 907.734 6.45449 904.664C6.51049 903.853 6.5985 902.698 6.3145 902.233C3.6975 897.964 3.01751 892.503 2.34651 887.037C0.944513 875.615 1.3705 864.13 1.8925 852.641C2.6855 835.199 6.01351 818.57 8.55751 801.687C10.0975 791.471 10.9955 781.108 11.1195 770.618C11.1565 767.484 10.7445 764.337 10.5385 761.202C9.1715 761.396 7.93849 761.776 6.71849 761.697C4.84849 761.575 3.6885 759.836 3.3445 757.089C3.0555 754.787 4.04452 751.645 5.44152 750.424C6.81152 749.227 8.34749 749.554 9.62749 751.484C10.3095 752.514 10.8695 753.743 11.6055 755.106C13.0545 751.031 14.0615 746.875 14.5085 742.407C16.0365 727.137 14.5955 712.211 12.2525 697.42C10.4735 686.191 8.3715 675.074 6.8185 663.771C5.1905 651.915 3.90049 639.901 4.47649 627.679C4.66549 623.673 5.30651 619.722 5.68251 615.731C5.75251 614.99 5.72751 613.86 5.43651 613.462C1.86151 608.58 0.925508 602.037 0.479509 595.102C-0.867491 574.151 0.691486 553.631 4.29949 533.456C6.33249 522.09 8.67349 510.857 10.7825 499.522C12.2415 491.68 13.6385 483.788 13.2735 475.47C13.2565 475.084 13.1955 474.704 13.1725 474.484C11.7985 474.484 10.4955 474.625 9.20851 474.456C6.04151 474.042 3.7075 466.995 5.4135 462.816C5.8385 461.776 6.8045 460.868 7.5985 460.676C10.2205 460.046 12.6425 462.428 13.6735 466.268C13.8885 467.07 14.0945 467.878 14.4975 469.426C15.2115 467.127 15.9195 465.407 16.2975 463.528C17.8775 455.682 17.7935 447.563 17.6755 439.471C17.5125 428.241 15.2875 417.663 13.4175 406.954C10.6275 390.977 7.84151 374.981 6.66451 358.453C6.04051 349.682 5.90451 340.893 6.35451 332.083C6.49451 329.354 6.33349 326.922 4.96749 324.53C2.03349 319.392 0.957506 312.935 0.470507 306.172C-0.435493 293.612 0.647495 281.294 2.3655 269.108C4.7765 252.011 7.30551 234.95 10.0055 217.959C11.6325 207.722 12.6635 197.45 12.3595 186.903C12.2855 184.329 11.9845 181.769 11.7675 178.939C11.4505 179.204 11.1605 179.457 10.8865 179.697C9.02549 181.328 6.7265 181.42 4.8915 179.719C0.588497 175.732 4.04651 167.594 7.50551 169.079C9.16351 169.791 10.6675 171.371 12.4235 172.7C14.6135 167.635 16.1805 161.713 16.9555 155.263C19.6135 133.155 17.8155 111.551 14.0265 90.1339C12.3065 80.4099 10.2055 70.9345 7.8105 61.5575C6.3225 55.7287 5.42249 49.4341 4.78749 43.2177C4.46249 40.0415 5.30151 36.5762 5.61351 33.2421C5.71351 32.1745 5.99951 31.0538 5.88451 30.0456C4.69151 19.6166 6.12151 10.224 9.78951 1.76923C10.4045 0.357759 11.5245 -0.304988 12.5815 0.134241ZM12.6665 471.009C12.2245 466.14 10.6085 463.406 8.29149 463.361C7.30949 463.342 6.67751 463.946 6.75151 465.543C6.84951 467.674 6.9495 470.017 8.3405 471.114C9.7395 472.219 11.2435 472.003 12.6665 471.009ZM8.7755 325.485C10.3485 326.842 11.8505 326.417 13.3015 325.349C14.4055 324.538 14.7655 322.5 14.2345 320.688C13.6615 318.734 12.7005 319.061 11.6755 319.586C9.84349 320.526 9.2735 322.906 8.7755 325.485ZM11.2525 175.649C9.97349 174.324 9.1075 173.312 8.1725 172.49C7.1515 171.593 6.16751 171.696 5.29851 173.133C4.60351 174.281 4.74949 175.396 5.22249 176.549C5.88449 178.161 6.8595 179.104 8.0345 178.478C9.0375 177.945 9.91749 176.856 11.2525 175.649ZM11.5425 28.6716C10.3215 28.7232 8.36849 30.9068 8.40349 32.1807C8.44349 33.6297 10.2645 35.4585 11.6345 35.4273C12.9405 35.3976 13.9375 33.8829 13.8615 32.0463C13.7845 30.1815 12.7125 28.6216 11.5425 28.6716ZM12.9485 609.307C12.5015 607.966 12.3135 606.515 11.8405 606.237C11.3695 605.959 10.5235 606.67 10.0075 607.286C9.4635 607.936 8.97849 608.9 8.72249 609.89C8.45449 610.926 8.4895 612.155 8.3925 613.299C9.2535 613.319 10.3215 613.841 10.9255 613.236C11.7705 612.392 12.2675 610.706 12.9485 609.307ZM7.61949 759.379C8.39949 758.606 9.46851 758.091 9.87651 756.983C10.2615 755.939 7.9285 752.591 7.0515 752.65C6.1425 752.711 5.11449 754.595 5.20049 756.211C5.31249 758.302 6.18349 759.006 7.61949 759.379ZM9.10649 900.666C9.23849 901.008 9.37049 901.349 9.50249 901.691C10.5015 901.161 11.6155 900.891 12.4495 899.987C12.8445 899.56 12.7025 897.924 12.8035 896.836C12.2045 896.941 11.4435 896.725 11.0425 897.22C10.2875 898.154 9.73949 899.495 9.10649 900.666Z" fill="#D33756"/>
</svg>
