<svg width="125" height="98" viewBox="0 0 125 98" fill="none" xmlns="http://www.w3.org/2000/svg">
<path fill-rule="evenodd" clip-rule="evenodd" d="M69.573 76.9831C69.044 74.9491 66.4019 73.4001 64.4749 74.6551C63.0739 75.5671 61.8879 76.8511 60.9309 78.3391C60.5719 76.2161 60.6919 73.9131 61.1839 71.9291C61.5619 70.4111 62.9739 68.5511 64.6519 67.2191C65.1869 68.1131 65.9489 68.9021 66.9029 69.5111C68.7409 70.6861 71.3 70.4971 71.519 68.1361C71.573 68.3421 71.622 68.5601 71.662 68.7931C71.697 69.0021 72.0369 68.9511 72.0279 68.7421C71.7929 63.3691 68.2259 64.2591 65.0849 66.6471C63.6639 64.0791 65.2599 60.9131 67.0409 58.7571C70.3499 54.7531 70.3679 60.8031 73.1239 61.6001C76.8089 62.6641 78.4549 56.4301 76.7179 52.9531C78.4199 52.5811 79.9079 50.4291 80.7769 48.3711C81.3169 48.4981 81.9049 48.5071 82.4789 48.3721C82.7349 48.3121 82.624 47.9401 82.373 47.9851C80.595 48.3051 79.2129 47.0061 79.5959 45.2071C79.9769 43.4241 81.937 42.9941 83.441 43.4661C84.187 43.7001 85.168 44.4581 85.925 45.3611C84.948 46.5961 84.54 48.2721 85.162 49.7711C85.226 49.9211 85.357 50.0241 85.529 49.9791C88.209 49.2741 88.0689 47.2511 86.8769 45.4991C87.2949 45.0311 87.7779 44.5711 88.3009 44.0751C88.4299 43.9521 88.2989 43.7111 88.1239 43.7711C87.4699 43.9931 86.8879 44.3801 86.3899 44.8621C85.3919 43.6991 83.983 42.7641 82.758 42.6051C80.705 42.3371 78.885 43.7151 78.789 45.8221C78.732 47.0551 79.3909 47.8451 80.2979 48.2191C79.9189 48.7031 79.5539 49.1971 79.2099 49.7051C78.8109 50.2191 78.4099 50.7321 78.0099 51.2471C76.6619 51.1141 75.7099 51.1011 75.1319 51.2051C74.8129 51.0231 74.4609 50.8821 74.0689 50.8061C73.7599 50.7451 73.3609 51.0951 73.6039 51.4101C74.3659 52.4001 75.129 52.8721 75.87 52.9811C75.931 53.0211 75.9829 53.0571 76.0489 53.0971C77.0069 54.5951 76.7539 56.7861 76.3169 58.3881C75.6289 60.9091 72.938 61.6941 71.638 59.3151C71.275 58.6521 71.002 57.9451 70.618 57.2911C68.858 54.3101 65.4259 59.6401 64.6789 60.8931C63.4499 62.9591 63.5309 65.2161 64.5639 67.0581C62.8209 68.4951 61.278 70.3241 60.618 71.6881C59.945 73.0761 59.786 76.3721 60.352 79.2951C57.194 85.1091 57.463 93.4351 63.196 96.8701C63.594 97.1081 63.9389 96.5041 63.5559 96.2541C58.7459 93.1281 58.6059 88.0081 59.9129 82.9891C60.1349 82.2341 60.4109 81.5001 60.7119 80.7741C61.5879 83.6681 63.3229 85.7001 66.1809 84.1391C69.0259 82.5871 70.409 80.1921 69.573 76.9831ZM85.6919 49.3151C85.4419 47.9281 85.776 46.9331 86.43 46.0461C87.3 47.3861 87.4769 48.8221 85.6919 49.3151ZM71.3369 67.5601C71.1409 67.4981 70.8939 67.5791 70.9129 67.8351C71.1509 71.1131 67.0759 68.8361 66.0219 67.8471C65.6749 67.5211 65.3999 67.1781 65.1819 66.8251C67.5439 65.1641 70.2519 64.6631 71.3369 67.5601ZM61.4759 80.4431C61.3789 80.1751 61.2969 79.8971 61.2199 79.6171C61.2369 79.5821 61.2499 79.5451 61.2679 79.5091C62.3399 76.6501 64.7839 75.6341 68.5959 76.4601C71.9599 81.1581 63.5299 86.1041 61.4759 80.4431Z" fill="#D33756"/>
<path fill-rule="evenodd" clip-rule="evenodd" d="M53.867 68.5262C54.681 63.7652 50 58.3552 45.676 56.4022H45.673C45.392 52.8632 41.93 49.5712 38.396 49.3892C38.175 43.6422 32.571 40.5812 27.499 39.6162C26.981 39.5172 26.76 40.2662 27.278 40.4152C30.689 41.3792 34.659 42.7252 36.556 45.9662C37.149 46.9792 37.374 48.2332 37.465 49.4192C36.514 49.5262 35.578 49.8552 34.721 50.5152C34.473 50.7052 34.438 50.9712 34.63 51.2192C36.723 53.9082 38.266 52.8402 38.393 50.1042C38.823 50.0492 39.169 50.0291 39.291 50.0501C41.725 50.4821 43.428 53.1262 44.267 55.2292C44.385 55.5252 44.472 55.8342 44.541 56.1442C42.293 55.7122 39.5 56.3842 40.004 59.2982C40.358 61.3482 44.209 61.0022 45.027 59.5012C45.459 58.7112 45.65 57.8902 45.679 57.0702C49.203 59.2032 53.598 63.5172 53.011 67.9572C50.623 66.5172 47.704 65.8542 47.159 68.7502C46.745 70.9562 48.7 74.8301 51.335 72.6621C52.628 71.5981 53.383 70.3942 53.73 69.1312C53.876 69.2702 54.02 69.3892 54.168 69.5522C55.575 70.7432 56.15 72.7092 56.615 74.4062C58.053 79.6492 56.846 85.7642 56.122 91.0402C56.067 91.4242 56.647 91.5982 56.714 91.2032C57.825 84.5562 59.24 77.1272 56.114 70.8182C55.79 70.1562 54.929 69.2942 53.867 68.5262ZM35.842 51.3152C35.359 50.8442 36.443 50.4662 37.528 50.2472C37.715 51.3942 37.158 51.7542 35.842 51.3152ZM44.616 58.3352C44.35 59.3612 43.647 59.8672 42.509 59.8532C41.941 59.3332 41.372 58.8132 40.804 58.2922C41.908 56.8422 43.184 56.2831 44.626 56.5931C44.711 57.1701 44.718 57.7582 44.616 58.3352ZM51.427 71.4421C50.297 71.1821 49.165 70.9252 48.034 70.6672C49.538 68.0502 51.169 67.3422 52.921 68.4792C52.7 69.4712 52.236 70.4661 51.427 71.4421Z" fill="#D33756"/>
<path fill-rule="evenodd" clip-rule="evenodd" d="M61.093 42.3122C60.966 41.8812 60.334 41.8712 60.212 42.3122C59.314 45.5542 55.814 48.0592 53.964 43.6602C52.56 40.3202 56.374 37.7211 59.036 36.8561C59.647 36.6581 60.758 36.6331 61.182 36.0201C63.123 33.2091 61.213 27.6421 59.84 24.9641C59.569 24.4341 58.783 24.9001 59.044 25.4291C60.305 27.9851 60.745 30.6532 60.844 33.4802C60.938 36.1302 59.121 35.6802 57.692 36.3422C55.202 37.4982 53.404 39.0592 52.87 41.8282C52.401 44.2572 55.118 48.3971 57.966 47.1491C58.939 46.7231 60.982 45.1551 60.654 44.0501C61.397 46.5601 62.396 54.5292 57.609 54.3871C56.916 54.3661 56.15 54.7581 55.483 54.9421C50.701 56.2581 57.698 65.6632 59.195 66.8741C59.541 67.1541 60.037 66.6842 59.692 66.3762C59.261 65.9922 52.076 55.8131 56.136 55.8131C57.147 55.8131 58.501 55.4281 59.517 55.1621C63.866 54.0221 61.833 44.8102 61.093 42.3122Z" fill="#D33756"/>
<path fill-rule="evenodd" clip-rule="evenodd" d="M105.801 58.1871C106.224 58.0461 106.052 57.4421 105.619 57.5251C86.441 61.2921 71.825 77.6432 68.196 96.4762C68.116 96.8891 68.731 97.0691 68.834 96.6511C73.738 76.6761 86.624 64.5341 105.801 58.1871Z" fill="#D33756"/>
<path fill-rule="evenodd" clip-rule="evenodd" d="M75.3979 26.7521C75.1659 26.8311 75.143 27.1071 75.334 27.2441C75.578 27.4201 75.876 27.5001 76.186 27.5461C70.041 36.1361 66.0029 47.2441 63.5099 57.2061C63.4549 57.4271 63.764 57.5001 63.844 57.2981C66.135 51.4581 68.1309 45.5341 70.6629 39.7881C72.5489 35.5151 74.9669 31.5801 77.2649 27.5511C77.4719 27.5241 77.675 27.4881 77.86 27.4491C78.856 27.2361 79.668 26.5571 80.29 25.7831C80.608 25.3881 80.0699 24.8211 79.7229 25.2161C79.1989 25.8081 78.6149 26.2091 77.8869 26.4521C78.1569 25.9721 78.425 25.4921 78.688 25.0091C78.806 24.7931 78.505 24.5331 78.336 24.7361C77.826 25.3481 77.333 25.9821 76.85 26.6271C76.357 26.6341 75.8609 26.5941 75.3979 26.7521Z" fill="#D33756"/>
<path fill-rule="evenodd" clip-rule="evenodd" d="M51.306 55.1342C50.82 45.5702 43.89 33.7022 36.331 27.9262C36.005 27.6792 35.681 28.1882 35.918 28.4622C42.565 36.1752 49.587 44.5522 50.646 55.1342C50.686 55.5502 51.329 55.5672 51.306 55.1342Z" fill="#D33756"/>
<path fill-rule="evenodd" clip-rule="evenodd" d="M42.7569 27.1342C43.0949 26.9162 43.4089 26.6732 43.7249 26.4292C44.0309 26.2532 44.3429 26.1242 44.6629 26.0462C44.6739 26.1772 44.695 26.3092 44.709 26.4412C44.348 27.0492 44.0179 27.6692 43.7209 28.3022C43.6039 28.1252 43.491 27.9422 43.373 27.7662C43.156 27.4422 42.691 27.7202 42.855 28.0692C43.022 28.4242 43.201 28.7732 43.376 29.1262C43.372 29.2372 43.4199 29.3362 43.5119 29.4032C45.9629 34.2962 48.936 38.8662 50.172 44.3022C50.233 44.5682 50.6129 44.4502 50.5719 44.1922C49.7109 38.8472 47.1309 33.6432 44.2069 29.0562C44.5289 28.6262 44.8439 28.1872 45.1429 27.7332C45.3939 27.7472 45.6889 27.5312 45.6399 27.2002C45.6299 27.1312 45.624 27.0592 45.615 26.9892C45.804 26.6882 45.993 26.3892 46.175 26.0842C46.56 26.2082 46.9419 26.4252 47.3089 26.7472C47.6399 27.0372 48.296 26.7672 48.115 26.2772C47.863 25.5972 47.539 24.9662 47.191 24.3462C47.385 24.0062 47.5799 23.6642 47.7749 23.3282C48.0269 22.8912 47.529 22.4192 47.097 22.6512C46.863 22.7792 46.6519 22.9372 46.4309 23.0832C46.0599 22.5062 45.677 21.9332 45.292 21.3542C45.071 21.0212 44.4909 21.1252 44.5049 21.5682C44.5359 22.5472 44.5389 23.5162 44.5719 24.4842C44.0939 24.8862 43.609 25.2812 43.112 25.6612C42.786 25.8582 42.4649 26.0842 42.1599 26.3612C41.7469 26.7372 42.2859 27.4372 42.7569 27.1342Z" fill="#D33756"/>
<path fill-rule="evenodd" clip-rule="evenodd" d="M32.339 20.3592C32.394 18.8452 32.743 17.4052 33.411 16.0452C33.733 15.3862 34.177 14.8112 34.688 14.2902C35.083 13.8912 35.5159 13.7292 35.7549 13.2202C35.8359 13.0472 35.735 12.8902 35.553 12.8682C34.24 12.7072 33.126 14.5942 32.597 15.5692C31.813 17.0192 31.5169 18.7262 31.5099 20.3592C31.5089 20.8942 32.319 20.8902 32.339 20.3592Z" fill="#D33756"/>
<path fill-rule="evenodd" clip-rule="evenodd" d="M33.709 18.3502C33.492 18.7912 34.13 19.1762 34.374 18.7392C34.845 17.8932 35.421 17.1422 36.202 16.5612C36.614 16.2522 37.0789 16.0712 37.5929 16.0442C37.9599 16.0252 38.27 16.1222 38.631 16.0192C38.763 15.9812 38.814 15.8362 38.753 15.7202C38.265 14.7732 36.944 15.1302 36.181 15.4912C35.043 16.0272 34.241 17.2632 33.709 18.3502Z" fill="#D33756"/>
<path fill-rule="evenodd" clip-rule="evenodd" d="M34.85 21.6151C35.727 20.9521 36.6639 20.5071 37.7409 20.2631C38.9779 19.9831 39.874 20.5601 40.884 21.1571C41.048 21.2551 41.2749 21.0941 41.2129 20.9051C40.2319 17.8461 35.9819 19.6291 34.3609 20.9801C34.0099 21.2731 34.484 21.8901 34.85 21.6151Z" fill="#D33756"/>
<path fill-rule="evenodd" clip-rule="evenodd" d="M38.5749 23.6852C39.2999 24.0912 39.8359 24.7312 40.5399 25.1582C40.7549 25.2872 41.0869 25.0712 40.9879 24.8132C40.3329 23.1202 38.1939 22.4052 36.5589 22.1162C36.0939 22.0342 35.8859 22.7192 36.3609 22.8362C37.1419 23.0282 37.8719 23.2912 38.5749 23.6852Z" fill="#D33756"/>
<path fill-rule="evenodd" clip-rule="evenodd" d="M34.306 23.7241C33.958 23.3891 33.445 23.9031 33.778 24.2511C34.269 24.7621 34.757 25.2741 35.191 25.8351C35.537 26.2821 35.814 27.1191 36.39 27.2691C36.54 27.3081 36.667 27.2201 36.718 27.0831C36.931 26.5121 36.322 25.9001 35.989 25.4791C35.487 24.8421 34.888 24.2831 34.306 23.7241Z" fill="#D33756"/>
<path fill-rule="evenodd" clip-rule="evenodd" d="M31.822 33.2592C33.969 31.5952 33.848 28.7932 32.88 26.5032C32.701 26.0812 31.974 26.3882 32.138 26.8162C32.986 29.0462 32.677 30.9502 31.378 32.9172C31.184 33.2102 31.589 33.4412 31.822 33.2592Z" fill="#D33756"/>
<path fill-rule="evenodd" clip-rule="evenodd" d="M28.034 28.6431C28.711 28.3641 29.2219 27.8651 29.5589 27.2201C29.8049 26.7481 29.1059 26.3351 28.8459 26.8021C28.5349 27.3581 28.1069 27.7021 27.5039 27.9041C27.0369 28.0601 26.4669 28.0251 26.0569 28.3161C25.9049 28.4231 25.8999 28.6261 26.0569 28.7311C26.6099 29.1051 27.469 28.8781 28.034 28.6431Z" fill="#D33756"/>
<path fill-rule="evenodd" clip-rule="evenodd" d="M26.973 24.3122C27.413 24.0892 27.028 23.4731 26.594 23.6631C26.077 23.8901 25.571 24.0041 25.006 23.9811C24.467 23.9581 24.027 23.5841 23.51 23.4941C23.362 23.4691 23.227 23.5822 23.266 23.7392C23.663 25.3242 25.961 24.8262 26.973 24.3122Z" fill="#D33756"/>
<path fill-rule="evenodd" clip-rule="evenodd" d="M25.475 21.6261C25.938 21.7811 26.113 21.0771 25.673 20.9061C23.851 20.1991 23.518 18.6762 23.135 16.9542C23.073 16.6802 22.623 16.6692 22.57 16.9542C22.176 19.0762 23.493 20.9661 25.475 21.6261Z" fill="#D33756"/>
<path fill-rule="evenodd" clip-rule="evenodd" d="M28.011 19.5672C27.386 18.5162 27.0169 17.4122 26.7939 16.2172C26.5949 15.1512 26.847 14.0982 26.693 13.0442C26.663 12.8322 26.388 12.8572 26.292 12.9902C24.911 14.8752 26.245 18.2432 27.371 19.9402C27.634 20.3372 28.258 19.9812 28.011 19.5672Z" fill="#D33756"/>
<path fill-rule="evenodd" clip-rule="evenodd" d="M29.261 16.9332C29.115 16.2692 29.061 15.6092 29.066 14.9312C29.072 14.2972 29.191 13.6792 29.092 13.0472C29.064 12.8622 28.816 12.8762 28.73 13.0002C27.961 14.1052 28.249 15.9032 28.542 17.1312C28.652 17.6002 29.364 17.4002 29.261 16.9332Z" fill="#D33756"/>
<path fill-rule="evenodd" clip-rule="evenodd" d="M80.791 24.7342C81.274 24.9282 81.624 24.0961 81.147 23.8921C81.068 23.8591 80.997 23.8151 80.922 23.7761C81.006 23.8411 81.1089 23.8782 81.2159 23.8762C82.6339 23.8372 84.1109 23.2491 84.1899 21.6451C84.2549 20.3011 83.017 19.2442 81.804 19.0062C81.415 18.9292 81.017 18.9301 80.633 18.9961C80.669 18.9261 80.689 18.8441 80.671 18.7461C80.452 17.5831 80.502 16.4211 80.759 15.2671C81.036 14.0271 81.837 13.1381 82.349 12.0241C82.457 11.7901 82.2359 11.5332 81.9919 11.6652C79.5949 12.9572 79.36 16.6351 79.947 18.9471C79.97 19.0411 80.0199 19.1012 80.0779 19.1442C79.2339 19.4552 78.556 20.1231 78.412 21.0911C78.167 22.7241 79.351 24.1582 80.791 24.7342ZM81.482 21.2481C81.599 20.7701 82.164 20.6051 82.546 20.3751C82.9 20.6641 83.1639 21.0611 83.2129 21.5091C83.3149 22.4571 82.382 22.7802 81.59 22.8642C81.455 22.3342 81.351 21.7851 81.482 21.2481ZM81.259 19.9351C80.273 20.5811 80.442 22.4272 80.74 23.5142C80.769 23.6172 80.833 23.7072 80.917 23.7732C79.081 22.7802 78.712 19.9461 81.259 19.9351Z" fill="#D33756"/>
<path fill-rule="evenodd" clip-rule="evenodd" d="M82.1839 17.7372C82.5199 16.5662 82.98 15.4632 83.683 14.4632C84.426 13.4032 85.574 13.1282 86.513 12.3522C86.639 12.2482 86.572 12.0112 86.414 11.9812C85.126 11.7232 83.918 12.7742 83.146 13.6952C82.234 14.7842 81.7729 16.1752 81.4549 17.5382C81.3459 18.0092 82.0509 18.2082 82.1839 17.7372Z" fill="#D33756"/>
<path fill-rule="evenodd" clip-rule="evenodd" d="M85.127 17.9202C85.827 17.2842 86.586 16.8792 87.544 16.8512C88.496 16.8242 89.102 17.5372 89.93 17.8402C90.087 17.8992 90.225 17.7262 90.189 17.5822C89.941 16.5812 88.787 15.9772 87.804 15.9352C86.533 15.8812 85.448 16.4872 84.562 17.3562C84.193 17.7172 84.748 18.2642 85.127 17.9202Z" fill="#D33756"/>
<path fill-rule="evenodd" clip-rule="evenodd" d="M86.961 19.5092C87.865 19.5632 88.69 19.8322 89.399 20.4082C90.111 20.9882 90.475 21.8602 90.941 22.6252C91.087 22.8662 91.505 22.7782 91.491 22.4762C91.378 20.1292 89.136 18.7532 86.962 18.7912C86.496 18.7982 86.502 19.4812 86.961 19.5092Z" fill="#D33756"/>
<path fill-rule="evenodd" clip-rule="evenodd" d="M88.573 26.1602C88.608 26.3372 88.8759 26.3672 88.9579 26.2112C89.8409 24.5052 88.757 22.5172 87.53 21.3022C87.183 20.9562 86.669 21.4781 86.996 21.8351C87.544 22.4351 87.9509 23.0732 88.2099 23.8462C88.4589 24.5902 88.421 25.3952 88.573 26.1602Z" fill="#D33756"/>
<path fill-rule="evenodd" clip-rule="evenodd" d="M82.882 30.1891C82.778 30.3151 82.828 30.5671 83.03 30.5471C85.864 30.2761 86.986 26.8042 86.13 24.4882C85.958 24.0212 85.222 24.2062 85.373 24.6962C85.708 25.7782 85.681 26.7902 85.166 27.8082C84.643 28.8422 83.593 29.3371 82.882 30.1891Z" fill="#D33756"/>
<path fill-rule="evenodd" clip-rule="evenodd" d="M82.386 25.7082C82.03 26.6672 81.5089 27.4782 80.8199 28.2322C80.2559 28.8492 79.325 29.2042 78.903 29.9212C78.811 30.0792 78.932 30.2502 79.099 30.2632C80.06 30.3362 81.003 29.3102 81.589 28.6552C82.286 27.8772 82.746 26.8822 83.069 25.8972C83.214 25.4572 82.543 25.2862 82.386 25.7082Z" fill="#D33756"/>
<path fill-rule="evenodd" clip-rule="evenodd" d="M76.488 24.6931C77.024 24.5911 76.788 23.8071 76.266 23.8871C75.667 23.9781 75.0699 23.8681 74.6089 23.4611C74.1929 23.0951 74.1169 22.5131 73.8899 22.0351C73.7769 21.7981 73.4709 21.9071 73.3929 22.1001C73.0899 22.8511 73.514 23.6791 74.079 24.1841C74.74 24.7761 75.655 24.8521 76.488 24.6931Z" fill="#D33756"/>
<path fill-rule="evenodd" clip-rule="evenodd" d="M74.056 17.5182C73.604 18.2892 74.044 19.3642 74.469 20.0572C74.942 20.8322 75.749 21.3252 76.573 21.6532C76.995 21.8212 77.296 21.1042 76.883 20.9192C76.21 20.6182 75.66 20.2191 75.239 19.6071C74.8 18.9681 74.868 18.1482 74.465 17.5182C74.37 17.3712 74.149 17.3602 74.056 17.5182Z" fill="#D33756"/>
<path fill-rule="evenodd" clip-rule="evenodd" d="M27.7159 23.2991C27.9289 24.5711 29.1399 25.3101 30.3109 25.5671C30.7929 25.6741 30.9959 24.9561 30.5149 24.8261C29.7529 24.6161 28.988 24.1921 28.677 23.4221C28.388 22.7061 28.8889 22.1591 29.5309 21.9121C30.2649 21.6251 31.5369 21.4731 32.0489 22.2331C32.5269 22.9471 31.5349 23.4191 31.1079 23.7741C30.8899 23.9571 31.0859 24.2701 31.3199 24.2871C32.4659 24.3681 33.302 23.1581 32.99 22.1061C32.575 20.6981 30.8019 20.6851 29.6529 20.9281C28.5369 21.1641 27.5099 22.0751 27.7159 23.2991Z" fill="#D33756"/>
<path fill-rule="evenodd" clip-rule="evenodd" d="M11.306 62.3661C11.486 62.6611 11.673 62.9471 11.845 63.2451C12.116 63.7141 12.9549 63.3931 12.7419 62.8671C12.7259 62.8271 12.707 62.7911 12.689 62.7511C12.691 62.7511 12.691 62.7501 12.693 62.7501C12.689 62.7421 12.6829 62.7351 12.6789 62.7291C11.9699 61.0201 11.0519 59.4891 9.91594 58.0251C9.81894 57.9031 9.72694 57.7861 9.63994 57.6751C10.3859 57.0921 11.109 56.4811 11.779 55.8051C12.166 55.6091 12.568 55.4311 13 55.2881C13.576 55.1001 13.337 54.2041 12.748 54.3771C12.74 54.3791 12.732 54.3841 12.725 54.3861C12.672 54.1931 12.5219 54.0351 12.2699 54.0321C11.3069 54.0221 10.347 53.9761 9.38695 53.9171C9.34795 53.1691 9.26496 52.4491 9.06096 51.6921C9.03996 51.6131 8.99295 51.5551 8.93895 51.5081C8.88495 51.2661 8.84797 51.0251 8.78697 50.7791C8.68297 50.3571 7.96295 50.3131 7.89195 50.7791C7.75796 51.6551 7.56196 52.7191 7.45696 53.7771C6.33996 53.6811 5.22394 53.5731 4.10594 53.4551C3.64294 53.4051 3.55396 53.9791 3.77196 54.2601C4.66796 55.4131 5.55895 56.6011 6.49895 57.7451C6.35395 58.3581 6.08095 58.9261 5.68395 59.4341C5.12395 59.8781 4.57398 60.3341 4.05498 60.8301C3.63898 61.2271 4.17297 61.9011 4.66197 61.6161C5.35697 61.2101 5.92195 60.7171 6.37395 60.1631C6.81195 59.8161 7.25597 59.4741 7.70397 59.1411C8.78897 60.3431 9.96596 61.4531 11.306 62.3661ZM9.40697 54.9021C9.99397 54.9411 10.5829 54.9691 11.1709 54.9911C11.1379 55.0251 11.108 55.0631 11.074 55.0951C10.485 55.4181 9.92699 55.7931 9.40099 56.2261C9.39299 55.8371 9.37999 55.4491 9.36199 55.0631C9.38699 55.0161 9.39897 54.9631 9.40697 54.9021ZM5.15099 54.5131C5.55499 54.5581 5.95994 54.6031 6.36394 54.6441C6.32694 54.7341 6.31298 54.8391 6.35198 54.9621C6.50198 55.4381 6.57493 55.9011 6.60393 56.3541C6.11293 55.7441 5.62999 55.1301 5.15099 54.5131Z" fill="#D33756"/>
<path fill-rule="evenodd" clip-rule="evenodd" d="M117.367 52.5262C116.499 52.6842 115.634 52.8632 114.771 53.0502C114.889 52.2762 115.059 51.5022 115.275 50.7342C115.406 50.2632 114.764 49.8392 114.419 50.2372C113.473 51.3392 112.627 52.5052 111.825 53.7062C111.316 53.8172 110.806 53.9212 110.296 54.0262C108.968 52.9962 107.439 52.2332 105.537 51.9372C104.915 51.8402 104.647 52.7892 105.276 52.8892C106.688 53.1142 107.88 53.6142 108.936 54.2932C108.165 54.4362 107.395 54.5702 106.616 54.6712C106.04 54.7452 106.009 55.6452 106.616 55.5982C107.773 55.5072 108.916 55.3302 110.053 55.1182C110.245 55.2792 110.432 55.4432 110.616 55.6142C109.772 57.0402 108.992 58.5062 108.292 60.0162C108.097 60.4362 108.529 61.0402 108.991 60.7172C110.259 59.8322 111.546 58.9512 112.794 58.0232C113.519 58.9362 114.22 59.8912 114.947 60.8332V60.8342C114.974 60.8682 115.001 60.9032 115.026 60.9382C115.392 61.4092 116.086 60.8092 115.824 60.3232C115.168 59.1042 114.815 57.8372 114.674 56.5472C115.824 55.5822 116.907 54.5472 117.863 53.3792C118.193 52.9752 117.886 52.4342 117.367 52.5262ZM110.455 58.4472C110.328 58.5372 110.202 58.6302 110.074 58.7202C110.419 58.0412 110.789 57.3782 111.166 56.7202C111.183 56.7872 111.221 56.8442 111.272 56.8882C110.986 57.4002 110.715 57.9192 110.455 58.4472ZM112.938 56.6342C112.873 56.5592 112.804 56.4892 112.741 56.4152C113.038 56.1452 113.254 55.7902 113.39 55.4032C113.393 55.3982 113.397 55.3922 113.4 55.3872L113.397 55.3861C113.412 55.3441 113.439 55.3092 113.451 55.2682C113.622 54.6862 112.854 54.4482 112.534 54.8812C112.497 54.9322 112.469 54.9882 112.432 55.0392C112.325 55.0162 112.214 55.0352 112.123 55.0972C112.228 54.9422 112.331 54.7862 112.433 54.6272C112.827 54.5392 113.219 54.4512 113.612 54.3612C113.577 54.9372 113.588 55.5102 113.624 56.0812C113.396 56.2672 113.17 56.4532 112.938 56.6342ZM114.606 55.2492C114.606 54.8762 114.619 54.5032 114.649 54.1272C115.138 54.0182 115.627 53.9112 116.118 53.8092C115.636 54.3132 115.128 54.7892 114.606 55.2492Z" fill="#D33756"/>
<path fill-rule="evenodd" clip-rule="evenodd" d="M63.994 37.3081C64.618 36.6201 65.278 35.9391 65.936 35.2461C65.941 35.2651 65.943 35.2821 65.947 35.3001C66.09 35.8951 66.951 35.6361 66.849 35.0521C66.809 34.8251 66.784 34.5981 66.757 34.3711C66.975 34.1351 67.191 33.8961 67.402 33.6551C67.998 33.7181 68.588 33.8491 69.168 34.0951C69.601 34.2801 70.131 33.8841 69.853 33.4101C69.535 32.8661 69.215 32.3251 68.898 31.7841C69.243 31.3011 69.571 30.8061 69.852 30.2871C70.116 29.8041 69.451 29.2341 69.066 29.6801C68.793 29.9971 68.509 30.2991 68.217 30.5921C67.675 29.6001 67.18 28.5851 66.8 27.5041C66.644 27.0571 66 27.1331 65.978 27.6141C65.899 29.2461 65.663 30.8751 65.655 32.4981C65.474 32.5861 65.285 32.6551 65.096 32.7271C64.375 32.8251 63.655 32.9781 62.935 33.1731C62.388 33.3201 62.489 34.2001 63.07 34.1701C63.88 34.1301 64.628 33.9601 65.331 33.7051C65.455 33.6871 65.578 33.6761 65.701 33.6621C65.706 33.7291 65.714 33.7961 65.719 33.8631C64.851 34.7811 63.991 35.7061 63.287 36.7621C63.006 37.1891 63.652 37.6841 63.994 37.3081ZM66.758 29.7541C66.986 30.2651 67.232 30.7691 67.495 31.2641C67.227 31.4921 66.951 31.7071 66.664 31.9031C66.681 31.1871 66.721 30.4711 66.758 29.7541Z" fill="#D33756"/>
<path fill-rule="evenodd" clip-rule="evenodd" d="M38.329 40.1372C38.739 40.3882 39.282 39.8802 39.003 39.4622C38.638 38.9152 38.275 38.3662 37.908 37.8202C38.096 37.3842 38.277 36.9482 38.454 36.5172C38.642 36.0562 37.931 35.6622 37.62 36.0332C37.45 36.2362 37.258 36.4132 37.075 36.6002C36.593 35.9062 36.097 35.2192 35.564 34.5592C35.28 34.2042 34.7 34.5862 34.823 34.9922C35.112 35.9382 35.391 36.8892 35.645 37.8462C35.273 38.1112 34.883 38.3492 34.477 38.5652C33.946 38.7162 33.413 38.9492 32.879 39.2782C32.408 39.5692 32.713 40.3962 33.268 40.1982C33.309 40.1822 33.346 40.1612 33.387 40.1472C33.389 40.1462 33.391 40.1452 33.391 40.1452C33.881 39.9632 34.355 39.7552 34.813 39.5192C35.206 39.4142 35.594 39.3642 35.985 39.3752C35.71 39.9152 35.438 40.4571 35.19 41.0111C34.965 41.5111 35.59 41.8682 35.917 41.4372C36.068 41.2352 36.198 41.0161 36.337 40.8041C36.504 41.3091 37.306 41.0572 37.214 40.4952C37.166 40.1982 37.103 39.9052 37.044 39.6122C37.054 39.5922 37.065 39.5752 37.074 39.5552C37.487 39.6852 37.903 39.8782 38.329 40.1372Z" fill="#D33756"/>
<path fill-rule="evenodd" clip-rule="evenodd" d="M13.78 57.1852C13.36 57.1362 13.291 57.8052 13.682 57.9102C31.721 62.7112 51.28 75.4872 50.215 96.5632C50.184 97.1572 51.09 97.1482 51.131 96.5632C52.542 76.7602 32.407 59.3252 13.78 57.1852Z" fill="#D33756"/>
<path fill-rule="evenodd" clip-rule="evenodd" d="M24.517 54.7881C29.333 57.5711 33.696 60.3081 37.665 64.2741C41.2 67.8061 44.17 71.8421 47.421 75.6251C47.698 75.9471 48.128 75.4871 47.878 75.1671C41.659 67.1541 34.783 57.6162 24.746 54.2432C24.421 54.1332 24.228 54.6211 24.517 54.7881Z" fill="#D33756"/>
<path fill-rule="evenodd" clip-rule="evenodd" d="M21.886 57.1912C22.279 56.6962 22.578 56.1082 22.808 55.4732C23.125 55.9242 23.428 56.3852 23.709 56.8542C23.982 57.3032 24.679 56.8982 24.415 56.4392C24.018 55.7492 23.571 55.0982 23.102 54.4672C23.205 54.0282 23.2789 53.5772 23.3299 53.1242C23.6169 53.0442 23.898 52.9482 24.196 52.8962C24.734 52.8032 24.614 52.0822 24.196 51.9272C23.941 51.8332 23.681 51.7552 23.422 51.6732C23.428 51.0872 23.4039 50.5162 23.3539 49.9922C23.2979 49.4242 22.576 49.3212 22.374 49.8592C22.202 50.3132 22.025 50.7761 21.837 51.2351C21.015 51.0451 20.183 50.8932 19.35 50.7512C18.833 50.6622 18.533 51.3032 18.99 51.6062C19.634 52.0302 20.216 52.5401 20.769 53.0801C19.769 53.6821 18.89 54.4862 18.183 55.4812C17.85 55.9492 18.4679 56.3492 18.8769 56.1762C20.0619 55.6762 20.901 54.8562 21.561 53.8852C21.71 54.0542 21.844 54.2322 21.986 54.4072C21.748 55.2532 21.402 56.0682 21.303 56.9462C21.269 57.2362 21.706 57.4182 21.886 57.1912Z" fill="#D33756"/>
<path fill-rule="evenodd" clip-rule="evenodd" d="M100.089 77.9402C100.598 78.4832 101.263 78.9082 101.965 79.1452C102.508 79.3302 102.718 78.4962 102.198 78.2972C101.847 78.1632 101.53 77.9882 101.246 77.7742C101.507 77.7382 101.506 77.2872 101.246 77.2502C101.053 77.2242 100.855 77.2062 100.66 77.1852C100.584 77.0892 100.507 76.9962 100.44 76.8882C100.048 76.2472 100.044 75.4352 99.946 74.7132C99.913 74.4652 99.5059 74.4192 99.4059 74.6432C99.0209 75.5142 99.127 76.3572 99.5 77.0882C87.675 76.4232 73.227 85.2332 71.105 97.0502C71.004 97.6132 71.8589 97.8592 71.9709 97.2882C74.6149 83.8842 88.306 79.6842 100.089 77.9402Z" fill="#D33756"/>
<path fill-rule="evenodd" clip-rule="evenodd" d="M21.547 75.8922C20.694 75.2732 19.659 74.8642 18.726 74.7102C18.23 74.6282 18.007 75.3642 18.513 75.4752C19.338 75.6562 20.05 75.9952 20.737 76.4812C21.476 77.0012 21.9569 77.7552 22.6169 78.3522C22.8569 78.5692 23.271 78.3622 23.175 78.0282C23.024 77.5042 22.731 77.0402 22.364 76.6272C34.833 76.8722 44.192 84.4722 46.929 96.9822C47.051 97.5402 47.8479 97.2902 47.768 96.7502C46.0019 84.9202 34.083 73.3742 21.547 75.8922Z" fill="#D33756"/>
<path fill-rule="evenodd" clip-rule="evenodd" d="M17.9599 67.6022C18.0169 67.4272 17.869 67.2942 17.712 67.2752C16.853 67.1742 16.111 68.2542 15.802 68.9412C15.419 69.7902 15.473 70.7212 15.811 71.5722C15.999 72.0442 16.7549 71.8612 16.5899 71.3572C16.3499 70.6252 16.349 69.9192 16.694 69.2212C17.011 68.5862 17.7449 68.2612 17.9599 67.6022Z" fill="#D33756"/>
<path fill-rule="evenodd" clip-rule="evenodd" d="M18.39 72.0691C18.436 71.3081 18.695 70.6422 19.234 70.0972C19.707 69.6192 20.343 69.6241 20.904 69.3301C21.109 69.2221 21.129 68.8611 20.904 68.7591C20.101 68.3911 19.177 68.9041 18.586 69.4491C17.873 70.1071 17.625 71.1341 17.639 72.0681C17.646 72.5571 18.36 72.5491 18.39 72.0691Z" fill="#D33756"/>
<path fill-rule="evenodd" clip-rule="evenodd" d="M19.128 73.6342C19.706 73.2442 20.307 72.9642 21.007 72.9042C21.691 72.8442 22.204 73.2512 22.853 73.2752C23.1 73.2842 23.195 73.0202 23.11 72.8272C22.807 72.1382 21.929 71.9952 21.248 71.9612C20.336 71.9152 19.42 72.3972 18.715 72.9262C18.3 73.2342 18.681 73.9352 19.128 73.6342Z" fill="#D33756"/>
<path fill-rule="evenodd" clip-rule="evenodd" d="M18.527 77.7551C18.071 77.4581 17.671 78.1711 18.106 78.4791C20.309 80.0371 20.178 82.4841 19.079 84.6851C18.991 84.8611 19.196 85.0091 19.343 84.8881C21.813 82.8541 21.001 79.3701 18.527 77.7551Z" fill="#D33756"/>
<path fill-rule="evenodd" clip-rule="evenodd" d="M16.4519 81.1402C16.3759 82.0492 15.9509 82.7891 15.1609 83.2531C14.4029 83.6981 13.5689 83.3532 12.8039 83.6092C12.6149 83.6732 12.5499 83.8972 12.6889 84.0472C13.4319 84.8582 14.98 84.4652 15.798 83.9832C16.791 83.3952 17.184 82.2402 17.157 81.1402C17.145 80.6812 16.4899 80.6942 16.4519 81.1402Z" fill="#D33756"/>
<path fill-rule="evenodd" clip-rule="evenodd" d="M11.966 80.7672C11.429 80.7502 10.899 80.7272 10.367 80.6432C9.89697 80.5682 9.48699 80.3162 9.02499 80.2342C8.78599 80.1902 8.49098 80.4482 8.67098 80.6942C9.37698 81.6702 10.906 81.5472 11.966 81.5142C12.448 81.4992 12.448 80.7832 11.966 80.7672Z" fill="#D33756"/>
<path fill-rule="evenodd" clip-rule="evenodd" d="M9.54797 77.1031C8.86297 77.0761 8.22995 76.9331 7.74695 76.4191C7.27995 75.9231 7.44795 75.1011 6.97595 74.6401C6.89395 74.5601 6.75698 74.5551 6.67498 74.6401C6.09998 75.2391 6.57095 76.4301 7.02295 76.9741C7.64595 77.7261 8.61297 77.9271 9.54797 77.9201C10.075 77.9161 10.072 77.1251 9.54797 77.1031Z" fill="#D33756"/>
<path fill-rule="evenodd" clip-rule="evenodd" d="M10.747 74.7702C10.362 74.2062 10.046 73.6252 9.83101 72.9692C9.59701 72.2542 9.76502 71.4722 9.50002 70.7882C9.43502 70.6222 9.197 70.5032 9.058 70.6722C8.002 71.9452 9.28898 74.2222 10.093 75.3042C10.21 75.4612 10.384 75.5042 10.538 75.4742C10.163 77.4812 12.327 78.9382 13.973 79.4192C14.484 79.5672 14.686 78.7982 14.192 78.6292C12.842 78.1722 11.143 77.0032 11.525 75.3632C11.779 74.2722 12.857 73.5522 13.919 73.6142C14.692 73.6612 15.48 74.1612 15.892 74.8042C16.392 75.5862 15.816 76.1882 15.163 76.5762C14.922 76.0662 14.952 75.4472 14.587 74.9732C14.442 74.7842 14.18 74.8522 14.151 75.0922C14.046 75.9852 14.056 76.8372 14.653 77.5462C14.799 77.7202 15.048 77.7042 15.231 77.6202C16.399 77.0862 17.399 76.0512 16.891 74.6882C16.441 73.4812 15.13 72.8002 13.918 72.6592C12.509 72.4972 11.278 73.5202 10.747 74.7702Z" fill="#D33756"/>
<path fill-rule="evenodd" clip-rule="evenodd" d="M12.472 69.0451C12.472 68.8821 12.303 68.8061 12.165 68.8691C10.857 69.4911 11.107 71.5281 11.605 72.5831C11.837 73.0751 12.5399 72.6461 12.3279 72.1601C12.0599 71.5451 12.027 70.9441 12.178 70.2961C12.276 69.8671 12.473 69.4971 12.472 69.0451Z" fill="#D33756"/>
<path fill-rule="evenodd" clip-rule="evenodd" d="M105.598 71.6522C105.445 72.1182 106.155 72.4112 106.383 71.9842C106.759 71.2872 107.188 70.6782 107.858 70.2342C108.473 69.8262 109.3 69.7302 110.012 69.5982C110.229 69.5582 110.273 69.2181 110.075 69.1231C108.225 68.2411 106.173 69.9062 105.598 71.6522Z" fill="#D33756"/>
<path fill-rule="evenodd" clip-rule="evenodd" d="M114.177 72.3451C114.38 72.3501 114.532 72.1061 114.416 71.9291C113.418 70.3971 110.654 70.7791 109.219 71.3291C108.681 71.5341 108.904 72.4021 109.459 72.2031C110.215 71.9321 110.953 71.8081 111.758 71.8311C112.611 71.8551 113.346 72.3281 114.177 72.3451Z" fill="#D33756"/>
<path fill-rule="evenodd" clip-rule="evenodd" d="M113.481 74.1272C113.015 73.8462 112.612 74.5562 113.058 74.8512C113.835 75.3612 114.41 76.0081 114.864 76.8181C115.243 77.4961 115.353 78.2631 115.836 78.8801C115.944 79.0171 116.159 78.9231 116.203 78.7811C116.765 76.9971 114.864 74.9632 113.481 74.1272Z" fill="#D33756"/>
<path fill-rule="evenodd" clip-rule="evenodd" d="M112.909 77.4222C113.328 78.0422 113.594 78.6902 113.756 79.4202C113.887 80.0052 113.751 80.6342 113.966 81.1992C114.023 81.3522 114.207 81.4212 114.333 81.2972C115.435 80.2132 114.366 77.9842 113.632 76.9992C113.316 76.5772 112.601 76.9662 112.909 77.4222Z" fill="#D33756"/>
<path fill-rule="evenodd" clip-rule="evenodd" d="M111.392 80.6372C111.621 81.4952 111.546 82.2342 111.141 83.0252C110.772 83.7472 110.115 84.2422 109.681 84.9192C109.546 85.1292 109.773 85.4692 110.026 85.3662C111.913 84.6032 112.723 82.2902 112.126 80.4342C111.975 79.9702 111.264 80.1602 111.392 80.6372Z" fill="#D33756"/>
<path fill-rule="evenodd" clip-rule="evenodd" d="M108.465 82.9891C107.884 83.6501 107.243 84.1911 106.459 84.5971C105.719 84.9831 104.899 84.8771 104.129 85.1211C103.907 85.1911 103.873 85.4751 104.065 85.6001C105.8 86.7251 108.009 84.8021 109.004 83.5261C109.296 83.1511 108.795 82.6131 108.465 82.9891Z" fill="#D33756"/>
<path fill-rule="evenodd" clip-rule="evenodd" d="M104.684 83.4321C103.898 83.6651 103.126 83.8011 102.304 83.7671C101.428 83.7301 100.843 83.1201 100.039 82.9831C99.829 82.9461 99.629 83.1071 99.689 83.3331C99.9 84.1491 100.847 84.4752 101.594 84.6482C102.692 84.9032 103.875 84.6371 104.92 84.2931C105.464 84.1141 105.24 83.2671 104.684 83.4321Z" fill="#D33756"/>
<path fill-rule="evenodd" clip-rule="evenodd" d="M100.34 78.7581C100.258 78.7301 100.128 78.7582 100.072 78.8292C99.627 79.4012 100.256 80.1712 100.694 80.5622C101.297 81.0982 102.097 81.3871 102.867 81.5801C103.437 81.7261 103.677 80.8551 103.11 80.7011C102.485 80.5311 101.872 80.3062 101.367 79.8882C100.975 79.5662 100.82 78.9261 100.34 78.7581Z" fill="#D33756"/>
<path fill-rule="evenodd" clip-rule="evenodd" d="M102.55 72.7442C101.936 73.0752 102.003 73.8902 102.008 74.4882C102.012 74.9722 102.753 74.9722 102.759 74.4882C102.766 73.9922 102.808 73.5262 102.947 73.0492C103.014 72.8132 102.753 72.6342 102.55 72.7442Z" fill="#D33756"/>
<path fill-rule="evenodd" clip-rule="evenodd" d="M107.471 77.1572C107.718 76.8942 107.472 76.4902 107.129 76.5682C106.214 76.7732 105.186 77.6072 105.176 78.6172C105.165 79.4422 105.967 79.9432 106.647 80.1922C108.296 80.7962 110.776 80.2292 111.052 78.2302C111.456 75.3202 108.43 73.3722 105.887 74.5522C104.699 75.1032 103.741 76.1092 103.403 77.3912C103.009 78.8872 103.85 80.2532 104.984 81.1552C105.147 81.2862 105.319 81.4012 105.491 81.5162C105.963 81.8322 106.378 81.0862 105.931 80.7652C104.968 80.0762 104.089 79.0612 104.283 77.7942C104.43 76.8432 105.141 76.0772 105.931 75.5932C107.866 74.4052 110.204 75.6492 110.116 77.9792C110.065 79.3872 108.247 79.5702 107.207 79.3202C106.836 79.2312 106.29 79.0422 106.182 78.6262C106.046 78.1062 107.199 77.4462 107.471 77.1572Z" fill="#D33756"/>
<path fill-rule="evenodd" clip-rule="evenodd" d="M52.4599 15.1251C52.4299 15.2201 52.39 15.3072 52.362 15.4032C52.236 15.8262 52.798 16.1271 53.081 15.8651C54.282 17.2781 55.612 18.6582 57.016 19.9102C57.034 20.0832 57.0319 20.2642 57.0609 20.4332C57.1149 20.7282 57.5019 20.6572 57.5899 20.4332C57.5909 20.4292 57.5919 20.4241 57.5929 20.4211C57.7459 20.5501 57.9019 20.6721 58.0569 20.8001C58.0429 21.1581 58.0259 21.5192 58.0299 21.8712C58.0319 22.0592 58.323 22.1671 58.409 21.9741C58.505 21.7531 58.5759 21.5191 58.6609 21.2921C59.0339 21.5831 59.41 21.8601 59.792 22.1201C59.757 22.1691 59.72 22.2171 59.685 22.2631C59.388 22.6641 60.0089 23.0772 60.3449 22.7732C60.4089 22.7142 60.4689 22.6491 60.5329 22.5901C60.8499 22.6871 61.1569 22.3542 61.0799 22.0572C64.3579 18.8322 67.0269 14.4691 69.0699 10.4651C70.1899 8.27114 72.3849 3.36214 70.2909 1.08914C66.7109 -2.79486 60.6679 4.68814 59.9959 8.21914C59.8609 7.95614 59.7069 7.69416 59.5349 7.43316C59.5859 7.17716 59.404 7.00616 59.198 6.97216C56.394 3.20416 50.162 0.155159 48.238 5.61816C47.209 8.54316 49.892 11.8452 51.529 13.9582C51.829 14.3442 52.1399 14.7351 52.4599 15.1251ZM58.1559 19.3481C58.0959 19.2931 58.0349 19.2422 57.9759 19.1872C58.2879 17.9152 58.4219 16.5581 58.7289 15.3051C58.8029 15.0041 58.8999 14.7091 58.9809 14.4091C58.6059 16.0511 58.3109 17.7171 58.1559 19.3481ZM60.7409 8.67214C61.2489 6.28615 62.5839 4.44815 64.4079 2.87515C65.0409 2.32815 65.767 1.88916 66.539 1.56216C65.769 2.47116 65.145 3.49516 64.302 4.35116C64.224 4.43116 64.196 4.51916 64.193 4.60516C63.123 8.18916 61.9799 11.7702 60.8899 15.3552C61.3569 12.7882 61.562 10.1381 61.865 7.65814C61.906 7.31814 61.32 7.23914 61.266 7.57714C61.171 8.16514 61.063 8.74514 60.961 9.32714C60.866 9.14314 60.587 9.08314 60.425 9.22814C60.411 9.21114 60.4069 9.18816 60.3919 9.17416C60.3689 9.10316 60.3479 9.03014 60.3219 8.95614C60.5049 8.97014 60.6979 8.88414 60.7409 8.67214ZM59.951 20.1761C60.32 19.6491 60.651 19.0931 60.954 18.5201C61.052 18.5261 61.15 18.4991 61.212 18.3921C63.162 14.9791 63.824 10.8062 65.277 7.16015C65.473 6.67315 64.6889 6.46916 64.4939 6.94616C64.4239 7.11816 64.3559 7.29814 64.2859 7.47314C64.4869 6.58014 64.6949 5.70214 64.9229 4.85714C65.8619 3.89214 66.9229 2.70915 67.1859 1.35815C67.188 1.34615 67.1819 1.33716 67.1819 1.32516C67.3019 1.28616 67.4209 1.23816 67.5439 1.20416C70.2569 0.454158 70.128 3.74115 69.865 5.41415C69.281 9.14115 67.2479 12.4702 64.9179 15.5832C65.3489 14.5522 65.7319 13.4981 66.0849 12.4311C66.1739 12.4331 66.2649 12.4112 66.3219 12.3282C67.4509 10.6602 68.233 8.73315 69.118 6.92715C69.312 6.52915 68.7219 6.17714 68.5169 6.57714C68.0069 7.57714 67.4559 8.57316 66.9469 9.58816C67.6349 7.15316 68.224 4.69116 68.86 2.31216C68.981 1.86416 68.2989 1.67816 68.1689 2.12216C66.4159 8.03916 64.7519 13.7961 62.0019 19.2961C61.4459 19.9881 60.899 20.6722 60.378 21.3502C60.052 21.0652 59.7319 20.7731 59.4109 20.4811C59.4559 20.3801 59.4879 20.2731 59.5309 20.1711C59.6079 20.3061 59.84 20.3371 59.951 20.1761ZM59.2019 8.63815C59.3439 8.90415 59.4679 9.17115 59.5769 9.44015C58.6269 12.0112 57.212 15.2832 56.993 18.2642C56.747 18.0322 56.493 17.8031 56.251 17.5671C56.882 16.5991 57.172 15.1221 57.501 14.1881C58.142 12.3671 58.6879 10.5041 59.2019 8.63815ZM57.587 6.42913C56.747 8.76813 55.8189 11.0702 55.0069 13.4192C54.8499 13.8782 54.435 14.7842 54.725 15.2812C54.989 15.7292 55.4209 15.3302 55.5049 14.9972C55.5169 14.9492 55.5029 14.9131 55.4969 14.8741C55.5049 14.8621 55.5149 14.8552 55.5219 14.8422C55.6369 14.6312 55.692 14.3842 55.761 14.1562C56.022 13.2852 56.311 12.4242 56.602 11.5622C57.112 10.0482 57.6099 8.52814 58.0959 7.00314C58.2799 7.22414 58.4499 7.45016 58.6139 7.68316C58.0479 9.59616 57.413 11.4841 56.763 13.3712C56.434 14.3292 55.722 15.5721 55.381 16.7141C54.762 16.0891 54.1559 15.4531 53.5739 14.7971C54.0469 13.6761 54.437 12.5272 54.789 11.3632C54.793 11.3552 54.796 11.3482 54.8 11.3412C54.801 11.3372 54.799 11.3351 54.8 11.3311C55.132 10.2331 55.4519 9.13216 55.8319 8.04916C55.9759 7.64016 55.3399 7.47615 55.1889 7.87115C54.5369 9.59715 53.9839 11.3562 53.3299 13.0792C53.1679 13.3872 53.0189 13.7011 52.8789 14.0201L52.875 14.0171C54.164 11.1441 54.106 7.38714 54.344 4.33114C54.35 4.24514 54.3139 4.19314 54.2779 4.14114C55.4909 4.62214 56.6379 5.44313 57.587 6.42913ZM50.9679 4.24615C50.4889 6.09015 49.998 8.39015 50.245 10.4011C50.24 10.3931 50.2339 10.3862 50.2289 10.3772C48.5489 7.60216 48.669 2.91816 53.073 3.77316C53.371 3.83216 53.667 3.92515 53.961 4.02615C53.814 4.05415 53.6749 4.14516 53.6549 4.33316C53.4699 6.09216 53.2609 7.84313 53.0069 9.59313C52.8229 10.8491 52.4919 12.0871 52.3349 13.3431C51.8369 12.7161 51.3549 12.0771 50.9049 11.4081C51.1299 10.5581 51.111 9.68114 51.139 8.80014C51.186 7.32614 51.2939 5.86415 51.5879 4.41815C51.6699 4.01515 51.0729 3.84215 50.9679 4.24615Z" fill="#D33756"/>
<path fill-rule="evenodd" clip-rule="evenodd" d="M52.414 11.7221C52.869 10.7751 52.882 9.65814 52.999 8.62214C53.138 7.39914 53.181 6.16313 53.171 4.93513C53.167 4.44413 52.424 4.44613 52.409 4.93513C52.38 6.01213 52.286 7.08012 52.161 8.14912C52.026 9.29512 51.702 10.5161 51.931 11.6591C51.973 11.8781 52.316 11.9251 52.414 11.7221Z" fill="#D33756"/>
<path fill-rule="evenodd" clip-rule="evenodd" d="M16.281 41.2911C18.391 41.0181 21.733 40.6602 23.536 39.2682C23.802 39.2262 24.036 39.0042 23.934 38.6732C22.854 35.2022 21.369 31.8212 19.771 28.5612C18.658 26.2882 17.28 23.3412 14.531 22.7522C10.735 21.9392 13.795 30.8252 14.761 32.7422C14.486 32.8102 14.195 32.8921 13.892 32.9851C13.734 32.9451 13.561 33.0082 13.459 33.1312C12.683 33.3912 11.864 33.7132 11.096 34.1092C11.068 34.0772 11.04 34.0462 11.013 34.0132C10.718 33.6802 10.279 34.1092 10.465 34.4552C8.16298 35.8152 6.68701 37.8012 9.20601 40.2072C11.052 41.9722 13.977 41.5911 16.281 41.2911ZM13.962 27.6902C13.719 26.7072 13.579 25.7061 13.616 24.6921C14.68 26.5781 15.805 28.6692 17.093 30.6192C16.282 29.6272 15.465 28.6412 14.646 27.6582C14.382 27.3422 13.971 27.6872 14.05 28.0232C14.02 27.9122 13.989 27.8012 13.962 27.6902ZM14.056 28.0482C14.071 28.0932 14.091 28.1372 14.125 28.1802C15.53 29.9272 16.931 31.6802 18.296 33.4602C18.767 34.0762 19.213 34.7242 19.665 35.3702C19.41 35.0732 19.157 34.7762 18.919 34.4742C17.999 33.3122 17.11 32.1262 16.142 31.0012C15.849 30.6612 15.374 31.1492 15.654 31.4872C15.906 31.7942 16.154 32.1212 16.4 32.4572C16.093 32.2812 15.635 32.6002 15.878 32.9452C17.24 34.8832 18.736 37.6082 20.897 38.7452C21.124 38.8652 21.461 38.6021 21.281 38.3601C21.127 38.1511 20.944 37.9652 20.774 37.7702C20.922 37.8822 21.064 38.0062 21.218 38.1082C21.406 38.2302 21.618 38.0212 21.562 37.8292C21.728 38.0172 21.883 38.2142 22.059 38.3892C22.29 38.6192 22.591 38.3282 22.478 38.0652C21.906 36.7152 20.988 35.4952 20.055 34.3202C20.314 34.5762 20.571 34.8362 20.843 35.0692C21.078 35.2712 21.431 35.0202 21.277 34.7342C20.332 32.9802 18.925 31.4181 17.77 29.7911C16.464 27.9511 15.249 26.0452 14.075 24.1192C14.008 24.0112 13.913 23.9672 13.815 23.9612C14.449 23.0652 16.429 24.8272 16.865 25.4032C19.654 29.0932 21.459 34.1092 22.851 38.5252C21.703 38.8292 20.571 39.1542 19.439 39.4632C19.449 39.4272 19.455 39.3892 19.443 39.3502C19.111 38.2622 18.277 37.3572 17.643 36.4272C16.919 35.3662 16.277 34.2582 15.732 33.0962C15.729 33.0462 15.72 32.9962 15.701 32.9482C15.764 32.8282 15.779 32.6812 15.693 32.5242C14.927 31.1232 14.45 29.5892 14.056 28.0482ZM15.14 33.5882C15.66 34.7152 16.27 35.7902 16.939 36.8382C17.545 37.7882 18.152 38.8772 19.063 39.5652C18.746 39.6512 18.426 39.7442 18.107 39.8222C17.732 38.8802 17.057 38.0242 16.544 37.1642C15.882 36.0512 15.216 34.9392 14.536 33.8372C14.739 33.7582 14.938 33.6722 15.14 33.5882ZM13.761 34.1282C14.443 35.2832 15.089 36.4582 15.762 37.6192C16.025 38.0762 16.285 38.5632 16.572 39.0302C16.115 38.4382 15.562 37.8892 15.147 37.2962C14.505 36.3762 13.966 35.4022 13.493 34.3882C13.467 34.3322 13.43 34.2952 13.386 34.2662C13.511 34.2192 13.636 34.1722 13.761 34.1282ZM12.814 34.4822C12.798 34.5382 12.794 34.6012 12.823 34.6692C13.265 35.7372 13.772 36.7612 14.38 37.7452C14.416 37.8042 14.462 37.8712 14.499 37.9332C14.259 37.7032 14.028 37.4742 13.826 37.2442C13.144 36.4692 12.469 35.6882 11.792 34.9092C12.128 34.7542 12.47 34.6142 12.814 34.4822ZM10.993 35.3072C11.022 35.2892 11.056 35.2782 11.087 35.2612C11.783 36.1382 12.469 37.0242 13.179 37.8902C13.837 38.6952 14.633 39.7912 15.596 40.3342C15.39 40.3622 15.188 40.4112 14.981 40.4312C15.015 40.3422 15.025 40.2452 14.976 40.1492C14.575 39.3762 13.645 38.8032 13.006 38.2182C12.14 37.4202 11.29 36.6092 10.444 35.7902C10.405 35.7512 10.362 35.7282 10.319 35.7102C10.569 35.5502 10.809 35.4142 10.993 35.3072ZM9.74697 36.1152C9.75097 36.2032 9.77997 36.2942 9.85897 36.3762C10.676 37.2212 11.496 38.0641 12.338 38.8862C12.892 39.4272 13.538 40.1482 14.273 40.4902C13.78 40.5162 13.284 40.5222 12.78 40.4912C12.833 40.4262 12.862 40.3402 12.842 40.2422C12.687 39.4982 11.868 38.8902 11.376 38.3412C10.762 37.6532 10.126 36.9862 9.472 36.3362C9.559 36.2592 9.65297 36.1862 9.74697 36.1152ZM8.93099 37.0032C9.46899 37.5912 9.99096 38.1932 10.518 38.7932C10.965 39.2972 11.479 40.0862 12.118 40.4372C12.013 40.4242 11.911 40.4262 11.805 40.4112C10.52 40.2282 9.27502 39.2342 8.82302 38.0072C8.69002 37.6472 8.76299 37.3132 8.93099 37.0032Z" fill="#D33756"/>
<path fill-rule="evenodd" clip-rule="evenodd" d="M16.213 26.2732C17.428 28.3762 18.685 30.7722 20.283 32.6042C20.422 32.7642 20.708 32.5962 20.638 32.3982C19.838 30.0922 18.016 28.0382 16.791 25.9352C16.575 25.5602 15.995 25.8982 16.213 26.2732Z" fill="#D33756"/>
<path fill-rule="evenodd" clip-rule="evenodd" d="M89.34 45.1552C89.341 45.4842 89.82 45.6412 89.978 45.3292C90.035 45.2172 90.075 45.0962 90.128 44.9832C90.212 45.2082 90.427 45.3962 90.727 45.3462C95.626 44.5532 100.787 44.0542 105.375 42.0322C107.276 41.1942 110.996 39.8152 110.897 37.1632C110.749 33.1832 103.363 34.2212 100.5 35.5812C101.475 33.4422 102.837 30.6462 101.596 28.5802C100.308 26.4382 98.611 25.7292 96.316 26.9062C93.965 28.1122 92.728 30.9782 91.899 33.4282C91.878 33.4552 91.851 33.4792 91.832 33.5052C91.781 33.5722 91.782 33.6502 91.802 33.7252C91.747 33.8902 91.69 34.0602 91.639 34.2192C90.59 37.4952 89.331 41.7022 89.34 45.1552ZM107.836 35.7372C108.193 35.8732 108.507 36.0412 108.768 36.2342C107.86 36.9542 106.917 37.6292 106.001 38.3392C105.039 39.0832 103.81 39.9132 103.276 41.0382C103.129 41.3442 103.446 41.7652 103.778 41.5422C104.726 40.9092 105.508 39.9992 106.402 39.2842C107.387 38.4952 108.405 37.7442 109.386 36.9462C109.656 37.5022 109.542 38.1652 108.861 38.8812C108.909 38.5232 108.562 38.1362 108.197 38.4032C106.889 39.3602 105.414 40.1292 104.335 41.3622C104.298 41.4042 104.286 41.4492 104.28 41.4932C102.851 42.0452 101.356 42.4712 99.827 42.8092C100.534 42.3312 101.212 41.8032 101.881 41.3172C103.393 40.2252 104.842 39.0442 106.299 37.8822C106.552 37.6792 106.38 37.3082 106.129 37.2082C106.651 36.8112 107.174 36.4242 107.692 36.0672C107.816 35.9812 107.854 35.8532 107.836 35.7372ZM92.014 37.2332C93.01 36.6082 93.915 35.7932 94.803 35.0542C96.268 33.8372 97.67 32.5522 99.013 31.2002C99.344 30.8662 98.836 30.3582 98.498 30.6842C97.263 31.8782 95.964 32.9932 94.634 34.0792C93.867 34.7032 93.0349 35.2992 92.2599 35.9462C92.4209 35.1542 92.604 34.3802 92.836 33.6462C92.837 33.6412 92.8399 33.6362 92.8409 33.6302C92.9789 33.5492 93.112 33.4542 93.245 33.3632C93.064 33.6082 92.897 33.8592 92.774 34.1302C92.669 34.3602 92.895 34.6582 93.146 34.5022C94.184 33.8532 95.004 32.8362 95.909 32.0172C96.965 31.0612 98.033 30.1192 99.032 29.1032C99.132 29.0022 99.1559 28.8892 99.1399 28.7822C99.2719 28.6982 99.4009 28.6062 99.5359 28.5242C99.9259 28.2892 99.5819 27.6992 99.1819 27.9172C97.8039 28.6632 96.53 29.5452 95.295 30.5072C94.729 30.9502 94.1039 31.3932 93.5069 31.8662C94.4679 29.6932 96.028 27.5042 98.404 27.2192C102.405 26.7412 100.864 31.9272 100.338 33.4202C100.122 34.0332 99.871 34.6332 99.629 35.2352C99.615 35.2352 99.6059 35.2272 99.5929 35.2292C98.1459 35.4312 96.62 35.9672 95.15 36.6632C95.219 36.6062 95.29 36.5482 95.36 36.4922C97.067 35.1262 98.721 33.7012 100.271 32.1552C100.669 31.7602 100.06 31.1512 99.657 31.5412C98.242 32.9102 96.743 34.1772 95.209 35.4082C94.148 36.2592 92.929 37.0592 91.883 37.9902C91.927 37.7402 91.969 37.4842 92.014 37.2332ZM96.8639 37.3792C97.0099 37.3052 97.0719 37.1902 97.0849 37.0712C97.8719 36.7542 98.641 36.4012 99.353 35.9632C99.317 36.0662 99.2699 36.1652 99.2359 36.2692C99.1579 36.5042 99.269 36.6612 99.43 36.7382C96.886 37.6882 94.43 39.2172 92.198 40.5702C91.747 40.8422 92.1529 41.5422 92.6109 41.2762C95.6289 39.5202 98.9139 38.3542 101.947 36.6762C102.296 36.4852 102.05 35.9882 101.689 36.0632C101.556 36.0902 101.425 36.1332 101.293 36.1652C102.635 35.5522 104.054 35.3152 105.59 35.3342C106.179 35.3412 106.751 35.4172 107.268 35.5532C106.873 35.7932 106.488 36.0462 106.099 36.2942C106.07 36.2612 106.031 36.2382 105.976 36.2582C105.19 36.5302 104.421 36.8462 103.661 37.1782C103.629 37.1582 103.592 37.1462 103.555 37.1532C99.6 37.9522 95.7419 40.2502 91.9889 41.7182C91.4789 41.9182 91.6969 42.7452 92.2179 42.5472C93.3559 42.1132 94.574 41.6902 95.808 41.2472C95.568 41.3772 95.328 41.5042 95.086 41.6342C94.22 42.0772 93.354 42.5192 92.49 42.9712C91.993 43.2322 92.429 43.9482 92.925 43.7152C96.215 42.1662 99.459 40.4342 102.615 38.5912C102.599 38.6012 102.583 38.6112 102.568 38.6222C100.778 39.8412 98.81 40.8702 97.1 42.1902C96.864 42.3722 96.985 42.8092 97.319 42.7082C98.002 42.5012 98.665 42.2102 99.318 41.8862C98.654 42.3182 98.0099 42.7712 97.4289 43.2882C95.0609 43.7022 92.685 43.9982 90.454 44.3602C90.425 44.3652 90.4079 44.3802 90.3819 44.3872C90.9079 43.0692 91.2329 41.6142 91.5049 40.1312C93.3259 39.2802 95.0799 38.3022 96.8639 37.3792Z" fill="#D33756"/>
<path fill-rule="evenodd" clip-rule="evenodd" d="M91.957 56.2032C90.969 56.4992 91.186 55.1242 90.785 54.6382C90.687 54.5192 90.496 54.5402 90.395 54.6382C89.851 55.1552 90.0779 56.2442 90.5539 56.7562C90.9999 57.2352 91.61 57.3292 92.228 57.1912C93.38 56.9332 94.3859 55.5762 93.4579 54.5522C92.1369 53.0922 89.611 52.9392 88.17 54.2502C87.496 54.8622 87.3319 55.7682 87.4529 56.6262C87.5029 56.9872 87.701 57.5642 87.995 58.0092C81.841 62.0212 75.7399 69.5982 73.5699 76.4992C73.4349 76.9272 74.119 77.2282 74.304 76.8082C77.643 69.2492 82.9789 64.3221 88.5309 58.5371C88.7559 58.6571 89.004 58.6821 89.272 58.5241C89.419 58.4391 89.5209 58.2712 89.5149 58.1012C89.4989 57.6632 89.046 57.3982 88.824 57.0452C88.767 56.9562 88.692 56.9081 88.616 56.8821C88.31 56.1101 88.333 55.3012 89.177 54.7292C90.261 53.9962 91.725 54.4162 92.649 55.1932C93.15 55.6142 92.334 56.0912 91.957 56.2032Z" fill="#D33756"/>
<path fill-rule="evenodd" clip-rule="evenodd" d="M44.866 84.9831C45.154 85.4401 45.86 85.0322 45.593 84.5572C43.159 80.2442 39.033 76.2651 34.47 74.2751C34.174 74.1461 33.962 74.5081 34.219 74.7021C38.292 77.7811 42.104 80.5831 44.866 84.9831Z" fill="#D33756"/>
<path fill-rule="evenodd" clip-rule="evenodd" d="M33.226 88.3642C32.864 88.3032 32.575 88.8182 32.957 89.0042C36.441 90.6852 40.773 90.4452 43.174 93.9822C43.373 94.2772 43.844 94.0132 43.656 93.7012C41.506 90.1232 37.108 89.0262 33.226 88.3642Z" fill="#D33756"/>
<path fill-rule="evenodd" clip-rule="evenodd" d="M85.537 88.9872C83.519 88.6842 81.008 90.0912 79.341 91.1092C77.445 92.2702 75.899 93.9622 75.359 96.1462C75.225 96.6862 76.027 96.9042 76.187 96.3762C76.833 94.2532 78.424 92.8152 80.274 91.7002C81.953 90.6882 83.966 90.5222 85.618 89.5932C85.846 89.4622 85.83 89.0302 85.537 88.9872Z" fill="#D33756"/>
<path fill-rule="evenodd" clip-rule="evenodd" d="M26.313 86.1702C25.534 88.4452 28.048 90.5742 30.11 90.5842C30.592 90.5872 30.583 89.8742 30.11 89.8432C28.592 89.7392 26.926 88.2182 27.178 86.5922C27.395 85.1862 29.875 84.5672 30.895 85.4532C31.544 86.0172 31.586 87.1642 31.253 87.9042C30.783 88.9462 30.061 87.3952 29.709 86.9852C29.551 86.8022 29.191 86.9432 29.217 87.1892C29.35 88.5322 30.8009 90.1182 31.9189 88.6302C32.7479 87.5272 32.47 85.5892 31.459 84.7092C29.932 83.3792 26.942 84.3352 26.313 86.1702Z" fill="#D33756"/>
<path fill-rule="evenodd" clip-rule="evenodd" d="M32.765 54.5781C33.845 55.6191 34.915 56.6761 35.949 57.7631C36.22 58.0461 36.595 57.6371 36.368 57.3451C35.432 56.1551 34.468 55.0161 33.407 53.9361C32.484 52.9941 31.465 51.8201 30.257 51.2551C30.015 51.1431 29.686 51.3881 29.86 51.6531C30.595 52.7731 31.803 53.6471 32.765 54.5781Z" fill="#D33756"/>
<path fill-rule="evenodd" clip-rule="evenodd" d="M70.013 49.6042C69.88 49.9512 70.4559 50.1932 70.6139 49.8572C72.8339 45.0902 76.397 41.5662 79.684 37.5762C80.011 37.1792 79.5169 36.6782 79.1189 37.0112C75.2129 40.2932 71.833 44.8412 70.013 49.6042Z" fill="#D33756"/>
<path fill-rule="evenodd" clip-rule="evenodd" d="M83.115 35.5632C82.199 36.3252 81.847 37.8262 82.918 38.6122C83.838 39.2882 85.182 38.6442 85.837 37.9182C87.158 36.4512 87.137 33.7572 85.153 32.9322C83.594 32.2832 81.543 32.7782 80.36 33.9512C78.651 35.6462 80.023 37.8572 81.52 39.1072C81.934 39.4522 82.531 38.8802 82.121 38.5042C81.125 37.5912 79.91 36.1642 80.856 34.8142C81.534 33.8462 82.99 33.5131 84.095 33.6101C85.414 33.7261 85.998 34.7522 85.784 35.9952C85.612 36.9772 85.011 37.9492 83.916 37.9802C82.651 38.0182 83.442 36.4652 83.628 35.8632C83.726 35.5472 83.336 35.3802 83.115 35.5632Z" fill="#D33756"/>
<path fill-rule="evenodd" clip-rule="evenodd" d="M54.2079 35.7812C54.7099 31.7982 53.8129 27.4922 51.5379 24.1382C51.3539 23.8682 50.8789 24.0302 50.9889 24.3702C52.2459 28.2522 53.681 31.6012 53.792 35.7812C53.799 36.0562 54.1749 36.0412 54.2079 35.7812Z" fill="#D33756"/>
<path fill-rule="evenodd" clip-rule="evenodd" d="M68.1269 25.8012C68.1299 26.3032 68.877 26.2972 68.902 25.8012C69.085 22.2102 70.522 19.2692 71.487 15.8912C71.573 15.5912 71.1769 15.4632 71.0119 15.6912C68.9929 18.4802 68.1159 22.4072 68.1269 25.8012Z" fill="#D33756"/>
<path fill-rule="evenodd" clip-rule="evenodd" d="M26.179 44.2112C24.96 44.2112 24.96 46.1012 26.179 46.1012C27.398 46.1012 27.397 44.2112 26.179 44.2112Z" fill="#D33756"/>
<path fill-rule="evenodd" clip-rule="evenodd" d="M21.038 43.3701C19.905 43.3701 19.905 45.1281 21.038 45.1281C22.172 45.1281 22.172 43.3701 21.038 43.3701Z" fill="#D33756"/>
<path fill-rule="evenodd" clip-rule="evenodd" d="M20.432 91.1682C19.324 91.1682 19.324 92.8882 20.432 92.8882C21.543 92.8872 21.543 91.1682 20.432 91.1682Z" fill="#D33756"/>
<path fill-rule="evenodd" clip-rule="evenodd" d="M13.478 91.9521C12.6 91.9521 12.6 93.3122 13.478 93.3122C14.356 93.3122 14.356 91.9521 13.478 91.9521Z" fill="#D33756"/>
<path fill-rule="evenodd" clip-rule="evenodd" d="M20.432 87.0902C20.696 87.0902 20.696 86.6841 20.432 86.6841C20.171 86.6831 20.171 87.0902 20.432 87.0902Z" fill="#D33756"/>
<path fill-rule="evenodd" clip-rule="evenodd" d="M16.805 46.3231C17.531 46.3231 17.531 45.1981 16.805 45.1981C16.079 45.1981 16.079 46.3231 16.805 46.3231Z" fill="#D33756"/>
<path fill-rule="evenodd" clip-rule="evenodd" d="M64.3709 42.4081C65.4729 43.0381 66.3959 42.1131 65.7669 41.0121C64.9299 39.5461 62.9049 41.5711 64.3709 42.4081Z" fill="#D33756"/>
<path fill-rule="evenodd" clip-rule="evenodd" d="M67.003 38.8901C66.333 38.8901 66.333 39.9291 67.003 39.9291C67.674 39.9291 67.674 38.8901 67.003 38.8901Z" fill="#D33756"/>
<path fill-rule="evenodd" clip-rule="evenodd" d="M87.868 30.5041C88.861 30.5041 88.861 28.9641 87.868 28.9641C86.875 28.9641 86.875 30.5041 87.868 30.5041Z" fill="#D33756"/>
<path fill-rule="evenodd" clip-rule="evenodd" d="M97.243 52.9092C95.934 52.9762 95.934 54.8742 97.243 54.9412C97.586 54.9582 97.847 54.9301 98.16 54.7661C98.795 54.4331 98.795 53.4162 98.16 53.0832C97.848 52.9212 97.586 52.8912 97.243 52.9092Z" fill="#D33756"/>
<path fill-rule="evenodd" clip-rule="evenodd" d="M94.823 51.6852C95.835 51.6852 95.835 50.1172 94.823 50.1172C93.812 50.1172 93.812 51.6852 94.823 51.6852Z" fill="#D33756"/>
<path fill-rule="evenodd" clip-rule="evenodd" d="M96.033 70.5442C96.405 70.5442 96.405 69.9672 96.033 69.9672C95.661 69.9662 95.661 70.5442 96.033 70.5442Z" fill="#D33756"/>
<path fill-rule="evenodd" clip-rule="evenodd" d="M87.532 85.5821C87.548 85.5611 87.561 85.5411 87.576 85.5211C87.745 85.2901 87.745 84.8551 87.576 84.6241C87.561 84.6041 87.548 84.5841 87.532 84.5611C86.972 83.7821 85.647 83.9981 85.647 85.0721C85.647 86.1461 86.972 86.3621 87.532 85.5821Z" fill="#D33756"/>
<path fill-rule="evenodd" clip-rule="evenodd" d="M87.566 89.3961C86.511 89.3961 86.511 91.0301 87.566 91.0301C88.62 91.0301 88.62 89.3961 87.566 89.3961Z" fill="#D33756"/>
<path fill-rule="evenodd" clip-rule="evenodd" d="M90.287 86.6881C89.252 86.6881 89.252 88.2941 90.287 88.2941C91.323 88.2951 91.323 86.6881 90.287 86.6881Z" fill="#D33756"/>
<path fill-rule="evenodd" clip-rule="evenodd" d="M95.73 89.4861C94.792 89.4861 94.792 90.9402 95.73 90.9402C96.669 90.9402 96.669 89.4861 95.73 89.4861Z" fill="#D33756"/>
<path fill-rule="evenodd" clip-rule="evenodd" d="M44.928 17.7642C46.263 17.7642 46.263 15.6952 44.928 15.6952C43.593 15.6952 43.593 17.7642 44.928 17.7642Z" fill="#D33756"/>
<path fill-rule="evenodd" clip-rule="evenodd" d="M40.997 13.7672C41.856 13.7672 41.856 12.4352 40.997 12.4352C40.138 12.4352 40.138 13.7672 40.997 13.7672Z" fill="#D33756"/>
<path fill-rule="evenodd" clip-rule="evenodd" d="M73.656 14.1732C74.649 14.1732 74.649 12.6332 73.656 12.6332C72.662 12.6342 72.662 14.1732 73.656 14.1732Z" fill="#D33756"/>
<path fill-rule="evenodd" clip-rule="evenodd" d="M100.267 47.7632C98.952 47.7632 98.952 49.8052 100.267 49.8052C101.583 49.8052 101.583 47.7632 100.267 47.7632Z" fill="#D33756"/>
<path fill-rule="evenodd" clip-rule="evenodd" d="M98.149 49.4832C97.101 49.4832 97.101 51.1092 98.149 51.1092C99.197 51.1092 99.197 49.4832 98.149 49.4832Z" fill="#D33756"/>
<path fill-rule="evenodd" clip-rule="evenodd" d="M101.778 54.6382C102.699 54.6382 102.699 53.2112 101.778 53.2112C100.858 53.2122 100.858 54.6382 101.778 54.6382Z" fill="#D33756"/>
<path fill-rule="evenodd" clip-rule="evenodd" d="M105.105 48.5341C105.952 48.5341 105.952 47.2202 105.105 47.2202C104.259 47.2192 104.259 48.5341 105.105 48.5341Z" fill="#D33756"/>
<path fill-rule="evenodd" clip-rule="evenodd" d="M97.848 70.9022C99.074 70.9022 99.074 69.0032 97.848 69.0032C96.622 69.0032 96.622 70.9022 97.848 70.9022Z" fill="#D33756"/>
<path fill-rule="evenodd" clip-rule="evenodd" d="M93.9159 72.6692C92.7399 72.6692 92.7399 74.4932 93.9159 74.4932C95.0929 74.4932 95.0929 72.6692 93.9159 72.6692Z" fill="#D33756"/>
<path fill-rule="evenodd" clip-rule="evenodd" d="M94.219 68.0571C93.335 68.0571 93.335 69.4281 94.219 69.4281C95.101 69.4281 95.101 68.0571 94.219 68.0571Z" fill="#D33756"/>
<path fill-rule="evenodd" clip-rule="evenodd" d="M25.272 68.6151C24.327 68.6151 24.327 70.0801 25.272 70.0801C26.216 70.0801 26.216 68.6151 25.272 68.6151Z" fill="#D33756"/>
<path fill-rule="evenodd" clip-rule="evenodd" d="M11.664 67.0282C11.012 67.0282 11.012 68.0392 11.664 68.0392C12.315 68.0392 12.315 67.0282 11.664 67.0282Z" fill="#D33756"/>
<path fill-rule="evenodd" clip-rule="evenodd" d="M8.035 88.6401C7.176 88.6401 7.176 89.9721 8.035 89.9721C8.894 89.9721 8.894 88.6401 8.035 88.6401Z" fill="#D33756"/>
<path fill-rule="evenodd" clip-rule="evenodd" d="M10.454 85.7761C9.41297 85.7761 9.41297 87.3921 10.454 87.3921C11.496 87.3921 11.496 85.7761 10.454 85.7761Z" fill="#D33756"/>
<path fill-rule="evenodd" clip-rule="evenodd" d="M43.7179 46.5352C42.7669 46.5352 42.7669 48.0102 43.7179 48.0102C44.6689 48.0092 44.6689 46.5352 43.7179 46.5352Z" fill="#D33756"/>
<path fill-rule="evenodd" clip-rule="evenodd" d="M52.2249 78.6771C51.6099 78.8461 51.3119 79.5761 51.6349 80.1261C52.0059 80.7621 52.9709 80.7731 53.3399 80.1261C53.7649 79.3841 53.0939 78.4391 52.2249 78.6771Z" fill="#D33756"/>
<path fill-rule="evenodd" clip-rule="evenodd" d="M53.395 74.9612C52.444 74.9612 52.444 76.4352 53.395 76.4352C54.347 76.4342 54.347 74.9612 53.395 74.9612Z" fill="#D33756"/>
<path fill-rule="evenodd" clip-rule="evenodd" d="M49.767 78.0752C49.322 78.0752 49.322 78.7642 49.767 78.7642C50.211 78.7642 50.211 78.0752 49.767 78.0752Z" fill="#D33756"/>
<path fill-rule="evenodd" clip-rule="evenodd" d="M63.677 87.8221C62.543 87.8221 62.543 89.5801 63.677 89.5801C64.811 89.5801 64.811 87.8221 63.677 87.8221Z" fill="#D33756"/>
<path fill-rule="evenodd" clip-rule="evenodd" d="M63.9789 91.5931C63.0279 91.5931 63.0279 93.0671 63.9789 93.0671C64.9299 93.0671 64.9299 91.5931 63.9789 91.5931Z" fill="#D33756"/>
<path fill-rule="evenodd" clip-rule="evenodd" d="M75.168 65.6342C74.278 65.6342 74.278 67.0132 75.168 67.0132C76.056 67.0122 76.056 65.6342 75.168 65.6342Z" fill="#D33756"/>
<path fill-rule="evenodd" clip-rule="evenodd" d="M61.258 62.4492C62.111 62.4492 62.111 61.1272 61.258 61.1272C60.404 61.1272 60.404 62.4492 61.258 62.4492Z" fill="#D33756"/>
<path fill-rule="evenodd" clip-rule="evenodd" d="M69.054 73.2782V73.5341C69.054 74.7901 71 74.7901 71 73.5341V73.2782C71 72.0232 69.054 72.0232 69.054 73.2782Z" fill="#D33756"/>
<path fill-rule="evenodd" clip-rule="evenodd" d="M55.513 51.1511C54.275 51.1511 54.275 53.0701 55.513 53.0701C56.749 53.0701 56.749 51.1511 55.513 51.1511Z" fill="#D33756"/>
<path fill-rule="evenodd" clip-rule="evenodd" d="M53.093 51.2172C53.892 51.2172 53.892 49.9802 53.093 49.9802C52.294 49.9802 52.294 51.2172 53.093 51.2172Z" fill="#D33756"/>
<path fill-rule="evenodd" clip-rule="evenodd" d="M44.928 51.1902C45.691 51.1902 45.691 50.0082 44.928 50.0082C44.166 50.0092 44.166 51.1902 44.928 51.1902Z" fill="#D33756"/>
<path fill-rule="evenodd" clip-rule="evenodd" d="M44.626 4.55313C45.302 4.55313 45.302 3.50513 44.626 3.50513C43.949 3.50513 43.949 4.55313 44.626 4.55313Z" fill="#D33756"/>
<path fill-rule="evenodd" clip-rule="evenodd" d="M40.694 6.87918C41.638 6.87918 41.638 5.41418 40.694 5.41418C39.749 5.41418 39.749 6.87918 40.694 6.87918Z" fill="#D33756"/>
<path fill-rule="evenodd" clip-rule="evenodd" d="M7.128 47.9281C7.975 47.9281 7.975 46.6151 7.128 46.6151C6.28 46.6161 6.28 47.9281 7.128 47.9281Z" fill="#D33756"/>
<path fill-rule="evenodd" clip-rule="evenodd" d="M4.40697 43.3032C5.13797 43.3032 5.13797 42.1682 4.40697 42.1682C3.67497 42.1692 3.67497 43.3032 4.40697 43.3032Z" fill="#D33756"/>
<path fill-rule="evenodd" clip-rule="evenodd" d="M96.336 22.5562C97.609 22.5562 97.609 20.5801 96.336 20.5801C95.062 20.5811 95.062 22.5562 96.336 22.5562Z" fill="#D33756"/>
<path fill-rule="evenodd" clip-rule="evenodd" d="M93.312 18.3602C94.243 18.3602 94.243 16.9142 93.312 16.9142C92.38 16.9142 92.38 18.3602 93.312 18.3602Z" fill="#D33756"/>
<path fill-rule="evenodd" clip-rule="evenodd" d="M93.0099 11.6411C93.8569 11.6411 93.8569 10.3271 93.0099 10.3271C92.1629 10.3281 92.1629 11.6411 93.0099 11.6411Z" fill="#D33756"/>
<path fill-rule="evenodd" clip-rule="evenodd" d="M0.777 69.7542C-0.259 69.7542 -0.259 71.3611 0.777 71.3611C1.813 71.3611 1.813 69.7542 0.777 69.7542Z" fill="#D33756"/>
<path fill-rule="evenodd" clip-rule="evenodd" d="M118.108 65.8372C117.09 65.8372 117.09 67.4152 118.108 67.4152C119.126 67.4152 119.126 65.8372 118.108 65.8372Z" fill="#D33756"/>
<path fill-rule="evenodd" clip-rule="evenodd" d="M119.62 70.4861C118.748 70.4861 118.748 71.8382 119.62 71.8382C120.492 71.8382 120.492 70.4861 119.62 70.4861Z" fill="#D33756"/>
<path fill-rule="evenodd" clip-rule="evenodd" d="M123.854 70.3911C122.861 70.3911 122.861 71.9321 123.854 71.9321C124.848 71.9321 124.848 70.3911 123.854 70.3911Z" fill="#D33756"/>
</svg>
