<svg width="67" height="90" viewBox="0 0 67 90" fill="none" xmlns="http://www.w3.org/2000/svg">
<path d="M40.7504 20.7307L44.3373 21.6891L42.6363 29.6579C43.0914 29.4621 43.1166 29.0661 43.2256 28.6565C43.4806 27.6988 44.7118 21.8523 45.0739 21.6946C45.8924 21.338 47.7561 22.534 48.6971 22.5501C48.4495 24.7069 47.5491 26.6795 47.0884 28.7747C47.5972 28.577 47.5208 28.1367 47.6692 27.7598C48.0307 26.8433 49.0211 22.7274 49.3358 22.4078C49.5082 22.2323 52.6202 22.4478 52.7157 22.5876L51.0116 29.2976C52.2464 28.3418 52.595 23.3612 53.307 22.6886C53.5619 22.4478 55.6861 22.672 56.2478 22.5322C56.3771 22.7385 54.7912 26.4085 54.5941 27.1174C54.5202 27.3816 54.1754 28.2038 54.6157 28.2476C54.9156 27.4469 56.2699 22.6184 56.5656 22.3758C56.7343 22.2372 60.1377 22.2366 60.7474 21.4064C59.8962 24.6496 58.6183 29.459 54.8454 30.3132C53.9696 30.5115 50.8262 30.3711 50.6531 30.49C49.9381 30.9802 51.6059 31.1933 51.8861 31.2284C56.6906 31.8301 59.0895 29.2521 60.5386 25.0111C60.9309 23.8637 61.1459 22.0826 61.6343 21.0017C62.0026 20.1863 63.1007 20.1691 62.2748 18.8061C61.5671 17.6384 58.5844 16.6136 58.4994 16.3993C58.375 16.087 58.8006 15.1644 58.7938 14.7302L58.2186 16.3771L56.5268 16.0427C57.4364 14.3613 58.0203 13.4855 57.6754 11.4901C58.2826 11.7118 59.5618 11.4698 59.2791 12.3061L59.5144 12.3523C59.5267 12.1713 59.5507 11.9354 59.7817 11.9071C61.3873 11.7131 63.6205 12.773 65.372 12.0019C65.6011 12.2636 64.6157 16.1203 64.4408 16.722C63.1961 21.0067 61.0061 25.4145 59.879 29.6715C59.5409 30.95 60.1561 30.8219 60.7529 30.033C61.7131 28.7655 63.9204 21.9256 64.5227 19.98C65.3868 17.1882 65.4798 14.4821 66.1283 12.0358C66.2299 11.6533 66.7818 11.3109 66.7153 11.0042C66.2878 9.04814 57.6975 5.94473 55.7446 5.32146C50.493 3.64504 44.5855 2.41267 39.1066 1.81527C38.7852 1.78017 37.594 1.65514 37.4136 1.95015C45.1084 3.26628 52.7003 5.31223 59.7484 8.62935L57.9981 10.2467C56.4104 9.84325 54.7481 9.86419 53.1591 9.59012C45.7015 8.30355 32.6405 5.33994 26.0568 2.10349C25.4317 1.79617 23.7207 1.03987 25.1681 0.775656C28.2795 0.2072 32.8561 1.59601 36.0303 1.93105C36.8371 1.96 37.0416 1.28438 36.2212 0.964735C34.2523 0.197966 26.0956 -0.523841 24.3693 0.524384C23.3888 1.11994 22.8739 3.51324 22.5321 4.68095C21.2739 8.9767 20.7498 13.3648 19.9497 17.7561C19.9337 18.7322 20.8723 18.8517 21.2166 17.7677C21.9785 15.3701 21.7315 12.9701 22.0973 10.642C22.5876 7.51769 23.4368 4.42905 23.9523 1.30901C27.9617 4.31326 33.2656 5.02462 37.833 6.81929C38.0289 6.89627 38.4045 7.12475 38.3694 7.30027L37.5805 11.2967L33.4153 10.7264L34.2523 6.48795C34.2603 6.44545 34.0004 6.04203 33.8396 6.0291L32.9312 10.631L29.6868 10.4936L30.6426 5.6491C30.2602 5.60229 30.1062 6.68811 30.023 7.00528C29.8426 7.6926 29.531 9.9658 29.0875 10.3858C28.7685 10.6882 26.4651 10.4918 25.8646 10.7455L26.9837 3.7904L26.5698 3.33587L25.04 11.0867C25.0159 11.2068 23.4849 11.0405 22.9146 12.1694C22.4533 13.0828 23.4756 13.4166 23.6136 13.8286C24.0096 15.0068 23.4048 16.9979 24.3785 18.9909C24.6507 19.5483 25.5438 20.5669 25.3633 19.382C25.1317 17.8595 23.8076 16.8415 25.0523 14.8639L27.7671 16.4091L26.0358 21.3472C26.6529 21.5819 26.4842 21.3288 26.6917 20.9334C27.3335 19.7133 27.4092 18.4231 27.8397 17.3015C28.2499 16.2318 30.8046 17.7326 31.4038 18.2857C30.7929 19.7047 30.5835 21.2426 30.2152 22.7317C30.1696 22.9165 29.7262 23.5878 30.2294 23.6814C30.8526 23.7972 31.8928 18.6848 31.9347 18.2346L35.957 19.531L34.1328 27.4765C31.0781 25.0019 27.0397 24.1957 23.916 21.8221C23.0932 21.197 22.3578 20.2134 21.6015 19.5901C21.2739 19.3198 20.9789 19.2939 21.07 19.7355C21.163 20.1838 23.7374 22.6529 24.2689 23.0569C26.5323 24.7783 33.169 27.3176 34.2196 29.4171C34.434 29.8445 34.9254 31.8123 34.9273 32.3037C34.9427 35.5476 33.581 40.2215 32.9799 43.4708C32.5346 45.8789 32.218 48.263 31.8208 50.6766C27.2898 50.1747 24.53 43.4875 21.0017 42.2705C19.5174 41.7587 14.8724 41.2537 13.2262 41.2752C8.23819 41.3405 5.21915 47.5393 5.56158 51.9897C6.05921 58.4595 12.8043 61.6577 18.6299 61.4108C17.7732 62.2767 16.3425 61.9885 15.2801 62.2102C10.0723 63.2966 2.14528 65.2261 0.401115 71.0524C-0.307762 73.421 -0.153173 75.1184 1.48199 77.0011C2.63861 78.3333 5.1594 80.479 5.85227 77.6127C6.4392 75.1855 4.26454 75.9289 3.77183 75.475C2.79443 74.5746 3.8482 72.1092 4.48872 71.1952C5.23147 70.1359 10.5015 66.4259 11.7548 66.0447C14.9346 65.079 17.1444 66.3433 20.4856 64.6466C21.7771 63.9907 23.6068 62.7577 24.389 61.5376C22.6528 62.4972 20.8649 63.6963 18.8935 64.1533C16.3548 64.7414 13.8143 63.9556 11.2862 65.0321C10.3999 65.4097 4.70487 69.1542 4.17521 69.7886C2.55607 71.728 1.11062 76.9556 5.05964 76.5965C5.07627 76.9192 4.8022 77.7876 4.46161 77.7297C4.28486 77.7002 1.90018 75.6924 1.70741 75.4356C0.134459 73.333 1.46659 69.4498 3.27666 67.8202C8.13594 63.4463 14.0927 64.8344 19.2433 62.1683C21.1107 61.202 22.1139 60.9495 23.9874 60.1538C26.6351 59.0292 29.1029 57.1132 31.0799 55.0549L27.6125 71.9897C23.9431 71.1281 19.7613 71.4668 16.5014 73.4413C11.2172 76.6421 12.8622 81.6529 17.1074 84.8086C22.2962 88.6659 37.174 93.086 41.9705 86.9821C46.0347 81.8099 40.1863 75.863 35.3085 74.0794C34.5541 73.8035 32.6621 73.0213 32.0721 73.6206C35.1773 74.5518 38.0917 75.8199 40.1955 78.3696C43.2872 82.1166 43.1068 86.1106 38.4569 88.3247C32.8117 91.013 17.953 87.1779 14.918 81.4422C11.1679 74.3553 22.5543 71.9441 27.3735 73.1981C27.5115 73.4032 26.3518 76.9309 26.0297 77.3097C25.338 78.122 21.2357 78.1774 21.9175 79.1672C22.4459 79.9339 26.5538 78.8291 27.1432 77.6891C27.4013 77.189 27.145 76.748 27.2787 76.3532C28.7137 72.1043 29.7206 68.5999 30.4363 64.1046C30.8705 61.3769 30.8268 57.8153 31.3965 55.2452C31.5283 54.6515 33.4584 52.4639 32.0936 52.491C31.8565 52.4959 28.8054 54.4193 27.9204 54.734C25.8129 55.4836 23.4947 55.656 21.3287 56.1881C18.9483 56.7726 16.7884 58.34 14.3705 57.2246C11.4223 55.8648 7.08218 51.3091 9.27471 47.9249C9.61406 47.4014 12.2593 44.9816 12.7243 44.9674C12.9423 44.9606 13.1966 45.244 13.5181 45.1774C14.1537 45.0469 14.8398 43.8823 15.9065 44.0184C16.9479 44.1514 19.8019 45.7317 20.6481 46.4966C23.5736 49.1412 24.8657 50.9057 29.2532 51.3929C30.137 51.4908 34.2874 51.016 34.4685 51.2038C34.6674 51.4107 34.418 53.0391 34.2935 53.4259C34.1642 53.5251 32.683 52.0162 32.8684 53.0163C33.0347 53.9161 34.5067 54.2038 34.5079 54.5887C34.5079 54.6922 34.1895 55.1904 34.1217 55.5168C32.9811 61.0012 32.4588 65.6985 31.7949 71.1805C31.3934 74.4963 29.7139 76.5651 32.3523 79.4234C32.6381 79.7332 35.7686 82.4319 35.694 80.7586C35.6774 80.3805 32.954 78.6283 32.4644 78.0875C30.5232 75.9449 32.5568 71.2531 33.0328 68.6652C33.3334 67.0337 33.1554 65.3752 33.977 63.8343L34.8639 54.4323C35.2389 53.5343 36.3549 55.1381 36.4873 55.6332C36.7491 56.6131 36.2372 57.4057 36.2557 58.0967C36.3309 60.9353 39.5747 66.3791 41.5776 68.4053C46.5249 73.4087 52.8758 72.9123 55.9669 80.6157C56.6339 82.2786 55.6245 81.6529 54.7266 82.4991C53.8649 83.3114 53.0982 86.3379 54.2517 86.8145C56.0218 87.5456 57.4758 85.6524 57.9322 84.1386C58.5037 82.2423 58.0554 82.961 59.1276 81.2242C60.097 79.6537 60.1432 77.9674 59.082 76.4277C56.6019 72.8261 47.652 69.5804 43.7879 67.1341C39.9073 64.6774 37.4801 61.202 36.9449 56.5891C37.2639 56.246 37.4629 56.7775 37.6224 56.9758C38.3171 57.8405 38.7032 59.0181 39.4121 59.9795C42.6344 64.3473 46.6364 66.0009 51.8147 67.2037C58.5524 68.7687 63.5552 67.856 62.9676 59.7424C62.5568 54.0695 54.0879 47.9187 48.6829 47.7697C47.6403 47.7407 46.366 48.34 45.2328 48.2661C43.0988 48.1275 41.5283 46.8569 39.5371 48.5475C38.5437 49.3907 37.9722 51.4144 36.5187 51.0954C37.1266 47.9902 38.346 44.9878 39.0925 41.9268C39.3918 40.7 40.4388 33.9974 40.7763 33.6186C40.873 33.5096 42.8567 32.4651 43.2152 32.0863C48.3128 32.1652 54.1729 34.176 58.7883 31.3368C57.9267 31.3251 57.0946 31.6854 56.2416 31.7667C51.6958 32.2003 47.1408 30.4776 42.6011 31.4532C39.6739 32.0826 39.289 37.8454 38.5801 40.2978C37.5589 43.833 36.2551 47.2856 35.5468 50.9045C34.6902 50.1082 33.8168 50.6631 32.8376 50.6193C33.0944 50.2948 33.2127 50.0028 33.3051 49.5951C34.7007 43.4234 36.228 35.9497 35.4015 29.6727C35.3116 28.9921 34.8448 28.2697 34.8503 27.7302C34.8725 25.5192 36.6277 22.332 36.6333 19.9147L40.2663 20.6316L38.9514 27.2923C38.8794 27.6582 38.0498 28.6565 38.423 29.3259L39.4836 27.1457L40.7504 20.7307ZM58.9305 10.2257C60.1013 7.60021 61.8307 9.81985 63.6722 10.4111C63.4911 10.7584 62.4207 10.6845 62.0666 10.6728C61.6047 10.6574 59.0291 10.3501 58.9305 10.2257ZM38.8763 7.27503L47.0157 9.38503L46.2989 13.0181L42.5445 12.2772C42.1047 12.1904 42.5999 11.2394 42.6479 10.9457C42.6892 10.6925 42.9935 9.9541 42.4934 10.0009C42.1694 10.0317 42.0487 12.1793 41.9391 12.1577L38.064 11.3928L38.8763 7.27503ZM47.2584 9.43307L53.509 10.9198C52.7699 12.2809 52.874 13.3291 53.2552 14.766C49.7878 14.9403 51.952 13.209 51.3023 11.2401C50.1826 11.1994 51.3078 11.8319 51.3054 11.9046C51.2764 12.6153 50.9204 13.4344 50.8527 14.1679C50.1401 14.0842 49.5519 13.4652 48.8843 13.3254C48.4477 13.2343 46.4344 13.6087 46.5656 12.9454L47.2584 9.43307ZM42.2322 13.222L46.0605 14.2308C46.1307 14.5911 45.6738 14.9088 45.6504 15.0289L44.527 20.7209L40.8939 20.004L42.2322 13.222ZM37.8724 12.3616L41.7475 13.1265L40.4086 19.9086L36.8217 18.9502L37.8724 12.3616ZM33.5126 11.5012L37.3877 12.2661L36.1449 18.5635C35.4791 18.4212 32.4102 17.6815 32.2211 17.2935C32.6892 15.3375 32.8973 13.3889 33.5126 11.5012ZM32.7384 11.5997L31.6385 17.1703L28.3454 16.015C28.5646 14.3737 29.1737 12.8444 29.5654 11.2499L32.7384 11.5997ZM25.7846 11.2579C25.9133 11.1569 28.5659 11.2358 29.0555 11.1255L27.905 15.6781C27.5201 15.4465 25.2487 14.4913 25.173 14.3595C25.0948 14.2221 25.6602 11.3552 25.7846 11.2579ZM54.1994 16.3389L53.1715 21.5468C53.0859 21.9798 50.7929 21.6983 50.3883 21.6238C52.1725 20.0773 54.1402 18.646 52.7459 16.0544L54.1994 16.3389ZM59.4799 17.636C60.4444 17.8484 60.8619 18.0831 60.4548 19.0833L60.8404 18.4058C62.2261 19.3081 61.5899 19.7367 60.5263 20.607L60.1167 19.5224C60.1703 21.5597 58.4101 21.285 56.9265 21.6595L57.9334 17.8318L59.5298 18.6491L59.4799 17.636ZM54.636 16.677C55.2156 16.7559 57.3982 17.336 57.5879 17.745C57.7431 18.08 56.6604 21.5616 56.3445 21.7359C56.1381 21.8498 53.5188 21.8307 53.3907 21.7131C53.4739 21.4797 53.7565 21.1342 53.7997 20.9155L54.636 16.677ZM24.5115 13.7491C22.6676 12.9048 23.0728 12.0801 24.8232 11.5486L24.5115 13.7491ZM45.0129 20.8157L45.157 20.0908L45.76 20.8404L45.0129 20.8157ZM38.2136 51.4323C39.6117 49.8858 39.9824 48.4484 42.3862 48.7243C43.2983 48.829 44.2036 49.3383 44.9759 49.4018C47.0502 49.5717 49.4257 48.1515 51.7143 49.3205L48.1157 49.7473C45.8265 49.4202 43.5588 50.2504 41.4648 51.1127C41.0503 51.2833 40.1512 52.0168 39.9529 52.0069C39.6733 51.9928 39.0906 51.0172 38.2136 51.4323ZM17.9524 43.1598C21.6988 43.2011 23.3167 45.834 25.6971 48.1595L27.9432 49.908C26.0266 49.2158 24.089 47.9544 22.3886 46.804C20.8994 45.797 19.1053 44.5166 17.9524 43.1598ZM38.4132 54.2444C39.9824 54.2124 41.6219 54.2493 42.9953 53.3957C43.5551 53.0477 43.9173 52.4694 44.482 52.1652C45.8893 51.4071 47.0891 51.9238 48.4631 51.8332C51.1803 51.6546 53.0822 50.0755 55.9294 52.0636C58.981 54.1945 59.9116 63.6557 55.3683 64.3313C49.9387 65.1387 45.9534 60.45 42.3252 57.3989C41.0491 56.3261 39.382 55.5144 38.4132 54.2444ZM36.475 53.862C41.1926 56.727 44.1181 62.0032 49.2009 64.3497C55.882 67.4341 60.3329 65.066 59.6185 57.3669L59.111 54.5548C61.3682 56.6858 61.9693 59.1683 61.5006 62.1985C61.0763 64.9428 60.2676 66.3778 57.3256 66.6236C53.6814 66.9278 46.3673 65.1898 43.4893 62.924C40.3871 60.4814 38.8763 56.8988 36.475 53.862ZM35.6478 51.6848L36.8568 51.9232C37.025 52.6012 36.2865 52.2317 36.2262 52.4534C36.1326 52.7946 36.4282 53.1999 36.2797 53.5694C35.3978 53.2042 35.6793 52.5113 35.6478 51.6848ZM7.37287 52.1424C7.75533 51.8819 9.36893 54.7599 9.67933 55.1128C11.1815 56.8225 15.1403 59.743 17.5176 58.9682L28.7814 55.866C25.5998 58.5137 20.9918 60.8454 16.7213 60.2856C14.8336 60.038 11.4814 58.8155 9.97986 57.6434C8.47096 56.4659 7.76888 53.9482 7.37287 52.1424ZM43.6777 68.369L49.5926 71.5444C47.8478 71.1386 45.8271 70.0756 44.3509 69.0717C44.0768 68.8857 43.6617 68.8013 43.6777 68.369ZM52.5038 73.3828C55.1915 74.9041 59.6136 76.6433 57.894 80.4827C57.3016 80.5233 57.5153 80.2702 57.4007 80.067C56.86 79.1087 56.5391 78.0173 55.7852 77.1705L52.5038 73.3828ZM54.5689 85.8673C54.4229 85.6561 55.3443 82.9671 56.3032 83.4426C56.1628 83.8953 55.2815 86.8964 54.5689 85.8673Z" fill="#D33756"/>
<path d="M17.3163 78.2637C16.528 80.3404 17.7227 81.3776 19.2304 82.5477C23.3008 85.7072 32.5014 88.579 37.5288 87.2543C38.6645 86.955 39.5932 86.5522 40.0527 85.3765C40.2153 84.9607 40.6242 83.8713 39.8451 83.9692C39.7121 85.698 39.0709 86.4087 37.4105 86.7646C33.1776 87.6712 23.1856 84.3572 19.6301 81.8604C18.9828 81.4059 17.6956 80.4611 17.5965 79.6506C17.5232 79.0545 18.1822 78.2372 17.3163 78.2637Z" fill="#D33756"/>
<path d="M38.3546 30.3248C38.5246 31.1624 36.4712 35.0529 36.6246 35.2654C36.6806 35.343 37.1943 35.476 37.3858 35.2488C37.7793 34.7832 39.7625 30.4468 38.3546 30.3248Z" fill="#D33756"/>
<path d="M36.7774 77.8282C36.8871 78.4638 37.6741 78.531 38.0646 78.9596C38.4027 79.331 38.2321 79.8299 38.6208 79.95C38.941 78.9177 37.7031 77.9311 36.7774 77.8282Z" fill="#D33756"/>
<path d="M30.7842 81.4257C29.9546 82.0114 32.0154 82.9765 32.1121 82.3157C32.1644 81.9597 31.0478 81.2391 30.7842 81.4257Z" fill="#D33756"/>
<path d="M24.471 73.8879C24.3841 73.9458 24.2985 74.4558 24.4716 74.6596C25.1817 75.4972 25.7889 74.4915 25.4243 74.1934C25.218 74.0259 24.5664 73.8245 24.471 73.8879Z" fill="#D33756"/>
<path d="M22.4385 75.2459C22.6559 75.0993 22.7446 74.2876 21.9791 74.404C21.0854 74.5401 22.0573 75.5021 22.4385 75.2459Z" fill="#D33756"/>
<path d="M62.1664 6.58762C62.7145 6.44843 63.3156 5.904 63.4172 5.32507C62.9325 5.50183 62.2988 6.07089 62.1664 6.58762Z" fill="#D33756"/>
<path d="M58.4412 24.2019L58.6786 24.2488L58.4399 25.4571L58.2025 25.4102L58.4412 24.2019Z" fill="#D33756"/>
</svg>
