<svg width="20" height="15" viewBox="0 0 20 15" fill="none" xmlns="http://www.w3.org/2000/svg">
<path d="M0.560355 2.04689C1.30451 0.642473 3.02504 -0.441509 4.62774 0.178723C5.59476 0.552741 6.35567 1.36677 6.72539 2.32521C7.3977 1.5149 8.34928 0.931923 9.4002 0.886731C10.6381 0.833712 11.6478 1.64094 12.1268 2.71388C12.9855 2.53509 13.8644 2.69016 14.575 3.41896C15.4302 4.29585 15.7263 5.60763 15.491 6.79786C16.5949 6.26807 17.9237 6.17628 18.9412 6.93165C20.3576 7.98436 20.2202 10.1409 19.3113 11.4883C18.2432 13.0716 16.4248 13.8719 14.6551 14.4053C12.9552 14.9177 11.3842 14.8074 9.64727 14.5791C9.57727 14.5696 9.55771 14.5327 9.56524 14.4863C8.48465 13.7017 8.13425 12.1022 8.04473 10.6709C7.25437 11.2001 6.40386 11.6383 5.49883 12.0459C5.40935 12.0861 5.36541 12.0616 5.35235 12.0137C3.27377 11.6755 1.78841 9.4221 0.920707 7.67775C0.0194817 5.86827 -0.429548 3.9129 0.560355 2.04689ZM12.4266 4.19825C12.3699 6.09678 11.1969 7.70709 9.95586 9.05079C9.80185 9.21744 9.64402 9.37696 9.48321 9.52931C9.53308 11.1031 9.79476 12.69 9.84551 14.252C11.2863 14.1699 12.5932 13.6785 14.0027 13.4199C15.3466 13.1728 16.766 12.7743 17.8348 11.8779C18.8106 11.0597 19.3078 9.25944 18.3025 8.25001C17.3615 7.30689 15.7522 7.34328 14.8279 8.292C14.4933 8.63497 13.6352 8.63342 14.0203 7.98634C14.7324 6.79191 14.3476 5.06409 13.0604 4.38478C12.8489 4.27337 12.6359 4.20328 12.4266 4.16603C12.4264 4.17665 12.4269 4.18763 12.4266 4.19825ZM3.81329 1.56447C2.5874 1.20145 1.57493 1.83303 1.48907 3.18947C1.27488 6.55257 4.10394 9.00206 5.56036 11.7158C6.47672 11.1169 7.22777 10.3623 8.02227 9.62697C8.02322 9.52831 8.02183 9.43211 8.02422 9.33888C8.0703 7.56148 8.37194 5.48618 9.66485 4.1465C10.0036 3.7956 10.4151 3.47193 10.8621 3.21388C10.6231 2.75252 10.257 2.37611 9.74297 2.18947C8.48225 1.73223 7.26675 2.53915 6.95391 3.79005C6.86178 4.15997 5.79938 4.94593 5.80938 4.21095C5.82683 2.94471 5.01591 1.92061 3.81329 1.56447ZM11.1912 4.35548C10.6819 4.61692 10.2639 5.09269 10.0311 5.69435C9.70623 6.53378 9.55389 7.38708 9.49981 8.24708C10.2039 7.51745 10.8277 6.68391 11.0936 5.7256C11.2082 5.31336 11.2436 4.83165 11.1912 4.35548Z" fill="#D33756"/>
</svg>
