<svg width="90" height="76" viewBox="0 0 90 76" fill="none" xmlns="http://www.w3.org/2000/svg">
<path fill-rule="evenodd" clip-rule="evenodd" d="M75.5525 68.7893C75.4867 68.7278 75.4038 68.6815 75.3255 68.6397C75.2659 68.6068 75.1225 68.5097 75.192 68.572C75.0807 68.5364 75.0023 68.524 74.8893 68.5551C74.7148 68.605 74.5981 68.8507 74.6774 69.0154C74.7165 69.0884 74.7602 69.1463 74.8127 69.1979C74.8047 69.2095 74.7922 69.2193 74.7833 69.2309C74.7041 69.3217 74.7121 69.4837 74.8118 69.5576C75.1332 69.7971 75.8517 69.7597 75.7813 69.1952C75.7591 69.0234 75.6763 68.9041 75.5525 68.7893Z" fill="#D33756"/>
<path fill-rule="evenodd" clip-rule="evenodd" d="M56.4263 67.2766C56.0123 67.2552 55.6446 67.2828 55.2315 67.3398C54.9715 67.3817 54.7115 67.42 54.4498 67.4556C54.3171 67.4752 53.0511 67.7075 54.0127 67.4556C54.091 67.4351 54.0955 67.3069 54.0198 67.2793C53.6156 67.1324 53.1526 67.046 52.6914 67.0416C52.3344 66.5813 51.6765 66.4744 51.0105 66.5635C50.9856 66.5003 50.9393 66.4335 50.8645 66.3649C50.244 65.7934 49.1516 65.7373 48.2551 66.0328C47.6265 65.861 46.9347 65.9572 46.3747 66.2991C46.3026 66.3436 46.3534 66.4469 46.4282 66.4433C46.6169 66.4344 46.8057 66.4264 46.9944 66.4201C47.1021 66.4157 47.0861 66.2474 46.9784 66.2537C46.1557 66.2999 47.3665 66.1148 47.5304 66.0979C47.8037 66.0311 47.9817 66.0338 48.0752 66.0979C47.7111 66.2421 47.3888 66.4442 47.16 66.697C47.1128 66.7486 47.1511 66.8208 47.2107 66.8368C47.8064 66.9971 48.3405 66.8145 48.6797 66.2955C48.7064 66.2554 48.702 66.2029 48.6539 66.1789C48.6121 66.1584 48.5676 66.1432 48.5248 66.1254C48.954 66.0284 49.4169 66.0257 49.8389 66.064C50.2645 66.0604 50.4968 66.2599 50.5405 66.6561C50.0152 66.795 49.5309 67.0318 49.2469 67.2864C49.1943 67.3336 49.1934 67.4475 49.2851 67.4547C49.5567 67.4751 50.8298 67.2187 51.0105 66.7736C51.2509 66.7504 51.4931 66.7478 51.7237 66.7611C52.0549 66.7522 52.2196 66.8546 52.224 67.0647C51.8109 67.1173 51.4139 67.2446 51.0827 67.4787C51.0132 67.5277 51.039 67.6363 51.121 67.6514C51.3409 67.6915 52.89 67.7467 52.7974 67.2401C53.1455 67.2374 54.0233 67.2561 53.2238 67.4591C53.1277 67.4832 53.1473 67.6381 53.2408 67.6487C54.3127 67.7707 55.349 67.4832 56.4183 67.4289C56.5073 67.4262 56.5153 67.2802 56.4263 67.2766ZM47.9924 66.6721C47.4591 66.5403 47.4947 66.4032 48.0984 66.2617C48.1153 66.2545 48.1331 66.2492 48.1509 66.2421C48.1545 66.3445 48.1037 66.486 47.9924 66.6721ZM49.9555 67.0505C50.1425 66.9605 50.3428 66.8965 50.5503 66.8493C50.5485 66.8982 50.5485 66.9472 50.5423 67.0015C50.2885 67.2926 50.0935 67.3087 49.9555 67.0505ZM52.1003 67.4894C51.8581 67.5259 51.616 67.5303 51.3729 67.5036C51.5937 67.5197 51.8813 67.4235 52.1662 67.3434C52.1466 67.3897 52.1261 67.4378 52.1003 67.4894Z" fill="#D33756"/>
<path fill-rule="evenodd" clip-rule="evenodd" d="M75.0034 27.6644C73.6118 28.511 72.799 30.6878 72.7296 32.2289C71.176 30.2996 67.0476 29.4993 67.1126 32.8611C67.1438 34.6052 68.5825 35.9842 69.7666 37.1078C71.2143 38.4762 72.9094 39.7591 74.6624 40.7287C74.6695 40.7465 74.6731 40.7687 74.6802 40.7892C74.7452 40.9379 74.9981 40.9868 75.0613 40.807C75.0648 40.7981 75.0657 40.7883 75.0702 40.7812C75.242 40.6833 75.3417 40.4491 75.2277 40.2844C75.9302 38.1637 76.4314 35.8925 77.1375 33.7531C77.677 32.1141 78.44 30.0637 77.766 28.3614C77.2906 27.1649 75.9382 27.0946 75.0034 27.6644ZM68.8416 35.2025C67.8756 34.079 66.8927 32.0633 68.8033 31.254C68.8612 31.2291 68.9217 31.2255 68.9805 31.2077C68.9386 31.2505 68.9066 31.3066 68.9048 31.3778C68.8567 32.642 68.7125 34.0086 68.9155 35.2764C68.8915 35.2515 68.8647 35.2284 68.8416 35.2025ZM76.4742 33.4415C75.9818 34.9675 74.4692 37.7898 74.4977 39.7814C74.3303 39.671 74.1656 39.5579 74 39.4484C74.1968 38.6845 74.292 37.8913 74.3374 37.0873C74.3748 37.4399 74.4033 37.7907 74.4737 38.1379C74.4941 38.2332 74.6464 38.2563 74.6553 38.1459C74.7951 36.1356 74.7256 34.103 74.8173 32.0892C74.8298 31.8176 74.4113 31.7419 74.3971 32.0153C74.3766 32.4417 74.3499 32.8744 74.325 33.3071C74.2983 32.4364 74.284 31.5728 74.3276 30.7359C74.3455 30.4216 73.8691 30.3246 73.8371 30.6495C73.5549 33.4175 73.3706 36.4134 73.6279 39.1982C72.0948 38.1646 70.6133 37.0579 69.3375 35.7127C69.3384 35.7073 69.3428 35.7056 69.3437 35.7002C69.6055 34.2891 69.4301 32.7578 69.3954 31.3324C69.3927 31.2158 69.3215 31.1632 69.2413 31.141C70.5964 30.9175 72.109 32.115 72.7037 33.1753C72.7928 33.3374 72.9771 33.3009 73.0883 33.1949C73.1017 34.2455 73.0883 35.2898 73.0332 36.3421C73.0269 36.4258 73.14 36.4472 73.1649 36.3635C73.5006 35.1198 73.4409 33.835 73.4133 32.5601C73.4115 32.4916 73.375 32.4577 73.327 32.4364C73.3394 32.4079 73.3554 32.3803 73.3599 32.3429C73.5549 30.8668 74.1629 29.104 75.315 28.1068C76.8606 28.1647 77.5372 28.7567 77.3396 29.8848C77.3102 30.199 77.2665 30.5124 77.2015 30.8214C77.0457 31.7081 76.7466 32.5895 76.4742 33.4415Z" fill="#D33756"/>
<path fill-rule="evenodd" clip-rule="evenodd" d="M64.4515 25.4814C63.5452 25.7138 62.9531 26.0173 62.508 26.5417C62.4875 26.556 62.4599 26.5631 62.443 26.5916C62.4172 26.6308 62.402 26.669 62.3807 26.71C62.2587 26.872 62.1563 27.0706 62.0575 27.2816C61.9836 27.2531 61.9008 27.2495 61.8296 27.27C61.5269 26.3975 60.7096 25.6772 59.8558 25.2793C59.8593 25.2463 59.8638 25.2134 59.8682 25.1814C59.9252 24.8154 59.3875 24.7202 59.3038 25.071C59.2352 25.0505 59.1658 25.022 59.0963 25.0077C58.9405 24.973 58.7919 25.095 58.7634 25.2428C58.5728 26.2292 58.6129 27.1943 58.783 28.1452C58.7856 28.5137 58.8319 28.8672 58.9539 29.1833C58.9717 29.2269 59.0064 29.2589 59.0474 29.2803C59.4489 30.6692 60.0846 32.0162 60.69 33.3196C60.6953 33.3784 60.6882 33.4407 60.698 33.4986C60.7283 33.7283 61.0167 33.7665 61.1253 33.5734C61.2847 33.2947 61.3969 32.9902 61.4966 32.6795C62.8098 30.5232 64.5806 28.3927 64.8201 25.7885C64.8397 25.5669 64.6616 25.4262 64.4515 25.4814ZM60.0543 26.4785C59.9323 27.051 59.8104 27.6217 59.6715 28.1888C59.6385 28.3286 59.5949 28.4675 59.5495 28.609C59.5317 28.5503 59.5068 28.4906 59.4881 28.431C59.5299 28.0544 59.5424 27.6697 59.5833 27.2985C59.635 26.8364 59.7053 26.3797 59.7703 25.9185C59.9101 26.0111 60.0632 26.1375 60.2208 26.272C60.1442 26.3067 60.0748 26.3681 60.0543 26.4785ZM60.0855 30.0745C60.0409 29.9578 59.992 29.843 59.9448 29.7272C60.146 29.3702 60.2235 28.9384 60.3187 28.5458C60.4638 27.9448 60.5493 27.3323 60.6339 26.7225C60.7318 26.8507 60.8146 26.9913 60.9001 27.1276C60.5725 27.9903 60.1611 29.08 60.0855 30.0745ZM63.7526 27.4801C63.7562 27.4721 63.7597 27.4605 63.7633 27.4525C63.8755 27.1178 63.3796 26.8738 63.2576 27.2148C63.1677 27.457 63.0662 27.6982 62.9683 27.9386C62.8222 27.8781 62.6371 27.9075 62.5445 28.0909C62.3068 28.5627 62.0174 29.096 61.7343 29.6551C61.8358 29.2563 61.9293 28.8592 62.0335 28.463C62.199 28.5129 62.3807 28.4683 62.451 28.2654C62.7991 27.2709 63.2211 26.4767 64.1915 26.1277C64.0927 26.588 63.9351 27.0385 63.7526 27.4801Z" fill="#D33756"/>
<path fill-rule="evenodd" clip-rule="evenodd" d="M57.3077 54.9192C56.242 55.4401 55.5111 56.1861 55.2003 57.2687C54.9439 56.2555 53.7465 55.2192 52.8731 55.8879C52.0193 56.5396 52.0816 57.7682 52.3772 58.6611C52.5107 59.0609 52.6897 59.4428 52.882 59.8186C52.8847 59.8809 52.8749 59.9423 52.8784 60.0028C52.8873 60.0892 52.9666 60.1266 53.0378 60.1177C53.1918 60.407 53.3494 60.6946 53.5034 60.9849C53.5034 61.0267 53.4954 61.0685 53.4981 61.1104C53.5008 61.1674 53.5533 61.1798 53.6005 61.17C53.8026 61.5555 53.9886 61.9464 54.1355 62.355C54.2433 62.6497 54.7214 62.5473 54.6742 62.2304C54.651 62.0657 54.6145 61.909 54.5682 61.7532C54.8522 60.9012 54.9324 59.9628 55.0793 59.0796C55.1042 58.9176 54.8576 58.8766 54.8291 59.036C54.6857 59.8008 54.4917 60.5851 54.4302 61.3686C54.2887 61.0151 54.1106 60.6732 53.9174 60.3367C54.1658 59.3921 54.2459 58.3941 54.3661 57.4343C54.3884 57.2527 54.1258 57.2064 54.0857 57.3854C53.9103 58.1635 53.7082 58.9603 53.5898 59.7607C53.5194 59.6343 53.442 59.5105 53.3752 59.3823C53.6548 58.443 53.7322 57.4299 53.848 56.4665C53.9299 56.5378 54.0073 56.6152 54.0599 56.6722C54.3038 56.9553 54.716 57.5839 54.6021 57.9818C54.513 58.3006 54.9876 58.4128 55.1318 58.1501C55.1416 58.1314 55.1451 58.1101 55.1532 58.0905C55.3125 58.2605 55.658 58.2276 55.7452 57.9284C56.0087 57.047 56.3898 56.3793 57.0228 55.8175C56.6222 57.9026 55.5022 59.7696 54.6715 61.7069C54.5023 62.1022 55.1069 62.388 55.2778 61.9936C56.2411 59.7286 57.4154 57.7103 57.6709 55.221C57.6914 55.0367 57.508 54.8186 57.3077 54.9192ZM52.971 58.4973C52.8686 58.2187 52.7805 57.9311 52.7485 57.6293C52.7084 57.2527 52.9986 56.512 53.3672 56.3214C53.3921 56.3099 53.418 56.3179 53.4402 56.3134C53.28 57.0257 53.0885 57.7602 52.971 58.4973Z" fill="#D33756"/>
<path fill-rule="evenodd" clip-rule="evenodd" d="M83.845 24.8625C83.8067 24.8438 83.7711 24.8242 83.7213 24.8144C73.3412 22.9849 63.1205 20.3558 52.7173 18.6838C48.7581 18.0472 44.8355 17.2201 40.8754 16.588C39.953 16.4411 38.6033 16.1215 37.4112 16.1714C37.3026 16.1126 37.1646 16.1126 37.0596 16.2008C36.7266 16.2373 36.4257 16.3281 36.1434 16.4465C36.1381 16.3468 36.1399 16.2426 36.1328 16.1429C36.0998 15.6942 35.4258 15.7663 35.4419 16.2097C35.5015 17.8692 35.2122 19.5349 35.1623 21.1945C34.4421 24.6168 34.0245 28.1166 33.6372 31.6173C31.7195 40.8453 30.0235 50.1872 29.1528 59.4677C29.1109 59.7108 29.062 59.9547 29.0228 60.1996L28.8981 60.1809C28.3559 60.0954 28.2117 60.918 28.753 61.0204C43.7333 63.8543 58.8008 66.1005 73.6813 69.4418C74.3481 69.5914 74.5298 68.5453 73.8656 68.3984C69.5503 67.444 65.2216 66.5563 60.8787 65.7114C60.8939 65.7061 60.9099 65.7061 60.9233 65.699C63.7393 64.2095 66.1841 62.0541 68.5772 59.8514C69.0321 60.5361 69.5004 61.2083 69.9643 61.8822C70.0506 62.0033 70.1869 62.0211 70.3053 61.9802C70.4629 62.0843 70.6997 62.0549 70.7575 61.8048C71.1902 59.9601 72.2399 57.9408 72.9708 55.9021C73.0519 55.8353 73.132 55.7623 73.2112 55.6955C75.2251 54.044 78.1756 51.7915 79.422 49.1224C78.3634 55.8762 77.3618 62.639 76.2472 69.3492C76.1421 69.9724 77.0974 70.1371 77.2114 69.5166C79.86 54.815 82.6894 39.9843 84.5866 25.1661C84.6463 24.7032 84.064 24.5447 83.845 24.8625ZM69.7061 54.6939C69.7079 54.2888 69.1016 54.3618 69.0865 54.7536C69.0856 54.807 69.0847 54.8666 69.082 54.9218C69.0838 54.5577 69.0864 54.1927 69.0936 53.8259C69.0936 53.6033 68.8452 53.5178 68.6644 53.5801C68.6653 53.5517 68.6662 53.5223 68.6689 53.4938C68.6733 53.0638 68.0172 53.1359 68.0065 53.5561C67.9869 54.4215 67.8943 55.2806 67.8685 56.1442C67.8552 56.5769 67.8329 57.0194 67.8979 57.4414C67.8284 57.3319 67.751 57.2242 67.6815 57.112C67.8249 56.365 67.7136 55.5522 67.7804 54.791C67.8382 54.109 67.9406 53.4332 68.051 52.7593C68.0697 52.7326 68.0715 52.7005 68.0635 52.6676C68.0688 52.6435 68.0733 52.6169 68.0768 52.5937C68.8007 53.0335 69.4835 54.1072 69.7658 54.7198C69.7453 54.7438 69.7346 54.7776 69.7426 54.823C69.8601 55.5762 69.8646 56.3383 69.8405 57.1031C69.7845 56.2831 69.7016 55.4605 69.7061 54.6939ZM70.5973 55.4391C70.5198 55.8451 70.4255 56.3009 70.3391 56.7835C70.2679 56.2172 70.1886 55.6581 70.0952 55.1239C70.2118 55.1328 70.3373 55.075 70.3872 54.961C70.5492 54.994 70.7255 54.9192 70.7469 54.7046C70.762 54.3876 70.8083 54.0725 70.8671 53.76C70.8466 54.2701 70.8252 54.7794 70.8074 55.2895C70.7166 55.2797 70.6204 55.3225 70.5973 55.4391ZM72.2568 55.5023C72.1304 55.6065 72.0022 55.7124 71.8767 55.8157C71.8767 55.5976 71.8624 55.3777 71.8624 55.1578C71.858 54.2265 71.8473 53.3059 71.9799 52.3854C72.0084 52.1984 71.7271 52.1468 71.6915 52.3346C71.6033 52.8332 71.5268 53.3318 71.4609 53.8348C71.4627 53.6327 71.4573 53.4315 71.46 53.2303C71.4636 53.0228 71.2392 52.9525 71.0692 53.0059C71.4342 52.1824 72.6477 49.9441 72.9343 50.6448C72.9548 50.6947 72.9619 50.7472 72.978 50.7979C72.8248 50.7143 72.5729 50.8024 72.5755 51.0365C72.5747 51.1995 72.5595 51.3606 72.5533 51.5235C72.4286 51.4648 72.2613 51.4924 72.2319 51.6678C72.1188 52.3239 72.0654 52.9845 72.0075 53.6496C71.9621 54.1829 71.7992 54.7313 71.9541 55.2513C71.9879 55.3617 72.1598 55.3964 72.2274 55.3002C72.3209 55.1649 72.377 55.018 72.4206 54.8675C72.4473 54.8711 72.4741 54.8684 72.4981 54.8551C72.4144 55.0776 72.3343 55.2967 72.2568 55.5023ZM78.7338 48.5393C78.083 50.1997 76.541 51.6099 75.2963 52.8314C74.6856 53.4306 74.0454 53.9968 73.3937 54.5533C73.8157 52.9783 73.9244 51.4123 73.2816 49.9228C73.2041 49.7421 72.9976 49.6753 72.8302 49.7839C71.2196 50.8416 70.4406 52.1966 70.1744 53.9968C69.7569 53.0629 68.9137 52.2643 68.0635 51.9634C67.9736 51.8681 67.8329 51.8325 67.7083 51.869C66.8491 51.7132 66.0407 52.1272 65.7255 53.5214C65.422 54.8649 66.55 56.5342 67.1759 57.6239C67.4501 58.0993 67.7554 58.5596 68.0519 59.0217C65.6294 61.2092 63.3956 63.5115 60.4763 65.0597C60.2146 65.1995 60.2653 65.4684 60.4363 65.6268C50.5218 63.7038 40.5487 62.0247 30.5799 60.448C30.6832 60.3465 30.7518 60.2049 30.7491 60.0224C30.6476 54.3663 32.0008 48.9114 33.0968 43.4084C33.3132 42.519 33.5179 41.6278 33.696 40.7366C33.8554 39.9505 34.0031 39.1644 34.1563 38.3791C34.8142 41.0598 36.7052 43.7476 38.9639 46.2316C38.614 47.1192 38.4573 48.1484 38.484 49.0191C37.9036 48.2579 37.0836 47.6703 36.0936 47.6507C34.7189 47.6223 33.834 48.6256 33.8402 49.9905C33.8545 52.7869 37.1005 54.7242 39.6592 56.1425C39.6646 56.1442 39.6708 56.1487 39.6762 56.1513C40.0652 56.3668 40.4391 56.5716 40.7828 56.7639C40.781 56.9081 40.789 57.0497 40.8184 57.1814C40.8603 57.3791 41.1505 57.5518 41.2947 57.331C41.3428 57.2562 41.382 57.1663 41.4247 57.0853C41.698 57.0951 41.8717 56.714 41.6945 56.4772C42.161 55.1596 42.2411 53.3843 42.4512 52.1868C42.5732 51.4995 42.7014 50.773 42.8038 50.0359C44.4989 51.5832 46.1469 52.9712 47.4458 54.1179C47.3764 54.2675 47.3096 54.4215 47.2402 54.5711C47.0265 55.0278 47.7334 55.3608 47.9453 54.9049C47.9818 54.8248 48.0156 54.742 48.0521 54.6619C48.1607 54.7607 48.2694 54.8622 48.3718 54.9557C48.7359 55.2922 49.2202 54.7082 48.8659 54.3699C48.7056 54.2167 48.5436 54.0662 48.3816 53.914C49.3831 51.6473 50.2476 49.3325 51.072 46.9981C51.1272 47.3231 51.1833 47.6498 51.2368 47.9757C51.178 48.1493 51.1121 48.3238 51.0587 48.4956C51.0151 48.6443 51.2341 48.728 51.3222 48.6185C51.3267 48.614 51.3284 48.6078 51.3329 48.6016C51.3382 48.6354 51.3427 48.6666 51.3489 48.7004C51.3 48.7725 51.251 48.8437 51.2038 48.9176C51.1157 49.0547 51.1789 49.3129 51.389 49.2693C51.4015 49.2675 51.413 49.2595 51.4264 49.2559C51.47 49.5604 51.5074 49.8631 51.5457 50.1658C51.4958 50.3038 51.4424 50.4418 51.3988 50.5816C51.3543 50.733 51.4905 50.8175 51.6205 50.8069C51.6534 51.1469 51.6899 51.488 51.7077 51.8263C51.6828 51.8441 51.6534 51.8601 51.6258 51.8779C51.2644 52.1014 51.5644 52.599 51.9223 52.5278C52.1101 52.6071 52.3772 52.5073 52.4182 52.2607C54.765 50.846 57.395 49.3023 59.5816 47.405C59.5299 52.729 60.057 58.1902 61.2731 63.3646C61.3595 63.7234 61.9444 63.5791 61.8964 63.2239C61.1592 57.6871 60.2057 52.2848 60.3437 46.7248C61.1805 45.9218 61.9266 45.0582 62.5285 44.1118C63.2104 43.0452 63.2585 41.3456 61.924 40.8328C61.7388 40.7598 61.542 40.7224 61.3435 40.701C62.3228 38.3569 64.074 36.7499 66.3336 39.8748C67.8979 42.0427 68.2237 45.0484 67.7946 47.6027C67.7287 47.9864 68.3039 48.0816 68.3867 47.7042C68.4 47.6347 68.4143 47.5572 68.425 47.4718C68.4775 47.4736 68.5327 47.4691 68.5799 47.4282C70.2243 46.034 72.0992 45.0804 74.1336 44.3753C77.0075 43.3799 80.0479 45.1926 78.7338 48.5393ZM66.5802 54.9859C66.3167 54.2523 66.2268 53.4786 66.7245 52.8207C66.6595 53.2632 66.6114 53.703 66.5954 54.1526C66.5891 54.4179 66.5705 54.7028 66.5802 54.9859ZM46.1611 31.5647C46.8306 30.7581 47.169 28.998 47.68 28.0738C49.3226 25.102 55.4176 20.6745 56.048 27.383C56.2411 29.4636 55.5129 31.7552 54.9645 33.738C54.9101 33.9258 54.8549 34.1172 54.8006 34.3042C54.3813 34.0674 53.8988 34.0344 53.3343 34.2855C51.2599 35.2087 50.74 38.2482 50.5494 40.2354C50.4764 40.9637 50.4809 41.691 50.5138 42.4202C50.4355 42.6143 50.3438 42.8048 50.2726 42.9998C50.2254 43.1298 50.3794 43.2384 50.4764 43.1315C50.4987 43.1075 50.5183 43.0808 50.5387 43.0568C50.5788 43.5963 50.6429 44.1349 50.7159 44.6735C50.6928 44.7385 50.6661 44.8053 50.6456 44.8739C50.6153 44.9754 50.6857 45.0395 50.7711 45.0617C50.813 45.3546 50.8539 45.6484 50.8993 45.9422C49.9227 48.4663 48.8801 50.9555 47.7904 53.3549C46.1602 51.8236 44.5247 50.3127 42.9427 48.7476C43.021 47.6178 42.9774 46.4942 42.6596 45.4579C42.275 44.1999 40.8825 43.899 39.9548 44.7056C39.8124 44.8285 39.6824 44.9754 39.5613 45.1321C39.166 44.6798 38.7583 44.2373 38.3781 43.7645C36.6972 41.6803 35.4054 39.3415 34.8739 36.7044C34.7813 36.2495 34.7412 35.8186 34.7368 35.4091C34.8694 34.7173 35.0021 34.022 35.1329 33.3293C36.7097 29.6737 42.5696 29.3149 45.2459 33.0595C45.4409 33.3355 45.8994 33.2438 45.9537 32.9011C46.0276 32.4434 46.1033 32.0036 46.1611 31.5647ZM56.2874 47.7549C56.3524 47.8404 56.4753 47.8644 56.5688 47.7718C56.7486 47.5929 56.9071 47.3872 57.0549 47.17C57.0024 47.3578 56.9534 47.5475 56.9276 47.7406C56.9 47.9739 57.1902 48.1262 57.3505 47.9383C57.5597 47.6953 57.7271 47.4219 57.8758 47.1379C57.8152 47.3382 57.7653 47.5412 57.7271 47.746C56.9053 48.3754 56.0711 48.9862 55.212 49.5676C55.5939 48.9871 55.9491 48.3772 56.2874 47.7549ZM56.6391 45.3324C57.0433 44.4412 57.4315 43.5402 57.8295 42.6472C57.8508 42.6027 57.8571 42.5591 57.8562 42.5199C58.2933 42.2947 58.8542 42.0356 59.4364 41.8335C59.3937 41.8673 59.359 41.911 59.3332 41.9715C59.1881 42.2938 59.0438 42.6178 58.8996 42.941C58.7643 42.8386 58.5746 42.8226 58.4455 43.0034C58.3485 43.1396 58.2577 43.2838 58.1669 43.428C58.0351 43.2339 57.7119 43.1761 57.5926 43.4529C57.3104 44.0948 56.981 44.7172 56.6391 45.3324ZM52.444 50.7205C52.3781 50.8897 52.5829 51.0259 52.7093 50.8905C52.7859 50.8095 52.8526 50.7187 52.9274 50.6359C52.9363 50.79 53.0859 50.8861 53.2462 50.8006C53.6192 50.6003 53.9415 50.2762 54.2264 49.8979C54.2166 49.9219 54.2068 49.9442 54.197 49.9673C54.1605 50.0617 54.1801 50.1507 54.2237 50.2308C53.6165 50.6252 53.0076 51.0143 52.3959 51.3963C52.3692 50.9716 52.3247 50.5433 52.2775 50.116C53.1767 48.9488 53.8195 47.5225 54.4837 46.2378C55.2102 44.8329 55.8717 43.3969 56.5029 41.9466C56.4824 42.3908 56.4237 42.8324 56.3498 43.2669C54.9101 45.652 53.41 48.1653 52.444 50.7205ZM54.619 40.9085C55.0375 39.7582 55.4221 38.6195 55.8815 37.6535C55.9189 37.7621 55.958 37.8699 55.9936 37.9749C56.0417 38.128 56.0684 38.2901 56.1121 38.4459C55.6171 39.2463 55.114 40.0689 54.619 40.9085ZM55.4114 37.2547C54.6235 38.7228 53.9887 40.2496 53.3486 41.7881C52.8945 42.8787 52.2891 43.9168 51.7772 44.9816C52.0612 44.1572 52.3479 43.331 52.6319 42.5057C53.5373 40.7429 54.1988 38.7575 54.9636 37.0704C55.0553 36.8647 54.8621 36.7089 54.6911 36.7329C54.8033 36.4302 54.9146 36.1338 55.0241 35.8222C55.3063 36.2059 55.5066 36.6475 55.6811 37.0979C55.5779 37.0944 55.4737 37.1389 55.4114 37.2547ZM53.6797 35.6931C52.9417 37.3918 52.0398 39.0397 51.2457 40.7242C51.2492 40.5853 51.2519 40.4455 51.2608 40.3075C52.2864 38.8189 52.8562 36.8139 53.5124 35.1651C53.8284 35.0503 54.1685 35.0583 54.514 35.296C54.1383 36.5843 53.7234 37.8796 53.3023 39.175C52.5971 40.4615 51.8769 41.7685 51.3062 43.0968C51.2813 42.7861 51.2563 42.479 51.2448 42.1709C52.5767 40.3155 53.4251 38.0274 54.1694 35.9236C54.2843 35.5996 53.8195 35.3663 53.6797 35.6931ZM41.9901 49.2746C42.0364 49.3218 42.0835 49.3664 42.1307 49.4118C42.0221 50.538 41.836 51.6553 41.625 52.7664C41.6046 52.3498 41.5583 51.9277 41.5004 51.504C41.5253 51.4746 41.5538 51.4514 41.5663 51.4069C41.642 51.1603 41.6918 50.8995 41.7292 50.6315C41.8325 50.6439 41.9375 50.5932 41.9687 50.4623C42.0568 50.0839 42.0399 49.6797 41.9901 49.2746ZM42.2251 46.6643C42.047 46.1515 41.8423 45.652 41.6562 45.1846C41.5903 45.0172 41.4372 44.9754 41.3036 45.011C41.2894 44.9015 41.2707 44.7937 41.2582 44.6825C41.2511 44.629 41.2306 44.5863 41.2039 44.5498C41.8841 44.7065 42.1966 46.3927 42.2242 46.6536C42.226 46.6571 42.2251 46.6616 42.2251 46.6643ZM37.6035 50.5522C37.7798 51.8031 37.908 53.4074 38.5606 54.5604C38.3674 54.434 38.1689 54.3155 37.9766 54.1847C37.973 53.5312 37.6489 52.7255 37.5608 52.1503C37.3899 51.0214 37.2759 49.8827 37.1379 48.7485C37.7193 49.1714 38.2063 49.799 38.4262 50.2798C38.4974 50.4374 38.6372 50.4979 38.7716 50.4917C38.8375 51.4443 38.8419 52.5002 38.9425 53.5276C38.8731 53.3006 38.8037 53.0753 38.7431 52.8483C38.5339 52.0711 38.3888 51.2805 38.257 50.4881C38.1876 50.0768 37.5439 50.1311 37.6035 50.5522ZM36.9634 53.452C36.6901 53.241 36.4159 53.029 36.1532 52.8011C36.114 52.2064 35.9805 51.6126 35.9271 51.0188C35.8844 50.5389 35.863 50.0572 35.8461 49.5765C35.912 50.1169 35.985 50.6582 36.0775 51.1959C36.1995 51.8966 36.2823 52.8056 36.8281 53.3077C36.8619 53.338 36.9029 53.3505 36.9456 53.3531C36.9518 53.387 36.959 53.419 36.9634 53.452ZM39.247 50.1756C39.2319 50.0546 39.1482 50.0011 39.0574 49.9815C39.0405 49.9486 39.0262 49.9175 39.0102 49.8836C39.0832 49.8311 39.1402 49.7554 39.1393 49.6361C39.1286 48.7209 39.2319 47.7326 39.5097 46.8156C39.5337 46.8414 39.5586 46.8673 39.5836 46.8922C39.6112 47.6133 39.6655 48.3318 39.7207 49.0503C39.7171 49.0298 39.7127 49.0084 39.7091 48.9889C39.6548 48.6746 39.1705 48.7146 39.2105 49.0378C39.3218 49.9272 39.3779 50.8719 39.4518 51.8263C39.3815 51.2743 39.3156 50.7267 39.247 50.1756ZM39.994 45.6324C40.0937 45.4508 40.2014 45.2736 40.3234 45.1054C40.4498 44.9309 40.5673 44.8116 40.6804 44.719C40.6804 44.7279 40.6777 44.7332 40.6795 44.7385C40.6938 44.8828 40.716 45.027 40.7321 45.1712C40.5994 45.2006 40.4952 45.3012 40.5326 45.4784C40.5994 45.7775 40.643 46.0767 40.6929 46.374C40.4632 46.1265 40.221 45.8871 39.994 45.6324ZM35.2229 51.8512C34.4688 50.8692 33.996 49.564 35.0929 48.6185C35.1374 48.5784 35.1828 48.5508 35.2291 48.5215C35.1632 49.5364 35.0457 50.7588 35.2229 51.8512ZM79.9553 45.7695C79.1861 40.7972 71.1306 44.3237 68.473 46.7711C68.5238 43.3648 66.7182 34.9078 62.6362 37.357C61.4298 38.0817 60.7096 39.3495 60.276 40.7874C59.3403 40.9957 58.3957 41.5085 57.6211 42.0026C57.4689 41.8771 57.2018 41.8647 57.0638 42.0783C57.062 41.667 57.0495 41.2183 57.0157 40.7331C57.143 40.4241 57.2828 40.1232 57.4066 39.8116C57.5517 39.4403 57.1288 39.1617 56.8644 39.313C56.8368 39.1011 56.8101 38.8902 56.7753 38.6783C56.9026 38.4441 57.0282 38.2073 57.1608 37.9794C57.3736 37.6161 56.7985 37.3597 56.5804 37.6963C56.3124 36.5246 55.9269 35.4562 55.3767 34.7983C56.4165 31.6609 57.1599 28.3089 56.2848 25.167C55.4301 22.1168 52.8019 22.6181 50.4907 23.7372C48.1759 24.8554 46.6196 28.0436 46.2555 30.0574C46.1967 29.8473 45.8255 29.8411 45.8041 30.0877C45.781 30.3512 45.7516 30.5569 45.7151 30.735C45.6919 30.7626 45.6608 30.7848 45.651 30.8213L45.5219 31.2905C45.1088 31.8772 44.3485 30.507 43.3335 30.0468C41.9687 29.4307 40.7748 29.2303 39.2826 29.3826C37.5973 29.5535 36.317 30.5578 35.4134 31.8585C36.2538 27.4337 37.0961 23.0107 38.062 18.5992C38.0994 18.4283 37.8199 18.3348 37.7638 18.5057C37.048 20.646 36.4435 22.8291 35.9004 25.0334C36.1799 23.2341 36.4479 21.4331 36.6892 19.6302C36.7132 19.4468 36.5583 19.364 36.4221 19.3854C36.4533 18.9536 36.496 18.5164 36.5227 18.0864C36.6589 18.228 36.8931 18.2805 37.0195 18.0962C43.395 20.0656 50.0562 20.468 56.6338 21.4153C65.3641 22.675 73.9484 25.1483 82.6297 26.7339C83.1078 26.8203 83.2378 26.0715 82.7606 25.9861C75.128 24.6453 67.5809 22.8727 59.9982 21.2897C52.4921 19.7246 44.6556 19.0043 37.0738 18.0196C37.2323 17.7695 37.2893 17.6529 37.4379 17.3154C37.4691 17.2433 37.4691 17.1739 37.4522 17.1097C39.5569 17.0225 41.8894 17.6644 43.8365 18.0277C47.9471 18.7924 52.0612 19.4156 56.1931 20.0665C65.3846 21.5185 74.4114 24.0426 83.569 25.6994C83.5939 25.7039 83.6126 25.6967 83.634 25.6985C82.2015 32.3277 81.0388 39.0388 79.9553 45.7695Z" fill="#D33756"/>
<path fill-rule="evenodd" clip-rule="evenodd" d="M69.8574 32.0384C70.0604 33.3783 69.8254 34.8874 70.2118 36.1766C70.258 36.3324 70.4495 36.2745 70.4904 36.1525C70.8866 34.8589 70.5474 33.2323 70.2269 31.9512C70.1752 31.7402 69.8254 31.8257 69.8574 32.0384Z" fill="#D33756"/>
<path fill-rule="evenodd" clip-rule="evenodd" d="M71.1688 33.7353C70.9756 34.8152 70.9062 36.091 71.386 37.1042C71.4172 37.1727 71.5258 37.154 71.5187 37.0748C71.4021 35.953 71.2089 34.9033 71.3665 33.77C71.3816 33.6427 71.1911 33.6088 71.1688 33.7353Z" fill="#D33756"/>
<path fill-rule="evenodd" clip-rule="evenodd" d="M72.2416 33.6828C72.2843 34.6292 72.2603 35.6175 72.4864 36.5407C72.5096 36.6333 72.6458 36.5932 72.6423 36.5051C72.6022 35.5587 72.441 34.6141 72.3476 33.673C72.3431 33.6009 72.238 33.6134 72.2416 33.6828Z" fill="#D33756"/>
<path fill-rule="evenodd" clip-rule="evenodd" d="M75.0693 29.6541C75.2233 31.5914 74.926 33.5483 75.1815 35.4749C75.1975 35.5853 75.3506 35.5888 75.3765 35.4802C75.8145 33.5803 75.7005 31.5388 75.4886 29.6122C75.461 29.3407 75.0453 29.3799 75.0693 29.6541Z" fill="#D33756"/>
<path fill-rule="evenodd" clip-rule="evenodd" d="M76.0057 28.796C76.0102 30.0735 76.0057 31.3378 76.1802 32.6074C76.1972 32.7204 76.3797 32.7382 76.3903 32.6162C76.5016 31.3253 76.4322 30.0495 76.3716 28.7594C76.361 28.52 76.0057 28.5618 76.0057 28.796Z" fill="#D33756"/>
<path fill-rule="evenodd" clip-rule="evenodd" d="M11.8364 19.8732C11.62 22.48 11.3583 25.11 11.6183 27.7222C11.6307 27.8397 11.8221 27.8548 11.8319 27.7328C11.9975 25.1376 12.1346 22.545 12.2976 19.9534C12.3163 19.6569 11.8613 19.5696 11.8364 19.8732Z" fill="#D33756"/>
<path fill-rule="evenodd" clip-rule="evenodd" d="M13.9721 19.4834C13.4584 23.8993 13.226 28.3819 13.267 32.8272C13.2679 32.9483 13.4646 32.9545 13.4789 32.8361C14.0264 28.4318 13.9116 23.9678 14.3558 19.5501C14.3825 19.3026 14.0015 19.2332 13.9721 19.4834Z" fill="#D33756"/>
<path fill-rule="evenodd" clip-rule="evenodd" d="M22.3019 56.1709C22.2752 56.4193 22.6233 56.4798 22.682 56.2368C22.828 55.6349 22.958 55.026 23.0942 54.4197C23.1646 54.4108 23.2314 54.3574 23.2278 54.2621C23.2224 54.1303 23.2242 53.9977 23.2198 53.865C24.9363 46.0259 25.8115 37.8627 26.0465 29.8811C26.0554 29.5962 25.5586 29.5775 25.5444 29.8615C25.2087 36.5228 24.0745 43.0309 23.137 49.5853C23.1325 38.7085 24.4671 27.9946 25.0974 17.1079C25.1063 16.9584 24.8766 16.9139 24.8624 17.0688C23.8207 28.7424 21.5665 40.7589 22.7355 52.5198C22.5788 53.7333 22.4301 54.9512 22.3019 56.1709Z" fill="#D33756"/>
<path fill-rule="evenodd" clip-rule="evenodd" d="M28.7119 26.3565C29.6468 22.4739 29.8934 18.4007 30.0572 14.4211C30.0732 14.0454 29.4945 13.9323 29.4687 14.3196C29.2114 18.3277 28.5784 22.2735 28.184 26.2639C28.1511 26.6075 28.6309 26.6921 28.7119 26.3565Z" fill="#D33756"/>
<path fill-rule="evenodd" clip-rule="evenodd" d="M54.6048 13.4106C54.6288 13.5779 54.8576 13.6287 54.9351 13.4684C55.3785 12.5452 55.1594 11.3103 55.0847 10.3274C55.0571 9.95795 54.4864 10.0132 54.5122 10.3817C54.5451 10.8545 54.5754 11.3281 54.587 11.8018C54.603 12.3368 54.5291 12.8782 54.6048 13.4106Z" fill="#D33756"/>
<path fill-rule="evenodd" clip-rule="evenodd" d="M80.0166 70.9464C83.2983 51.5779 87.6456 41.1177 89.9729 21.6236C90.0263 21.1544 89.3577 21.0378 89.2509 21.499C89.2322 21.5835 89.217 21.6681 89.1939 21.7527C89.1538 21.7189 89.1102 21.6877 89.0488 21.6655C88.5021 21.4767 87.9581 21.2978 87.4079 21.1268C88.1273 21.1606 88.8422 21.1927 89.5562 21.2025C90.2097 21.2114 90.1109 20.192 89.4601 20.1902C86.3236 20.1813 83.293 19.8154 80.2873 19.3088C78.6313 18.9625 76.9691 18.6589 75.3007 18.3696C72.7562 17.8505 70.2082 17.3047 67.6147 16.8489C67.4785 16.8275 67.3779 16.913 67.3218 17.0199C65.9089 16.7732 64.5031 16.5008 63.0982 16.2114C63.0937 16.1785 63.0848 16.1438 63.0786 16.1082C63.2255 16.0459 63.3368 15.8892 63.2682 15.72C63.157 15.4502 63.0047 15.1778 62.8445 14.9089C62.0209 11.2694 60.162 7.66632 59.0883 4.15496C59.0633 4.08107 59.0117 4.05169 58.9583 4.04101C58.6832 3.16139 58.417 2.2791 58.1588 1.39325C58.1205 1.25347 57.9994 1.19469 57.8748 1.19113C57.8588 1.07806 57.7537 0.973006 57.6326 0.995264C57.3148 1.05135 57.1109 1.20272 57.0272 1.49207C57.0139 1.49207 57.0076 1.48672 56.9969 1.48761C56.7904 1.49829 56.5856 1.51965 56.3782 1.53567C56.4352 1.53834 56.4948 1.53123 56.55 1.48761C56.6239 1.42796 56.6987 1.36654 56.7708 1.30867C56.8046 1.33004 56.8224 1.3612 56.8661 1.3701C57.1127 1.41372 57.224 1.17244 57.1652 0.989042C57.2827 0.893779 57.3985 0.800289 57.5142 0.707697C57.7866 0.487792 57.6656 -0.0730814 57.2525 0.00793625C47.4645 1.92387 38.0388 5.14855 28.4039 7.67523C23.9426 8.84331 19.4671 9.94816 15.0334 11.2257C11.6066 12.2131 6.53097 13.2734 3.22616 15.4048C2.42044 15.4903 1.61382 15.5562 0.808983 15.574C0.725295 15.5758 0.664751 15.6052 0.615785 15.6443C0.451078 15.6417 0.281925 15.7743 0.347808 15.9818C0.435057 16.2604 0.515181 16.5418 0.602431 16.8195C0.361158 16.6593 -0.0501599 16.7919 0.00503889 17.1561L0.0183929 17.2433C0.056676 17.4908 0.347803 17.6769 0.578392 17.5309C0.635371 17.5416 0.696805 17.5389 0.760016 17.5077C0.774261 17.4997 0.789399 17.4944 0.804534 17.4873C4.48772 29.5135 4.99163 32.1586 7.86731 44.3949C8.33027 46.3625 10.9059 51.9465 13.267 57.4592C13.1922 57.5091 15.3379 62.7556 15.3574 62.8589C15.6343 64.3689 15.6406 64.2335 16.1071 65.699C16.6537 67.411 17.09 69.3751 17.9055 70.9678C18.0355 71.2207 18.3889 71.1485 18.388 70.8556C18.388 70.731 18.3765 70.6081 18.3676 70.4835C18.4254 70.6891 18.4762 70.8948 18.5367 71.0996C18.6435 71.461 19.2587 71.4156 19.2863 71.0292C19.2908 70.9732 19.2944 70.9188 19.2988 70.8636C19.3166 70.8636 19.3362 70.8592 19.3549 70.8592C19.3905 70.9153 19.4128 70.9838 19.4573 71.0319C19.5855 71.1735 19.7814 71.1663 19.8811 70.9954C19.9096 70.9446 19.9158 70.8761 19.9372 70.82C21.7525 70.6304 23.6355 69.7784 25.2959 69.1828C27.3489 68.4438 29.8329 67.8259 31.6553 66.6053C46.5822 69.6893 61.6728 72.6745 76.8009 73.9762C76.7697 74.0109 76.743 74.05 76.7234 74.099C76.7029 74.1631 76.678 74.2272 76.6575 74.2895C76.3904 75.0285 77.5665 75.2332 77.5639 74.4498C77.5647 74.3812 77.5665 74.3136 77.5647 74.245C77.5639 74.164 77.5336 74.0972 77.4917 74.0385C77.7472 74.0589 78.0001 74.0874 78.2547 74.1052C78.301 74.1088 78.3402 74.0963 78.3794 74.0901C78.2788 74.3607 78.1666 74.627 78.0758 74.9003C77.8487 75.5805 78.8031 75.8805 79.0052 75.1941C79.3818 73.9156 79.7522 72.6077 80.2134 71.3578C80.2882 71.1601 80.168 70.9981 80.0166 70.9464ZM27.0106 8.80591C31.7479 7.59509 36.4318 6.20443 41.1246 4.83603C43.5204 4.13803 45.9216 3.47033 48.3325 2.82486C50.1051 2.35834 51.8857 1.92387 53.6752 1.52413C54.4899 1.28731 55.3169 1.13326 56.1574 1.06025C55.9936 1.2401 56.1467 1.49653 56.3408 1.53926C47.5205 2.1687 39.3778 5.87058 31.0117 8.46137C25.9823 10.0185 20.8551 11.37 15.7509 12.6591C12.8156 13.4008 9.80817 14.2679 6.78025 14.8644C13.3338 12.3012 20.1695 10.5554 27.0106 8.80591ZM1.36097 17.2291C1.52746 17.1481 1.69661 17.075 1.8631 16.9949C2.01 18.0259 2.17916 19.0533 2.37235 20.0709C2.05184 19.1218 1.70641 18.1746 1.36097 17.2291ZM15.6913 59.7384C15.5791 59.1054 15.6147 58.4252 15.3191 57.8999C14.4858 56.4167 11.8728 52.7584 10.759 49.9023C9.19654 45.896 8.44067 41.6314 7.35984 37.4799C8.58757 41.026 9.85091 44.5552 10.9941 48.0986C13.1887 54.9005 14.4102 53.0424 15.8533 60.0269C15.799 59.9289 15.7483 59.8346 15.6913 59.7384ZM17.2689 66.6516C17.2645 66.6391 17.2591 66.6276 17.2547 66.6142C17.1229 66.2376 16.9894 65.8601 16.8549 65.4853C16.4383 64.0947 16.1783 62.6185 15.937 61.1745C16.051 61.4371 16.1587 61.7006 16.2682 61.9642C16.6413 63.7074 17.0303 65.4479 17.4648 67.1751C17.39 67.0068 17.3375 66.8243 17.2689 66.6516ZM19.7778 68.8605C19.4662 67.8598 18.9703 66.8243 18.7628 66.2536C18.2954 64.9663 17.7595 63.7127 17.1656 62.4912C16.2273 60.9448 15.8792 60.4222 15.3557 58.5053C15.0173 57.2642 13.7878 54.3245 12.6393 51.2396C8.43266 39.9443 4.60524 28.6721 2.36079 16.7634C2.77389 16.5702 3.18609 16.3699 3.60276 16.1847C11.2131 15.6194 19.2267 12.6378 26.3669 10.6141C36.4567 7.75535 46.5065 2.84265 57.0699 2.25149C57.2578 2.23903 57.3637 2.1224 57.3949 1.98351C57.4813 1.9666 57.5578 1.91496 57.6068 1.82949C58.595 6.1252 60.2296 10.2393 61.03 14.5867C61.1191 15.063 61.8491 15.0095 61.8099 14.551C61.9826 15.0523 62.1554 15.5526 62.3316 16.0485C61.7378 15.9221 61.1413 15.8046 60.5501 15.6639C59.7052 15.4663 58.8595 15.2731 58.0155 15.0808C58.06 15.014 58.0885 14.9339 58.0573 14.8386C57.8801 14.2911 57.4759 13.8139 57.2257 13.2921C56.8723 12.5559 56.6141 11.7724 56.3613 10.996C55.9161 9.64546 55.5306 8.2646 55.1611 6.88641C55.3632 6.88107 55.5662 6.86238 55.7674 6.86149C56.2847 6.85971 56.2037 6.06288 55.6873 6.06199C55.422 6.06199 55.1505 6.08426 54.8834 6.09049C54.8032 6.03974 54.7 6.05042 54.6163 6.10117C54.5183 6.10562 54.4186 6.11363 54.3216 6.11986C54.2886 5.96228 54.1542 5.81894 53.9735 5.8314C53.6022 5.85099 53.198 6.01836 52.8179 6.22669C49.6929 6.52317 46.4807 7.27904 43.4554 8.37323C43.3984 8.37412 43.3468 8.39726 43.2978 8.4302C43.2471 8.44979 43.199 8.47205 43.1474 8.48897C40.5236 9.12198 37.9062 9.80216 35.2139 10.1307C35.1186 10.1431 35.0501 10.1868 34.9975 10.2393C33.947 10.0416 32.9018 9.836 31.8503 9.64725C31.195 9.52884 31.017 10.5509 31.6749 10.664C31.6954 10.6684 31.7168 10.672 31.7372 10.6773C31.6874 10.7343 31.6518 10.8073 31.6491 10.9008C31.642 11.2338 31.6233 11.5641 31.6108 11.897C31.5067 11.938 31.3989 11.9736 31.2921 12.0146C31.2876 11.7688 31.2876 11.524 31.2761 11.2801C31.2645 11.0325 30.8558 11.0139 30.8371 11.2632C30.8131 11.581 30.7775 11.9006 30.7446 12.2167C28.1413 13.1257 25.3609 13.5361 22.8636 14.6694C18.7121 15.5624 14.5704 16.5266 10.6406 18.0722C10.6406 17.9903 10.6388 17.9075 10.6388 17.8265C10.6406 17.5514 10.1839 17.5362 10.1563 17.8087C10.1394 17.9662 10.1331 18.1301 10.118 18.2885C9.60073 18.5004 9.07991 18.6999 8.56976 18.9331C8.38725 18.8387 8.12194 18.958 8.04181 19.1788C7.91984 19.2376 7.79609 19.2919 7.67411 19.3498C7.27526 19.5474 7.49873 20.1947 7.91895 20.0077C7.99641 19.9748 8.07564 19.948 8.15399 19.9142C9.93905 27.3883 12.4399 34.6416 14.9283 41.9003C14.923 42.0953 14.9176 42.2911 14.9114 42.4861C14.9105 42.5724 15.053 42.5778 15.0619 42.4932C15.0672 42.4398 15.0708 42.3891 15.077 42.3383C15.4224 43.3452 15.7643 44.3549 16.1062 45.3636C16.1819 46.1924 16.2745 47.0195 16.4089 47.8448C16.4481 48.079 16.7882 48.0487 16.7757 47.8101C16.7659 47.6418 16.7695 47.4736 16.7614 47.3071C17.2155 48.6595 17.6571 50.0145 18.0933 51.3731C18.096 51.3918 18.096 51.4087 18.0978 51.4274C18.1005 51.4532 18.1183 51.4639 18.1281 51.4835C19.0469 54.3539 19.9194 57.2384 20.6895 60.1533C20.7108 60.2343 20.7527 60.2895 20.8008 60.3313C20.5808 60.4132 20.3565 60.4854 20.1232 60.5245C19.687 60.602 19.7422 61.2323 20.1909 61.2136C20.8951 61.1851 21.3937 60.8878 22.1264 60.5548C22.3481 60.4542 22.7042 60.2655 22.9962 60.0473C22.3721 64.1953 22.7407 62.2259 22.381 63.2106C22.0116 63.3584 21.9519 64.5042 22.4389 64.6039C24.8383 65.0971 25.928 65.423 28.3372 65.9224C26.8771 65.9972 25.3004 66.5848 24.0521 66.9917C22.5805 67.4716 21.1337 68.093 19.7778 68.8605ZM54.1417 11.3816C54.1943 10.4681 54.1729 9.5493 54.083 8.63941C54.0483 8.30911 53.5426 8.35807 53.5684 8.68927C53.6441 9.68374 53.5835 10.6613 53.5016 11.6495C53.4366 12.4392 53.2701 13.2583 53.4909 14.0258C53.5007 14.0516 53.5203 14.0703 53.5372 14.0863C53.1499 14.0035 52.7635 13.9154 52.3807 13.8308C53.1624 11.8285 53.182 9.4309 53.4482 7.33156C53.4731 7.14192 53.1971 7.09297 53.1562 7.27994C52.7003 9.3401 51.9115 11.5979 51.9658 13.7409C51.6801 13.6794 51.3916 13.6135 51.1067 13.5521C51.6507 12.6235 51.6008 11.4012 51.6694 10.3497C51.737 9.31161 51.7059 8.27351 51.7219 7.23364C51.721 7.22206 51.713 7.2185 51.7112 7.20959C51.7308 7.20781 51.7539 7.20336 51.7735 7.20158C51.8492 7.37341 52.0531 7.49628 52.2614 7.36096C52.4368 7.24611 52.6309 7.1624 52.817 7.06625C53.4153 6.99502 54.01 6.93539 54.6091 6.90779C54.8958 8.52814 55.2537 10.1075 55.7639 11.6852C56.039 12.5327 56.4592 14.1896 57.2729 14.9072C56.0942 14.6347 54.9119 14.3828 53.7304 14.1281C53.7749 14.1121 53.8159 14.0881 53.8373 14.0391C54.1435 13.2165 54.0937 12.2549 54.1417 11.3816ZM49.6234 10.6239C49.5041 11.4172 49.3065 12.3297 49.5834 13.1007C49.6395 13.2646 49.8799 13.2743 49.9529 13.1176C50.2796 12.3956 50.2378 11.5249 50.3215 10.745C50.4372 9.70245 50.5903 8.65989 50.7274 7.61913C50.7443 7.49715 50.682 7.42148 50.6019 7.3743C50.8512 7.33156 51.0996 7.30219 51.348 7.26391C51.2652 8.25749 51.1405 9.2475 51.0417 10.242C50.9384 11.2934 50.5903 12.4419 50.8022 13.4871C50.2208 13.3616 49.6439 13.2263 49.0617 13.1052C49.4525 11.3112 49.4979 9.34987 49.6964 7.52297C49.8879 7.48469 50.0828 7.46422 50.2752 7.42771C50.2484 7.46065 50.2164 7.48201 50.2048 7.53009C49.984 8.55661 49.7784 9.58492 49.6234 10.6239ZM45.4987 12.3466C45.22 12.2888 44.9404 12.2264 44.6618 12.1695C44.847 11.2391 44.8087 10.1859 44.7775 9.3214C44.7766 9.28045 44.7535 9.26263 44.7392 9.23503C46.2252 8.83172 47.6763 8.35808 49.0269 7.77671C49.0946 7.74822 49.1302 7.69123 49.148 7.6298C49.1676 7.62446 49.1845 7.61913 49.2023 7.61646C48.7964 9.31872 48.2729 11.191 48.296 12.9396C47.574 12.7865 46.8519 12.6298 46.1308 12.4793C46.3275 11.6139 46.3062 10.6319 46.2385 9.82174C46.2145 9.52972 45.7854 9.5769 45.7925 9.86358C45.8103 10.6853 45.5761 11.5231 45.4987 12.3466ZM43.6477 10.6898C43.6914 10.2963 43.7038 9.90188 43.7083 9.5057C43.9397 9.44961 44.1668 9.38905 44.3956 9.33029C44.3947 9.34097 44.3849 9.34633 44.3858 9.35968C44.3751 10.0221 44.3074 10.6684 44.2033 11.321C44.1659 11.5641 44.116 11.8053 44.0733 12.0457C43.857 12.0003 43.6406 11.954 43.4243 11.9104C43.5899 11.5382 43.6023 11.0913 43.6477 10.6898ZM42.8313 11.7849C42.6417 11.7457 42.4538 11.7039 42.2642 11.6656C42.3577 11.0548 42.3532 10.4147 42.428 9.80038C42.6515 9.75319 42.8741 9.69799 43.0984 9.64546C43.0717 9.95617 43.0477 10.2642 42.9987 10.5767C42.9382 10.9711 42.8073 11.386 42.8313 11.7849ZM41.868 11.5845C41.7051 11.5507 41.5422 11.5142 41.3775 11.4822C41.3588 10.9907 41.4077 10.5028 41.4701 10.0158C41.5092 10.0007 41.5502 9.98646 41.5902 9.97044C41.7238 9.94462 41.8564 9.91967 41.9909 9.89118C41.8707 10.4405 41.7523 11.037 41.868 11.5845ZM40.6296 11.3264C40.1328 11.2284 39.6405 11.1189 39.1437 11.0201C39.6877 10.7681 40.2405 10.5251 40.797 10.29C40.7258 10.6159 40.6625 10.9756 40.6296 11.3264ZM31.5227 13.5486C31.4123 15.1431 31.2449 16.7243 31.0223 18.2983C31.187 16.7403 31.2867 15.1752 31.3063 13.6047C31.3785 13.5842 31.4515 13.5681 31.5227 13.5486ZM20.8711 41.9786C20.6779 46.0758 19.809 50.2504 19.8748 54.3708C19.3985 52.7994 18.9089 51.2342 18.4023 49.6726C18.3471 38.478 18.9115 27.4862 19.7226 16.3067C20.1223 16.2114 20.523 16.1242 20.9227 16.0307C20.9913 16.1358 21.1311 16.1999 21.2735 16.1153C21.4507 16.0058 21.6385 15.9221 21.821 15.8224C24.743 15.1591 27.6801 14.5306 30.5941 13.7827C29.9299 20.5187 28.7004 27.2423 27.4264 33.9712C27.787 28.8306 27.9312 23.6713 28.0327 18.5592C28.038 18.2538 27.5101 18.2342 27.4958 18.5396C27.097 26.7785 26.5975 34.9497 25.7215 43.1138C25.3662 45.0849 25.0226 47.0578 24.7127 49.0298C24.1536 52.3809 23.6453 55.7418 23.1396 59.1054C22.8387 59.1339 22.4015 59.4491 22.2831 59.5301C22.0169 59.7081 21.74 59.8773 21.4551 60.0313C21.4596 59.9814 21.4596 59.9307 21.4453 59.8737C21.2459 59.1232 21.0198 58.3825 20.8114 57.6364C20.417 51.7622 21.2299 46.0482 21.5326 40.1642C21.9332 32.4257 22.1905 24.6756 22.6722 16.9406C22.6891 16.6887 22.3054 16.6148 22.2804 16.873C21.4694 25.2267 21.2664 33.5964 20.8711 41.9786ZM15.9424 42.2876C15.7198 41.6314 15.4981 40.9761 15.2746 40.3218C15.8649 33.7006 15.8462 27.0108 16.2086 20.3799C16.2192 20.1733 15.9014 20.1101 15.8854 20.3229C15.4162 26.6975 15.1696 33.1059 14.996 39.5C13.3177 34.5704 11.6538 29.6381 10.2124 24.6346C10.7555 22.8353 10.6825 20.8482 10.6495 18.9456C13.5092 17.887 16.4356 17.0964 19.3869 16.3886C17.6313 26.4793 16.9751 37.3766 17.7621 47.7059C17.4087 46.634 17.0526 45.5639 16.6911 44.4928C16.6626 36.0803 18.1129 27.8308 18.2073 19.3996C18.2109 19.1076 17.7702 19.1584 17.7613 19.4424C17.5146 26.9681 15.8133 34.6906 15.9424 42.2876ZM9.80995 23.146C9.48499 21.9771 9.15469 20.8099 8.85822 19.6302C9.25084 19.4655 9.65059 19.3293 10.0477 19.1762C9.9346 20.4983 9.85536 21.8213 9.80995 23.146ZM25.6867 68.1794C23.826 68.8738 21.9029 69.3572 20.0271 69.968C20.0146 69.838 19.9843 69.7 19.9567 69.5611C23.0203 67.9986 26.2094 67.29 29.6183 66.6196C28.274 67.0629 26.9456 67.7084 25.6867 68.1794ZM78.7266 73.1722C78.6563 73.1063 78.5681 73.0529 78.4417 73.0413C59.4337 71.2278 40.9973 66.4994 22.1656 63.662C22.4995 61.933 22.7906 59.9369 23.0853 58.0682C23.0773 59.5488 23.0942 61.0276 23.1681 62.5099C23.1992 63.1465 24.1884 63.0512 24.1519 62.4155C23.6203 52.9294 25.7989 52.502 26.8931 43.1191C27.0916 42.0427 27.292 40.969 27.5092 39.8971C29.4438 30.2747 32.9053 20.7778 32.3053 10.8367C32.3044 10.8127 32.2946 10.7948 32.2901 10.7744C35.0937 11.2623 37.8919 11.7902 40.6875 12.3369C40.7533 12.5924 40.8655 12.8149 41.0614 12.9618C41.1611 13.0366 41.3187 13.0197 41.373 12.8933C41.4273 12.7633 41.4469 12.628 41.4522 12.49C42.3043 12.6591 43.1545 12.8461 44.0056 13.0215C44.0065 13.0446 44.0038 13.0696 44.0056 13.0936C44.0279 13.2708 44.2692 13.3117 44.3475 13.1524C44.3564 13.1337 44.3618 13.1141 44.3707 13.0963C44.7508 13.1728 45.1274 13.2601 45.5076 13.3367C45.5085 13.3402 45.5076 13.3438 45.5076 13.3465C45.5307 13.4996 45.7248 13.5334 45.8005 13.3981C46.6694 13.5788 47.5366 13.7702 48.4046 13.9545C48.4803 14.0943 48.6486 14.1237 48.767 14.0311C52.0878 14.7362 55.406 15.4609 58.7108 16.2471C63.2442 17.327 67.856 18.0535 72.4553 18.8343C75.4832 19.6026 78.5904 20.208 81.7002 20.6167C84.0346 21.1544 86.3529 21.7741 88.6366 22.5406C88.7843 22.5914 88.9197 22.5736 89.0345 22.5157C84.6516 41.943 82.2157 53.0229 78.6545 72.614C78.618 72.7965 78.6776 72.9398 78.7738 73.0413C78.7595 73.084 78.7444 73.1277 78.7266 73.1722Z" fill="#D33756"/>
<path fill-rule="evenodd" clip-rule="evenodd" d="M27.1531 50.6759C26.5218 54.0662 26.0909 57.4102 25.9102 60.8548C25.9057 60.9563 26.0571 60.9892 26.0722 60.8824C26.5476 57.4992 26.8441 54.0885 27.3525 50.7124C27.3712 50.5807 27.1753 50.5468 27.1531 50.6759Z" fill="#D33756"/>
<path fill-rule="evenodd" clip-rule="evenodd" d="M70.7379 70.5609C70.8759 70.5565 70.9186 70.3383 70.7851 70.2894C68.8656 69.5584 66.5962 69.5602 64.5654 69.391C64.301 69.3697 64.2342 69.7338 64.4933 69.7988C66.4671 70.2911 68.7027 70.6321 70.7379 70.5609Z" fill="#D33756"/>
</svg>
