<svg width="295" height="251" viewBox="0 0 295 251" fill="none" xmlns="http://www.w3.org/2000/svg">
<rect width="295" height="251" fill="#FFEED7"/>
<path d="M272.743 219.958C272.697 204.025 272.678 188.091 272.668 172.158C272.649 140.212 272.674 108.266 272.836 76.3196C272.916 60.2946 273.022 44.2679 273.254 28.2429C273.261 27.7335 273.069 26.6175 272.445 26.6175C265.359 26.6175 258.274 26.6125 251.187 26.6059C233.778 26.5911 216.369 26.5647 198.961 26.5252C177 26.4757 155.04 26.4081 133.079 26.3059C112.338 26.2086 91.597 26.0899 70.8561 25.8789C57.1077 25.7388 43.3507 25.6515 29.6078 25.175C28.668 25.1421 27.7282 25.1058 26.7884 25.0646C26.265 25.0415 26.1356 25.6663 26.1398 26.1625C26.1848 31.2448 26.2144 36.3271 26.2439 41.4094C26.3157 54.1968 26.3579 66.9842 26.3705 79.7715C26.386 96.334 26.3536 112.898 26.2397 129.46C26.1257 146.091 25.9428 162.721 25.5686 179.346C25.2816 192.112 24.9608 204.902 24.0815 217.634C24.0027 218.783 23.9154 219.932 23.8226 221.081C23.7804 221.597 24.0322 222.698 24.6316 222.708C32.4147 222.818 40.1978 222.91 47.9823 223.001C66.7184 223.217 85.4558 223.395 104.192 223.53C127.354 223.698 150.516 223.804 173.68 223.782C194.355 223.764 215.034 223.682 235.706 223.24C243.109 223.082 250.514 222.886 257.91 222.506C262.19 222.287 266.544 222.154 270.786 221.39C271.29 221.3 271.793 221.201 272.287 221.044C273.207 220.754 272.664 218.365 271.741 218.656C268.449 219.693 264.785 219.664 261.407 219.879C254.701 220.306 247.983 220.512 241.269 220.687C221.29 221.206 201.304 221.306 181.321 221.353C158.208 221.405 135.094 221.318 111.981 221.166C92.3821 221.038 72.7836 220.861 53.1851 220.642C46.7555 220.571 40.3258 220.495 33.8976 220.413C31.9251 220.388 29.9526 220.362 27.98 220.335C27.0036 220.322 25.8401 220.103 24.8736 220.293C24.7484 220.317 24.5992 220.289 24.4712 220.288C24.7413 220.83 25.01 221.372 25.2802 221.913C26.2664 209.874 26.5872 197.751 26.8953 185.668C27.3118 169.341 27.5172 153.006 27.6522 136.673C27.7915 119.81 27.8422 102.948 27.8393 86.0853C27.8365 72.5775 27.8 59.0697 27.7296 45.562C27.7071 41.2545 27.6818 36.9469 27.6522 32.6378C27.6424 31.3371 27.6339 30.0364 27.6241 28.7358C27.6199 28.1374 27.762 27.2274 27.6072 26.6521C27.5875 26.5779 27.6058 26.4625 27.6044 26.3834C27.3877 26.7493 27.1725 27.1153 26.9558 27.4813C39.4155 28.0418 51.8992 28.083 64.366 28.2248C84.5483 28.4539 104.731 28.5792 124.914 28.683C147.038 28.7951 169.162 28.8693 191.286 28.9237C209.58 28.9682 227.873 28.9995 246.166 29.0177C252.072 29.0243 257.98 29.0292 263.886 29.0309C265.714 29.0325 267.542 29.0325 269.369 29.0325C270.257 29.0325 271.367 29.2452 272.241 29.0325C272.353 29.0045 272.495 29.0325 272.612 29.0325C272.342 28.4902 272.073 27.9478 271.803 27.4071C271.36 57.9883 271.292 88.5795 271.238 119.164C271.188 147.06 271.198 174.956 271.247 202.851C271.257 208.479 271.269 214.107 271.284 219.735C271.285 221.085 272.747 221.582 272.743 219.958Z" fill="#937766"/>
<path d="M282.801 188.406C283.558 190.38 284.808 192.493 286.508 193.528C288.762 194.9 291.745 193.364 292.448 190.588C293.811 185.209 288.751 178.386 283.842 179.552C280.64 180.312 278.383 183.986 277.304 187.277C276.26 190.462 276.071 193.909 276.375 197.27C277.016 204.368 279.723 211.388 283.431 217.096C284.661 218.99 289.275 225.825 291.826 222.596C293.075 221.014 292.491 218.48 291.208 217.189C289.319 215.285 286.255 215.372 283.963 216.038C279.554 217.316 276.845 221.025 273.985 224.77C270.748 229.008 267.147 232.942 263.082 236.142C258.596 239.673 252.56 243.197 246.894 242.285C244.651 241.924 242.514 240.346 241.721 237.827C240.709 234.616 242.567 230.968 244.67 228.932C246.945 226.73 250.151 225.87 252.871 227.545C254.286 228.416 255.679 229.619 254.787 231.516C254.163 232.846 252.912 233.878 251.642 234.258C250.08 234.724 248.611 234.05 248.089 232.236C247.699 230.883 246.679 231.151 247.079 232.544C247.843 235.203 249.525 237.377 252.189 236.587C254.32 235.957 256.225 233.714 256.301 231.14C256.392 228.104 254.136 225.781 251.803 224.795C249.316 223.744 246.623 224.477 244.511 226.194C240.305 229.617 238.808 236.648 242.243 241.385C245.025 245.223 249.281 245.197 253.22 244.093C260.194 242.137 266.306 236.853 271.304 231.18C274.756 227.262 277.475 221.967 281.958 219.448C284.408 218.07 288.017 217.11 290.542 218.832C291.311 219.356 291.598 219.573 291.073 220.368C290.677 220.966 290.127 221.085 289.508 220.971C287.678 220.631 286.049 218.432 284.931 216.93C280.97 211.61 278.119 204.548 277.49 197.591C277.142 193.729 277.63 189.718 279.466 186.383C281.503 182.687 285.233 180.212 288.741 183.031C291.21 185.015 292.933 189.419 289.434 191.322C286.834 192.739 284.594 190.018 283.624 187.489C283.058 186.004 282.4 187.361 282.801 188.406Z" fill="#937766"/>
<path d="M9.56882 82.8043C9.58153 84.7257 8.33302 86.1856 6.51678 85.4845C4.84741 84.8414 5.46884 82.7593 5.99422 81.2737C6.68061 79.3314 8.00961 77.4085 9.86682 76.8715C12.231 76.1881 14.7972 78.1851 16.1093 80.3025C17.1346 81.957 17.2787 84.2851 17.3563 86.2418C17.4665 89.0137 17.2561 91.7984 16.8437 94.5301C16.1771 98.9597 14.9116 105.253 11.3723 107.943C10.0137 108.975 7.78645 109.242 6.4165 108.082C5.24145 107.089 5.83322 105.259 6.61565 104.155C7.56473 102.815 9.02366 102.468 10.323 103.397C12.594 105.02 13.9809 108.857 13.6292 111.814C12.9683 117.379 8.55476 121.485 6.18912 126.135C4.14267 130.159 3.5043 135.563 6.1863 139.475C8.49968 142.847 13.0798 142.585 15.502 139.481C18.7475 135.327 15.7802 129.708 12.7254 126.756C12.1364 126.186 12.3355 128.47 12.7776 128.896C14.7972 130.847 16.9411 133.634 15.1997 136.647C14.1772 138.415 12.3087 139.475 10.4769 139.591C8.15224 139.739 6.08179 138.184 5.54087 135.552C4.87708 132.319 6.37979 129.129 7.92487 126.54C10.7989 121.728 15.139 117.051 14.6503 110.732C14.3905 107.37 11.1308 98.0866 6.84727 100.994C4.17798 102.806 4.01416 108.116 6.46736 110.222C10.2707 113.488 13.9512 108.661 15.4412 105.102C17.7094 99.6832 18.5879 93.1619 18.352 87.1969C18.1515 82.1371 16.7434 76.4277 11.9556 74.6784C7.36701 73.0031 4.08758 79.2478 4.49574 83.7915C4.69912 86.0521 5.80356 88.1181 8.04915 88.0281C9.9685 87.9509 10.58 85.6035 10.5673 83.761C10.5603 83.0053 9.55752 81.2496 9.56882 82.8043Z" fill="#937766"/>
<path d="M106.53 239.464C108.039 239.399 110.473 239.727 111.228 241.456C111.947 243.105 110.916 245.747 109.805 246.893C108.801 247.93 107.395 248.313 106.068 248.266C103.153 248.164 99.9968 246.181 98.9023 242.986C97.7301 239.565 99.3062 235.565 101.766 233.46C106.916 229.055 114.737 228.868 120.865 229.386C127.52 229.949 135.305 231.711 140.43 236.954C141.42 237.967 142.265 239.15 142.833 240.525C143.146 241.284 143.895 242.965 143.468 243.843C142.738 245.345 140.401 243.776 139.635 243.107C138.113 241.776 137.017 239.677 137.854 237.505C139.326 233.688 144.15 231.782 147.397 230.934C155.551 228.804 162.814 233.655 169.535 238.269C175.687 242.493 182.471 247.046 189.941 245.146C192.939 244.384 195.937 242.615 197.374 239.382C198.532 236.775 198.443 233.69 197.453 231.035C194.966 224.365 188.198 222.479 182.717 225.416C180.676 226.509 178.9 228.067 177.273 229.831C176.579 230.585 177.427 232.786 178.19 231.96C181.345 228.539 185.533 225.529 190.08 226.519C193.07 227.17 195.792 229.752 196.498 233.196C197.272 236.968 195.186 240.166 192.274 241.729C188.393 243.811 183.885 243.565 179.912 241.98C171.873 238.772 165.483 231.671 157.227 229.008C153.001 227.645 148.608 227.725 144.457 229.404C141.268 230.693 137.236 232.87 136.203 236.909C135.522 239.571 136.497 242.319 138.155 244.223C139.388 245.638 141.491 247.226 143.351 246.708C145.618 246.077 145.191 242.832 144.618 240.956C143.573 237.542 141.417 234.963 138.779 233.032C132.263 228.26 123.755 226.723 116.131 226.871C110.332 226.984 101.744 227.947 98.4278 234.333C96.579 237.894 96.4053 242.38 98.5097 245.842C100.289 248.771 103.49 250.699 106.629 250.638C110.036 250.57 112.318 247.969 112.88 244.203C113.413 240.634 111.499 238.047 108.513 237.328C107.821 237.161 107.097 237.071 106.388 237.102C105.289 237.147 105.577 239.504 106.53 239.464Z" fill="#937766"/>
<path d="M191.648 10.3593C190.272 10.4156 187.352 10.0506 186.829 8.26271C186.354 6.63881 187.731 4.19011 188.887 3.31224C189.89 2.55013 191.162 2.29288 192.348 2.33629C195.133 2.43919 198.57 4.32999 199.585 7.47166C200.596 10.5989 198.714 14.2213 196.503 16.0092C191.478 20.0753 184.009 20.2522 178.119 19.7924C171.712 19.2907 164.273 17.6845 159.152 12.9463C158.009 11.8883 154.936 8.54408 156.029 6.56646C156.84 5.10174 159.051 6.28992 159.96 6.9652C161.626 8.20483 162.811 10.0345 161.755 12.2469C160.082 15.7471 155.668 17.4675 152.493 18.2874C144.64 20.3149 137.627 16.0076 131.063 11.6375C125.123 7.68228 118.618 3.3251 111.46 5.06154C108.593 5.75773 105.636 7.39448 104.317 10.5426C103.3 12.9688 103.502 15.8371 104.376 18.2778C106.668 24.6721 113.031 26.386 118.255 23.6302C120.189 22.6093 121.899 21.1365 123.468 19.5094C123.892 19.0705 123.169 16.8774 122.736 17.3244C119.549 20.6333 115.254 23.5161 110.768 22.4485C108.033 21.7973 105.073 19.4403 104.623 16.088C104.097 12.1552 107.095 9.22901 110.031 8.02475C113.908 6.43623 118.053 6.83657 121.875 8.41223C129.595 11.5957 135.875 18.3646 143.972 20.5255C148.242 21.6639 152.592 21.1976 156.642 19.2988C159.352 18.0286 162.79 15.9063 163.132 12.181C163.358 9.71135 162.297 7.19833 160.704 5.57122C159.599 4.44253 157.478 2.9344 155.932 3.7769C154.056 4.79786 155.142 8.29808 155.72 9.84158C156.868 12.9125 158.982 15.1426 161.468 16.8292C167.826 21.1429 175.954 22.4388 183.246 22.2395C188.692 22.0899 197.102 21.1606 199.822 14.7422C202.74 7.85754 198.084 -0.187982 191.374 0.00334812C185.031 0.185031 183.742 11.152 190.202 12.5041C190.851 12.6408 191.532 12.7164 192.193 12.689C192.646 12.6713 192.296 10.3336 191.648 10.3593Z" fill="#937766"/>
<path d="M17.2674 155.603C14.4328 152.992 11.1901 150.519 7.73137 149.157C5.97867 148.468 3.67659 147.91 2.13998 149.458C0.384468 151.227 0.775688 154.333 2.50013 155.957C3.77546 157.158 5.50414 157.836 7.10854 158.225C6.95742 157.454 6.80771 156.682 6.65659 155.912C3.96046 156.553 1.109 158.618 1.32932 162.12C1.43807 163.856 2.07078 165.896 3.76557 166.203C5.60582 166.536 7.59014 165.473 9.18041 164.552C12.272 162.761 15.0754 160.33 17.6911 157.756C18.0766 157.377 17.3634 155.195 16.9891 155.563C14.8481 157.671 12.5869 159.64 10.1436 161.277C8.50533 162.374 6.71309 163.441 4.82199 163.822C4.20339 163.946 3.53113 164.014 2.92666 163.777C2.71763 163.695 2.51002 163.583 2.34195 163.417C2.28122 163.358 2.22614 163.24 2.16259 163.194C2.05384 163.113 2.17389 163.327 2.18377 163.305C2.27981 163.075 2.19224 162.525 2.26426 162.239C2.36595 161.832 2.53825 161.462 2.75434 161.12C3.18227 160.441 3.76417 159.915 4.39406 159.494C5.25275 158.92 6.22724 158.476 7.20457 158.245C7.65934 158.137 7.1495 156.026 6.75264 155.931C5.56205 155.642 4.36157 155.177 3.28821 154.523C2.91253 154.294 2.54251 154.039 2.2205 153.72C2.08632 153.587 1.97616 153.428 1.84623 153.291C1.64709 153.08 1.68663 153.047 1.80809 153.418C1.90695 153.719 1.77701 153.595 1.83209 153.436C1.85893 153.359 1.86741 153.261 1.8886 153.18C1.96204 152.912 2.0962 152.667 2.23743 152.439C2.50154 152.01 2.82073 151.621 3.21901 151.352C4.81917 150.278 6.9094 150.947 8.51662 151.638C10.5631 152.519 12.4782 153.794 14.2987 155.164C15.3452 155.952 16.5344 156.91 17.4143 157.719C17.7574 158.036 17.7716 157.436 17.7603 157.166C17.7405 156.719 17.5978 155.907 17.2674 155.603Z" fill="#937766"/>
<path d="M285.282 83.6967C285.713 85.1324 286.456 86.7129 287.539 87.6342C289.165 89.0185 291.488 87.9542 292.265 85.9106C293.838 81.7705 289.992 75.7203 286.058 76.3184C281.74 76.9744 281.023 83.1484 280.937 87.0859C280.818 92.4737 281.684 98.0882 283.612 103.023C284.408 105.06 285.443 107.134 286.948 108.603C287.741 109.378 289.533 110.795 290.655 110.11C292.768 108.82 289.826 104.028 288.815 102.971C287.834 101.945 286.477 101.092 285.109 101.505C283.244 102.068 282.28 104.558 281.76 106.45C280.304 111.748 282.298 116.803 284.959 121.093C286.513 123.598 288.409 126.026 289.389 128.918C290.343 131.729 289.813 135.637 287.452 137.372C285.775 138.604 283.485 138.372 281.931 136.991C279.313 134.664 281.49 131.031 283.222 128.917C283.61 128.442 282.845 126.31 282.503 126.728C280.04 129.738 278.729 133.926 280.886 137.652C282.448 140.35 285.815 141.469 288.227 139.528C291.117 137.203 291.152 132.28 290.156 128.822C288.908 124.481 286.018 121.181 283.944 117.369C282.75 115.178 281.908 112.825 282.22 110.2C282.475 108.066 283.348 104.96 285.25 104.002C286.452 103.396 287.713 103.95 288.675 104.841C289.087 105.222 290.515 106.695 290.36 107.389C290.074 108.661 287.98 107.401 287.476 107.034C285.949 105.925 284.925 104.039 284.172 102.214C282.308 97.6959 281.575 92.3097 281.879 87.348C282.134 83.1629 284.325 76.1254 289.284 79.2816C290.37 79.973 291.663 81.4136 291.653 82.9313C291.643 84.4073 290.34 85.6968 289.124 85.9396C287.462 86.2724 286.302 84.4604 285.826 82.8686C285.354 81.3058 285.004 82.7673 285.282 83.6967Z" fill="#937766"/>
<path d="M278.731 157.721C281.14 155.502 283.84 153.457 286.685 152.047C288.234 151.278 290.324 150.333 292.021 151.03C292.347 151.166 292.632 151.36 292.861 151.619C293.108 151.9 293.393 152.46 293.406 152.571C293.43 152.77 293.426 152.727 293.4 152.817C293.348 153.006 293.31 153.077 293.227 153.222C293.011 153.597 292.696 153.873 292.377 154.126C291.217 155.037 289.775 155.577 288.402 155.91C287.383 156.158 287.97 158.074 288.741 158.259C289.062 158.335 288.97 158.312 289.336 158.446C289.881 158.643 290.413 158.886 290.922 159.184C291.947 159.783 293.112 160.777 293.071 162.231C293.035 163.525 292.203 163.985 291.077 163.895C289.3 163.752 287.573 162.748 286.042 161.785C283.362 160.1 280.91 157.949 278.599 155.674C278.219 155.301 277.726 155.507 277.54 155.997C277.331 156.548 277.544 157.267 277.928 157.645C280.329 160.009 282.883 162.203 285.66 163.964C287.419 165.08 289.529 166.298 291.6 166.277C293.2 166.261 294.337 165.231 294.601 163.409C294.933 161.126 293.92 158.976 292.296 157.687C291.201 156.817 289.916 156.203 288.608 155.893C288.721 156.676 288.834 157.459 288.947 158.242C290.378 157.894 291.855 157.299 293.093 156.407C293.895 155.83 294.614 155.036 294.886 153.976C295.248 152.561 294.705 151.096 293.868 150.046C292.369 148.167 290.118 148.238 288.124 148.889C285.787 149.653 283.599 151.063 281.562 152.548C280.269 153.492 278.995 154.497 277.8 155.598C277.036 156.302 277.878 158.507 278.731 157.721Z" fill="#937766"/>
<path d="M67.0587 239.026C69.9412 241.697 73.263 244.213 76.7797 245.626C78.5592 246.342 80.8924 246.906 82.4855 245.388C84.4048 243.56 84.0391 240.433 82.227 238.711C80.9221 237.472 79.1058 236.763 77.4605 236.359C77.5989 237.134 77.7358 237.911 77.8728 238.685C80.552 238.039 83.4176 235.955 83.3315 232.495C83.2863 230.698 82.5914 228.59 80.8599 228.222C78.9956 227.825 76.9563 228.907 75.3476 229.842C72.184 231.685 69.3255 234.195 66.6689 236.862C66.1718 237.361 66.8977 239.586 67.4485 239.033C69.5811 236.89 71.8352 234.868 74.2771 233.198C75.938 232.063 77.774 230.95 79.706 230.58C80.3133 230.465 80.9757 230.413 81.5618 230.674C81.7355 230.751 81.9079 230.849 82.042 231C82.1451 231.116 82.1578 231.159 82.2087 231.267C82.1225 231.084 82.2143 231.351 82.2002 231.265C82.477 232.944 81.2497 234.327 80.093 235.114C79.2527 235.687 78.2838 236.123 77.3235 236.354C76.654 236.517 77.2133 238.552 77.7358 238.681C78.9547 238.98 80.2074 239.452 81.2935 240.15C81.6508 240.38 82.0081 240.637 82.3118 240.954C82.4347 241.083 82.5377 241.226 82.6479 241.367C82.7891 241.549 82.7115 241.61 82.7016 241.356C82.7086 241.554 82.5688 242.012 82.381 242.342C82.1324 242.779 81.7892 243.197 81.3966 243.47C79.8148 244.57 77.6497 243.811 76.0693 243.12C73.9918 242.21 72.0569 240.896 70.2124 239.488C69.1334 238.663 68.0671 237.801 67.0573 236.867C66.6788 236.517 66.5178 237.168 66.5107 237.481C66.5008 238.009 66.6887 238.684 67.0587 239.026Z" fill="#937766"/>
<path d="M212.281 239.03C215.19 241.67 218.508 244.133 222.019 245.572C223.819 246.31 226.267 246.961 227.881 245.379C229.767 243.531 229.363 240.436 227.558 238.74C226.225 237.488 224.373 236.764 222.695 236.356C222.831 237.132 222.965 237.907 223.1 238.684C225.771 238.034 228.593 235.934 228.462 232.486C228.392 230.659 227.661 228.588 225.912 228.217C224.054 227.823 222.029 228.897 220.43 229.841C217.309 231.683 214.501 234.19 211.899 236.864C211.381 237.396 212.12 239.62 212.694 239.028C214.755 236.91 216.936 234.923 219.3 233.257C220.957 232.09 222.807 230.952 224.751 230.579C225.355 230.463 226.018 230.413 226.602 230.674C226.775 230.751 226.948 230.855 227.082 231.005C227.265 231.207 227.268 231.269 227.291 231.447C227.494 233.066 226.414 234.328 225.288 235.114C224.463 235.692 223.502 236.123 222.552 236.353C221.842 236.526 222.407 238.547 222.958 238.681C224.208 238.985 225.487 239.468 226.599 240.189C226.953 240.419 227.313 240.674 227.614 240.991C227.736 241.118 227.836 241.263 227.945 241.403C227.878 241.317 228.09 241.647 228.048 241.6C227.936 241.477 228.024 241.518 228.021 241.544C228.041 241.319 227.974 241.76 227.957 241.821C227.9 242.03 227.791 242.242 227.686 242.425C227.446 242.847 227.119 243.242 226.737 243.502C225.158 244.58 222.968 243.776 221.401 243.089C219.324 242.179 217.382 240.872 215.528 239.481C214.429 238.657 213.343 237.795 212.313 236.861C211.928 236.51 211.737 237.161 211.724 237.488C211.703 238.029 211.902 238.687 212.281 239.03Z" fill="#937766"/>
<path d="M71.3068 14.0669C74.1131 16.5735 77.3346 18.9386 80.727 20.2393C82.4542 20.9018 84.7267 21.4307 86.2435 19.9306C88.0047 18.1878 87.5838 15.1683 85.8481 13.6103C84.5727 12.4655 82.8695 11.816 81.2933 11.443C81.436 12.2163 81.5786 12.9913 81.7227 13.7646C84.2634 13.173 87.0415 11.2806 86.9454 7.9765C86.896 6.25936 86.2251 4.20939 84.5685 3.86692C82.7607 3.4923 80.7962 4.50523 79.2229 5.39435C76.2047 7.09703 73.4592 9.43158 70.9029 11.9108C70.4495 12.3498 71.1571 14.5702 71.6514 14.0894C73.7261 12.078 75.9124 10.1921 78.2766 8.63893C79.8895 7.57938 81.6619 6.54555 83.522 6.21273C84.1095 6.10822 84.7267 6.06964 85.2958 6.30438C85.5063 6.3912 85.6842 6.50214 85.8452 6.6806C85.9526 6.80119 85.9441 6.90248 85.9257 6.74813C86.1263 8.32219 84.9442 9.57307 83.8454 10.2821C83.0248 10.8127 82.1012 11.2195 81.1733 11.4365C80.5886 11.5732 81.1295 13.6457 81.6026 13.7582C82.7706 14.0348 83.9485 14.4785 85.0077 15.104C85.3735 15.321 85.7252 15.5686 86.0387 15.8741C86.1602 15.9915 86.2689 16.1153 86.372 16.2519C86.5401 16.4738 86.4017 16.4642 86.4469 16.3259C86.5316 16.0719 86.4102 16.268 86.3833 16.305C86.2562 16.4835 86.1997 16.8002 86.0769 17.0028C85.8325 17.4047 85.5246 17.781 85.1546 18.035C83.618 19.0897 81.5433 18.408 79.9954 17.7585C77.9899 16.9176 76.1045 15.7021 74.3136 14.3837C73.2657 13.6135 72.2304 12.8064 71.2489 11.9285C70.8803 11.5989 70.7814 12.2147 70.7828 12.5186C70.7857 13.0025 70.9509 13.7486 71.3068 14.0669Z" fill="#937766"/>
<path d="M212.834 14.0669C215.662 16.5414 218.876 18.8614 222.257 20.1863C223.98 20.8616 226.281 21.4613 227.83 20.003C229.648 18.2923 229.182 15.194 227.452 13.6425C226.152 12.4768 224.418 11.8208 222.812 11.443C222.955 12.2163 223.098 12.9913 223.242 13.7647C225.741 13.1794 228.462 11.3079 228.351 8.05692C228.294 6.33816 227.628 4.25282 225.97 3.8782C224.161 3.4682 222.175 4.49399 220.605 5.39437C217.631 7.09705 214.933 9.42999 212.432 11.9109C211.98 12.3578 212.693 14.5734 213.18 14.0894C215.21 12.0765 217.354 10.1905 219.678 8.63895C221.27 7.57779 223.026 6.54235 224.869 6.21275C225.475 6.10502 226.112 6.06965 226.693 6.32369C226.907 6.41694 227.072 6.54236 227.239 6.71761C227.383 6.86713 227.325 6.79317 227.343 6.93627C227.529 8.43154 226.309 9.65669 225.28 10.3175C224.483 10.8288 223.589 11.2243 222.691 11.4349C222.106 11.5716 222.646 13.6457 223.12 13.7566C224.319 14.038 225.528 14.493 226.613 15.1361C226.977 15.3532 227.328 15.5992 227.641 15.9047C227.761 16.022 227.87 16.1458 227.974 16.2793C227.993 16.3034 228.12 16.4336 228.058 16.4015C228.261 16.5108 228.027 16.2938 228.044 16.3002C227.943 16.2568 228.079 16.1475 227.97 16.4417C227.887 16.6668 227.802 16.871 227.678 17.0736C227.432 17.4755 227.126 17.8405 226.75 18.0817C225.181 19.0946 223.088 18.3646 221.531 17.7022C219.55 16.8597 217.679 15.6699 215.898 14.3805C214.831 13.6103 213.779 12.8032 212.778 11.9269C212.408 11.6022 212.31 12.2099 212.312 12.517C212.312 12.9977 212.476 13.7534 212.834 14.0669Z" fill="#937766"/>
<path d="M11.0036 187.261C11.1448 186.893 10.8116 187.689 10.7593 187.796C10.5192 188.282 10.2706 188.759 9.98109 189.208C9.14923 190.501 7.94028 191.8 6.43192 191.736C2.82203 191.583 3.16522 187.573 4.66652 185.147C6.25114 182.584 9.12523 180.92 11.8143 182.243C14.7943 183.708 16.5216 187.655 17.0808 191.115C18.1853 197.953 16.0484 205.338 13.3085 211.357C12.0727 214.075 10.6223 216.732 8.84983 219.044C7.85979 220.337 6.36838 222.302 4.76822 222.588C2.89124 222.926 3.73721 220.877 4.67216 220.085C7.01803 218.096 10.515 218.382 13.0713 219.614C17.4283 221.713 20.0044 226.8 23.2047 230.531C25.9997 233.79 29.0602 236.798 32.4511 239.229C36.4381 242.089 41.3615 244.503 46.186 243.797C50.7958 243.121 54.2122 238.102 53.9975 232.872C53.7377 226.534 48.07 220.572 43.0365 225.725C40.6836 228.133 40.4519 232.118 42.2244 235.058C44.0195 238.038 46.8681 238.036 48.683 235.119C49.1561 234.359 48.2112 232.272 47.5686 233.302C44.9488 237.513 40.9378 232.584 43.069 228.928C44.7497 226.045 48.2903 225.083 50.6164 227.466C55.0836 232.039 51.4666 240.24 46.217 241.364C41.0691 242.467 35.6303 239.382 31.5105 236.198C27.549 233.135 24.0619 229.27 20.9266 225.169C18.1005 221.472 15.4962 217.736 11.0757 216.602C8.59985 215.969 5.50685 216.231 3.51265 218.207C2.07208 219.633 1.69642 221.975 2.85453 223.791C5.19474 227.46 9.28482 221.879 10.6816 219.863C14.3974 214.502 17.0597 207.833 18.1952 201.133C19.3236 194.474 18.8067 186.555 14.1277 181.688C9.74948 177.137 3.34601 180.46 2.2331 186.774C1.73879 189.576 2.73306 192.335 5.06057 193.589C7.64653 194.982 9.91047 193.044 11.3256 190.637C11.6985 190.002 12.0177 189.332 12.286 188.632C12.6278 187.75 11.5135 185.935 11.0036 187.261Z" fill="#937766"/>
<path d="M12.1646 59.1935C11.5461 57.4169 10.4473 55.5438 9.01093 54.5164C7.00684 53.0822 4.16384 53.9151 2.96054 56.2625C0.753086 60.5698 4.66944 66.6892 8.25815 68.0397C14.2902 70.31 17.3761 61.2049 18.0795 56.0068C19.0328 48.9662 17.4368 41.5493 14.8099 35.1824C13.745 32.6002 12.4782 30.0727 10.8935 27.8556C10.001 26.6079 8.77506 24.8843 7.31472 24.4984C5.85438 24.1126 5.26686 25.5821 5.10586 27.0034C4.83893 29.3589 5.75411 31.769 7.65651 32.8639C10.1182 34.282 13.1151 33.2418 15.3664 31.7995C19.6711 29.0421 22.5989 23.9952 26.2102 20.257C30.8977 15.4046 36.5286 10.7677 42.8968 9.43963C44.7399 9.05536 46.7778 8.92513 48.5828 9.61167C51.2959 10.6439 53.6361 13.9383 52.9935 17.2793C52.3424 20.667 49.1957 22.9646 46.275 21.6237C44.5322 20.823 42.4886 18.7585 43.6863 16.4963C44.8938 14.2148 47.1705 14.6843 48.378 16.6491C49.1731 17.9418 49.7268 16.0076 49.1943 15.1393C47.8004 12.8723 45.3542 11.5185 43.3035 13.6618C41.5099 15.5365 41.5762 18.7425 42.9024 20.9066C45.922 25.8313 52.2011 25.2589 54.04 19.5255C55.6105 14.6297 52.7449 8.84956 48.467 7.28998C44.8966 5.98926 40.7825 7.21923 37.4622 8.83188C30.6068 12.1617 24.9151 18.0865 19.9691 24.2991C17.4326 27.4858 14.1235 31.1178 10.0603 31.1661C9.03493 31.1789 7.86413 30.9345 7.09441 30.1049C6.51254 29.4762 6.02387 27.8475 6.69472 27.0452C8.38527 25.021 12.6039 33.6148 13.077 34.655C15.8423 40.7197 17.5767 47.8327 16.7674 54.6932C16.3296 58.4057 14.9624 63.3304 11.926 65.3209C9.4318 66.9561 6.62975 65.411 5.02959 63.0105C3.37011 60.5216 3.21899 57.0326 6.48428 56.1982C8.7214 55.6274 10.3569 58.0777 11.0884 60.1807C11.6096 61.6776 12.5657 60.3463 12.1646 59.1935Z" fill="#937766"/>
<path d="M285.535 59.6035C286.151 57.8349 287.463 55.6596 289.241 55.3766C290.531 55.1708 292.279 56.0921 292.703 57.56C293.043 58.7418 292.583 60.1502 292.067 61.176C290.717 63.8659 287.935 65.5975 285.251 64.4849C282.236 63.234 280.272 59.4283 279.469 56.0647C277.924 49.5868 279.51 42.3677 281.915 36.4236C282.976 33.8029 284.285 31.2111 285.963 29.0341C286.696 28.0839 288.214 26.0918 289.522 26.3619C291.741 26.8201 288.724 29.2061 287.946 29.4666C284.627 30.5776 281.075 28.6868 278.604 26.2429C276.807 24.4679 275.317 22.2732 273.643 20.3487C272.06 18.5302 270.406 16.789 268.668 15.1651C266.068 12.7373 263.263 10.5297 260.233 8.84957C256.693 6.88643 252.375 5.30112 248.405 6.31887C244.041 7.43791 241.346 12.7196 242.211 17.6057C243.271 23.6029 249.374 27.9247 253.556 22.4967C257.362 17.5559 251.055 7.86237 247.141 14.2374C246.647 15.0429 247.637 17.1073 248.291 16.0429C250.546 12.3691 254.653 16.3758 252.98 19.8181C251.51 22.8424 247.898 23.5273 245.634 21.3809C241.351 17.3179 244.139 9.76442 249.133 8.60518C253.871 7.50544 258.995 10.1503 262.931 12.8772C266.667 15.4641 270.015 18.7537 273.084 22.2829C276.131 25.7863 278.733 29.8975 283.014 31.4989C285.329 32.3655 288.368 32.5617 290.399 30.7255C291.912 29.3589 292.197 26.9745 291.015 25.1995C288.69 21.7089 285.097 26.6513 283.737 28.7769C280.356 34.0618 278.176 40.7117 277.587 47.2041C276.988 53.7945 278.344 61.6937 283.452 65.71C285.979 67.6973 289.103 67.6571 291.47 65.3611C293.348 63.5379 294.607 60.5795 294.156 57.7433C293.682 54.7592 290.802 52.1609 288.103 53.2221C286.222 53.9617 284.905 56.2271 284.203 58.2433C283.872 59.1887 285.062 60.9637 285.535 59.6035Z" fill="#937766"/>
</svg>
