<svg width="295" height="191" viewBox="0 0 295 191" fill="none" xmlns="http://www.w3.org/2000/svg">
<path d="M196.052 83.6655C203.316 81.2748 212.723 75.7876 211.327 66.7965C210.806 63.4474 208.04 60.5878 204.666 59.8819C202.157 59.3512 198.355 60.9382 198.767 63.8184C199.396 63.0815 199.674 62.6178 200.766 62.7363C203.666 63.0662 205.021 65.7814 204.733 68.4042C204.362 71.7481 201.935 74.3036 198.994 76.3235C199.375 75.6587 199.658 74.9373 199.828 74.1388C200.318 71.8666 199.102 69.2078 197.078 67.9712C195.816 67.2035 193.353 66.6109 191.529 67.9557C189.706 69.3005 189.819 71.0989 190.324 72.0314C190.607 72.5518 191.673 73.4173 192.477 72.9896C190.571 72.0622 192.225 70.0271 193.729 69.9086C195.537 69.7642 197.042 71.8562 197.237 73.4484C197.556 76.0298 194.636 78.2245 192.663 79.3426C191.478 80.0074 190.216 80.6359 189.067 81.3522C188.696 81.584 184.76 83.7069 183.205 84.6136C183.534 84.1806 183.843 83.7118 184.101 83.1762C184.693 81.96 184.966 80.4248 184.086 79.1726C183.256 77.9979 181.494 77.4672 180.449 78.3894C181.695 78.446 182.607 79.0182 182.88 80.3215C183.241 82.0425 181.865 83.6243 180.758 84.8198C178.666 87.0712 176.791 89.163 175.256 92.2699C174.607 93.5995 174.318 95.1709 174.272 96.7372C174.205 98.9271 174.746 101.256 176.07 102.704C176.234 102.884 177.26 103.878 177.764 103.775C177.847 103.42 177.703 102.997 177.533 102.595C177.43 101.307 177.213 100.112 178.125 98.8908C179.228 97.4175 181.772 98.4478 180.608 100.293C182.617 99.3134 181.371 96.3045 178.759 97.2472C177.816 97.5875 177.224 98.5663 176.93 99.5866C176.93 99.5607 176.93 99.54 176.93 99.5196C176.961 97.8604 177.595 96.2735 178.506 94.9028C180.109 92.4814 185.157 89.6989 187.192 92.4607C187.846 90.7448 185.775 88.993 184.456 88.7459C183.23 88.519 182.04 88.7149 181.108 89.3589C182.535 87.9678 184.652 87.1538 186.491 86.6024C189.634 85.6491 192.884 84.7062 196.052 83.6655ZM177.677 91.9507C176.219 94.4391 175.807 96.9279 175.786 99.7926C175.786 100.014 175.421 100.081 175.374 99.8441C173.566 90.8377 182.803 85.175 189.989 82.5836C194.486 80.9604 199.406 79.5952 203.115 76.5087C205.243 74.7365 207.174 72.2837 207.654 69.486C207.999 67.4561 208.225 64.3388 206.134 63.0662C206.103 63.0507 206.118 62.9992 206.154 63.0199C209.251 64.2562 209.075 69.1408 208.092 71.614C206.227 76.2976 201.982 79.1675 197.376 81.0171C192.812 82.8514 187.661 83.7017 183.483 86.3346C181.195 87.7771 179.047 89.6167 177.677 91.9507Z" fill="#D33756"/>
<path d="M186.486 32.9552C184.647 32.4041 182.53 31.5849 181.103 30.199C182.035 30.843 183.225 31.0386 184.451 30.8119C185.77 30.5697 187.841 28.8179 187.187 27.0969C185.157 29.8587 180.103 27.0765 178.501 24.6548C177.589 23.2844 176.956 21.6923 176.925 20.0383C176.92 20.0176 176.92 19.9971 176.925 19.9713C177.224 20.9916 177.816 21.9756 178.754 22.3104C181.365 23.2482 182.607 20.2442 180.603 19.2654C181.772 21.1101 179.222 22.1404 178.12 20.6668C177.208 19.4457 177.425 18.2502 177.528 16.9621C177.697 16.5603 177.842 16.1377 177.759 15.7825C177.254 15.6792 176.229 16.6736 176.064 16.854C174.74 18.3069 174.2 20.6308 174.267 22.8204C174.313 24.387 174.601 25.9584 175.25 27.2877C176.786 30.3946 178.661 32.4864 180.752 34.7381C181.86 35.9387 183.235 37.5205 182.875 39.2361C182.597 40.5397 181.69 41.1064 180.443 41.1682C181.484 42.0959 183.251 41.5652 184.08 40.3852C184.966 39.1331 184.688 37.5976 184.096 36.3817C183.838 35.8458 183.529 35.377 183.199 34.9443C184.75 35.851 188.691 37.9739 189.062 38.2057C190.211 38.922 191.467 39.5505 192.657 40.2152C194.63 41.3282 197.551 43.5281 197.232 46.1095C197.036 47.7016 195.532 49.7882 193.724 49.6493C192.22 49.5256 190.566 47.4902 192.472 46.568C191.663 46.1454 190.602 47.0113 190.319 47.5265C189.814 48.459 189.695 50.2519 191.524 51.6019C193.348 52.9467 195.81 52.3492 197.072 51.5866C199.102 50.35 200.313 47.6965 199.823 45.4191C199.653 44.6255 199.37 43.9044 198.989 43.2344C201.925 45.2543 204.351 47.8046 204.727 51.1537C205.016 53.7762 203.666 56.4917 200.761 56.8213C199.669 56.945 199.39 56.4813 198.762 55.7395C198.35 58.6197 202.152 60.2064 204.66 59.6759C208.04 58.9649 210.801 56.1102 211.321 52.7614C212.723 43.7755 203.311 38.2831 196.047 35.8921C192.884 34.8514 189.634 33.9085 186.486 32.9552ZM183.477 33.2181C187.655 35.851 192.807 36.7013 197.371 38.5354C201.977 40.3801 206.221 43.25 208.086 47.9387C209.065 50.4119 209.24 55.2962 206.149 56.5328C206.118 56.5483 206.103 56.502 206.129 56.4865C208.225 55.2139 207.999 52.0966 207.648 50.0664C207.169 47.2687 205.237 44.8162 203.11 43.0437C199.401 39.9575 194.481 38.592 189.984 36.9691C182.803 34.3826 173.561 28.7201 175.369 19.7086C175.415 19.4716 175.781 19.5383 175.781 19.7601C175.802 22.6248 176.214 25.1133 177.672 27.6021C179.047 29.9412 181.195 31.7807 183.477 33.2181Z" fill="#D33756"/>
<path d="M165.746 100.323C165.746 100.318 165.746 100.318 165.746 100.313C167.096 100.648 168.651 100.792 169.919 100.529C171.196 100.272 172.247 99.5815 172.706 98.2882C173.174 96.9483 172.453 95.4543 171.65 94.4187C170.908 93.4551 169.852 92.8625 168.487 92.9503C167.637 93.0069 166.962 93.8003 167.837 94.3002C168.018 94.4032 167.801 94.1043 167.776 94.0373C167.57 93.5376 168.378 93.3058 169.512 93.5066C170.362 93.6562 171.202 94.0939 171.639 94.8876C172.345 96.155 171.815 97.6441 170.475 98.0612C169.331 98.4219 167.801 97.8912 166.699 97.5256C165.947 97.2782 165.205 96.9897 164.468 96.6805C163.964 95.8457 163.371 95.0628 162.825 94.3362C161.424 92.4814 159.678 90.8222 157.715 89.6115C156.566 88.9004 153.975 88.3079 154.16 90.4307C154.253 91.487 155.113 92.5688 155.711 93.3932C156.916 95.0524 158.374 96.4794 160.028 97.6594C161.506 98.7105 163.139 99.4782 164.834 100.045C165.015 100.102 165.2 100.159 165.39 100.215C165.385 100.308 165.375 100.401 165.365 100.488C165.174 102.008 163.896 102.436 162.593 102.415C160.218 102.374 157.807 100.978 155.86 99.6689C153.985 98.4015 152.265 96.8916 150.41 95.5883C148.334 94.1351 146.031 92.8007 143.491 92.6307C141.045 92.4659 138.67 94.0476 137.67 96.289C137.619 96.4075 137.923 96.7424 138 96.6083C139.262 94.3721 142.358 93.991 144.635 94.568C146.866 95.1295 149.035 96.6546 150.889 98.0253C154.32 100.555 157.689 103.544 162.094 103.682C164.18 103.755 165.854 102.595 165.746 100.323ZM156.448 91.8578C156.618 92.0329 156.391 91.7807 156.293 91.6722C156.324 91.6981 156.046 91.3167 156.061 91.3478C155.314 90.2089 157.071 89.7453 157.874 90.0853C159.059 90.5904 160.157 91.6466 161.069 92.5432C162.192 93.6458 163.144 94.9647 164 96.2942C164.051 96.3765 164.108 96.459 164.159 96.5465C163.587 96.3094 163.021 96.0672 162.449 95.8354C160.476 95.0369 158.585 93.8414 156.993 92.3936C156.803 92.2288 156.628 92.0433 156.448 91.8578ZM162.887 98.1797C160.388 96.9431 158.148 95.2224 156.422 92.9707C156.412 92.9554 156.432 92.9399 156.442 92.9503C160.105 96.6753 165.602 100.102 170.877 98.896C170.939 98.8805 170.964 98.9682 170.908 98.9941C168.373 100.055 165.303 99.3752 162.887 98.1797ZM157.354 101.395C151.93 98.7671 147.267 92.1 140.596 93.8262C140.591 93.8262 140.586 93.821 140.591 93.8158C143.62 92.677 146.773 93.6354 149.4 95.4594C152.11 97.3453 154.588 99.5659 157.395 101.307C157.452 101.338 157.411 101.426 157.354 101.395Z" fill="#D33756"/>
<path d="M131.262 103.688C135.661 103.544 139.036 100.555 142.467 98.0305C144.321 96.6598 146.49 95.1347 148.72 94.5732C150.997 93.9962 154.093 94.3773 155.356 96.6135C155.433 96.7475 155.737 96.4127 155.685 96.2942C154.686 94.0528 152.311 92.471 149.864 92.6359C147.319 92.8059 145.022 94.1403 142.945 95.5935C141.091 96.8968 139.376 98.4015 137.495 99.6741C135.548 100.988 133.142 102.379 130.762 102.42C129.454 102.441 128.176 102.013 127.991 100.493C127.98 100.401 127.97 100.308 127.965 100.22C128.155 100.164 128.341 100.112 128.521 100.05C130.221 99.4834 131.854 98.7105 133.333 97.6646C134.986 96.4846 136.444 95.0576 137.65 93.3984C138.253 92.574 139.113 91.4922 139.2 90.4359C139.381 88.3131 136.79 88.9056 135.641 89.6167C133.678 90.8274 131.932 92.4866 130.53 94.3413C129.979 95.0679 129.392 95.8509 128.887 96.6857C128.15 96.9949 127.414 97.2834 126.657 97.5308C125.554 97.8912 124.024 98.422 122.88 98.0664C121.541 97.6493 121.01 96.1602 121.716 94.8928C122.154 94.0991 122.994 93.6613 123.844 93.5118C124.977 93.311 125.781 93.548 125.58 94.0425C125.554 94.1095 125.338 94.4084 125.518 94.3054C126.389 93.8055 125.719 93.0121 124.869 92.9554C123.509 92.8677 122.453 93.4603 121.706 94.4239C120.902 95.4646 120.181 96.9535 120.65 98.2934C121.108 99.5864 122.159 100.272 123.437 100.534C124.704 100.792 126.26 100.648 127.609 100.318C127.609 100.323 127.609 100.329 127.609 100.329C127.496 102.595 129.17 103.755 131.262 103.688ZM136.362 92.3988C134.77 93.8466 132.879 95.0369 130.907 95.8406C130.335 96.0724 129.768 96.3146 129.196 96.5517C129.248 96.4642 129.304 96.3817 129.356 96.2994C130.211 94.9647 131.159 93.651 132.287 92.5484C133.199 91.6466 134.296 90.5956 135.481 90.0907C136.284 89.7504 138.041 90.2141 137.294 91.3529C137.31 91.3271 137.032 91.7085 137.062 91.6774C136.965 91.7859 136.738 92.0381 136.908 91.8629C136.728 92.0433 136.547 92.2288 136.362 92.3988ZM122.443 98.9889C122.386 98.963 122.412 98.8756 122.473 98.8908C127.748 100.091 133.245 96.6702 136.908 92.9451C136.918 92.9347 136.939 92.9503 136.929 92.9655C135.203 95.2172 132.962 96.9383 130.463 98.1749C128.052 99.3752 124.982 100.055 122.443 98.9889ZM135.955 101.307C138.762 99.5711 141.24 97.3453 143.95 95.4594C146.577 93.6355 149.725 92.677 152.759 93.8158C152.764 93.8158 152.759 93.8262 152.754 93.8262C146.088 92.1 141.426 98.7671 135.996 101.395C135.945 101.426 135.898 101.338 135.955 101.307Z" fill="#D33756"/>
<path d="M162.094 10.125C157.694 10.2694 154.32 13.2578 150.889 15.7825C149.035 17.1529 146.866 18.6728 144.635 19.2398C142.358 19.8168 139.262 19.4354 138 17.1992C137.923 17.0654 137.619 17.4003 137.67 17.5188C138.67 19.7601 141.039 21.3419 143.491 21.1768C146.036 21.0068 148.334 19.6724 150.41 18.2195C152.265 16.9159 153.98 15.4114 155.86 14.1389C157.807 12.8249 160.213 11.4338 162.593 11.3924C163.902 11.372 165.179 11.7994 165.365 13.3196C165.375 13.4123 165.385 13.5049 165.39 13.5926C165.2 13.6493 165.015 13.7008 164.834 13.7626C163.134 14.3293 161.501 15.1022 160.028 16.1533C158.374 17.3332 156.916 18.7606 155.711 20.4194C155.108 21.249 154.248 22.326 154.16 23.3822C153.98 25.5051 156.571 24.9125 157.715 24.2015C159.678 22.9908 161.424 21.3316 162.825 19.4765C163.376 18.7502 163.964 17.9669 164.468 17.1322C165.205 16.8232 165.942 16.5347 166.699 16.2873C167.801 15.9266 169.331 15.3959 170.475 15.7514C171.815 16.1688 172.345 17.6577 171.639 18.9254C171.202 19.7187 170.362 20.1568 169.512 20.3061C168.378 20.5072 167.575 20.2701 167.776 19.7754C167.801 19.7087 168.018 19.4098 167.837 19.5128C166.967 20.0124 167.637 20.806 168.487 20.8627C169.847 20.9502 170.903 20.3576 171.65 19.3943C172.453 18.3535 173.174 16.8644 172.706 15.5248C172.247 14.2315 171.196 13.5463 169.919 13.2834C168.651 13.026 167.096 13.1701 165.746 13.4997C165.746 13.4945 165.746 13.4896 165.746 13.4896C165.854 11.2172 164.18 10.058 162.094 10.125ZM156.993 21.4138C158.585 19.9661 160.476 18.7758 162.449 17.9721C163.021 17.7403 163.587 17.4981 164.159 17.261C164.108 17.3488 164.051 17.431 164 17.5136C163.144 18.8428 162.197 20.162 161.069 21.2646C160.157 22.1663 159.059 23.2174 157.874 23.7222C157.071 24.0622 155.314 23.5986 156.061 22.46C156.046 22.4856 156.329 22.1045 156.293 22.1353C156.391 22.0271 156.618 21.7746 156.448 21.9497C156.628 21.7694 156.803 21.5841 156.993 21.4138ZM170.908 14.8241C170.964 14.8497 170.939 14.9374 170.877 14.9219C165.602 13.7215 160.105 17.1425 156.442 20.8679C156.432 20.8782 156.412 20.8627 156.422 20.8472C158.148 18.5954 160.388 16.8747 162.887 15.6381C165.303 14.4375 168.373 13.7575 170.908 14.8241ZM157.4 12.5053C154.593 14.2419 152.115 16.4677 149.406 18.3535C146.778 20.1775 143.63 21.1409 140.596 19.9972C140.591 19.9972 140.596 19.9868 140.602 19.9868C147.267 21.7127 151.935 15.0456 157.359 12.4179C157.411 12.3868 157.452 12.4745 157.4 12.5053Z" fill="#D33756"/>
<path d="M102.754 171.138C102.795 171.148 102.81 171.154 102.851 171.169C103.408 171.035 104.134 170.963 105.108 171.226C105.849 171.427 106.916 171.834 107.493 172.905C107.998 173.843 107.889 174.796 107.709 175.528C107.302 177.167 106.287 177.955 105.566 178.331C104.567 178.851 103.31 178.913 102.223 178.614C101.569 178.434 100.899 178.104 100.626 177.955C100.353 178.79 100.219 179.207 99.9509 180.036C99.8274 180.402 99.6522 180.804 100.373 181.134C100.693 181.283 100.858 181.355 101.177 181.5C101.151 181.598 101.136 181.644 101.11 181.742C99.472 181.283 98.6529 181.046 97.0251 180.547C97.0559 180.449 97.0662 180.402 97.097 180.304C97.3546 180.33 97.4887 180.34 97.746 180.361C98.2871 180.402 98.4673 180.423 98.6785 179.665C99.4409 176.842 99.8275 175.43 100.6 172.612C100.77 171.983 100.914 171.622 100.832 171.355C100.713 170.973 100.306 170.845 99.8274 170.752C99.879 170.577 99.9046 170.494 99.9561 170.319C101.543 170.757 102.553 170.659 102.923 170.608C102.851 170.819 102.82 170.927 102.754 171.138ZM100.832 177.352C101.228 177.713 101.62 177.908 102.084 178.037C103.444 178.418 104.34 177.888 104.804 177.512C105.525 176.924 105.788 176.126 105.927 175.58C106.148 174.719 106.282 173.926 106.092 173.235C105.844 172.344 105.247 171.942 104.536 171.746C104.108 171.628 103.31 171.509 102.501 172.004C101.837 174.142 101.502 175.214 100.832 177.352Z" fill="#D33756"/>
<path d="M118.579 181.386C117.512 181.932 116.482 181.912 115.746 181.773C114.432 181.52 113.469 180.861 112.964 180.093C112.536 179.444 112.237 178.418 112.521 177.11C112.763 175.981 113.345 175.25 113.917 174.776C114.767 174.07 115.797 173.75 117.116 174.003C117.832 174.142 118.435 174.42 118.914 174.93C119.449 175.502 119.826 176.363 119.609 177.63C119.527 178.125 119.274 178.032 119.006 177.986C117.111 177.656 116.168 177.476 114.282 177.089C114.097 177.924 114.102 178.485 114.164 178.893C114.422 180.614 115.56 181.026 116.328 181.17C116.905 181.278 117.559 181.247 118.368 180.845C118.45 181.062 118.491 181.17 118.579 181.386ZM117.883 177.208C118.275 177.28 118.342 177.089 118.393 176.806C118.527 176.064 118.409 174.776 117.039 174.513C115.715 174.26 114.7 175.245 114.401 176.528C115.792 176.816 116.487 176.95 117.883 177.208Z" fill="#D33756"/>
<path d="M130.68 182.88C129.485 183.504 128.722 183.72 127.697 183.602C126.409 183.452 125.456 182.906 124.905 182.226C124.632 181.886 123.962 180.933 124.184 179.377C124.395 177.888 125.147 176.847 125.992 176.316C127.079 175.631 128.289 175.729 128.861 175.796C130.68 176.007 131.386 176.79 131.318 177.455C131.282 177.805 131.015 178.094 130.52 178.048C129.789 177.97 129.655 177.419 129.546 177.022C129.474 176.749 129.361 176.383 128.753 176.311C127.723 176.193 126.26 176.795 125.93 179.299C125.863 179.815 125.801 180.686 126.193 181.474C126.574 182.242 127.372 182.87 128.341 182.979C129.134 183.066 129.974 182.685 130.458 182.417C130.551 182.597 130.592 182.695 130.68 182.88Z" fill="#D33756"/>
<path d="M136.485 179.016C136.274 179.057 136.171 179.078 135.96 179.114C136.027 178.115 136.063 177.615 136.13 176.615C139.056 176.816 140.519 176.883 143.45 176.95C143.466 177.986 143.476 178.506 143.497 179.542C143.249 179.449 143.131 179.403 142.884 179.31C142.724 178.166 141.73 177.357 140.524 177.378C140.375 179.655 140.303 180.789 140.153 183.066C140.102 183.834 140.328 183.932 140.803 184.045C141.034 184.102 141.148 184.127 141.379 184.184C141.374 184.282 141.374 184.333 141.369 184.437C139.824 184.385 139.051 184.349 137.511 184.261C137.516 184.163 137.521 184.112 137.526 184.009C137.768 183.978 137.892 183.957 138.134 183.926C138.866 183.813 138.866 183.463 138.87 183.009C138.927 180.727 138.958 179.588 139.015 177.311C137.815 177.177 136.748 177.893 136.485 179.016Z" fill="#D33756"/>
<path d="M149.436 177.738C150.224 177.063 151.347 176.78 152.331 176.749C153.279 176.718 154.418 176.924 155.252 177.548C156.448 178.444 156.628 179.799 156.669 180.485C156.767 182.118 156.102 183.117 155.443 183.684C154.99 184.076 154.103 184.591 152.579 184.637C151.054 184.689 150.137 184.236 149.658 183.875C148.962 183.355 148.236 182.406 148.22 180.768C148.21 180.078 148.303 178.707 149.436 177.738ZM150.518 183.169C150.874 183.643 151.528 184.153 152.553 184.117C153.578 184.081 154.202 183.535 154.521 183.035C154.984 182.319 155.005 181.392 154.969 180.588C154.933 179.805 154.814 178.851 154.304 178.176C153.923 177.677 153.326 177.233 152.326 177.27C151.327 177.3 150.76 177.785 150.415 178.305C149.952 179.011 149.9 179.969 149.91 180.758C149.931 181.556 150.013 182.484 150.518 183.169Z" fill="#D33756"/>
<path d="M163.186 176.574C163.227 176.569 163.248 176.569 163.289 176.564C163.752 176.234 164.396 175.894 165.385 175.78C166.143 175.693 167.276 175.672 168.208 176.456C169.022 177.141 169.275 178.068 169.378 178.81C169.609 180.485 168.966 181.592 168.435 182.206C167.704 183.061 166.57 183.586 165.457 183.71C164.788 183.782 164.051 183.726 163.742 183.689C163.799 184.565 163.83 185.003 163.886 185.879C163.907 186.266 163.897 186.704 164.68 186.74C165.03 186.755 165.205 186.765 165.555 186.781C165.566 186.879 165.571 186.93 165.581 187.028C163.902 187.214 163.062 187.291 161.383 187.435C161.372 187.337 161.367 187.286 161.362 187.183C161.609 187.111 161.733 187.075 161.98 186.997C162.49 186.838 162.671 186.786 162.578 186.003C162.238 183.097 162.073 181.649 161.738 178.743C161.661 178.094 161.661 177.713 161.486 177.491C161.238 177.177 160.811 177.218 160.342 177.306C160.327 177.125 160.321 177.038 160.306 176.857C161.929 176.672 162.82 176.208 163.139 176.023C163.16 176.244 163.165 176.353 163.186 176.574ZM163.716 183.056C164.216 183.241 164.643 183.277 165.123 183.226C166.514 183.076 167.147 182.252 167.436 181.726C167.884 180.912 167.827 180.078 167.755 179.516C167.642 178.635 167.472 177.852 167.039 177.28C166.482 176.543 165.777 176.388 165.05 176.471C164.613 176.523 163.83 176.708 163.273 177.471C163.454 179.707 163.541 180.819 163.716 183.056Z" fill="#D33756"/>
<path d="M182.308 180.274C182.004 180.547 182.2 180.351 181.814 180.686C181.556 180.912 181.319 181.185 181.02 181.247C180.845 181.283 179.717 180.17 179.604 180.155C179.418 180.124 177.543 181.932 176.667 182.087C175.565 182.288 174.509 181.495 174.287 180.16C174.215 179.732 174.22 178.99 175.338 178.418C176.713 177.718 177.393 177.357 178.743 176.626C178.651 176.09 178.604 175.827 178.511 175.291C178.336 174.219 177.316 174.42 177.028 174.472C175.858 174.693 175.673 175.203 175.647 175.631C175.632 175.92 175.601 176.553 174.874 176.682C174.504 176.749 174.076 176.6 173.994 176.105C173.87 175.379 174.452 174.92 174.952 174.647C175.374 174.415 175.941 174.199 176.806 174.034C177.239 173.952 178.31 173.776 179.037 173.936C179.892 174.122 179.959 174.616 180.046 175.281C180.155 176.074 180.345 177.867 180.716 179.289C180.886 179.933 181.01 180.34 181.427 180.253C181.654 180.207 181.772 180.093 182.004 179.887C182.128 180.042 182.19 180.119 182.308 180.274ZM178.846 177.151C178.336 177.44 178.084 177.574 177.728 177.759C176.008 178.666 175.544 179.094 175.693 179.933C175.776 180.412 176.07 181.366 177.064 181.18C177.29 181.139 178.187 180.959 179.362 179.738C179.155 178.702 179.052 178.187 178.846 177.151Z" fill="#D33756"/>
<path d="M188.562 171.865C188.171 172.107 187.856 172.277 188.057 173.106C188.212 173.786 188.294 174.121 188.449 174.801C189.798 174.534 191.143 174.163 192.441 173.699C192.23 173.034 192.122 172.705 191.905 172.045C191.653 171.231 191.292 171.231 190.849 171.236C190.721 171.236 190.659 171.236 190.53 171.236C190.499 171.133 190.489 171.081 190.458 170.978C191.89 170.571 192.606 170.365 194.033 169.927C194.064 170.03 194.079 170.082 194.11 170.185C194.007 170.252 193.956 170.283 193.858 170.35C193.374 170.654 193.214 170.824 193.41 171.602C193.904 173.457 194.146 174.384 194.636 176.244C194.759 176.728 194.888 177.022 195.558 176.96C195.805 176.935 195.929 176.924 196.176 176.893C196.207 176.991 196.222 177.038 196.248 177.135C194.754 177.594 194.007 177.816 192.503 178.238C192.477 178.14 192.462 178.094 192.436 177.996C192.657 177.888 192.766 177.826 192.987 177.718C193.585 177.409 193.559 177.12 193.389 176.61C193.085 175.688 192.931 175.229 192.627 174.307C191.261 174.616 189.917 174.987 188.583 175.425C188.804 176.368 188.912 176.842 189.129 177.79C189.273 178.408 189.376 178.588 190.025 178.537C190.272 178.522 190.391 178.511 190.638 178.496C190.664 178.594 190.679 178.64 190.705 178.738C189.201 179.145 188.449 179.336 186.939 179.707C186.919 179.609 186.903 179.562 186.878 179.464C187.099 179.361 187.213 179.31 187.439 179.202C188.047 178.913 188.006 178.614 187.862 178.114C187.336 176.27 187.073 175.343 186.548 173.498C186.337 172.725 186.022 172.684 185.507 172.658C185.389 172.653 185.327 172.648 185.203 172.643C185.177 172.54 185.167 172.488 185.141 172.385C186.584 172.029 187.305 171.849 188.737 171.458C188.768 171.561 188.778 171.612 188.804 171.715C188.717 171.772 188.665 171.803 188.562 171.865Z" fill="#D33756"/>
<path d="M177.177 62.1337C180.531 55.5177 183.493 50.2315 186.058 46.2743C186.409 45.7695 186.326 45.517 185.821 45.517C185.507 45.517 185.111 45.5943 184.637 45.754C183.72 46.1043 183.148 46.4187 182.926 46.7021C178.908 51.8286 175.029 56.8009 171.294 61.613C168.95 64.684 166.359 67.8835 163.505 71.207C161.259 73.8347 159.914 75.3391 159.472 75.7206L159.327 75.5762C160.342 74.3758 161.718 72.2837 163.459 69.3057C166.812 62.8445 169.409 57.7487 171.248 54.0133C173.525 49.6442 175.111 47.0628 175.998 46.2743C176.126 46.1506 176.188 46.0373 176.188 45.9395C176.188 45.5273 175.874 45.4036 175.24 45.5581C174.447 45.7488 173.911 45.9395 173.628 46.1302C171.856 47.3976 165.761 53.7918 155.35 65.3177C151.487 69.5942 146.881 73.0929 141.534 75.8132C135.806 78.7553 130.262 80.2289 124.915 80.2289C117.317 80.2289 113.52 77.6012 113.52 72.3456C113.52 70.2074 114.391 68.1205 116.122 66.0958C117.791 66.3688 119.589 66.508 121.531 66.508C126.471 66.508 131.2 65.4158 135.728 63.2311C138.386 61.9634 140.54 60.5775 142.183 59.0782C142.667 58.635 143.131 58.1557 143.574 57.6561C144.3 57.8365 144.965 58.0528 145.568 58.3001C145.166 58.4598 144.805 58.7382 144.486 59.1502C143.965 59.8149 143.703 60.5723 143.703 61.4278C143.703 64.4677 145.429 65.9876 148.88 65.9876C150.431 65.9876 151.991 65.5599 153.558 64.7047C155.124 63.8492 156.54 62.757 157.808 61.4278C159.075 60.0982 160.11 58.6246 160.919 57.012C161.728 55.3992 162.13 53.8125 162.13 52.2615C162.13 50.2367 161.522 48.6446 160.301 47.4902C159.08 46.3362 157.396 45.7592 155.242 45.7592C154.799 45.7592 154.361 45.7899 153.934 45.8518C153.506 45.9136 153.053 45.9806 152.579 46.0425C152.074 46.0736 151.456 46.2332 150.729 46.5165C150.348 46.6762 149.972 46.8309 149.591 46.9906C149.751 46.6762 149.905 46.3414 150.065 45.991C150.76 44.5329 151.41 43.3066 152.012 42.3122C152.615 41.3127 153.197 40.4831 153.769 39.8183C154.341 39.1538 154.902 38.6231 155.453 38.2264C156.005 37.8295 156.587 37.505 157.184 37.2525C157.596 37.1288 157.803 36.9228 157.803 36.6343C157.803 36.4436 157.658 36.3507 157.375 36.3507C157.025 36.3507 156.545 36.4847 155.927 36.7528C155.309 37.0206 154.655 37.371 153.959 37.7987C153.264 38.2262 152.584 38.695 151.92 39.2001C151.255 39.705 150.714 40.1842 150.307 40.6275C149.864 41.0705 149.364 41.7197 148.813 42.5749C148.257 43.4303 147.68 44.3733 147.082 45.3984C146.479 46.4291 145.872 47.5109 145.253 48.6498C144.635 49.7883 144.058 50.8652 143.522 51.8804L142.477 53.6373C141.946 54.5388 141.38 55.3788 140.792 56.1773C139.319 55.9713 137.768 55.8681 136.13 55.8681C129.768 55.8681 124.117 57.3417 119.182 60.2838C117.018 61.5874 115.313 62.9992 114.056 64.5192C112.732 64.1277 111.573 63.6277 110.573 63.0196C109.244 62.2108 108.224 61.2319 107.514 60.0778C106.803 58.9235 106.447 57.5994 106.447 56.1103C106.447 54.4666 106.962 52.8797 107.993 51.3597C109.023 49.8398 110.388 48.4846 112.098 47.2998C113.809 46.1147 115.756 45.1614 117.94 44.4503C120.124 43.7393 122.355 43.3837 124.637 43.3837C125.08 43.3837 125.523 43.3993 125.966 43.4303C126.316 43.4611 126.775 43.5074 127.342 43.5745V43.7652C127.311 43.9248 127.295 44.0796 127.295 44.2392V44.667C127.295 44.8884 127.326 45.1977 127.388 45.5943C127.45 45.991 127.548 46.3773 127.671 46.7587C127.8 47.1399 127.955 47.4698 128.145 47.7583C128.336 48.0417 128.557 48.1861 128.81 48.1861C129.031 48.1861 129.145 48.0932 129.145 47.9024V47.8098C128.733 46.8928 128.526 45.9755 128.526 45.0533C128.526 44.8007 128.588 44.3733 128.717 43.7703C132.169 44.5637 135.079 45.7488 137.454 47.3306C137.707 47.3924 137.851 47.4235 137.882 47.4235C138.263 47.4235 138.453 47.2998 138.453 47.0421L138.361 46.7587C136.398 45.4295 134.121 44.3525 131.524 43.5281C130.669 43.2448 129.799 43.0078 128.913 42.8171L128.959 42.7708C129.402 41.5034 130.159 40.2616 131.236 39.0457C132.313 37.8295 133.564 36.7373 134.986 35.7685C136.413 34.8051 137.938 34.0219 139.566 33.4192C141.194 32.8163 142.801 32.5175 144.388 32.5175C146.917 32.5175 150.132 33.2441 154.026 34.7022C157.983 36.1603 160.497 36.8866 161.573 36.8866C162.176 36.8866 162.825 36.7784 163.521 36.5569C164.216 36.3354 164.855 36.0521 165.442 35.7017C166.029 35.3514 166.508 34.9596 166.89 34.5166C167.271 34.0733 167.462 33.6148 167.462 33.1408C167.462 32.8267 167.317 32.6667 167.034 32.6667C166.905 32.6667 166.797 32.6978 166.699 32.7596C166.065 33.7745 165.293 34.2796 164.371 34.2796C164.149 34.2796 163.51 34.1352 162.449 33.8519C161.388 33.5685 159.909 33.11 158.009 32.4763C154.305 31.2397 151.456 30.6264 149.462 30.6264C146.964 30.6264 144.507 30.9512 142.101 31.6004C139.695 32.2494 137.495 33.1204 135.502 34.2126C133.508 35.3048 131.808 36.5725 130.396 38.0099C128.99 39.4527 128.016 40.9623 127.476 42.5441V42.5904C126.115 42.3689 124.719 42.2607 123.298 42.2607C120.732 42.2607 118.29 42.6315 115.962 43.3788C113.633 44.1207 111.578 45.1203 109.79 46.3724C108.003 47.6243 106.576 49.0464 105.52 50.6437C104.459 52.2408 103.928 53.8948 103.928 55.6054C103.928 57.2542 104.34 58.7483 105.164 60.0931C105.989 61.4378 107.168 62.587 108.704 63.5351C110.017 64.344 111.557 64.9984 113.335 65.498C112.083 67.3376 111.449 69.3212 111.449 71.4593C111.449 74.5613 112.732 76.9983 115.297 78.7708C117.703 80.4504 120.866 81.2903 124.792 81.2903C131.344 81.2903 137.882 79.4045 144.403 75.638C149.277 72.8507 153.408 69.5119 156.798 65.6165C163.129 58.5579 167.765 53.4466 170.707 50.2779L171.037 50.3242C169.326 53.1426 167.791 55.7084 166.431 58.0168C164.154 61.943 161.635 66.709 158.884 72.3096C156.7 76.2976 155.18 78.9563 154.325 80.2856C154.073 80.7286 154.057 81.0119 154.279 81.1408C154.438 81.2337 154.676 81.1718 154.99 80.9503C155.623 80.5381 157.298 79.0182 160.023 76.3902C163.376 73.1288 166.071 70.2486 168.095 67.7498C172.809 61.6081 176.291 57.0172 178.542 53.9773L179.063 53.6422C176.786 57.4087 174.601 61.0208 172.51 64.4677C170.738 67.4765 169.517 69.723 168.852 71.2122C167.807 73.4585 167.286 75.3135 167.286 76.7665C167.286 79.7756 168.713 81.28 171.557 81.28C173.267 81.28 175.467 80.2185 178.156 78.0957C180.655 76.1328 182.396 74.2984 183.38 72.5877C183.251 72.1137 182.952 71.9541 182.478 72.1137C181.685 73.6337 180.072 75.3443 177.636 77.2405C175.07 79.2653 173.046 80.2804 171.557 80.2804C170.764 80.2804 170.372 79.8527 170.372 78.9975C170.372 77.9824 171.114 75.6742 172.603 72.0622C173.932 68.7957 175.467 65.4877 177.177 62.1337ZM146.346 53.5907L147.293 51.7875C147.453 51.4733 147.752 50.8394 148.195 49.8864C148.386 49.536 148.576 49.1287 148.767 48.6498C149.462 48.2065 150.225 47.8098 151.044 47.4646C151.93 47.0832 152.8 46.8928 153.656 46.8928C155.082 46.8928 156.309 47.3976 157.334 48.4127C158.364 49.4276 158.879 50.7879 158.879 52.4985C158.879 53.9258 158.529 55.3736 157.833 56.842C157.138 58.3157 156.252 59.6449 155.175 60.83C154.098 62.0152 152.914 62.9888 151.616 63.7514C150.317 64.5088 149.081 64.8902 147.912 64.8902C147.247 64.8902 146.613 64.7562 146.011 64.4881C145.408 64.2203 145.109 63.9574 145.109 63.7051C145.109 63.674 145.284 63.6122 145.63 63.5144C145.98 63.4218 146.356 63.267 146.768 63.0611C147.18 62.8548 147.556 62.5459 147.906 62.1337C148.257 61.7215 148.427 61.1856 148.427 60.5208C148.427 59.5624 148.169 58.9031 147.659 58.5216C147.68 58.4909 147.695 58.4598 147.68 58.4238C147.041 57.8776 145.877 57.3624 144.192 56.8728C144.996 55.8836 145.712 54.7862 146.346 53.5907ZM121.01 61.9222C126.012 58.6146 131.236 56.9606 136.676 56.9606C137.887 56.9606 139.005 57.012 140.05 57.1047C138.185 59.4131 136.074 61.2422 133.693 62.5663C130.226 64.4984 126.28 65.4776 121.845 65.5084C120.078 65.5084 118.455 65.3899 116.961 65.1632C118.059 64.0658 119.403 62.9837 121.01 61.9222Z" fill="#D33756"/>
<path d="M148.329 169.247C147.741 169.247 147.144 168.99 146.732 168.557C146.706 168.531 146.675 168.515 146.639 168.515C146.603 168.515 146.572 168.531 146.546 168.557C146.134 168.99 145.537 169.247 144.944 169.247C144.517 169.247 144.156 169.113 143.919 168.861C143.754 168.686 143.662 168.469 143.631 168.207C143.687 168.232 143.749 168.248 143.821 168.248C143.935 168.248 144.048 168.211 144.182 168.144C144.197 168.134 144.213 168.124 144.223 168.114C144.465 167.815 144.532 167.516 144.429 167.233C144.177 166.547 142.94 166.151 142.322 166.032C142.312 166.032 142.307 166.032 142.296 166.032C142.25 166.032 142.209 166.058 142.183 166.099C142.157 166.146 142.162 166.207 142.199 166.249C142.358 166.429 142.405 166.661 142.461 166.908C142.471 166.954 142.482 167.001 142.492 167.047C142.43 167.047 142.368 167.047 142.307 167.047C142.09 167.047 141.884 167.052 141.683 167.057C141.493 167.063 141.307 167.068 141.122 167.068C140.566 167.068 139.958 167.027 139.283 166.748C138.654 166.486 138.201 166.022 137.722 165.532C137.341 165.146 136.949 164.744 136.46 164.445C136.439 164.43 136.413 164.425 136.393 164.425C136.357 164.425 136.321 164.44 136.295 164.471C136.254 164.517 136.254 164.589 136.295 164.641L136.362 164.718C136.872 165.311 137.356 165.872 137.449 166.836C137.212 166.898 136.98 166.923 136.764 166.923C135.568 166.923 134.827 166.022 134.038 165.069C133.343 164.219 132.617 163.342 131.53 163.059C131.231 162.982 130.943 162.946 130.654 162.946C130.422 162.946 130.185 162.972 129.933 163.023C129.871 163.033 129.83 163.09 129.83 163.152C129.835 163.255 129.84 163.363 129.845 163.476C129.845 163.518 129.871 163.564 129.902 163.585C129.928 163.6 129.953 163.61 129.984 163.61C129.995 163.61 130.005 163.61 130.015 163.605C130.232 163.528 130.474 163.482 130.721 163.482C130.85 163.482 130.984 163.492 131.112 163.518C132.112 163.698 132.797 164.502 133.147 165.914C133.225 166.228 133.219 166.583 133.199 166.867C133.127 166.831 133.054 166.784 132.983 166.738L132.885 166.676C132.715 166.573 132.57 166.449 132.411 166.321L132.359 166.279C132.153 166.109 131.993 165.898 131.828 165.677C131.705 165.517 131.581 165.352 131.437 165.197C131.215 164.966 130.834 164.718 130.422 164.718C130.335 164.718 130.247 164.729 130.17 164.754C130.134 164.765 130.103 164.79 130.088 164.821C130.072 164.857 130.072 164.893 130.088 164.929C130.175 165.13 130.288 165.239 130.427 165.244C130.51 165.244 130.515 165.316 130.515 165.342C130.515 165.367 130.505 165.429 130.438 165.429C130.237 165.429 130.087 165.316 129.974 165.079C129.953 165.038 129.912 165.007 129.866 165.007H129.861C129.814 165.007 129.773 165.033 129.752 165.069C129.649 165.244 129.577 165.507 129.655 165.702C129.675 165.754 129.706 165.8 129.747 165.836C129.747 165.836 129.742 165.836 129.742 165.842C129.675 165.877 129.598 165.898 129.526 165.898C129.443 165.898 129.366 165.877 129.299 165.836C128.985 165.625 128.99 165.275 129.031 164.868C129.067 164.435 129.273 164.069 129.613 163.822C129.655 163.796 129.67 163.745 129.665 163.698C129.644 163.554 129.624 163.404 129.613 163.26C129.613 163.219 129.593 163.183 129.557 163.162C129.536 163.147 129.51 163.142 129.485 163.142C129.474 163.142 129.459 163.142 129.449 163.147C129.273 163.198 129.103 163.255 128.923 163.317C128.604 163.425 128.279 163.533 127.919 163.61C127.702 163.657 127.481 163.683 127.254 163.683C126.476 163.683 125.873 163.404 125.59 162.91C125.57 162.869 125.528 162.848 125.482 162.843L95.1345 162.312L125.482 161.781C125.528 161.781 125.57 161.756 125.59 161.714C125.873 161.225 126.476 160.941 127.254 160.941C127.481 160.941 127.702 160.967 127.919 161.014C128.279 161.096 128.614 161.209 128.933 161.318C129.103 161.374 129.273 161.431 129.443 161.482C129.454 161.488 129.469 161.488 129.479 161.488C129.505 161.488 129.531 161.477 129.552 161.467C129.582 161.446 129.603 161.41 129.608 161.369C129.619 161.22 129.639 161.075 129.66 160.931C129.665 160.885 129.644 160.838 129.608 160.808C129.263 160.555 129.062 160.194 129.021 159.762C128.985 159.37 128.975 159.004 129.294 158.793C129.356 158.752 129.438 158.726 129.521 158.726C129.598 158.726 129.67 158.747 129.737 158.783H129.742C129.701 158.819 129.67 158.865 129.649 158.917C129.567 159.112 129.639 159.38 129.747 159.555C129.773 159.597 129.814 159.617 129.856 159.617H129.861C129.907 159.617 129.948 159.587 129.969 159.545C130.082 159.308 130.232 159.195 130.427 159.19C130.499 159.19 130.51 159.251 130.51 159.277C130.51 159.298 130.505 159.37 130.422 159.375C130.283 159.375 130.17 159.483 130.082 159.69C130.067 159.725 130.067 159.762 130.082 159.798C130.098 159.834 130.129 159.854 130.165 159.865C130.247 159.885 130.33 159.895 130.417 159.895C130.829 159.895 131.211 159.648 131.432 159.417C131.576 159.267 131.705 159.097 131.824 158.937C131.993 158.716 132.153 158.504 132.354 158.334L132.416 158.283C132.57 158.154 132.709 158.036 132.874 157.938L132.972 157.876C133.039 157.834 133.111 157.788 133.183 157.752C133.204 158.036 133.209 158.396 133.132 158.705C132.782 160.112 132.096 160.921 131.097 161.101C130.968 161.127 130.834 161.137 130.701 161.137C130.453 161.137 130.216 161.096 130 161.014C129.984 161.008 129.969 161.003 129.953 161.003C129.928 161.003 129.902 161.008 129.881 161.024C129.845 161.045 129.825 161.086 129.825 161.127C129.814 161.276 129.809 161.374 129.809 161.472C129.809 161.534 129.85 161.591 129.912 161.601C130.165 161.652 130.401 161.678 130.633 161.678C130.922 161.678 131.21 161.642 131.509 161.565C132.596 161.282 133.322 160.406 134.018 159.555C134.806 158.602 135.548 157.701 136.743 157.701C136.959 157.701 137.186 157.731 137.428 157.788C137.341 158.757 136.851 159.324 136.336 159.916L136.279 159.983C136.238 160.03 136.238 160.102 136.279 160.153C136.305 160.184 136.341 160.2 136.377 160.2C136.398 160.2 136.424 160.194 136.444 160.179C136.934 159.88 137.325 159.478 137.707 159.092C138.185 158.602 138.639 158.139 139.267 157.876C139.942 157.597 140.55 157.556 141.106 157.556C141.292 157.556 141.483 157.561 141.673 157.567C141.879 157.572 142.085 157.577 142.302 157.577C142.358 157.577 142.42 157.577 142.477 157.577C142.466 157.623 142.456 157.67 142.446 157.716C142.394 157.963 142.343 158.195 142.183 158.37C142.147 158.412 142.142 158.474 142.168 158.52C142.188 158.561 142.235 158.587 142.281 158.587C142.291 158.587 142.296 158.587 142.307 158.587C142.925 158.468 144.161 158.071 144.414 157.386C144.517 157.103 144.45 156.804 144.207 156.505C144.038 156.402 143.919 156.366 143.806 156.366C143.734 156.366 143.672 156.382 143.615 156.407C143.641 156.145 143.739 155.923 143.904 155.753C144.141 155.506 144.501 155.367 144.929 155.367C145.516 155.367 146.119 155.624 146.531 156.057C146.557 156.083 146.588 156.098 146.624 156.098C146.66 156.098 146.691 156.083 146.716 156.057C147.128 155.624 147.726 155.367 148.318 155.367C148.746 155.367 149.107 155.5 149.344 155.748C149.509 155.923 149.606 156.139 149.632 156.402C149.576 156.382 149.514 156.361 149.442 156.361C149.328 156.361 149.21 156.397 149.081 156.469C148.803 156.799 148.731 157.098 148.839 157.381C149.091 158.067 150.328 158.463 150.946 158.582C150.956 158.582 150.961 158.582 150.971 158.582C151.018 158.582 151.059 158.556 151.085 158.515C151.11 158.468 151.106 158.407 151.069 158.365C150.91 158.19 150.858 157.953 150.807 157.706C150.797 157.66 150.786 157.613 150.776 157.572C150.832 157.572 150.894 157.572 150.951 157.572C151.167 157.572 151.373 157.567 151.579 157.561C151.77 157.556 151.961 157.551 152.146 157.551C152.702 157.551 153.31 157.593 153.985 157.871C154.614 158.133 155.067 158.597 155.551 159.087C155.932 159.473 156.324 159.875 156.813 160.174C156.834 160.189 156.86 160.194 156.88 160.194C156.916 160.194 156.952 160.179 156.978 160.148C157.019 160.102 157.019 160.03 156.978 159.978L156.927 159.916C156.406 159.318 155.917 158.757 155.824 157.783C156.061 157.721 156.293 157.696 156.509 157.696C157.705 157.696 158.452 158.597 159.235 159.55C159.935 160.401 160.656 161.276 161.743 161.56C162.042 161.637 162.325 161.673 162.614 161.673C162.846 161.673 163.083 161.647 163.335 161.596C163.397 161.585 163.438 161.529 163.438 161.467C163.433 161.359 163.428 161.245 163.423 161.122C163.423 161.081 163.397 161.045 163.366 161.019C163.345 161.003 163.32 160.998 163.294 160.998C163.279 160.998 163.263 160.998 163.248 161.008C163.031 161.091 162.794 161.132 162.547 161.132C162.413 161.132 162.284 161.122 162.15 161.096C161.146 160.916 160.461 160.112 160.115 158.7C160.054 158.443 160.033 158.139 160.059 157.747C160.126 157.778 160.198 157.824 160.26 157.866L160.373 157.933C160.533 158.03 160.677 158.149 160.831 158.278L160.893 158.329C161.094 158.499 161.254 158.705 161.419 158.927C161.542 159.092 161.666 159.257 161.815 159.411C162.037 159.643 162.418 159.89 162.83 159.89C162.918 159.89 163 159.88 163.083 159.86C163.119 159.849 163.15 159.824 163.165 159.792C163.18 159.762 163.186 159.72 163.17 159.69C163.067 159.432 162.928 159.375 162.83 159.375C162.748 159.375 162.743 159.298 162.743 159.277C162.743 159.246 162.753 159.19 162.825 159.19C163.026 159.19 163.17 159.303 163.284 159.54C163.304 159.581 163.345 159.612 163.392 159.612H163.397C163.443 159.612 163.485 159.591 163.505 159.55C163.613 159.375 163.686 159.112 163.603 158.911C163.583 158.855 163.551 158.808 163.51 158.772C163.51 158.772 163.515 158.772 163.515 158.767C163.583 158.731 163.66 158.71 163.732 158.71C163.814 158.71 163.897 158.736 163.958 158.777C164.242 158.968 164.273 159.277 164.226 159.741C164.19 160.174 163.989 160.534 163.639 160.787C163.598 160.818 163.583 160.864 163.588 160.911C163.608 161.055 163.629 161.204 163.639 161.349C163.639 161.39 163.66 161.426 163.696 161.446C163.716 161.462 163.742 161.467 163.768 161.467C163.778 161.467 163.793 161.467 163.804 161.462C163.974 161.41 164.144 161.354 164.319 161.297C164.638 161.189 164.968 161.081 165.329 160.998C165.545 160.952 165.767 160.926 165.993 160.926C166.771 160.926 167.379 161.209 167.657 161.699C167.678 161.74 167.719 161.761 167.765 161.761L198.113 162.291L167.765 162.822C167.719 162.822 167.678 162.848 167.657 162.889C167.374 163.379 166.771 163.662 165.993 163.662C165.767 163.662 165.545 163.636 165.329 163.59C164.973 163.508 164.644 163.399 164.329 163.296C164.154 163.239 163.979 163.178 163.804 163.126C163.793 163.121 163.778 163.121 163.768 163.121C163.742 163.121 163.716 163.131 163.696 163.142C163.665 163.162 163.644 163.198 163.639 163.239C163.629 163.384 163.608 163.533 163.588 163.678C163.583 163.724 163.598 163.775 163.639 163.801C163.984 164.048 164.185 164.414 164.226 164.847C164.273 165.316 164.242 165.625 163.953 165.816C163.892 165.857 163.809 165.877 163.727 165.877C163.649 165.877 163.577 165.857 163.505 165.821C163.546 165.785 163.577 165.739 163.598 165.682C163.675 165.486 163.603 165.218 163.5 165.048C163.474 165.012 163.433 164.986 163.392 164.986H163.387C163.34 164.991 163.299 165.017 163.279 165.058C163.165 165.295 163.021 165.409 162.82 165.409C162.748 165.409 162.738 165.352 162.738 165.321C162.738 165.3 162.743 165.223 162.825 165.223C162.928 165.218 163.062 165.161 163.165 164.909C163.18 164.873 163.176 164.837 163.16 164.806C163.144 164.775 163.114 164.749 163.078 164.739C162.995 164.718 162.913 164.703 162.825 164.703C162.418 164.703 162.037 164.95 161.815 165.182C161.666 165.336 161.542 165.502 161.419 165.666C161.254 165.888 161.094 166.094 160.893 166.264L160.842 166.305C160.687 166.434 160.538 166.558 160.373 166.661L160.265 166.728C160.198 166.769 160.131 166.815 160.059 166.846C160.033 166.454 160.049 166.151 160.115 165.893C160.461 164.486 161.146 163.678 162.15 163.497C162.279 163.476 162.413 163.461 162.542 163.461C162.789 163.461 163.031 163.502 163.248 163.585C163.263 163.59 163.279 163.595 163.294 163.595C163.32 163.595 163.345 163.59 163.366 163.574C163.402 163.554 163.423 163.513 163.423 163.476C163.428 163.358 163.438 163.239 163.438 163.131C163.438 163.069 163.397 163.013 163.335 163.002C163.083 162.951 162.846 162.925 162.614 162.925C162.325 162.925 162.037 162.961 161.738 163.039C160.646 163.322 159.925 164.198 159.229 165.048C158.441 166.001 157.7 166.903 156.504 166.903C156.288 166.903 156.056 166.872 155.819 166.815C155.912 165.847 156.396 165.29 156.911 164.692L156.973 164.62C157.014 164.574 157.014 164.502 156.973 164.45C156.947 164.419 156.911 164.404 156.875 164.404C156.855 164.404 156.829 164.409 156.808 164.425C156.319 164.723 155.927 165.125 155.546 165.512C155.067 166.001 154.608 166.465 153.98 166.728C153.305 167.006 152.697 167.047 152.141 167.047C151.955 167.047 151.77 167.042 151.579 167.037C151.378 167.032 151.172 167.027 150.956 167.027C150.894 167.027 150.832 167.027 150.771 167.027C150.781 166.98 150.791 166.939 150.801 166.893C150.853 166.645 150.905 166.413 151.064 166.233C151.1 166.192 151.106 166.13 151.08 166.084C151.059 166.042 151.013 166.017 150.966 166.017C150.956 166.017 150.951 166.017 150.941 166.017C150.322 166.13 149.086 166.532 148.834 167.217C148.725 167.506 148.798 167.799 149.04 168.103C149.21 168.206 149.328 168.243 149.436 168.243C149.509 168.243 149.576 168.227 149.627 168.201C149.601 168.464 149.503 168.68 149.338 168.855C149.117 169.108 148.757 169.247 148.329 169.247ZM153.995 163.59L153.877 163.616C152.249 163.986 150.57 164.368 149.024 165.084C147.865 165.62 147.35 166.377 147.402 167.459C147.407 167.526 147.469 167.588 147.535 167.588C147.608 167.588 147.669 167.521 147.669 167.449C147.721 166.13 148.751 165.651 150.096 165.166C151.353 164.708 152.677 164.363 153.959 164.033L154.098 163.997C154.202 163.971 154.263 163.878 154.248 163.77C154.232 163.662 154.145 163.585 154.042 163.585C154.037 163.585 154.006 163.59 153.995 163.59ZM139.226 163.585C139.118 163.585 139.03 163.662 139.02 163.77C139.005 163.873 139.066 163.971 139.169 163.997L139.303 164.033C140.586 164.368 141.91 164.713 143.172 165.166C144.511 165.656 145.542 166.135 145.593 167.454C145.598 167.521 145.66 167.588 145.727 167.588C145.789 167.588 145.851 167.537 145.861 167.475C145.918 166.377 145.403 165.625 144.244 165.084C142.698 164.368 141.019 163.986 139.396 163.616L139.278 163.59L139.226 163.585ZM155.082 164.703C155.062 164.703 155 164.718 154.979 164.729C154.732 164.863 154.505 165.033 154.284 165.192C154.026 165.383 153.753 165.573 153.46 165.718C152.975 165.95 152.465 166.104 151.806 166.217C151.744 166.228 151.698 166.284 151.698 166.351C151.698 166.424 151.76 166.486 151.827 166.486C151.935 166.516 152.079 166.532 152.229 166.532C152.615 166.532 153.037 166.424 153.511 166.202C154.129 165.914 154.82 165.558 155.232 165.048C155.283 164.981 155.294 164.899 155.257 164.826C155.227 164.744 155.154 164.703 155.082 164.703ZM138.191 164.703C138.114 164.703 138.046 164.744 138.015 164.816C137.979 164.888 137.99 164.976 138.041 165.038C138.453 165.553 139.144 165.903 139.762 166.192C140.236 166.413 140.658 166.521 141.045 166.521C141.194 166.521 141.338 166.506 141.477 166.47C141.534 166.454 141.58 166.398 141.58 166.341C141.58 166.269 141.519 166.207 141.446 166.207C140.808 166.099 140.298 165.944 139.813 165.713C139.515 165.568 139.247 165.373 138.984 165.187C138.763 165.027 138.536 164.863 138.294 164.729C138.273 164.718 138.211 164.703 138.191 164.703ZM159.147 163.698C159.132 163.698 159.101 163.703 159.09 163.708C158.555 163.883 158.127 164.311 157.741 164.754C157.303 165.249 156.947 165.723 156.664 166.202C156.643 166.238 156.638 166.3 156.659 166.341C156.68 166.383 156.741 166.424 156.787 166.424C156.813 166.424 156.849 166.413 156.87 166.398C157.066 166.197 157.236 166.001 157.411 165.805C157.622 165.563 157.844 165.311 158.07 165.084C158.369 164.79 158.688 164.543 159.023 164.28L159.281 164.079C159.348 164.023 159.374 163.935 159.343 163.858C159.312 163.755 159.229 163.698 159.147 163.698ZM134.131 163.698C134.044 163.698 133.961 163.76 133.93 163.848C133.899 163.93 133.925 164.017 133.992 164.069L134.25 164.27C134.59 164.533 134.909 164.78 135.208 165.079C135.44 165.311 135.661 165.563 135.878 165.805C136.048 166.001 136.218 166.192 136.393 166.377C136.419 166.403 136.46 166.419 136.496 166.419C136.547 166.419 136.604 166.383 136.63 166.336C136.65 166.29 136.645 166.228 136.614 166.187C136.331 165.713 135.981 165.239 135.543 164.749C135.161 164.311 134.729 163.878 134.193 163.703C134.178 163.703 134.142 163.698 134.131 163.698ZM162.634 163.806C162.078 163.806 161.563 164.249 161.414 164.383C161.007 164.765 160.708 165.249 160.553 165.785C160.543 165.821 160.553 165.883 160.574 165.914C160.6 165.95 160.656 165.976 160.698 165.976C160.759 165.976 160.826 165.919 160.842 165.862C161.007 165.429 161.311 165.002 161.687 164.682C162.047 164.383 162.377 164.306 162.825 164.203L162.882 164.188C162.964 164.172 163.016 164.105 163.021 164.018C163.021 163.935 162.969 163.858 162.887 163.837C162.81 163.822 162.722 163.806 162.634 163.806ZM130.639 163.806C130.546 163.806 130.463 163.816 130.381 163.842C130.304 163.863 130.252 163.94 130.252 164.023C130.252 164.105 130.309 164.172 130.386 164.193L130.443 164.208C130.896 164.311 131.226 164.389 131.581 164.687C131.957 165.002 132.261 165.429 132.431 165.883C132.452 165.934 132.519 165.98 132.57 165.98C132.612 165.98 132.668 165.955 132.694 165.919C132.72 165.888 132.73 165.826 132.72 165.785C132.565 165.254 132.272 164.77 131.86 164.383C131.715 164.249 131.2 163.806 130.639 163.806ZM144.166 163.358C143.919 163.358 143.662 163.363 143.399 163.373C143.332 163.379 143.275 163.43 143.275 163.497C143.275 163.564 143.322 163.621 143.388 163.631C144.713 163.765 145.887 164.342 146.536 165.177C146.562 165.208 146.598 165.228 146.639 165.228C146.68 165.228 146.716 165.208 146.742 165.177C147.391 164.342 148.566 163.765 149.89 163.631C149.957 163.626 150.008 163.569 150.003 163.497C150.003 163.43 149.946 163.373 149.88 163.373C149.612 163.363 149.359 163.358 149.112 163.358C148.901 163.358 148.7 163.358 148.499 163.363C148.308 163.363 148.128 163.368 147.948 163.368C147.561 163.368 147.103 163.358 146.66 163.286C146.17 163.358 145.717 163.368 145.331 163.368C145.15 163.368 144.97 163.368 144.779 163.363C144.578 163.358 144.372 163.358 144.166 163.358ZM157.318 163.848C157.318 163.899 157.344 163.95 157.39 163.971C157.519 164.033 157.643 164.064 157.761 164.064C158.158 164.064 158.421 163.734 158.652 163.446C158.688 163.399 158.725 163.353 158.761 163.312C158.776 163.363 158.823 163.399 158.874 163.399H158.941C159.42 163.399 159.657 163.116 159.889 162.843C160.028 162.678 160.162 162.518 160.347 162.415C160.388 162.395 160.414 162.348 160.414 162.302C160.414 162.255 160.388 162.209 160.347 162.188C160.157 162.085 160.028 161.931 159.889 161.761C159.657 161.488 159.42 161.204 158.941 161.204H158.874C158.823 161.209 158.776 161.245 158.761 161.292C158.725 161.251 158.688 161.204 158.652 161.158C158.421 160.869 158.158 160.54 157.761 160.54C157.643 160.54 157.514 160.571 157.385 160.632C157.354 160.648 157.329 160.674 157.318 160.705C157.313 160.72 157.308 160.735 157.313 160.751C157.205 160.725 157.086 160.715 156.968 160.715C156.545 160.715 156.257 160.885 156.18 161.178C156.18 161.189 156.174 161.199 156.174 161.204C155.86 161.225 155.474 161.292 155.428 161.637C155.422 161.668 155.428 161.699 155.448 161.725C155.376 161.756 155.304 161.797 155.227 161.854C155.16 161.9 155.098 161.956 155.036 162.013C154.985 162.059 154.938 162.101 154.887 162.142H154.856C154.794 162.142 154.742 162.183 154.727 162.245C154.722 162.266 154.722 162.291 154.732 162.312C154.732 162.322 154.732 162.333 154.732 162.343C154.742 162.405 154.789 162.456 154.851 162.456H154.882C154.933 162.498 154.985 162.544 155.031 162.585C155.093 162.642 155.154 162.698 155.216 162.745C155.299 162.802 155.376 162.843 155.453 162.879C155.433 162.905 155.417 162.935 155.422 162.961C155.474 163.306 155.855 163.373 156.174 163.394C156.174 163.404 156.174 163.415 156.18 163.42C156.257 163.713 156.545 163.883 156.968 163.883C157.092 163.883 157.21 163.868 157.318 163.848ZM134.616 163.44C134.847 163.734 135.11 164.064 135.512 164.064C135.63 164.064 135.754 164.033 135.883 163.971C135.914 163.956 135.939 163.93 135.95 163.899C135.955 163.883 135.96 163.868 135.955 163.848C136.063 163.868 136.181 163.883 136.295 163.883C136.717 163.883 137.006 163.713 137.083 163.42C137.083 163.409 137.088 163.399 137.088 163.394C137.402 163.379 137.784 163.306 137.835 162.961C137.84 162.93 137.835 162.899 137.814 162.869C137.887 162.838 137.959 162.796 138.036 162.74C138.108 162.688 138.17 162.632 138.237 162.57C138.283 162.528 138.33 162.487 138.376 162.446H138.407C138.469 162.446 138.52 162.405 138.531 162.348C138.541 162.312 138.531 162.276 138.51 162.245C138.495 162.188 138.464 162.137 138.402 162.137H138.371C138.324 162.101 138.278 162.059 138.232 162.013C138.165 161.956 138.103 161.895 138.031 161.843C137.949 161.786 137.871 161.74 137.794 161.709C137.814 161.684 137.83 161.658 137.825 161.627C137.773 161.282 137.387 161.215 137.073 161.194C137.073 161.184 137.073 161.173 137.068 161.163C136.991 160.869 136.702 160.699 136.279 160.699C136.166 160.699 136.048 160.715 135.939 160.735C135.939 160.72 135.939 160.704 135.934 160.689C135.924 160.658 135.898 160.632 135.867 160.617C135.739 160.555 135.615 160.524 135.491 160.524C135.095 160.524 134.832 160.854 134.6 161.142C134.564 161.189 134.528 161.235 134.492 161.276C134.477 161.225 134.43 161.189 134.379 161.189H134.312C133.832 161.189 133.596 161.472 133.364 161.745C133.225 161.91 133.091 162.07 132.905 162.173C132.864 162.199 132.838 162.24 132.838 162.286C132.838 162.333 132.864 162.379 132.905 162.4C133.096 162.503 133.225 162.657 133.364 162.827C133.596 163.1 133.832 163.384 134.312 163.384H134.379C134.435 163.379 134.477 163.342 134.497 163.291C134.538 163.348 134.58 163.394 134.616 163.44ZM165.684 163.193C165.622 163.193 165.54 163.265 165.53 163.327C165.519 163.389 165.581 163.487 165.643 163.502C165.792 163.538 165.942 163.554 166.086 163.554C166.957 163.554 167.631 162.997 167.729 162.194C167.729 162.188 167.729 162.132 167.729 162.126C167.729 162.059 167.673 161.998 167.606 161.998C167.606 161.998 167.606 161.998 167.601 161.998C167.534 161.998 167.477 162.049 167.472 162.116C167.42 162.91 166.591 163.193 165.895 163.193C165.829 163.193 165.756 163.188 165.694 163.183C165.694 163.193 165.689 163.193 165.684 163.193ZM125.667 162.003C125.6 162.003 125.544 162.065 125.544 162.132V162.178C125.641 162.992 126.316 163.554 127.192 163.554C127.336 163.554 127.486 163.538 127.63 163.502C127.697 163.487 127.759 163.389 127.749 163.322C127.738 163.245 127.671 163.188 127.594 163.188C127.517 163.193 127.445 163.198 127.378 163.198C126.682 163.198 125.853 162.915 125.801 162.121C125.796 162.059 125.739 162.003 125.667 162.003ZM148.818 162.317C148.813 162.343 148.808 162.369 148.818 162.389C148.839 162.441 148.864 162.487 148.921 162.487C149.297 162.492 149.678 162.492 150.06 162.503C150.394 162.508 150.729 162.513 151.064 162.518C151.549 162.528 152.033 162.539 152.517 162.539C153.14 162.539 153.65 162.523 154.14 162.487C154.253 162.482 154.335 162.395 154.335 162.281C154.335 162.168 154.253 162.08 154.14 162.07C153.65 162.034 153.135 162.018 152.517 162.018C152.017 162.018 151.523 162.029 151.028 162.039C150.704 162.044 150.384 162.055 150.065 162.055C149.668 162.059 149.277 162.065 148.885 162.07C148.828 162.07 148.782 162.106 148.767 162.158C148.751 162.209 148.767 162.266 148.808 162.302C148.803 162.307 148.813 162.312 148.818 162.317ZM140.761 162.018C140.143 162.018 139.628 162.034 139.144 162.07C139.03 162.08 138.943 162.168 138.943 162.281C138.943 162.395 139.025 162.482 139.144 162.487C139.628 162.523 140.143 162.539 140.761 162.539C141.245 162.539 141.73 162.528 142.214 162.518C142.549 162.513 142.884 162.503 143.219 162.503C143.6 162.498 143.976 162.492 144.352 162.487C144.403 162.487 144.455 162.451 144.47 162.4C144.481 162.364 144.481 162.328 144.465 162.296C144.496 162.261 144.511 162.209 144.501 162.168C144.486 162.116 144.455 162.07 144.398 162.065C144.001 162.059 143.61 162.054 143.219 162.049C142.899 162.044 142.574 162.039 142.255 162.034C141.761 162.029 141.261 162.018 140.761 162.018ZM145.985 162.142C145.949 162.142 145.913 162.163 145.887 162.194C145.866 162.219 145.851 162.261 145.856 162.296C145.861 162.364 145.923 162.415 145.99 162.415C146.201 162.425 146.418 162.431 146.634 162.436C146.866 162.431 147.077 162.42 147.288 162.415C147.35 162.41 147.412 162.358 147.417 162.291C147.422 162.225 147.371 162.158 147.309 162.142C147.309 162.142 146.639 162.116 146.634 162.116C146.634 162.121 145.985 162.142 145.985 162.142ZM165.391 161.215C165.262 161.215 165.112 161.256 164.989 161.328L164.932 161.359C164.824 161.415 164.68 161.488 164.659 161.673C164.659 161.766 164.731 161.828 164.772 161.854C164.819 161.879 164.865 161.895 164.927 161.895C164.963 161.895 165.004 161.889 165.045 161.884L165.097 161.879C165.308 161.864 165.545 161.833 165.669 161.694C165.731 161.627 165.756 161.534 165.741 161.446C165.726 161.364 165.674 161.297 165.602 161.261C165.54 161.23 165.468 161.215 165.391 161.215ZM127.888 161.215C127.81 161.215 127.738 161.23 127.677 161.261C127.604 161.297 127.553 161.364 127.537 161.446C127.522 161.534 127.548 161.632 127.609 161.694C127.738 161.828 127.97 161.864 128.181 161.879L128.238 161.884C128.274 161.889 128.315 161.895 128.351 161.895C128.408 161.895 128.459 161.884 128.501 161.859C128.521 161.848 128.635 161.776 128.619 161.668C128.609 161.493 128.454 161.41 128.351 161.359L128.294 161.328C128.166 161.261 128.011 161.215 127.888 161.215ZM166.2 161.684C166.287 161.684 166.369 161.642 166.421 161.57C166.467 161.508 166.472 161.426 166.447 161.354C166.431 161.307 166.4 161.23 166.307 161.173C166.266 161.148 166.22 161.132 166.168 161.132C166.101 161.132 166.04 161.158 165.983 161.204C165.921 161.251 165.885 161.328 165.88 161.421C165.875 161.503 165.926 161.585 166.009 161.622C166.029 161.637 166.055 161.652 166.081 161.663L166.148 161.673C166.148 161.678 166.189 161.684 166.2 161.684ZM127.11 161.132C127.064 161.132 127.017 161.148 126.971 161.173C126.888 161.22 126.852 161.287 126.826 161.354C126.801 161.431 126.811 161.508 126.857 161.57C126.909 161.642 126.991 161.684 127.079 161.684C127.084 161.684 127.167 161.673 127.167 161.673C127.213 161.658 127.249 161.642 127.274 161.627C127.352 161.591 127.403 161.519 127.403 161.431C127.393 161.302 127.342 161.235 127.295 161.199C127.239 161.158 127.171 161.132 127.11 161.132ZM145.32 161.23C145.712 161.23 146.17 161.24 146.618 161.307C147.108 161.235 147.566 161.23 147.958 161.23C148.133 161.23 148.896 161.24 149.102 161.24C149.354 161.24 149.612 161.235 149.884 161.225C149.951 161.22 150.008 161.168 150.008 161.101C150.008 161.034 149.962 160.978 149.89 160.967C148.566 160.833 147.391 160.256 146.742 159.427C146.716 159.396 146.68 159.375 146.639 159.375C146.598 159.375 146.562 159.396 146.536 159.427C145.887 160.261 144.713 160.838 143.388 160.967C143.322 160.972 143.27 161.029 143.27 161.101C143.27 161.168 143.327 161.225 143.394 161.225C143.667 161.235 143.924 161.24 144.177 161.24C144.383 161.24 145.145 161.23 145.32 161.23ZM156.854 158.329C156.798 158.329 156.731 158.381 156.715 158.437C156.7 158.494 156.731 158.566 156.783 158.597C157.236 158.901 157.545 159.344 157.869 159.813C158.158 160.231 158.462 160.658 158.874 160.983C158.894 160.998 158.967 161.024 158.992 161.024C159.065 161.024 159.137 160.983 159.168 160.921C159.198 160.859 159.193 160.792 159.152 160.735L158.936 160.431C158.395 159.669 157.782 158.808 156.922 158.35C156.906 158.34 156.875 158.329 156.854 158.329ZM136.419 158.329C136.398 158.329 136.372 158.334 136.352 158.345C135.491 158.803 134.878 159.664 134.337 160.426L134.121 160.73C134.08 160.792 134.075 160.859 134.106 160.916C134.136 160.978 134.203 161.019 134.281 161.019C134.312 161.019 134.379 160.993 134.399 160.978C134.816 160.658 135.115 160.225 135.409 159.808C135.733 159.339 136.042 158.901 136.501 158.592C136.547 158.561 136.573 158.484 136.558 158.432C136.537 158.381 136.475 158.329 136.419 158.329ZM145.475 156.304C145.423 156.304 145.367 156.34 145.346 156.392C145.326 156.438 145.341 156.505 145.377 156.541C145.63 156.845 145.727 157.154 145.66 157.474C145.506 158.247 144.445 158.901 143.826 159.221C142.564 159.88 141.07 160.107 139.623 160.328L139.005 160.426C138.907 160.442 138.845 160.524 138.85 160.627C138.855 160.73 138.938 160.813 139.041 160.813C141.4 160.684 143.219 160.2 144.61 159.329C145.037 159.061 146.031 158.35 146.098 157.464C146.129 157.051 145.949 156.67 145.562 156.335C145.537 156.315 145.506 156.304 145.475 156.304ZM147.798 156.304C147.762 156.304 147.726 156.32 147.7 156.351C147.324 156.675 147.144 157.057 147.175 157.469C147.242 158.35 148.241 159.066 148.664 159.334C150.055 160.205 151.873 160.689 154.222 160.818C154.33 160.818 154.413 160.741 154.418 160.632C154.423 160.529 154.361 160.447 154.258 160.431L153.64 160.334C152.192 160.112 150.698 159.885 149.442 159.226C148.823 158.906 147.762 158.247 147.608 157.479C147.546 157.16 147.638 156.85 147.901 156.536C147.927 156.505 147.942 156.449 147.927 156.407C147.917 156.346 147.855 156.304 147.798 156.304ZM160.476 158.489C160.43 158.489 160.383 158.515 160.358 158.556C160.337 158.597 160.337 158.649 160.358 158.69C160.816 159.617 161.429 160.576 162.408 160.576C162.526 160.576 162.65 160.56 162.773 160.529C162.851 160.514 162.908 160.437 162.908 160.349C162.908 160.261 162.846 160.194 162.763 160.179L162.681 160.164C162.192 160.076 161.81 160.009 161.465 159.653C161.187 159.365 160.893 158.989 160.584 158.54C160.564 158.515 160.517 158.489 160.476 158.489ZM132.797 158.489C132.756 158.489 132.715 158.51 132.689 158.546C132.39 158.984 132.086 159.365 131.808 159.658C131.463 160.014 131.082 160.081 130.592 160.169L130.505 160.184C130.422 160.2 130.366 160.267 130.36 160.354C130.36 160.442 130.417 160.519 130.499 160.534C130.618 160.56 130.742 160.576 130.86 160.576C131.844 160.576 132.447 159.617 132.915 158.68C132.931 158.649 132.936 158.602 132.921 158.571C132.9 158.52 132.848 158.489 132.797 158.489ZM152.234 158.34C152.177 158.34 152.115 158.386 152.105 158.443C152.089 158.499 152.12 158.566 152.172 158.597C152.981 158.834 153.63 159.226 154.32 159.643C154.537 159.772 154.753 159.901 154.974 160.03C154.995 160.04 155.051 160.055 155.072 160.055C155.165 160.055 155.252 159.994 155.278 159.906C155.304 159.823 155.278 159.741 155.206 159.69C154.258 158.927 153.29 158.489 152.244 158.345C152.249 158.34 152.239 158.34 152.234 158.34ZM141.019 158.34C139.978 158.479 139.01 158.922 138.057 159.684C137.99 159.736 137.964 159.818 137.995 159.901C138.026 159.988 138.108 160.05 138.201 160.05C138.221 160.05 138.283 160.035 138.299 160.024C138.52 159.901 138.731 159.772 138.948 159.643C139.643 159.226 140.298 158.834 141.081 158.607C141.142 158.587 141.189 158.52 141.179 158.453C141.168 158.391 141.106 158.34 141.039 158.34C141.029 158.34 141.024 158.34 141.019 158.34ZM157.282 162.838C156.983 162.838 156.746 162.595 156.746 162.302C156.746 162.008 156.989 161.766 157.282 161.766C157.499 161.766 158.591 162.054 159.472 162.302C158.585 162.549 157.499 162.838 157.282 162.838ZM135.991 162.838C135.775 162.838 134.683 162.549 133.802 162.302C134.688 162.054 135.775 161.766 135.991 161.766C136.29 161.766 136.527 162.008 136.527 162.302C136.527 162.595 136.29 162.838 135.991 162.838Z" fill="#D33756"/>
<path d="M127.604 13.4897C127.604 13.4945 127.604 13.4945 127.604 13.4997C126.255 13.1649 124.699 13.0208 123.431 13.2834C122.154 13.5411 121.103 14.2315 120.645 15.5248C120.176 16.8644 120.897 18.3584 121.701 19.3943C122.443 20.3576 123.504 20.9502 124.864 20.8627C125.714 20.806 126.389 20.0124 125.513 19.5128C125.332 19.4098 125.549 19.7084 125.575 19.7754C125.781 20.2753 124.972 20.5072 123.839 20.3061C122.989 20.1568 122.149 19.7187 121.711 18.9254C121.005 17.6577 121.536 16.1688 122.875 15.7514C124.019 15.3907 125.549 15.9214 126.651 16.2873C127.403 16.5347 128.145 16.8284 128.882 17.1322C129.387 17.9669 129.979 18.7502 130.525 19.4765C131.926 21.3316 133.673 22.9905 135.636 24.2015C136.784 24.9074 139.376 25.5051 139.195 23.3822C139.102 22.326 138.242 21.2438 137.645 20.4194C136.439 18.7606 134.981 17.3332 133.328 16.1533C131.849 15.1022 130.216 14.3345 128.516 13.7626C128.336 13.706 128.15 13.6493 127.96 13.5926C127.965 13.4997 127.97 13.4071 127.985 13.3196C128.176 11.7994 129.454 11.372 130.757 11.3924C133.132 11.4338 135.543 12.8249 137.49 14.1389C139.365 15.4063 141.086 16.9159 142.94 18.2195C145.016 19.6724 147.319 21.0068 149.859 21.1768C152.306 21.3419 154.681 19.7601 155.68 17.5188C155.732 17.4003 155.422 17.0654 155.35 17.1992C154.088 19.4354 150.992 19.8168 148.715 19.2395C146.485 18.678 144.316 17.1529 142.461 15.7822C139.03 13.2526 135.661 10.2642 131.257 10.125C129.17 10.058 127.496 11.2172 127.604 13.4897ZM136.908 21.9549C136.738 21.7797 136.965 22.0323 137.062 22.1405C137.032 22.1146 137.31 22.496 137.294 22.4649C138.041 23.6037 136.285 24.0674 135.481 23.7274C134.296 23.2223 133.199 22.1663 132.287 21.2697C131.164 20.1672 130.211 18.848 129.356 17.5188C129.304 17.4362 129.248 17.3488 129.196 17.2662C129.768 17.5032 130.335 17.7454 130.906 17.9773C132.88 18.7758 134.77 19.9713 136.362 21.419C136.547 21.5839 136.728 21.7694 136.908 21.9549ZM130.463 15.6329C132.962 16.8695 135.203 18.5954 136.929 20.842C136.939 20.8575 136.918 20.8731 136.908 20.8627C133.25 17.1374 127.749 13.7111 122.473 14.9167C122.411 14.9322 122.391 14.8445 122.443 14.8189C124.982 13.7575 128.052 14.4375 130.463 15.6329ZM135.996 12.4179C141.421 15.0456 146.083 21.7127 152.754 19.9868C152.759 19.9868 152.764 19.992 152.759 19.9972C149.73 21.1409 146.577 20.1772 143.95 18.3535C141.235 16.4677 138.763 14.247 135.955 12.5053C135.898 12.4745 135.945 12.3868 135.996 12.4179Z" fill="#D33756"/>
<path d="M97.164 35.8921C89.9004 38.2831 80.4938 43.7703 81.89 52.7614C82.4103 56.1102 85.1767 58.9701 88.5509 59.6759C91.0597 60.2064 94.8613 58.6197 94.4492 55.7395C93.8209 56.4761 93.5426 56.9398 92.4504 56.8213C89.5502 56.4917 88.1955 53.7762 88.4838 51.1537C88.8548 47.8098 91.281 45.2543 94.2227 43.2344C93.8413 43.8992 93.553 44.6203 93.388 45.4191C92.8988 47.6913 94.1145 50.35 96.1389 51.5866C97.4012 52.3541 99.8634 52.9467 101.687 51.6019C103.511 50.2571 103.397 48.459 102.893 47.5265C102.609 47.0061 101.543 46.1406 100.739 46.568C102.645 47.4954 100.992 49.5308 99.4875 49.6493C97.6792 49.7934 96.1751 47.7016 95.9792 46.1095C95.66 43.5281 98.5809 41.3333 100.554 40.2152C101.739 39.5505 103.001 38.922 104.15 38.2057C104.52 37.9739 108.456 35.851 110.012 34.9443C109.682 35.377 109.373 35.8458 109.116 36.3817C108.523 37.5976 108.25 39.1331 109.131 40.3852C109.96 41.56 111.722 42.0959 112.768 41.1682C111.521 41.1116 110.609 40.5397 110.337 39.2361C109.976 37.5154 111.351 35.9336 112.459 34.7381C114.55 32.4864 116.426 30.3946 117.961 27.2877C118.61 25.9584 118.898 24.387 118.945 22.8204C119.012 20.6308 118.471 18.302 117.147 16.854C116.982 16.6736 115.957 15.6792 115.452 15.7825C115.369 16.1377 115.514 16.5603 115.684 16.9621C115.787 18.2502 116.003 19.4457 115.091 20.6668C113.989 22.1404 111.444 21.1101 112.608 19.2654C110.599 20.2442 111.846 23.2534 114.458 22.3156C115.401 21.9756 115.993 20.9967 116.286 19.9713C116.286 19.9971 116.286 20.0176 116.286 20.0383C116.256 21.6974 115.622 23.2844 114.71 24.6548C113.108 27.0765 108.059 29.8587 106.025 27.0969C105.371 28.8128 107.441 30.5646 108.76 30.8119C109.986 31.0386 111.176 30.843 112.109 30.199C110.682 31.59 108.564 32.4041 106.725 32.9552C103.583 33.9085 100.332 34.8514 97.164 35.8921ZM115.54 27.6072C116.997 25.1185 117.409 22.63 117.43 19.7653C117.43 19.5435 117.796 19.4716 117.842 19.7135C119.651 28.7253 110.414 34.3877 103.228 36.9743C98.7303 38.5972 93.8105 39.9627 90.1013 43.0489C87.9739 44.8214 86.0421 47.2739 85.5629 50.0716C85.2178 52.1018 84.9911 55.2191 87.0825 56.4917C87.1136 56.5072 87.0981 56.5587 87.0621 56.538C83.9659 55.3014 84.1412 50.4171 85.1252 47.9438C86.9898 43.2603 91.2347 40.3904 95.8401 38.5405C100.404 36.7062 105.556 35.8562 109.734 33.2233C112.021 31.7808 114.169 29.9412 115.54 27.6072Z" fill="#D33756"/>
<path d="M106.73 86.6024C108.57 87.1538 110.687 87.973 112.114 89.3589C111.181 88.7149 109.991 88.519 108.765 88.7459C107.447 88.9879 105.376 90.7396 106.03 92.4607C108.06 89.6989 113.113 92.4814 114.715 94.9028C115.627 96.2735 116.261 97.8656 116.292 99.5196C116.297 99.54 116.297 99.5607 116.292 99.5866C115.993 98.5663 115.401 97.5823 114.463 97.2472C111.851 96.3094 110.609 99.3134 112.613 100.293C111.444 98.4478 113.994 97.4175 115.097 98.8908C116.008 100.112 115.792 101.307 115.689 102.595C115.519 102.997 115.375 103.42 115.457 103.775C115.962 103.878 116.987 102.884 117.152 102.704C118.476 101.251 119.017 98.9271 118.95 96.7372C118.903 95.1709 118.615 93.5995 117.966 92.2699C116.431 89.163 114.556 87.0712 112.464 84.8198C111.357 83.6191 109.981 82.0374 110.342 80.3215C110.62 79.0182 111.526 78.4512 112.773 78.3894C111.732 77.462 109.966 77.9927 109.136 79.1726C108.25 80.4248 108.528 81.96 109.121 83.1762C109.378 83.7118 109.687 84.1806 110.017 84.6136C108.466 83.7069 104.526 81.584 104.155 81.3522C103.006 80.6359 101.749 80.0074 100.559 79.3426C98.5859 78.2297 95.6649 76.0298 95.9844 73.4484C96.1801 71.8562 97.6845 69.7693 99.4927 69.9086C100.997 70.0323 102.651 72.0674 100.744 72.9896C101.553 73.4121 102.615 72.5466 102.898 72.0314C103.403 71.0989 103.521 69.3056 101.692 67.9557C99.8686 66.6109 97.4061 67.2087 96.1441 67.9712C94.1145 69.2078 92.9037 71.8614 93.3933 74.1388C93.5634 74.9321 93.8466 75.6535 94.2279 76.3235C91.2914 74.3036 88.865 71.7533 88.4891 68.4042C88.2004 65.7814 89.5502 63.0662 92.4556 62.7363C93.5478 62.6129 93.8259 63.0766 94.4544 63.8184C94.8666 60.9382 91.0646 59.3512 88.5559 59.8819C85.1764 60.593 82.4153 63.4474 81.8952 66.7965C80.4939 75.7824 89.9057 81.2748 97.1693 83.6655C100.332 84.7062 103.583 85.6491 106.73 86.6024ZM109.734 86.3397C105.556 83.7069 100.405 82.8566 95.8402 81.0222C91.2348 79.1778 86.9899 76.3079 85.1249 71.6192C84.1464 69.146 83.9711 64.2614 87.0622 63.0248C87.093 63.0095 87.1085 63.0559 87.0826 63.0714C84.9859 64.344 85.2127 67.4612 85.563 69.4912C86.0422 72.2889 87.9739 74.7417 90.1014 76.5139C93.8106 79.6004 98.7303 80.9656 103.228 82.5888C110.409 85.1753 119.651 90.8377 117.842 99.8493C117.796 100.086 117.43 100.019 117.43 99.7978C117.409 96.9331 116.997 94.4391 115.54 91.9558C114.169 89.6167 112.021 87.7771 109.734 86.3397Z" fill="#D33756"/>
<path d="M10.2015 112.344V111.88H31.6318C32.6106 111.88 34.0016 112.086 34.6713 111.21L37.1953 121.412L36.7317 121.567C34.7743 116.569 30.859 114.559 24.5742 114.559C18.1349 114.559 19.1652 114.714 19.1652 118.63V123.576C33.1773 123.576 39.8227 129.708 39.8227 136.045C39.8227 142.074 35.5471 145.783 25.5531 145.783H10.15V145.319C13.4471 144.856 13.4986 142.176 13.4986 139.394V118.269C13.4986 115.642 13.4986 112.808 10.2015 112.344ZM23.5954 143.413C30.1378 143.413 33.847 140.064 33.847 135.89C33.847 131.047 29.8802 125.895 19.1652 125.895V139.549C19.1652 143.362 18.8046 143.413 23.5954 143.413Z" fill="#D33756"/>
<path d="M55.3184 119.866C63.2002 119.866 69.2274 124.555 69.2274 132.748C69.2274 141.146 62.8911 146.298 54.8032 146.298C46.9729 146.298 40.9972 141.352 40.9972 133.263C40.9972 124.967 47.282 119.866 55.3184 119.866ZM55.2669 143.825C60.3671 143.825 63.3033 138.776 63.3033 133.469C63.3033 128.368 61.0883 122.34 55.0093 122.34C49.1882 122.34 46.8699 127.028 46.8699 132.232C46.8699 137.436 49.1366 143.825 55.2669 143.825Z" fill="#D33756"/>
<path d="M77.5729 131.099V139.446C77.5729 142.228 77.6245 145.319 80.6637 145.319V145.783H69.2275V145.319C72.267 145.319 72.3185 142.228 72.3185 139.446V126.719C72.3185 123.937 72.267 120.845 69.2275 120.845V120.382H80.6637V120.845C77.6245 120.845 77.5729 123.937 77.5729 126.719V128.78H89.7304V126.719C89.7304 123.937 89.6789 120.845 86.6397 120.845V120.382H98.0759V120.845C95.0367 120.845 94.9852 123.937 94.9852 126.719V139.446C94.9852 142.228 95.0367 145.319 98.0759 145.319V145.783H86.6397V145.319C89.6789 145.319 89.7304 142.228 89.7304 139.446V131.099H77.5729Z" fill="#D33756"/>
<path d="M107.359 137.179V139.446C107.359 142.228 107.411 145.319 110.45 145.319V145.783H99.0135V145.319C102.053 145.062 102.104 142.073 102.104 139.446V126.719C102.104 124.091 102.053 121.103 99.0135 120.845V120.382H110.45V120.845C107.411 120.845 107.359 123.937 107.359 126.719V134.293L119.516 123.679C119.516 123.679 119.465 121.103 116.425 120.845V120.382H127.862V120.845C124.822 120.845 124.771 123.937 124.771 126.719V139.446C124.771 142.228 124.822 145.319 127.862 145.319V145.783H116.425V145.319C119.465 145.062 119.516 142.073 119.516 139.446V126.565L107.359 137.179Z" fill="#D33756"/>
<path d="M135.435 139.033C135.435 141.97 135.486 145.01 138.783 145.319V145.783H128.738V145.319C132.035 144.856 132.086 142.228 132.086 139.394V118.63C132.086 115.796 132.035 112.808 128.738 112.344V111.88H141.771V112.344C140.535 112.653 140.741 113.735 141.565 115.281L147.489 126.101L153.362 116.569C154.65 114.456 155.422 112.756 153.722 112.344V111.88H166.137V112.344C162.841 112.859 162.789 115.487 162.789 118.269V139.033C162.789 141.867 162.841 144.804 166.137 145.319V145.783H153.774V145.319C157.071 144.959 157.122 142.279 157.122 139.394V115.435L145.841 133.726L135.435 115.435V139.033Z" fill="#D33756"/>
<path d="M135.435 139.033C135.435 141.97 135.486 145.01 138.783 145.319V145.783H128.738V145.319C132.035 144.856 132.086 142.228 132.086 139.394V118.63C132.086 115.796 132.035 112.808 128.738 112.344V111.88H141.771V112.344C140.535 112.653 140.741 113.735 141.565 115.281L147.489 126.101L153.362 116.569C154.65 114.456 155.422 112.756 153.722 112.344V111.88H166.137V112.344C162.841 112.859 162.789 115.487 162.789 118.269V139.033C162.789 141.867 162.841 144.804 166.137 145.319V145.783H153.774V145.319C157.071 144.959 157.122 142.279 157.122 139.394V115.435L145.841 133.726L135.435 115.435V139.033Z" fill="#D33756"/>
<path d="M185.147 141.146C183.137 144.804 178.862 146.298 174.895 146.298C170.207 146.298 166.756 144.083 166.756 140.27C166.756 132.181 178.759 130.326 184.734 128.883V127.904C184.786 124.091 183.343 122.752 179.532 122.752C174.638 122.752 170.619 125.173 168.559 129.759L169.383 121.309C170.362 122.082 170.928 122.185 172.68 121.567C175.925 120.433 178.089 119.866 181.592 119.866C188.135 119.866 190.298 122.082 190.298 128.523V138.209C190.298 141.301 190.35 144.598 193.956 145.319V145.783H186.898C185.868 144.443 185.198 142.846 185.147 141.146ZM172.629 139.6C172.629 142.022 174.586 143.413 176.801 143.413C183.395 143.413 184.941 137.333 184.734 132.284V130.996C180.665 131.872 172.629 134.293 172.629 139.6Z" fill="#D33756"/>
<path d="M185.147 141.146C183.137 144.804 178.862 146.298 174.895 146.298C170.207 146.298 166.756 144.083 166.756 140.27C166.756 132.181 178.759 130.326 184.734 128.883V127.904C184.786 124.091 183.343 122.752 179.532 122.752C174.638 122.752 170.619 125.173 168.559 129.759L169.383 121.309C170.362 122.082 170.928 122.185 172.68 121.567C175.925 120.433 178.089 119.866 181.592 119.866C188.135 119.866 190.298 122.082 190.298 128.523V138.209C190.298 141.301 190.35 144.598 193.956 145.319V145.783H186.898C185.868 144.443 185.198 142.846 185.147 141.146ZM172.629 139.6C172.629 142.022 174.586 143.413 176.801 143.413C183.395 143.413 184.941 137.333 184.734 132.284V130.996C180.665 131.872 172.629 134.293 172.629 139.6Z" fill="#D33756"/>
<path d="M221.31 133.417C221.31 142.073 214.768 146.092 206.783 145.783L201.168 145.577V150.266C201.168 152.996 201.219 155.985 204.207 156.191V156.655H192.771V156.191C195.81 155.985 195.862 153.048 195.862 150.317V126.719C195.862 123.937 195.81 121.051 192.771 120.845V120.382H206.422C215.386 120.382 221.31 124.71 221.31 133.417ZM201.111 138.518C201.111 141.97 201.626 143.619 206.314 143.619C212.341 143.619 215.741 138.827 215.741 133.108C215.741 126.462 211.105 122.546 204.665 122.546H201.111V138.518Z" fill="#D33756"/>
<path d="M230.057 137.179V139.446C230.057 142.228 230.109 145.319 233.148 145.319V145.783H221.711V145.319C224.753 145.062 224.802 142.073 224.802 139.446V126.719C224.802 124.091 224.753 121.103 221.711 120.845V120.382H233.148V120.845C230.109 120.845 230.057 123.937 230.057 126.719V134.293L242.214 123.679C242.214 123.679 242.165 121.103 239.123 120.845V120.382H250.56V120.845C247.521 120.845 247.469 123.937 247.469 126.719V139.446C247.469 142.228 247.521 145.319 250.56 145.319V145.783H239.123V145.319C242.165 145.062 242.214 142.073 242.214 139.446V126.565L230.057 137.179Z" fill="#D33756"/>
<path d="M283.128 112.344C279.83 112.808 279.781 115.796 279.781 118.63V139.343C279.781 142.177 279.83 144.804 283.128 145.319V145.783H270.764V145.319C274.062 144.856 274.114 142.279 274.114 139.033V129.811L268.136 127.75C264.685 132.335 261.543 137.642 259.997 141.352C259.174 143.31 259.278 144.907 261.439 145.319V145.783H250.572V145.319C252.169 144.907 253.147 142.692 254.897 139.033C257.062 134.499 260.049 129.656 263.192 125.637C258.915 123.37 255.361 121.361 255.361 117.136C255.361 113.632 258.348 111.88 263.192 111.88H283.128V112.344ZM267.566 114.25C264.527 114.25 261.436 114.611 261.436 118.321C261.436 123.112 270.45 126.359 274.108 127.389V118.578C274.114 114.25 274.114 114.25 267.566 114.25Z" fill="#D33756"/>
</svg>
