<svg width="90" height="71" viewBox="0 0 90 71" fill="none" xmlns="http://www.w3.org/2000/svg">
<path fill-rule="evenodd" clip-rule="evenodd" d="M51.6239 4.21358C52.3926 4.38373 53.1176 4.72317 53.7888 5.12503C54.1393 5.33622 54.4352 4.80953 54.1052 4.58551C53.3895 4.09815 52.6439 3.76726 51.8086 3.54239C51.1519 3.36625 50.2388 3.13027 49.6274 3.49109C49.5086 3.56291 49.5154 3.72793 49.6274 3.79976C50.1943 4.16057 50.9749 4.06823 51.6239 4.21358Z" fill="#D33756"/>
<path fill-rule="evenodd" clip-rule="evenodd" d="M48.6432 5.70213C49.0673 5.87313 49.564 5.83295 50.0146 5.89452C50.5618 5.96805 51.1048 6.06466 51.6486 6.1647C52.041 6.23566 52.2129 5.64741 51.8153 5.5602C51.2766 5.44391 50.7388 5.33106 50.195 5.24213C49.7 5.16262 49.122 5.03949 48.6432 5.21648C48.3987 5.30712 48.4098 5.60808 48.6432 5.70213Z" fill="#D33756"/>
<path fill-rule="evenodd" clip-rule="evenodd" d="M62.2645 2.08454C62.0619 1.7639 61.8763 1.43301 61.731 1.08245C61.5993 0.760111 61.5659 0.412117 61.3915 0.109439C61.3137 -0.0273641 61.0794 -0.0453195 61.0068 0.109439C60.669 0.820817 61.359 1.8135 61.7463 2.38808C61.961 2.707 62.474 2.41543 62.2645 2.08454Z" fill="#D33756"/>
<path fill-rule="evenodd" clip-rule="evenodd" d="M72.2905 4.46404C72.73 3.92965 73.1806 3.41065 73.6688 2.92072C73.9664 2.61975 74.2827 2.34444 74.6247 2.09734C74.8718 1.91864 75.1001 1.79039 75.2592 1.52276C75.3336 1.39793 75.2352 1.25514 75.0993 1.24659C74.4837 1.20726 73.9117 1.80664 73.4867 2.19054C72.8788 2.73946 72.3683 3.39441 71.8656 4.03739C71.6313 4.33836 72.0409 4.76672 72.2905 4.46404Z" fill="#D33756"/>
<path fill-rule="evenodd" clip-rule="evenodd" d="M74.6494 5.72354C75.625 5.14041 76.5972 4.52821 77.4667 3.79802C77.6249 3.66549 77.4556 3.35854 77.2572 3.44062C76.2038 3.87925 75.3104 4.59832 74.3399 5.19683C74.0073 5.40204 74.3108 5.92703 74.6494 5.72354Z" fill="#D33756"/>
<path fill-rule="evenodd" clip-rule="evenodd" d="M78.3235 9.61389C78.769 9.59166 79.17 9.43862 79.5599 9.22829C79.6591 9.17527 79.7172 9.0624 79.7181 8.9521C79.7207 8.77169 79.5933 8.63147 79.3983 8.63147C79.2513 8.63147 79.0931 8.73664 78.9631 8.79563C78.7579 8.88798 78.5484 8.94868 78.3244 8.96151C77.9054 8.98545 77.902 9.63441 78.3235 9.61389Z" fill="#D33756"/>
<path fill-rule="evenodd" clip-rule="evenodd" d="M52.1172 64.3002C52.1847 64.3652 52.2532 64.4319 52.3216 64.4968C52.3404 64.5148 52.3686 64.4866 52.3506 64.4686C52.2848 64.4002 52.2181 64.3318 52.1531 64.2651C52.13 64.242 52.0933 64.2771 52.1172 64.3002Z" fill="#D33756"/>
<path fill-rule="evenodd" clip-rule="evenodd" d="M78.5109 27.9711C75.6397 26.0721 72.2444 24.9674 68.7585 24.5151C68.7542 24.4766 68.7448 24.4416 68.7294 24.4082C70.3155 22.3946 72.1794 20.6008 73.8159 18.6283C74.4384 17.8784 75.1028 17.02 75.6029 16.0957C75.9791 15.6169 76.3135 15.1116 76.4836 14.5738C76.5067 14.5002 76.4682 14.4301 76.4101 14.3865C76.5708 14.148 76.7555 13.9086 76.8949 13.6538C77.1497 13.6572 77.3797 13.322 77.1497 13.0775C74.3846 10.1268 71.4912 7.38901 69.1014 4.10573C68.9988 3.96465 68.8363 3.95183 68.7166 4.01254C68.714 4.00142 68.7132 3.99031 68.7106 3.97748C68.6645 3.67823 68.1514 3.74748 68.1822 4.04931C68.4062 6.23388 68.5875 8.44497 69.1005 10.5774C68.4883 9.95579 67.853 9.34872 67.299 8.72712C66.2071 7.50444 65.0776 6.18001 63.6934 5.26856C63.7156 5.22496 63.7404 5.18306 63.7617 5.14116C63.7806 5.1044 63.7806 5.06848 63.7763 5.03428C63.8182 5.03685 63.8601 5.04027 63.9011 5.04198C64.8545 5.08217 65.9737 5.17023 66.9638 4.95904C66.9903 4.96674 67.0117 4.98298 67.0399 4.98298C67.216 4.98042 67.3896 4.977 67.564 4.98469C67.5683 4.98811 67.5683 4.98812 67.5726 4.99154C67.5905 5.00522 67.5982 5.01633 67.6461 5.05481C67.8761 5.24377 68.2934 4.99239 68.0916 4.7128C68.0574 4.66663 68.0317 4.6102 67.995 4.55547C68.0463 4.48365 68.0317 4.39473 67.9719 4.33231C68.0172 4.13908 67.8599 3.91421 67.6453 3.91421C67.405 3.91421 67.1639 3.90908 66.9236 3.91763C66.815 3.92105 66.6851 3.97662 66.6363 4.08179C66.6107 4.13822 66.6021 4.18098 66.5987 4.2263C65.5009 4.24767 64.3791 4.3819 63.2898 4.34172C61.7182 4.28358 60.1544 4.13652 58.5812 4.13652C58.417 4.13652 58.3212 4.23827 58.2896 4.35968C58.246 4.37422 58.2015 4.39559 58.1605 4.43492C56.8292 5.66786 55.793 7.37021 54.7011 8.8075C53.9743 9.76427 53.2493 10.7245 52.4977 11.6616C52.3079 11.8993 51.806 12.65 51.5461 12.8552C51.3751 12.8492 51.1989 12.986 51.269 13.1878C51.2913 13.251 51.3255 13.3023 51.3554 13.3562C51.2973 13.4075 51.2656 13.4836 51.299 13.5828C52.1625 16.1427 54.7455 18.4675 56.5787 20.3315C57.8698 21.6422 59.3507 23.0923 60.9735 24.2287C59.0292 23.7883 56.5744 24.4458 54.3659 25.5634C51.4392 21.7491 47.4086 18.6069 42.3614 16.5634C30.4527 11.7428 15.9849 15.1244 9.20113 26.0721C9.14641 26.0661 9.09084 26.0781 9.04638 26.1234C3.95985 31.3356 2.94665 39.9414 4.14454 46.8542C5.55276 54.9769 10.1263 61.5324 17.1605 65.7998C27.1703 71.8722 40.3273 70.7375 49.2554 63.923C50.4243 64.9739 51.7034 65.9238 53.1227 66.7232C63.6455 72.6519 76.3143 70.6529 83.1477 60.6013C90.028 50.4778 89.1507 35.0096 78.5109 27.9711ZM68.0044 22.8854C67.6632 23.159 67.305 23.4095 66.9407 23.6515C67.2947 22.8914 67.529 22.0552 67.735 21.2284C68.1018 20.3665 68.4285 19.4782 68.838 18.6616C68.9611 18.4162 68.614 18.2093 68.4686 18.4444C68.4584 18.4607 68.449 18.4761 68.4404 18.4915C68.8697 16.9131 69.3356 15.3612 69.9307 13.835C69.9367 13.8325 69.9419 13.8316 69.9478 13.8308C70.0624 13.8042 70.1163 13.735 70.1453 13.6563C70.8388 14.9927 71.5715 16.3103 72.3436 17.6014C71.9999 18.058 71.6579 18.5103 71.3125 18.9463C70.5062 19.9655 69.7366 21.0078 69.0407 22.0979C68.6516 22.2715 68.3276 22.6246 68.0044 22.8854ZM66.2524 23.3215C66.1661 23.6541 66.0797 23.9841 65.9908 24.3082C65.6095 24.2936 65.2281 24.2885 64.8485 24.2877C64.7048 22.6939 64.5415 21.0942 64.3509 19.5055C66.2387 18.0152 67.5905 15.9965 69.0509 14.1001C67.9214 16.6369 67.2195 19.5312 66.5278 22.257C66.4157 22.5451 66.302 22.8358 66.2122 23.1257C66.1849 23.2086 66.2105 23.271 66.2524 23.3215ZM63.7524 18.9558C63.7575 19.0344 63.7609 19.1148 63.7652 19.1926C63.7523 19.2182 63.7395 19.2456 63.7327 19.273C63.7199 19.2208 63.6959 19.1729 63.6438 19.131C61.7217 17.5946 60.1561 15.7332 58.4393 13.9958C61.3574 14.8995 65.0682 14.7208 68.1583 14.1864C66.892 15.7725 65.7711 17.4783 64.203 18.7899C64.0482 18.6368 63.7361 18.6804 63.7524 18.9558ZM64.1551 24.2979C63.9285 24.3031 63.7019 24.303 63.4753 24.3133C62.1013 22.7666 60.8607 21.3353 59.8141 19.5004C58.9642 18.0127 58.2289 16.4625 57.491 14.9158C57.4885 14.8816 57.4756 14.8542 57.4543 14.8363C57.3833 14.6892 57.3132 14.5413 57.2431 14.3934C57.4201 14.407 57.5979 14.4147 57.7766 14.4344C57.8638 14.4455 57.9297 14.4207 57.9784 14.3805C59.6183 16.2274 61.1958 18.2845 63.253 19.638C63.4454 19.7646 63.6651 19.6184 63.7284 19.4371C63.7378 19.4824 63.7592 19.5243 63.7823 19.5611C63.8507 21.1292 63.8438 22.7589 64.1551 24.2979ZM71.5279 20.3623C70.8995 21.0352 70.2591 21.6995 69.6392 22.3716C70.4489 21.166 71.3193 20.0032 72.235 18.86C72.3966 18.6591 72.5625 18.4573 72.7326 18.2555C72.7643 18.3059 72.7925 18.3555 72.8224 18.406C72.3787 18.9318 71.9392 19.4602 71.4954 19.9869C71.3851 20.1169 71.4287 20.2742 71.5279 20.3623ZM75.2002 15.2347C75.0934 15.4254 74.9848 15.6143 74.8779 15.805C74.8633 15.8306 74.8582 15.8563 74.8522 15.8802C74.6026 16.2222 74.3572 16.5668 74.0998 16.8823C73.8288 17.2166 73.5475 17.5407 73.2713 17.8707C73.2414 17.8186 73.2132 17.7698 73.1849 17.7185C74.0425 16.7062 74.9104 15.6631 75.5046 14.5088C75.4174 14.7593 75.3063 14.9944 75.2002 15.2347ZM75.6568 14.059C75.6124 13.9547 75.4832 13.894 75.3755 13.9949C74.4281 14.8884 73.5945 15.9504 72.7848 17.0208C72.1418 15.8879 71.498 14.755 70.8456 13.6255C72.4548 13.8547 74.1024 13.8641 75.7218 13.8624C75.7047 13.9299 75.6756 13.9923 75.6568 14.059ZM68.8192 4.72991C70.7883 7.97984 73.81 10.5577 76.4152 13.287C76.4024 13.3023 76.3896 13.3152 76.3776 13.3306C76.3246 13.2425 76.2408 13.1741 76.1066 13.1741C74.2349 13.1732 72.3889 13.116 70.5344 12.9099C70.513 12.8518 70.4925 12.7928 70.4686 12.7346C70.6387 12.7218 70.7986 12.5645 70.6754 12.3892C70.4933 12.1284 70.283 11.8804 70.0701 11.6325C69.3639 9.40345 69.1441 7.04787 68.8192 4.72991ZM66.8347 9.19226C67.5948 10.0464 68.4285 11.2571 69.3955 12.0771C69.3878 12.131 69.3904 12.1874 69.4203 12.2472C69.5118 12.4268 69.6058 12.6055 69.6982 12.7859C69.6913 12.7987 69.6854 12.8116 69.6794 12.8227C69.6417 12.8252 69.6101 12.8415 69.5776 12.8543C69.481 12.7987 69.3587 12.7987 69.2536 12.9082C69.121 13.0484 68.9971 13.1955 68.868 13.3408C65.3162 13.8786 61.2745 14.2189 57.8467 13.1578C58.7077 12.1865 59.4944 11.1537 60.2707 10.1106C61.2976 8.7297 62.5331 7.29839 63.4129 5.78586C64.6159 6.86746 65.754 7.97813 66.8347 9.19226ZM58.8471 4.78121C60.3733 4.82738 61.8961 4.94024 63.4223 5.01462C63.4061 5.03001 63.3924 5.04797 63.3761 5.06336C63.3642 5.05481 63.3539 5.04711 63.3419 5.04027C63.1034 4.90176 62.8324 5.23095 63.0273 5.42589C62.0551 6.4331 61.2796 7.69598 60.4648 8.81349C59.4071 10.2636 58.3076 11.6735 57.1636 13.0544C57.1174 13.0535 57.0721 13.0646 57.0319 13.0877C57.5586 10.3004 58.4675 7.59679 58.8471 4.78121ZM54.1787 10.5748C55.4997 8.86051 56.7651 7.09831 58.1434 5.42931C57.603 8.12519 56.7754 10.7578 56.335 13.4751C56.3342 13.4828 56.3316 13.4905 56.3308 13.4973C56.3265 13.5315 56.3179 13.5665 56.3111 13.6016C55.9101 13.599 55.5091 13.6136 55.1423 13.6084C54.4112 13.5973 52.72 13.7623 51.9941 13.2126C52.8312 12.7269 53.888 10.951 54.1787 10.5748ZM51.9488 13.894C52.4002 14.1052 52.9722 14.1531 53.4442 14.201C54.4283 14.3019 55.4168 14.3002 56.4043 14.3395C55.8306 15.6203 55.303 17.0636 55.3244 18.4008C53.9675 17.0687 52.6508 15.5716 51.9488 13.894ZM56.9575 19.9493C56.583 19.603 56.1914 19.2379 55.7998 18.8634C56.0914 18.0588 56.1726 17.1628 56.3957 16.3334C56.5317 15.8298 56.6941 15.3313 56.8711 14.8388C56.9797 15.0962 57.0943 15.3518 57.2054 15.6075C57.078 17.0576 56.7352 18.6001 57.0652 19.992C57.09 20.0989 57.2508 20.0972 57.2764 19.992C57.5646 18.8514 57.5611 17.5757 57.5287 16.3411C57.6005 16.4984 57.68 16.6515 57.7535 16.8088C57.6868 16.8182 57.627 16.8644 57.6372 16.9405C57.7202 17.5757 57.7151 18.2153 57.7168 18.854C57.7168 19.4671 57.6227 20.1536 57.8117 20.7427C57.5227 20.476 57.2362 20.2083 56.9575 19.9493ZM57.9955 20.9155C58.0511 20.9095 58.1032 20.8761 58.1272 20.8111C58.3469 20.2049 58.2298 19.4876 58.1879 18.8557C58.152 18.3196 58.063 17.7904 57.9707 17.262C58.1443 17.6288 58.3272 17.9896 58.5076 18.3512C58.4221 18.3778 58.3478 18.4367 58.3461 18.553C58.3366 18.9874 58.3281 19.4217 58.3178 19.8552C58.3076 20.2562 58.2238 20.6991 58.4401 21.0548C58.5051 21.1591 58.659 21.1591 58.7231 21.0548C58.9129 20.7436 58.8591 20.3956 58.8505 20.0408C58.842 19.6885 58.8343 19.3371 58.8274 18.984C58.9625 19.2447 59.1044 19.5004 59.2438 19.7586C59.1788 19.7988 59.1318 19.8638 59.1292 19.9621C59.1207 20.4332 59.113 20.9009 59.1464 21.3695C59.1617 21.5764 59.1746 21.8423 59.2609 22.0561C58.83 21.6798 58.4059 21.2976 57.9955 20.9155ZM59.6149 22.3562C59.6696 22.351 59.7201 22.328 59.7509 22.2741C59.9082 21.9988 59.7534 21.6679 59.7149 21.3703C59.6799 21.0899 59.6653 20.806 59.6577 20.5222C59.7346 20.6572 59.8167 20.8 59.8996 20.9462C59.8124 20.9744 59.7423 21.0497 59.7432 21.172C59.7517 21.7081 59.8577 22.5246 60.2844 22.8957C60.3665 22.9675 60.5221 22.9504 60.5477 22.8264C60.5956 22.5827 60.5358 22.3972 60.4545 22.1629C60.3938 21.9868 60.3442 21.8149 60.3058 21.6388C60.6905 22.2775 61.136 22.9282 61.6336 23.4942C61.5088 23.4899 61.3831 23.5677 61.3318 23.6866C60.7401 23.2762 60.1681 22.8273 59.6149 22.3562ZM46.7066 64.784C46.6049 64.8439 46.5066 64.9089 46.404 64.9696C46.3073 65.0277 46.2082 65.0816 46.1098 65.138C39.6895 68.7667 31.6386 69.6483 24.223 67.7133C24.2187 67.6646 24.1991 67.6184 24.1443 67.5894C17.8591 64.4044 12.9632 60.5175 8.99335 54.617C3.5101 46.4712 6.01617 38.8889 7.89465 30.1446C7.93483 29.9556 7.68176 29.894 7.6125 30.0659C4.42498 37.9885 3.47846 46.0633 7.64327 53.7329C10.3622 58.739 14.9315 63.6084 20.2027 66.3556C19.6999 66.1452 19.2006 65.9246 18.709 65.6861C5.29197 59.17 0.79882 41.312 7.86814 28.7303C7.93996 29.0476 8.38971 29.228 8.57354 28.8654C14.415 17.3261 26.818 13.3177 38.9619 16.3437C44.8222 17.8032 50.0498 21.2173 53.9333 25.7959C53.3955 26.0883 52.8696 26.397 52.3814 26.7296C52.3139 26.7493 52.2514 26.7792 52.1856 26.7997C52.0591 26.6142 51.8881 26.4526 51.7256 26.2884C51.5401 26.1029 51.2904 26.2286 51.2186 26.4167C51.0596 26.2799 50.8988 26.1507 50.78 26.0362C50.538 25.801 50.2054 26.0413 50.225 26.3038C49.9549 26.0704 49.6864 25.8327 49.4051 25.6138C49.2614 25.5018 49.0862 25.5668 49.0101 25.6839C48.6262 25.2966 48.2329 24.9204 47.8207 24.5613C47.6386 24.4022 47.4266 24.5946 47.4941 24.7836C39.6057 18.0434 24.63 17.7698 17.1374 25.0563C10.5196 30.5191 8.58466 38.0655 10.387 45.2134C10.2502 45.228 10.1177 45.3357 10.1519 45.5144C11.7961 54.2254 18.644 63.1287 28.133 63.7033C28.2579 63.7118 28.3271 63.6366 28.3647 63.546C31.1666 64.3642 34.1207 64.6344 37.1039 64.2727C37.9478 64.7524 38.9696 65.091 39.8793 64.9875C39.9913 64.9738 40.0563 64.8259 39.9417 64.7601C39.4655 64.4916 38.9208 64.3959 38.3941 64.2659C38.2573 64.2325 38.1308 64.177 37.9982 64.1359C38.483 64.0556 38.967 63.9555 39.4518 63.8452C39.4253 63.9341 39.4389 64.0376 39.5339 64.0872C40.2717 64.4745 41.9023 64.9858 42.4256 63.994C42.4846 63.8803 42.4119 63.7315 42.2768 63.7332C41.91 63.7383 41.5825 63.9239 41.2148 63.9624C40.7275 64.0128 40.2829 63.9239 39.8357 63.7554C40.341 63.6306 40.8455 63.4801 41.3499 63.3143C41.379 63.3647 41.4201 63.4109 41.4893 63.4348C41.8664 63.5596 42.2392 63.6306 42.6359 63.6503C43.0985 63.6734 43.4011 63.5434 43.7714 63.2843C43.8603 63.2228 43.8321 63.0774 43.7149 63.074C43.1891 63.0637 42.6658 63.1005 42.1477 63.0406C42.3734 62.944 42.4161 62.7003 42.3306 62.5293C43.0591 62.2267 43.7594 61.8599 44.4477 61.4606C44.1108 61.7444 43.7765 62.0317 43.4388 62.3122C43.2472 62.4738 43.4986 62.7918 43.7047 62.6576C46.0603 61.1348 48.5501 59.0494 49.9326 56.5374C52.7696 52.6804 54.3394 48.0513 54.607 43.3521C54.6498 43.4436 54.7644 43.4931 54.8533 43.3999C55.5681 42.6501 55.8229 41.4274 56.1623 40.4741C56.2632 40.1902 55.8255 40.0799 55.7186 40.3501C55.3663 41.2419 54.7943 42.1918 54.6164 43.1443C54.7105 41.2171 54.5942 39.2796 54.2488 37.384C54.289 37.3866 54.3334 37.3652 54.3514 37.3207C54.6019 36.6803 54.6395 35.9673 54.743 35.2926C54.7678 35.1353 54.5301 35.0652 54.5019 35.2259C54.3933 35.8304 54.2334 36.4392 54.1889 37.0548C54.0077 36.1314 53.7777 35.2165 53.4904 34.3179C53.7417 33.8656 53.7452 33.197 53.7409 32.743C53.7409 32.7242 53.7332 32.7113 53.7306 32.6942C53.7879 32.6523 53.8444 32.6079 53.9025 32.5668C54.3711 33.5433 54.7934 34.5436 55.1936 35.5586C55.0773 35.5107 54.9217 35.5372 54.8952 35.6817C54.7464 36.5102 54.3394 37.4404 54.5062 38.2886C54.5267 38.3929 54.6806 38.4066 54.7284 38.3177C55.1192 37.5995 55.2064 36.6658 55.3047 35.8544C55.3757 36.0382 55.4424 36.2272 55.5133 36.411C55.4142 36.3691 55.2962 36.3905 55.2774 36.5264C55.1465 37.4242 54.9636 38.3151 54.8567 39.2146C54.8413 39.3395 55.0439 39.3925 55.0935 39.2796C55.4467 38.481 55.5219 37.5944 55.6356 36.7359C55.7716 37.095 55.9118 37.4482 56.0401 37.8158C56.0914 37.9654 56.347 37.9518 56.3299 37.7765C56.1418 35.7569 55.4424 33.8819 54.4933 32.1291C55.3218 31.5844 56.2034 31.1432 57.1088 30.7568C60.0108 37.3019 59.1788 45.1237 57.031 51.8065C56.0007 55.0077 54.401 57.7481 52.3977 60.0447C52.3224 59.9677 52.2027 59.9292 52.1087 59.9899C51.0835 60.6543 50.32 61.7898 49.4478 62.6431C48.6108 63.4588 47.6873 64.165 46.7066 64.784ZM49.5598 29.6008C48.2517 30.6807 47.0657 31.911 46.1449 33.2637C47.2538 31.4468 48.5714 29.7282 50.2088 28.52C49.966 28.768 49.7385 29.0168 49.547 29.2605C49.4512 29.3853 49.4786 29.5221 49.5598 29.6008ZM17.9061 57.5369C19.0706 58.6193 20.3574 59.5778 21.7263 60.4072C22.3753 60.8484 23.0448 61.2502 23.7262 61.623C21.1962 60.591 18.9099 59.2623 16.7518 57.1256C14.6673 55.0633 13.1881 52.5307 12.0945 49.8357C13.4711 52.6128 15.4291 55.2343 17.9061 57.5369ZM15.2367 28.0284C15.2692 28.0438 15.3034 28.0523 15.3393 28.0609C10.694 34.1127 9.34562 41.2367 12.1997 48.4771C9.3328 41.701 10.1955 33.9776 15.2367 28.0284ZM22.5395 59.8061C20.0377 58.1371 17.7411 55.9106 15.6771 53.1592C8.08619 43.0408 11.4763 32.2009 19.9641 24.097C20.0625 24.0038 20.0753 23.8969 20.0445 23.8011C28.5622 18.217 42.3118 20.0562 48.8861 27.3666C49.1221 27.6308 49.3341 27.9095 49.5487 28.1866C46.6032 30.4276 44.6657 34.3991 43.1104 37.4464C40.4128 42.7373 40.1486 50.0264 43.2378 55.2052C43.8466 56.7887 44.6418 58.2996 45.5917 59.718C45.4387 59.8343 45.2899 59.954 45.1385 60.0746C38.5985 64.5121 29.6096 63.8025 22.5395 59.8061ZM47.9977 56.168C47.943 56.2065 47.902 56.2646 47.9002 56.3561C47.896 56.6895 47.9054 57.1718 48.0653 57.53C48.0311 57.5659 47.9969 57.6018 47.9627 57.6369C47.925 57.4274 47.872 57.2162 47.8387 57.0213C47.7438 56.4689 47.6574 55.9158 47.5813 55.3617C47.7087 55.6353 47.8609 55.8978 47.9977 56.168ZM52.5045 33.4612C55.0953 40.4535 53.929 48.9217 49.9951 55.0659C49.7539 55.4404 49.5017 55.7961 49.2435 56.1432C45.4763 48.8918 47.4437 39.714 52.5045 33.4612ZM57.4141 30.6242C65.4735 27.3692 75.9492 30.1608 80.4235 37.7688C84.6166 44.9005 82.7843 54.4896 77.0787 60.1823C70.5746 66.6711 59.3721 66.7634 52.7294 60.7398C54.3009 59.0084 55.651 57.0461 56.707 54.8607C60.7196 46.5558 60.7213 37.862 57.4141 30.6242ZM83.7368 58.3021C77.8157 69.6405 65.4402 71.596 54.4258 66.6061C52.6773 65.8143 51.1151 64.7721 49.7163 63.5596C49.8907 63.4211 50.0575 63.2706 50.2276 63.127C50.3157 63.5981 50.538 64.0838 50.9783 64.1941C51.0938 64.2223 51.1912 64.1402 51.1989 64.0273C51.2314 63.5596 50.8313 63.174 50.7107 62.7166C50.7919 62.6448 50.8672 62.5678 50.9467 62.496C51.1322 63.0791 51.4187 63.8957 51.9838 63.9341C52.0471 63.9393 52.1112 63.8854 52.1266 63.8256C52.142 63.764 52.1403 63.7101 52.136 63.6554C52.661 64.2796 53.2151 64.8593 53.9051 65.362C53.9837 65.4185 54.0778 65.2936 54.0085 65.2286C53.4399 64.7079 52.9064 64.1299 52.3891 63.54C52.4994 63.6383 52.6072 63.7418 52.738 63.8102C52.8312 63.8606 52.9338 63.8136 52.9722 63.7298C52.9808 63.7563 52.9816 63.7845 53.009 63.8102C53.7289 64.4514 54.4608 65.0773 55.2244 65.6656C55.8853 66.1752 56.7207 66.9344 57.5731 67.0302C57.6672 67.0404 57.739 66.9113 57.6842 66.8344C57.2807 66.2769 56.5599 65.9511 55.9964 65.5689C55.061 64.9328 54.1513 64.2565 53.2732 63.5451C53.1612 63.4536 53.0304 63.5169 52.9782 63.6135C52.7935 62.8987 52.2267 62.2976 51.8325 61.6615C51.8744 61.6213 51.918 61.5845 51.959 61.5427C52.8414 62.3891 53.7922 63.1775 54.8473 63.8606C55.0525 63.9923 55.2697 63.6973 55.103 63.528C54.9696 63.3929 54.8439 63.2595 54.7113 63.1236C55.9674 63.9119 57.3106 64.5233 58.706 64.9585C58.6231 65.0089 58.5752 65.1158 58.6658 65.2021C59.6936 66.1726 61.3583 67.0191 62.811 66.8267C62.9204 66.8113 63.0076 66.6463 62.876 66.5864C61.5609 65.9819 60.1194 66.0341 58.9771 65.032C59.927 65.3141 60.9017 65.5082 61.8876 65.6314C61.8961 65.6399 61.8953 65.651 61.9072 65.6579C62.8914 66.2487 64.0584 66.9438 65.2281 67.0293C65.3649 67.0396 65.3931 66.854 65.294 66.7891C64.5852 66.3248 63.7575 66.0657 62.9674 65.7357C64.0738 65.8126 65.1914 65.7759 66.3037 65.6604C66.2935 65.7271 66.3174 65.8024 66.3969 65.834C67.4563 66.253 68.7705 66.524 69.8863 66.1811C69.9735 66.1564 69.9735 66.0324 69.8863 66.0059C68.8654 65.6921 67.7769 65.881 66.7424 65.6202C69.0997 65.321 71.4227 64.5917 73.5697 63.4545C74.6573 63.6332 75.6953 63.4425 76.5529 62.7132C76.5999 62.6747 76.5494 62.5909 76.4947 62.6114C75.7115 62.8833 74.9403 63.1339 74.1272 63.1407C74.6847 62.8235 75.225 62.4729 75.7543 62.1018C77.0428 61.7675 78.4835 61.2802 79.389 60.3114C79.4446 60.2541 79.3915 60.1404 79.3069 60.1703C78.4852 60.4559 77.7029 60.8467 76.9137 61.2229C76.9385 61.2015 76.9659 61.1827 76.9915 61.163C77.5917 60.6586 78.1338 60.1062 78.6485 59.5342C79.4728 59.0426 80.3158 58.4517 80.8288 57.6848C80.8853 57.6001 80.7733 57.489 80.6895 57.5454C80.303 57.7942 79.9473 58.0892 79.5959 58.3868C84.1668 52.2887 84.4824 43.3572 80.633 36.8154C75.3841 27.8976 60.3596 25.713 52.7311 32.6617C52.6875 32.6617 52.6413 32.6746 52.5994 32.7156C47.7788 37.508 45.6404 44.8526 46.9383 51.5064C46.8024 51.0806 46.6596 50.6625 46.5476 50.2119C44.9085 43.6821 47.4762 37.5567 51.8727 32.796C52.0488 32.6062 51.7803 32.3394 51.5905 32.5121C45.1736 38.3562 44.1287 47.5861 47.4496 55.0539C47.2932 54.9727 47.0315 55.0633 47.0495 55.2762C47.0999 55.8379 47.1282 56.4023 47.2034 56.9623C47.2556 57.3436 47.2658 57.8156 47.4428 58.179C47.359 58.2611 47.2821 58.3543 47.1966 58.4355C46.8853 58.6689 46.5912 58.9348 46.2988 59.1683C46.2124 59.2367 46.1227 59.3034 46.0363 59.3718C45.2189 58.1525 44.4998 56.8606 43.9253 55.4857C43.9432 55.4258 43.9415 55.3557 43.9056 55.2813C43.7577 54.9787 43.6209 54.6734 43.4883 54.3673C43.4584 54.2835 43.4251 54.2031 43.3952 54.1194C41.4568 48.5643 42.3708 43.0503 44.4656 37.8765C44.5528 37.8911 44.6426 37.8594 44.6683 37.7431C44.7427 37.402 44.835 37.0736 44.9385 36.7539C45.2771 35.9869 45.6379 35.2277 46.0184 34.477C49.1939 31.1475 52.4438 28.0575 56.8121 26.2679C58.5128 25.5711 60.316 25.1649 62.1577 24.9913C62.1723 24.999 62.186 25.0067 62.2005 25.0144C62.2005 25.0367 62.2227 25.0589 62.233 25.082C61.2377 25.2017 60.2904 25.4086 59.5046 25.7096C59.1386 25.8498 59.29 26.4389 59.6679 26.3038C62.74 25.2068 65.5633 26.1772 68.6508 26.3842C68.8312 26.397 68.8833 26.1413 68.7397 26.0558C68.2087 25.7403 67.5846 25.5112 66.9211 25.3376C66.9553 25.2478 66.9544 25.1418 66.9108 25.0538C66.9758 25.0503 67.039 25.0469 67.104 25.0435C67.2417 25.0572 67.3811 25.0649 67.5179 25.082C67.5854 25.282 67.8872 25.4077 68.077 25.2307C68.1053 25.2128 68.1335 25.1923 68.1617 25.1726C70.1513 25.4531 72.1051 25.925 73.9365 26.5347C87.3091 30.9893 89.6296 47.0201 83.7368 58.3021Z" fill="#D33756"/>
<path fill-rule="evenodd" clip-rule="evenodd" d="M55.8784 63.8812C55.6321 63.7076 55.4064 64.1086 55.645 64.2804C56.9523 65.2304 58.3733 66.5736 59.9705 66.9755C60.0458 66.9934 60.1005 66.9019 60.0458 66.8472C58.8941 65.6493 57.2327 64.8311 55.8784 63.8812Z" fill="#D33756"/>
<path fill-rule="evenodd" clip-rule="evenodd" d="M65.9847 66.2589C65.4622 66.135 64.9544 65.9785 64.4508 65.7895C64.3379 65.7476 64.2567 65.9383 64.3687 65.9862C65.2793 66.3735 66.4438 67.1217 67.4656 66.7762C67.5451 66.7497 67.5391 66.6514 67.4656 66.6206C66.9996 66.4342 66.4737 66.3778 65.9847 66.2589Z" fill="#D33756"/>
<path fill-rule="evenodd" clip-rule="evenodd" d="M69.6861 65.3971C69.5656 65.374 69.5143 65.5493 69.6348 65.5826C70.3787 65.7896 71.2098 65.9648 71.922 65.5656C72.0007 65.5202 71.9613 65.4048 71.8776 65.4022C71.1286 65.3689 70.4386 65.5459 69.6861 65.3971Z" fill="#D33756"/>
<path fill-rule="evenodd" clip-rule="evenodd" d="M73.3798 64.4506C72.948 64.496 72.512 64.5028 72.0785 64.5139C71.8579 64.519 71.8579 64.8516 72.0785 64.8559C72.8471 64.8739 73.8663 65.0098 74.5426 64.5635C74.6247 64.5088 74.5854 64.4019 74.4956 64.3899C74.1228 64.3421 73.7509 64.4122 73.3798 64.4506Z" fill="#D33756"/>
<path fill-rule="evenodd" clip-rule="evenodd" d="M79.7326 34.5094C79.7856 34.5094 79.7856 34.4274 79.7326 34.4274C79.6804 34.4274 79.6804 34.5094 79.7326 34.5094Z" fill="#D33756"/>
<path fill-rule="evenodd" clip-rule="evenodd" d="M80.9399 36.6847H80.9434V36.2803H80.9399V36.6847Z" fill="#D33756"/>
<path fill-rule="evenodd" clip-rule="evenodd" d="M80.8117 35.5509C81.9377 37.4388 82.5764 39.4712 83.1459 41.5771C83.2091 41.8123 83.6118 41.7729 83.5819 41.519C83.31 39.2626 82.3669 37.2456 81.0724 35.3987C80.9621 35.2414 80.7099 35.3816 80.8117 35.5509Z" fill="#D33756"/>
<path fill-rule="evenodd" clip-rule="evenodd" d="M18.9603 60.3721C18.7799 60.1507 18.3925 60.4474 18.5627 60.6774C19.9923 62.6149 22.0546 64.5429 24.4786 65.0713C24.706 65.1218 24.8676 64.796 24.6427 64.6806C22.4488 63.5657 20.5301 62.3028 18.9603 60.3721Z" fill="#D33756"/>
<path fill-rule="evenodd" clip-rule="evenodd" d="M24.452 63.2715C24.2434 63.0757 23.939 63.3784 24.1391 63.5836C25.2344 64.7045 26.5511 65.8083 28.0867 66.2222C28.2355 66.2641 28.3826 66.0555 28.2483 65.9469C27.0231 64.9798 25.6072 64.3531 24.452 63.2715Z" fill="#D33756"/>
<path fill-rule="evenodd" clip-rule="evenodd" d="M27.284 63.7137C27.0369 63.5581 26.8309 63.9343 27.06 64.0993C28.3177 65.0048 29.6413 66.3839 31.1915 66.7464C31.3838 66.7901 31.5617 66.5412 31.3958 66.3959C30.2005 65.3425 28.6332 64.5627 27.284 63.7137Z" fill="#D33756"/>
<path fill-rule="evenodd" clip-rule="evenodd" d="M31.5462 65.1304C31.2709 65.0407 31.1598 65.4647 31.4274 65.5614C32.0738 65.7905 32.6834 66.0958 33.3683 66.1958C33.5128 66.2172 33.6188 66.0291 33.4735 65.947C32.8621 65.599 32.2132 65.3502 31.5462 65.1304Z" fill="#D33756"/>
<path fill-rule="evenodd" clip-rule="evenodd" d="M14.804 25.6471C16.9604 23.3206 19.9521 20.9864 23.1037 20.3032C23.1396 20.2947 23.1234 20.2434 23.0892 20.2485C19.6862 20.8547 16.6543 22.7247 14.586 25.4795C14.4911 25.6078 14.698 25.7617 14.804 25.6471Z" fill="#D33756"/>
<path fill-rule="evenodd" clip-rule="evenodd" d="M42.2169 20.4854C45.3164 21.5337 48.0969 22.7495 50.5713 24.9255C50.6808 25.0205 50.8646 24.8973 50.7808 24.7639C49.0101 21.9586 45.3343 20.9198 42.3324 20.0673C42.0605 19.9895 41.9544 20.3974 42.2169 20.4854Z" fill="#D33756"/>
<path fill-rule="evenodd" clip-rule="evenodd" d="M54.07 33.3417C54.0752 33.7051 54.0538 34.0522 53.9922 34.4122C53.9862 34.4506 54.0358 34.4643 54.0495 34.4284C54.1915 34.0736 54.2043 33.7213 54.212 33.3417C54.2146 33.2502 54.0692 33.2502 54.07 33.3417Z" fill="#D33756"/>
<path fill-rule="evenodd" clip-rule="evenodd" d="M54.365 34.2634C54.2624 34.8345 54.2599 35.4065 54.1915 35.9794C54.1812 36.0581 54.3086 36.0717 54.3274 35.9974C54.4659 35.445 54.5292 34.8995 54.6352 34.3395C54.6703 34.1608 54.3975 34.0864 54.365 34.2634Z" fill="#D33756"/>
<path fill-rule="evenodd" clip-rule="evenodd" d="M55.5073 38.0835C55.2431 39.0018 54.8421 39.8987 54.6865 40.8444C54.654 41.0402 54.9028 41.1684 55.0149 40.9846C55.5279 40.1399 55.6826 39.1412 55.8904 38.1887C55.9451 37.9399 55.5792 37.8364 55.5073 38.0835Z" fill="#D33756"/>
<path fill-rule="evenodd" clip-rule="evenodd" d="M55.4723 43.1709C55.4723 43.1307 55.4731 43.0914 55.474 43.0504C55.4748 43.0316 55.444 43.0316 55.444 43.0504C55.4449 43.0914 55.4449 43.1307 55.4458 43.1709C55.4475 43.1872 55.4723 43.1872 55.4723 43.1709Z" fill="#D33756"/>
<path fill-rule="evenodd" clip-rule="evenodd" d="M45.4018 52.0409C45.3856 51.8716 45.1581 51.8733 45.1402 52.0409C45.0359 52.9951 44.6246 54.4315 45.3018 55.2472C45.365 55.325 45.4882 55.2746 45.513 55.1908C45.6498 54.7462 45.5489 54.2742 45.5232 53.8168C45.4916 53.2217 45.4582 52.6343 45.4018 52.0409Z" fill="#D33756"/>
<path fill-rule="evenodd" clip-rule="evenodd" d="M45.9072 56.6178C45.9397 56.6999 46.0406 56.6999 46.0731 56.6178C46.4271 55.7465 46.1603 54.6213 46.0449 53.7184C46.0167 53.5004 45.6729 53.4927 45.696 53.7184C45.7935 54.647 45.5524 55.7457 45.9072 56.6178Z" fill="#D33756"/>
<path fill-rule="evenodd" clip-rule="evenodd" d="M47.2599 58.0328C47.265 57.4702 47.1017 56.9221 47.0205 56.3681C46.9221 55.6918 46.8743 54.9983 46.9085 54.3177C46.9204 54.057 46.5408 54.0715 46.5109 54.3177C46.3664 55.5071 46.2338 57.0666 46.9042 58.1303C47.0051 58.2893 47.2582 58.2269 47.2599 58.0328Z" fill="#D33756"/>
<path fill-rule="evenodd" clip-rule="evenodd" d="M0.757833 44.1705C0.633 46.9117 1.04598 49.7956 2.31312 52.2581C2.41657 52.4599 2.71241 52.3154 2.66624 52.1093C2.06516 49.4536 1.2204 46.9065 1.00494 44.1705C0.992965 44.0123 0.765528 44.0089 0.757833 44.1705Z" fill="#D33756"/>
<path fill-rule="evenodd" clip-rule="evenodd" d="M0.469641 52.0982C0.367038 51.8143 -0.0869892 51.9349 0.0147584 52.223C0.353347 53.1849 0.98948 53.8348 1.7171 54.5213C1.88041 54.6752 2.11727 54.4384 1.96337 54.2742C1.35716 53.6313 0.774028 52.9404 0.469641 52.0982Z" fill="#D33756"/>
<path fill-rule="evenodd" clip-rule="evenodd" d="M86.6798 35.3277C86.7824 35.5526 87.1312 35.3901 87.0696 35.1636C86.2651 32.1556 83.877 29.9864 81.8643 27.7539C81.7215 27.5949 81.5017 27.8249 81.6334 27.9848C83.5581 30.3053 85.4169 32.5711 86.6798 35.3277Z" fill="#D33756"/>
<path fill-rule="evenodd" clip-rule="evenodd" d="M87.7434 31.3178C87.6245 31.0279 87.1508 31.1451 87.2637 31.4495C88.518 34.8721 89.173 38.3076 89.5064 41.932C89.5338 42.2304 89.957 42.2364 89.975 41.932C90.1793 38.2973 89.1071 34.6489 87.7434 31.3178Z" fill="#D33756"/>
<path fill-rule="evenodd" clip-rule="evenodd" d="M11.903 18.8626C13.0889 18.2 14.3115 17.3963 15.3889 16.5712C15.5932 16.4138 15.4872 16.0402 15.2016 16.1266C13.8669 16.5293 12.6118 17.5211 11.5344 18.383C11.2548 18.6053 11.6105 19.0259 11.903 18.8626Z" fill="#D33756"/>
<path fill-rule="evenodd" clip-rule="evenodd" d="M85.0679 62.014C84.2933 64.0481 82.9056 65.6444 81.57 67.3228C81.3657 67.5785 81.6743 67.8957 81.93 67.6836C83.6435 66.2557 84.7866 64.2199 85.4646 62.1243C85.5476 61.8686 85.1594 61.7703 85.0679 62.014Z" fill="#D33756"/>
</svg>
