<svg width="300" height="233" viewBox="0 0 300 233" fill="none" xmlns="http://www.w3.org/2000/svg">
<g opacity="0.8">
<path d="M209.508 77.3261C209.763 72.8573 210.833 63.5158 211.753 59.2139C216.002 39.3532 240.01 42.945 252.817 40.4809C269.482 37.2733 279.375 28.6835 287.368 9.95044C288.069 8.30489 289.655 1.38579 289.963 1.0099C292.99 -2.6543 290.863 4.81057 290.863 5.08344V36.5438C290.863 39.5592 286.856 53.2165 285.537 56.5577C284.644 58.8241 278.973 68.4162 278.999 69.1763C279.111 72.3811 291.948 72.2141 294.015 72.0192C296.033 71.827 297.479 69.1067 300 70.9249C295.799 82.4688 296.164 95.6555 292.47 107.341C286.872 125.05 276.671 135.681 261.607 137.34C263.719 147.469 264.307 188.012 259.121 194.492C252.5 198.017 246.356 205.147 239.693 207.856C218.009 216.666 190.361 221.508 168.41 212.445C157.624 207.993 147.484 198.635 136.182 194.102C124.994 189.616 112.329 187.57 100.732 185.119C99.6068 186.35 106.82 216.686 104.849 222.374C101.638 231.649 76.1072 225.172 69.1827 224.741C53.0991 223.738 37.815 226.854 22.4828 232.851C21.4889 233.464 19.4334 232.041 19.3941 231.147C19.3482 230.064 24.6737 214.867 25.364 210.813C27.6838 197.173 27.035 181.809 30.9101 168.182C30.6655 165.86 13.5071 149.986 10.6631 146.695C8.96361 144.727 -1.49081 132.428 0.180244 130.357L40.5209 131C40.7787 133.823 38.5511 134.486 36.275 135.001C26.1678 137.293 15.8008 135.784 5.66087 135.023C8.77361 143.608 32.3518 160.976 33.811 167.291C35.2964 173.726 29.9993 205.376 28.0202 213.03C26.6637 218.275 24.1975 222.925 23.0376 228.224C36.1767 222.452 51.5373 217.741 65.5239 218.919C73.711 219.606 82.822 223.151 91.0899 223.61C110.904 224.713 101.791 212.033 89.7771 207.815C76.8281 203.268 67.9551 208.978 57.387 207.152C52.9724 206.389 47.2405 202.806 46.1112 197.064C43.5926 184.245 39.9557 157.785 39.4882 144.883C39.1474 135.508 44.7438 110.179 38.6647 103.129C37.0679 101.277 33.7542 104.042 34.901 99.4756C35.1806 98.3646 43.3239 96.8639 45.5935 95.611C46.5525 95.0792 53.7195 88.057 52.2734 92.4674C50.8557 96.7943 41.8189 99.5424 41.3777 101.92C45.5193 112.331 46.4171 122.87 45.8732 134.419C45.2375 147.87 43.9225 157.513 44.9841 171.699C45.6241 180.238 48.0335 189.402 47.8959 198.281C51.7841 206.874 55.6286 194.375 58.654 190.329C76.828 166.041 103.711 178.412 125.802 186.367C158.963 198.309 173.869 218.125 211.672 211.76C226.983 209.182 244.097 203.747 256.592 192.117C257.153 180.066 257.396 167.525 257.081 155.357C256.605 136.989 255.155 127.085 257.166 107.79C257.623 103.415 259.641 97.159 259.731 93.5171C260.035 81.2687 242.612 86.0551 237.339 86.03C232.037 86.0049 222.393 83.3988 218.337 78.9049C216.838 77.2454 214.846 72.2113 214.527 72.086C212.31 71.2368 212.976 78.5512 213.16 79.4116C213.75 82.1848 229.733 93.893 213.166 88.405V105.882C222.417 106.361 232.192 104.568 240.613 99.5035C244.331 97.2676 246.994 93.8067 250.644 91.9105C245.622 99.8042 236.399 105.378 228.737 107.67C168.146 125.785 130.4 34.695 65.9542 78.451L52.2734 91.0726C58.0314 82.5246 69.6043 73.2136 77.8918 69.1986C123.607 47.0547 150.713 83.7496 190.991 100.94C197.03 103.518 203.219 104.83 209.51 105.882C209.896 96.5381 208.977 86.5869 209.508 77.3261ZM295.43 75.5859C292.315 78.4872 276.876 73.4419 276.295 70.2177C285.22 52.7932 289.72 33.6508 289.026 12.6568C286.5 15.082 285.59 19.356 283.528 22.5329C276.658 33.1107 267.71 38.7796 257.228 41.4442C247.415 43.939 212.02 42.6415 216.316 63.9446C221.297 88.6389 253.374 73.8763 260.699 87.8064C263.735 93.5784 261.57 95.3381 261.568 100.584C261.564 111.668 261.66 122.769 261.612 133.843C287.075 132.523 291.114 101.311 295.43 75.5859ZM82.4091 182.8C82.2868 182.672 79.8075 182.669 79.7071 182.781C78.9644 183.605 84.0234 194.6 81.0745 194.402C77.5598 191.949 78.9709 182.758 74.2177 183.95C74.7638 185.687 78.3899 194.97 77.87 195.583C74.8861 199.108 72.7454 185.253 71.0176 185.125C67.1359 184.841 73.4029 196.513 72.3828 197.914C68.0315 197.914 68.9162 190.713 65.9979 188.597C65.3273 191.089 69.5628 199.094 68.7262 200.241C66.4064 203.427 64.8096 190.967 63.7043 190.95C63.5492 190.947 61.0066 191.994 61.5046 193.706C61.9153 195.118 66.0525 200.33 65.0695 201.408C60.7008 202.549 60.3403 199.913 57.7737 196.755L55.0191 202.566C66.5265 203.19 78.6105 198.406 89.7465 203.741C87.8745 198.014 85.227 192.685 83.1627 187.052C82.6778 185.735 82.5402 182.942 82.4091 182.8ZM98.7702 184.103C97.9336 183.037 88.3572 182.494 86.5376 182.778C85.2947 182.973 84.8928 182.146 85.2838 184.382C86.3782 190.627 90.9304 196.649 92.1056 201.411C92.4748 202.9 91.529 204.713 91.612 204.855C91.9811 205.487 101.228 208.742 102.545 211.908C100.861 208.057 99.6221 185.189 98.7702 184.103Z" fill="#D33756"/>
<path d="M52.2734 91.0726C52.5126 91.2122 52.5456 91.6373 52.2734 92.4674C50.8557 96.7943 41.8189 99.5424 41.3777 101.92C45.5193 112.331 46.4171 122.87 45.8732 134.419C45.2375 147.87 43.9225 157.513 44.9841 171.699C45.6241 180.238 48.0335 189.402 47.8959 198.281C51.7841 206.874 55.6286 194.375 58.654 190.329C76.828 166.041 103.711 178.412 125.802 186.367C158.963 198.309 173.869 218.125 211.672 211.76C226.983 209.182 244.097 203.747 256.592 192.117C257.153 180.066 257.396 167.525 257.081 155.357C256.605 136.989 255.155 127.085 257.166 107.79C257.623 103.415 259.641 97.159 259.731 93.5171C260.035 81.2687 242.612 86.0551 237.339 86.03C232.037 86.0049 222.393 83.3988 218.337 78.9049C216.838 77.2454 214.846 72.2113 214.527 72.086C212.31 71.2368 212.976 78.5512 213.16 79.4116C213.75 82.1848 229.733 93.893 213.166 88.405V105.882C222.417 106.361 232.192 104.568 240.613 99.5035C244.331 97.2676 246.994 93.8067 250.644 91.9105C245.622 99.8042 236.399 105.378 228.737 107.67C168.146 125.785 130.4 34.695 65.9542 78.451L52.2734 91.0726Z" fill="#FBF8F3"/>
</g>
<path d="M86.4628 126.256C86.5694 126.512 86.6121 126.715 86.5908 126.864C86.5908 127.035 86.6014 127.237 86.6228 127.472C86.6014 127.493 86.4948 127.589 86.3028 127.76C86.1108 127.931 85.8868 128.112 85.6308 128.304C85.3748 128.496 85.1294 128.667 84.8948 128.816C84.6814 128.987 84.5321 129.072 84.4468 129.072C84.2761 129.072 84.1374 128.976 84.0308 128.784C83.9454 128.613 83.8281 128.496 83.6788 128.432C83.4654 128.347 83.2948 128.229 83.1668 128.08C83.0601 127.952 82.9748 127.803 82.9108 127.632C82.8468 127.461 82.7934 127.28 82.7508 127.088C82.7294 126.896 82.6974 126.715 82.6548 126.544C82.5481 126.181 82.4308 125.808 82.3028 125.424C82.1961 125.019 82.1428 124.645 82.1428 124.304C82.1428 124.197 82.1428 124.101 82.1428 124.016C82.1641 123.931 82.1748 123.845 82.1748 123.76C82.1748 123.419 82.1214 123.109 82.0148 122.832C81.9081 122.555 81.8548 122.277 81.8548 122C81.8548 122.043 81.8441 121.915 81.8228 121.616C81.8014 121.296 81.7588 120.955 81.6948 120.592C81.6308 120.208 81.5241 119.856 81.3748 119.536C81.2468 119.216 81.0761 119.056 80.8628 119.056C80.6921 119.056 80.5108 119.099 80.3188 119.184C80.1268 119.248 79.9241 119.323 79.7108 119.408C79.4974 119.493 79.2841 119.579 79.0708 119.664C78.8788 119.728 78.6868 119.76 78.4948 119.76C78.3454 119.76 78.2068 119.813 78.0788 119.92C77.9508 120.027 77.8121 120.08 77.6628 120.08C77.6201 120.08 77.5668 120.08 77.5028 120.08C77.4601 120.059 77.4174 120.048 77.3748 120.048C77.2681 120.048 77.0761 120.133 76.7988 120.304C76.5214 120.453 76.2761 120.528 76.0628 120.528C75.6788 120.528 75.3481 120.763 75.0708 121.232C74.8148 121.68 74.5908 122.213 74.3988 122.832C74.2068 123.429 74.0468 124.016 73.9188 124.592C73.7908 125.168 73.6628 125.584 73.5348 125.84C73.4708 125.968 73.3748 126.171 73.2468 126.448C73.1401 126.725 73.0014 127.003 72.8307 127.28C72.6601 127.557 72.4681 127.803 72.2548 128.016C72.0414 128.229 71.8068 128.336 71.5508 128.336C71.4441 128.336 71.2734 128.283 71.0388 128.176C70.8254 128.069 70.7188 127.888 70.7188 127.632C70.7188 127.355 70.7614 127.067 70.8468 126.768C70.9321 126.469 71.0281 126.16 71.1348 125.84C71.2628 125.52 71.3801 125.211 71.4868 124.912C71.5934 124.592 71.6788 124.283 71.7428 123.984C71.7854 123.835 71.8494 123.685 71.9348 123.536C72.0414 123.387 72.0948 123.227 72.0948 123.056C72.1161 122.437 72.2334 121.829 72.4468 121.232C72.6601 120.613 72.7668 120.016 72.7668 119.44C72.7668 119.205 72.7241 118.981 72.6388 118.768C72.5534 118.533 72.5108 118.309 72.5108 118.096C72.5108 117.904 72.5961 117.808 72.7668 117.808C72.8734 117.808 72.9588 117.819 73.0228 117.84C73.1081 117.84 73.1934 117.84 73.2788 117.84C73.4921 117.84 73.6201 117.744 73.6628 117.552C73.7054 117.339 73.7268 117.115 73.7268 116.88C73.7268 116.539 73.7694 116.229 73.8548 115.952C73.9401 115.653 74.0361 115.387 74.1428 115.152C74.2494 114.917 74.3454 114.693 74.4308 114.48C74.5161 114.267 74.5588 114.053 74.5588 113.84C74.5588 113.413 74.6334 112.987 74.7828 112.56C74.9321 112.133 75.0814 111.707 75.2308 111.28C75.3161 111.109 75.4014 110.949 75.4868 110.8C75.5934 110.629 75.6468 110.437 75.6468 110.224C75.7748 110.053 75.8601 109.872 75.9028 109.68C75.9668 109.488 76.0201 109.296 76.0628 109.104C76.1054 108.891 76.1481 108.688 76.1908 108.496C76.2334 108.304 76.3081 108.133 76.4148 107.984C76.7348 107.301 77.0548 106.619 77.3748 105.936C77.7161 105.253 78.0361 104.56 78.3348 103.856C78.5694 103.323 78.7828 102.917 78.9748 102.64C79.1881 102.363 79.4121 102.171 79.6468 102.064C79.8814 101.957 80.1268 101.904 80.3828 101.904C80.6601 101.883 80.9801 101.872 81.3428 101.872C81.7481 101.872 82.0574 102.021 82.2708 102.32C82.5054 102.619 82.6761 102.981 82.7828 103.408C82.8894 103.835 82.9534 104.283 82.9748 104.752C82.9961 105.2 83.0068 105.595 83.0068 105.936C83.0068 106.256 83.0281 106.523 83.0708 106.736C83.1134 106.949 83.1348 107.163 83.1348 107.376C83.1348 107.461 83.1134 107.547 83.0708 107.632C83.0494 107.717 83.0388 107.803 83.0388 107.888C83.1028 107.888 83.1774 108.069 83.2628 108.432C83.3694 108.773 83.4654 109.211 83.5508 109.744C83.6361 110.256 83.7108 110.821 83.7748 111.44C83.8601 112.037 83.9241 112.592 83.9668 113.104C83.9668 113.296 83.9561 113.499 83.9348 113.712C83.9348 113.925 83.9348 114.139 83.9348 114.352C83.9348 114.544 83.9561 114.736 83.9988 114.928C84.0414 115.099 84.0628 115.291 84.0628 115.504C84.0628 115.739 84.1161 115.973 84.2228 116.208C84.3508 116.421 84.4788 116.635 84.6068 116.848C84.7561 117.061 84.8841 117.275 84.9908 117.488C85.1188 117.68 85.1828 117.861 85.1828 118.032C85.1828 118.224 85.1294 118.416 85.0228 118.608C84.9374 118.779 84.8948 118.96 84.8948 119.152C84.8948 119.493 84.9374 119.845 85.0228 120.208C85.1294 120.549 85.2468 120.901 85.3748 121.264C85.5028 121.627 85.6094 121.979 85.6948 122.32C85.8014 122.661 85.8548 122.992 85.8548 123.312C85.8548 123.867 85.9508 124.4 86.1428 124.912C86.3348 125.424 86.4308 125.904 86.4308 126.352L86.4628 126.256ZM84.4468 120.848H84.4148H84.4468ZM77.1188 117.2C77.2041 117.2 77.2788 117.211 77.3428 117.232C77.4068 117.232 77.4814 117.232 77.5668 117.232C77.6094 117.232 77.6414 117.232 77.6628 117.232C77.6841 117.211 77.7161 117.2 77.7588 117.2C78.5054 117.072 79.0814 116.987 79.4868 116.944C79.9134 116.88 80.2228 116.805 80.4148 116.72C80.6281 116.613 80.7561 116.475 80.7988 116.304C80.8414 116.133 80.8628 115.877 80.8628 115.536C80.8628 115.28 80.8201 115.045 80.7348 114.832C80.6708 114.597 80.6174 114.32 80.5748 114C80.5108 113.552 80.4468 112.987 80.3828 112.304C80.3401 111.621 80.2761 110.96 80.1908 110.32C80.1268 109.68 80.0414 109.136 79.9348 108.688C79.8281 108.219 79.7001 107.984 79.5508 107.984C79.4654 107.984 79.3694 108.101 79.2628 108.336C79.1774 108.549 79.0814 108.805 78.9748 109.104C78.8894 109.381 78.8041 109.659 78.7188 109.936C78.6334 110.213 78.5694 110.416 78.5268 110.544C78.4841 110.8 78.4094 111.013 78.3028 111.184C78.2174 111.355 78.1108 111.515 77.9828 111.664C77.8761 111.813 77.7801 111.952 77.6948 112.08C77.6094 112.187 77.5668 112.304 77.5668 112.432C77.5668 112.475 77.5668 112.517 77.5668 112.56C77.5881 112.603 77.5988 112.645 77.5988 112.688C77.5988 112.816 77.5241 113.061 77.3748 113.424C77.2468 113.765 77.0974 114.139 76.9268 114.544C76.7774 114.949 76.6388 115.344 76.5108 115.728C76.3828 116.112 76.3188 116.4 76.3188 116.592C76.3188 116.72 76.3294 116.869 76.3508 117.04C76.3721 117.211 76.4681 117.296 76.6388 117.296C76.7454 117.275 76.9054 117.264 77.1188 117.264V117.2ZM93.2748 114.288C93.1681 114.629 93.0401 114.949 92.8908 115.248C92.7628 115.547 92.6988 115.877 92.6988 116.24C92.6988 116.283 92.6988 116.336 92.6988 116.4C92.7201 116.464 92.7308 116.517 92.7308 116.56C92.7308 116.731 92.6668 116.944 92.5388 117.2C92.4108 117.435 92.3468 117.755 92.3468 118.16C92.3254 118.224 92.2614 118.32 92.1548 118.448C92.0694 118.576 91.9734 118.725 91.8668 118.896C91.7601 119.067 91.6641 119.248 91.5788 119.44C91.4934 119.632 91.4508 119.824 91.4508 120.016C91.4508 120.101 91.4614 120.176 91.4828 120.24C91.5041 120.304 91.5148 120.379 91.5148 120.464C91.5148 120.549 91.5041 120.613 91.4828 120.656C91.3121 121.019 91.1521 121.477 91.0028 122.032C90.8534 122.565 90.6828 123.088 90.4908 123.6C90.2988 124.112 90.0748 124.549 89.8188 124.912C89.5628 125.275 89.2534 125.456 88.8908 125.456C88.7201 125.456 88.5601 125.413 88.4108 125.328C88.2614 125.243 88.1227 125.147 87.9947 125.04C87.8667 124.933 87.7707 124.837 87.7067 124.752C87.6214 124.645 87.5787 124.571 87.5787 124.528C87.5787 124.4 87.6641 124.229 87.8347 124.016C88.1334 123.568 88.3574 123.024 88.5068 122.384C88.6561 121.744 88.8801 121.136 89.1788 120.56C89.2214 120.432 89.2428 120.315 89.2428 120.208C89.3281 119.525 89.5094 118.811 89.7868 118.064C90.0854 117.317 90.4481 116.635 90.8748 116.016C90.9174 115.931 90.9601 115.781 91.0028 115.568C91.1094 115.013 91.3121 114.512 91.6108 114.064C91.9094 113.616 92.2188 113.189 92.5388 112.784C92.6668 112.613 92.8481 112.347 93.0828 111.984C93.3174 111.6 93.5948 111.227 93.9148 110.864C94.2348 110.48 94.5868 110.149 94.9708 109.872C95.3548 109.573 95.7708 109.424 96.2188 109.424C96.5814 109.424 96.9228 109.52 97.2428 109.712C97.5841 109.883 97.9041 110.053 98.2028 110.224H98.1708C98.1708 110.245 98.2028 110.32 98.2668 110.448C98.3308 110.555 98.3948 110.683 98.4588 110.832C98.5228 110.96 98.5868 111.088 98.6508 111.216C98.7148 111.323 98.7468 111.387 98.7468 111.408C98.7468 111.6 98.6934 111.803 98.5868 112.016C98.5014 112.208 98.4588 112.421 98.4588 112.656C98.4588 112.699 98.4588 112.741 98.4588 112.784C98.4801 112.805 98.4908 112.837 98.4908 112.88C98.3414 113.115 98.2774 113.371 98.2988 113.648C98.3414 113.904 98.3201 114.149 98.2348 114.384C98.1708 114.619 98.1388 114.843 98.1388 115.056C98.1388 115.184 98.1388 115.312 98.1388 115.44C98.1601 115.568 98.1814 115.696 98.2028 115.824C98.2028 115.931 98.1921 116.037 98.1708 116.144C98.1708 116.229 98.1601 116.325 98.1388 116.432C98.1388 116.731 98.0321 117.008 97.8188 117.264C97.6268 117.499 97.5308 117.755 97.5308 118.032C97.5308 118.096 97.5414 118.139 97.5628 118.16C97.6694 118.395 97.7334 118.651 97.7548 118.928C97.7974 119.184 97.8188 119.419 97.8188 119.632C97.8188 120.144 97.7121 120.571 97.4988 120.912C97.6694 121.531 97.7761 122.053 97.8188 122.48C97.8828 122.907 97.9148 123.376 97.9148 123.888C97.9148 124.187 97.9468 124.475 98.0108 124.752C98.0961 125.029 98.1388 125.285 98.1388 125.52C98.1388 125.691 98.0961 125.851 98.0108 126C97.9468 126.192 97.8934 126.331 97.8508 126.416C97.8081 126.523 97.7654 126.597 97.7228 126.64C97.6801 126.704 97.6054 126.736 97.4988 126.736C97.4134 126.757 97.2854 126.768 97.1148 126.768C96.6028 126.768 96.1868 126.565 95.8668 126.16C95.5681 125.776 95.3334 125.307 95.1628 124.752C95.0134 124.197 94.9068 123.632 94.8428 123.056C94.8001 122.459 94.7788 121.968 94.7788 121.584C94.7788 121.264 94.7894 120.901 94.8108 120.496C94.8534 120.091 94.8748 119.643 94.8748 119.152C94.8748 118.981 94.8641 118.8 94.8428 118.608C94.8428 118.416 94.8428 118.235 94.8428 118.064C94.8428 117.765 94.8641 117.424 94.9068 117.04C94.9494 116.635 94.9921 116.208 95.0348 115.76C95.0774 115.312 95.1201 114.853 95.1628 114.384C95.2054 113.915 95.2268 113.456 95.2268 113.008C95.2268 112.944 95.2268 112.869 95.2268 112.784C95.2268 112.699 95.1841 112.656 95.0988 112.656C94.9921 112.656 94.8748 112.741 94.7468 112.912C94.6401 113.061 94.4908 113.136 94.2988 113.136C94.1921 113.136 94.0534 113.275 93.8828 113.552C93.7334 113.808 93.5201 114.064 93.2428 114.32C93.2428 114.277 93.2534 114.256 93.2748 114.256C93.2961 114.235 93.3068 114.213 93.3068 114.192C93.3068 114.192 93.2748 114.171 93.2108 114.128C93.2321 114.171 93.2428 114.203 93.2428 114.224C93.2428 114.224 93.2534 114.245 93.2748 114.288ZM101.912 114.736C102.082 114.437 102.232 114.139 102.36 113.84C102.509 113.541 102.637 113.232 102.744 112.912C102.808 112.656 102.946 112.4 103.16 112.144C103.394 111.888 103.629 111.664 103.864 111.472C104.098 111.259 104.301 111.099 104.472 110.992C104.664 110.864 104.76 110.811 104.76 110.832C104.93 110.597 105.133 110.48 105.368 110.48C105.624 110.48 105.869 110.459 106.104 110.416C106.466 110.416 106.829 110.523 107.192 110.736C107.554 110.949 107.949 111.067 108.376 111.088C108.504 111.173 108.664 111.269 108.856 111.376C109.069 111.483 109.272 111.621 109.464 111.792C109.656 111.963 109.816 112.165 109.944 112.4C110.093 112.635 110.168 112.912 110.168 113.232C110.168 113.531 110.082 113.861 109.912 114.224C109.762 114.565 109.549 114.917 109.272 115.28C109.016 115.621 108.717 115.952 108.376 116.272C108.056 116.592 107.725 116.869 107.384 117.104C107.192 117.232 107.01 117.381 106.84 117.552C106.669 117.723 106.498 117.893 106.328 118.064C106.157 118.213 105.976 118.352 105.784 118.48C105.592 118.587 105.357 118.651 105.08 118.672C104.525 118.736 104.173 118.971 104.024 119.376C103.896 119.76 103.832 120.485 103.832 121.552C103.832 122.107 103.896 122.608 104.024 123.056C104.152 123.483 104.44 123.696 104.888 123.696C104.973 123.696 105.186 123.611 105.528 123.44C105.869 123.248 106.242 123.024 106.648 122.768C107.053 122.491 107.448 122.203 107.832 121.904C108.216 121.584 108.504 121.307 108.696 121.072C108.888 121.008 109.058 120.912 109.208 120.784C109.357 120.635 109.506 120.496 109.656 120.368C109.805 120.219 109.954 120.101 110.104 120.016C110.253 119.909 110.413 119.856 110.584 119.856C110.733 119.856 110.861 119.909 110.968 120.016C111.096 120.123 111.16 120.24 111.16 120.368C111.16 120.453 111.096 120.603 110.968 120.816C110.84 121.008 110.68 121.211 110.488 121.424C110.296 121.637 110.093 121.829 109.88 122C109.688 122.171 109.528 122.277 109.4 122.32C109.186 122.384 109.026 122.501 108.92 122.672C108.813 122.843 108.653 122.96 108.44 123.024C108.376 123.067 108.269 123.205 108.12 123.44C107.992 123.675 107.821 123.867 107.608 124.016C107.501 124.101 107.384 124.229 107.256 124.4C107.128 124.571 106.978 124.741 106.808 124.912C106.658 125.083 106.466 125.232 106.232 125.36C106.018 125.488 105.752 125.552 105.432 125.552C105.282 125.552 105.122 125.541 104.952 125.52C104.781 125.477 104.61 125.456 104.44 125.456C104.376 125.456 104.312 125.467 104.248 125.488C104.184 125.488 104.12 125.488 104.056 125.488C103.864 125.488 103.661 125.445 103.448 125.36C103.234 125.275 103.032 125.168 102.84 125.04C102.648 124.891 102.488 124.741 102.36 124.592C102.232 124.421 102.168 124.261 102.168 124.112C102.168 124.027 102.136 123.963 102.072 123.92C102.029 123.877 101.976 123.845 101.912 123.824C101.869 123.781 101.816 123.739 101.752 123.696C101.709 123.653 101.688 123.568 101.688 123.44C101.688 123.205 101.592 122.981 101.4 122.768C101.208 122.533 101.112 122.267 101.112 121.968C101.112 121.904 101.165 121.691 101.272 121.328C101.4 120.965 101.464 120.635 101.464 120.336C101.464 120.187 101.378 119.973 101.208 119.696C101.058 119.419 100.984 119.216 100.984 119.088C100.984 118.853 100.994 118.619 101.016 118.384C101.058 118.149 101.08 117.915 101.08 117.68C101.08 117.616 101.069 117.552 101.048 117.488C101.048 117.424 101.048 117.36 101.048 117.296C101.176 116.997 101.325 116.688 101.496 116.368C101.666 116.048 101.752 115.739 101.752 115.44C101.752 115.397 101.741 115.365 101.72 115.344C101.72 115.323 101.72 115.291 101.72 115.248C101.72 115.141 101.752 115.056 101.816 114.992C101.901 114.907 101.944 114.832 101.944 114.768L101.912 114.736ZM104.248 116.912C104.248 116.912 104.418 116.816 104.76 116.624C105.101 116.411 105.474 116.165 105.88 115.888C106.285 115.589 106.648 115.291 106.968 114.992C107.309 114.672 107.48 114.384 107.48 114.128C107.48 114.107 107.469 114.032 107.448 113.904C107.426 113.755 107.394 113.605 107.352 113.456C107.33 113.285 107.288 113.147 107.224 113.04C107.16 112.912 107.085 112.848 107 112.848C106.85 112.848 106.68 112.933 106.488 113.104C106.317 113.253 106.136 113.445 105.944 113.68C105.752 113.893 105.57 114.107 105.4 114.32C105.25 114.533 105.112 114.693 104.984 114.8C104.984 114.8 104.941 114.875 104.856 115.024C104.77 115.152 104.674 115.323 104.568 115.536C104.461 115.728 104.354 115.931 104.248 116.144C104.162 116.357 104.12 116.517 104.12 116.624C104.12 116.688 104.162 116.784 104.248 116.912ZM101.976 114.768C101.933 114.768 101.912 114.757 101.912 114.736L101.976 114.768ZM114.723 118.896C114.766 118.939 114.819 118.971 114.883 118.992C114.947 118.992 115.001 118.992 115.043 118.992C115.171 118.992 115.278 118.907 115.363 118.736C115.449 118.544 115.523 118.373 115.587 118.224C115.737 117.84 115.95 117.36 116.227 116.784C116.526 116.187 116.857 115.557 117.219 114.896C117.582 114.235 117.977 113.584 118.403 112.944C118.851 112.283 119.31 111.696 119.779 111.184C120.249 110.651 120.718 110.224 121.187 109.904C121.678 109.563 122.147 109.392 122.595 109.392C122.787 109.392 123.033 109.435 123.331 109.52C123.651 109.605 123.95 109.733 124.227 109.904C124.505 110.075 124.739 110.299 124.931 110.576C125.145 110.832 125.251 111.131 125.251 111.472C125.209 111.643 125.166 111.845 125.123 112.08C125.081 112.293 125.017 112.496 124.931 112.688C124.867 112.88 124.782 113.051 124.675 113.2C124.569 113.328 124.43 113.392 124.259 113.392C124.067 113.392 123.897 113.275 123.747 113.04C123.598 112.805 123.459 112.549 123.331 112.272C123.203 111.973 123.065 111.707 122.915 111.472C122.787 111.216 122.649 111.088 122.499 111.088C122.435 111.088 122.382 111.099 122.339 111.12C121.955 111.291 121.582 111.525 121.219 111.824C120.878 112.101 120.537 112.421 120.195 112.784C119.875 113.125 119.577 113.488 119.299 113.872C119.022 114.256 118.777 114.64 118.563 115.024C118.414 115.195 118.254 115.408 118.083 115.664C117.934 115.92 117.785 116.187 117.635 116.464C117.507 116.72 117.401 116.976 117.315 117.232C117.23 117.467 117.187 117.659 117.187 117.808C117.187 117.936 117.23 118 117.315 118C117.337 118 117.347 118 117.347 118C117.347 117.979 117.358 117.968 117.379 117.968C117.721 117.819 118.062 117.659 118.403 117.488C118.766 117.317 119.086 117.232 119.363 117.232C120.366 117.232 121.123 117.477 121.635 117.968C122.169 118.437 122.435 119.184 122.435 120.208C122.435 120.72 122.393 121.232 122.307 121.744C122.243 122.256 122.211 122.768 122.211 123.28C122.211 123.451 122.211 123.632 122.211 123.824C122.211 124.016 122.222 124.197 122.243 124.368C122.243 124.603 122.179 124.795 122.051 124.944C121.923 125.093 121.859 125.243 121.859 125.392C121.859 125.499 121.902 125.584 121.987 125.648C122.073 125.712 122.115 125.797 122.115 125.904C122.115 125.947 122.094 125.979 122.051 126C122.03 126.043 122.019 126.096 122.019 126.16C122.019 126.245 122.041 126.32 122.083 126.384C122.126 126.448 122.147 126.523 122.147 126.608C122.147 126.715 122.094 126.832 121.987 126.96C121.881 127.109 121.827 127.269 121.827 127.44C121.827 127.696 121.87 127.931 121.955 128.144C122.041 128.379 122.083 128.613 122.083 128.848C122.083 128.997 122.062 129.147 122.019 129.296C121.977 129.445 121.955 129.595 121.955 129.744C121.955 129.957 121.987 130.149 122.051 130.32C122.115 130.512 122.19 130.693 122.275 130.864C122.275 130.928 122.307 130.971 122.371 130.992C122.457 131.013 122.531 131.045 122.595 131.088C122.681 131.131 122.755 131.184 122.819 131.248C122.905 131.333 122.947 131.44 122.947 131.568C122.947 131.888 122.841 132.155 122.627 132.368C122.435 132.581 122.19 132.688 121.891 132.688C121.187 132.688 120.643 132.4 120.259 131.824C119.875 131.269 119.598 130.597 119.427 129.808C119.257 129.04 119.15 128.24 119.107 127.408C119.086 126.576 119.075 125.883 119.075 125.328C119.075 124.304 119.086 123.28 119.107 122.256C119.15 121.232 119.193 120.219 119.235 119.216C119.235 119.173 119.203 119.131 119.139 119.088C119.075 119.024 119.022 118.992 118.979 118.992C118.254 119.227 117.582 119.621 116.963 120.176C116.366 120.731 115.961 121.328 115.747 121.968C115.619 122.352 115.481 122.768 115.331 123.216C115.182 123.643 115.001 124.048 114.787 124.432C114.595 124.816 114.361 125.136 114.083 125.392C113.806 125.648 113.475 125.776 113.091 125.776C112.857 125.776 112.643 125.669 112.451 125.456C112.259 125.243 112.089 124.965 111.939 124.624C111.811 124.261 111.705 123.867 111.619 123.44C111.534 123.013 111.491 122.587 111.491 122.16C111.491 122.032 111.491 121.904 111.491 121.776C111.513 121.648 111.523 121.52 111.523 121.392C111.523 121.221 111.513 121.061 111.491 120.912C111.491 120.763 111.491 120.603 111.491 120.432C111.491 120.005 111.523 119.589 111.587 119.184C111.651 118.779 111.705 118.373 111.747 117.968C111.811 117.691 111.897 117.499 112.003 117.392C112.131 117.264 112.195 117.083 112.195 116.848C112.195 116.549 112.142 116.315 112.035 116.144C111.95 115.973 111.907 115.781 111.907 115.568C111.907 115.461 111.918 115.365 111.939 115.28C111.961 115.173 111.982 115.067 112.003 114.96C112.067 114.299 112.121 113.648 112.163 113.008C112.227 112.347 112.291 111.685 112.355 111.024C112.355 110.896 112.398 110.789 112.483 110.704C112.59 110.619 112.718 110.555 112.867 110.512C113.017 110.469 113.166 110.437 113.315 110.416C113.465 110.395 113.593 110.384 113.699 110.384C113.785 110.384 113.913 110.405 114.083 110.448C114.254 110.491 114.425 110.555 114.595 110.64C114.787 110.704 114.947 110.8 115.075 110.928C115.203 111.056 115.267 111.195 115.267 111.344C115.267 111.792 115.246 112.251 115.203 112.72C115.182 113.168 115.171 113.627 115.171 114.096C115.171 114.352 115.107 114.565 114.979 114.736C114.873 114.885 114.819 115.077 114.819 115.312C114.819 115.504 114.83 115.696 114.851 115.888C114.894 116.08 114.915 116.272 114.915 116.464C114.915 116.549 114.905 116.635 114.883 116.72C114.883 116.805 114.883 116.901 114.883 117.008C114.883 117.115 114.894 117.232 114.915 117.36C114.958 117.467 114.979 117.573 114.979 117.68C114.979 117.787 114.947 117.893 114.883 118C114.841 118.085 114.819 118.181 114.819 118.288C114.819 118.373 114.819 118.459 114.819 118.544C114.841 118.608 114.851 118.683 114.851 118.768C114.851 118.811 114.83 118.853 114.787 118.896C114.745 118.939 114.723 118.981 114.723 119.024L114.755 119.056C114.755 119.013 114.745 118.992 114.723 118.992C114.723 118.971 114.723 118.939 114.723 118.896ZM114.755 119.856C114.755 119.856 114.734 119.813 114.691 119.728C114.691 119.749 114.67 119.781 114.627 119.824C114.627 119.909 114.649 119.952 114.691 119.952C114.734 119.952 114.755 119.92 114.755 119.856ZM114.243 120.752C114.243 120.731 114.243 120.72 114.243 120.72C114.265 120.699 114.275 120.677 114.275 120.656C114.275 120.635 114.254 120.624 114.211 120.624C114.19 120.624 114.179 120.656 114.179 120.72C114.179 120.72 114.201 120.731 114.243 120.752ZM125.585 120.976C125.585 120.336 125.66 119.717 125.809 119.12C125.98 118.523 126.065 117.915 126.065 117.296C126.065 117.125 126.108 116.901 126.193 116.624C126.278 116.325 126.385 116.016 126.513 115.696C126.641 115.355 126.78 115.013 126.929 114.672C127.1 114.331 127.26 114.021 127.409 113.744C127.58 113.445 127.772 113.189 127.985 112.976C128.198 112.741 128.358 112.475 128.465 112.176C128.529 111.963 128.646 111.813 128.817 111.728C128.988 111.643 129.094 111.483 129.137 111.248C129.158 111.141 129.212 111.067 129.297 111.024C129.404 110.981 129.51 110.949 129.617 110.928C129.724 110.907 129.82 110.885 129.905 110.864C130.012 110.843 130.086 110.779 130.129 110.672C130.193 110.523 130.3 110.384 130.449 110.256C130.598 110.107 130.758 109.979 130.929 109.872C131.1 109.744 131.27 109.648 131.441 109.584C131.612 109.52 131.74 109.488 131.825 109.488C132.444 109.595 133.009 109.733 133.521 109.904C133.948 110.053 134.342 110.235 134.705 110.448C135.068 110.661 135.249 110.928 135.249 111.248C135.249 111.461 135.217 111.76 135.153 112.144C135.11 112.507 135.036 112.869 134.929 113.232C134.822 113.573 134.684 113.883 134.513 114.16C134.342 114.416 134.14 114.544 133.905 114.544C133.67 114.544 133.468 114.416 133.297 114.16C133.148 113.904 133.073 113.659 133.073 113.424C133.073 113.232 133.084 113.051 133.105 112.88C133.126 112.688 133.148 112.507 133.169 112.336C133.169 112.187 133.094 112.112 132.945 112.112C132.625 112.112 132.284 112.24 131.921 112.496C131.58 112.731 131.238 113.04 130.897 113.424C130.556 113.787 130.236 114.192 129.937 114.64C129.638 115.088 129.382 115.504 129.169 115.888C129.02 116.549 128.828 117.2 128.593 117.84C128.358 118.48 128.241 119.163 128.241 119.888C128.241 120.187 128.262 120.549 128.305 120.976C128.348 121.403 128.412 121.819 128.497 122.224C128.604 122.608 128.721 122.939 128.849 123.216C128.998 123.493 129.18 123.632 129.393 123.632C129.478 123.632 129.702 123.525 130.065 123.312C130.449 123.077 130.865 122.8 131.313 122.48C131.761 122.16 132.188 121.84 132.593 121.52C133.02 121.179 133.329 120.912 133.521 120.72C133.798 120.4 134.15 120.037 134.577 119.632C135.025 119.227 135.473 118.843 135.921 118.48C136.39 118.117 136.849 117.819 137.297 117.584C137.745 117.328 138.118 117.2 138.417 117.2C138.566 117.2 138.694 117.221 138.801 117.264C138.908 117.307 138.961 117.403 138.961 117.552C138.961 117.723 138.876 117.893 138.705 118.064C138.556 118.213 138.374 118.373 138.161 118.544C137.948 118.693 137.734 118.864 137.521 119.056C137.329 119.227 137.19 119.408 137.105 119.6C137.062 119.6 136.892 119.749 136.593 120.048C136.316 120.347 135.996 120.677 135.633 121.04C135.27 121.403 134.918 121.755 134.577 122.096C134.257 122.437 134.033 122.672 133.905 122.8C133.777 122.949 133.521 123.205 133.137 123.568C132.774 123.931 132.358 124.304 131.889 124.688C131.42 125.051 130.94 125.381 130.449 125.68C129.958 125.957 129.521 126.096 129.137 126.096C128.497 126.096 127.985 125.979 127.601 125.744C127.238 125.509 126.95 125.221 126.737 124.88C126.524 124.539 126.353 124.165 126.225 123.76C126.097 123.355 125.948 122.971 125.777 122.608C125.67 122.373 125.617 122.107 125.617 121.808C125.617 121.509 125.606 121.232 125.585 120.976ZM137.318 114.736C137.489 114.437 137.638 114.139 137.766 113.84C137.915 113.541 138.043 113.232 138.15 112.912C138.214 112.656 138.353 112.4 138.566 112.144C138.801 111.888 139.035 111.664 139.27 111.472C139.505 111.259 139.707 111.099 139.878 110.992C140.07 110.864 140.166 110.811 140.166 110.832C140.337 110.597 140.539 110.48 140.774 110.48C141.03 110.48 141.275 110.459 141.51 110.416C141.873 110.416 142.235 110.523 142.598 110.736C142.961 110.949 143.355 111.067 143.782 111.088C143.91 111.173 144.07 111.269 144.262 111.376C144.475 111.483 144.678 111.621 144.87 111.792C145.062 111.963 145.222 112.165 145.35 112.4C145.499 112.635 145.574 112.912 145.574 113.232C145.574 113.531 145.489 113.861 145.318 114.224C145.169 114.565 144.955 114.917 144.678 115.28C144.422 115.621 144.123 115.952 143.782 116.272C143.462 116.592 143.131 116.869 142.79 117.104C142.598 117.232 142.417 117.381 142.246 117.552C142.075 117.723 141.905 117.893 141.734 118.064C141.563 118.213 141.382 118.352 141.19 118.48C140.998 118.587 140.763 118.651 140.486 118.672C139.931 118.736 139.579 118.971 139.43 119.376C139.302 119.76 139.238 120.485 139.238 121.552C139.238 122.107 139.302 122.608 139.43 123.056C139.558 123.483 139.846 123.696 140.294 123.696C140.379 123.696 140.593 123.611 140.934 123.44C141.275 123.248 141.649 123.024 142.054 122.768C142.459 122.491 142.854 122.203 143.238 121.904C143.622 121.584 143.91 121.307 144.102 121.072C144.294 121.008 144.465 120.912 144.614 120.784C144.763 120.635 144.913 120.496 145.062 120.368C145.211 120.219 145.361 120.101 145.51 120.016C145.659 119.909 145.819 119.856 145.99 119.856C146.139 119.856 146.267 119.909 146.374 120.016C146.502 120.123 146.566 120.24 146.566 120.368C146.566 120.453 146.502 120.603 146.374 120.816C146.246 121.008 146.086 121.211 145.894 121.424C145.702 121.637 145.499 121.829 145.286 122C145.094 122.171 144.934 122.277 144.806 122.32C144.593 122.384 144.433 122.501 144.326 122.672C144.219 122.843 144.059 122.96 143.846 123.024C143.782 123.067 143.675 123.205 143.526 123.44C143.398 123.675 143.227 123.867 143.014 124.016C142.907 124.101 142.79 124.229 142.662 124.4C142.534 124.571 142.385 124.741 142.214 124.912C142.065 125.083 141.873 125.232 141.638 125.36C141.425 125.488 141.158 125.552 140.838 125.552C140.689 125.552 140.529 125.541 140.358 125.52C140.187 125.477 140.017 125.456 139.846 125.456C139.782 125.456 139.718 125.467 139.654 125.488C139.59 125.488 139.526 125.488 139.462 125.488C139.27 125.488 139.067 125.445 138.854 125.36C138.641 125.275 138.438 125.168 138.246 125.04C138.054 124.891 137.894 124.741 137.766 124.592C137.638 124.421 137.574 124.261 137.574 124.112C137.574 124.027 137.542 123.963 137.478 123.92C137.435 123.877 137.382 123.845 137.318 123.824C137.275 123.781 137.222 123.739 137.158 123.696C137.115 123.653 137.094 123.568 137.094 123.44C137.094 123.205 136.998 122.981 136.806 122.768C136.614 122.533 136.518 122.267 136.518 121.968C136.518 121.904 136.571 121.691 136.678 121.328C136.806 120.965 136.87 120.635 136.87 120.336C136.87 120.187 136.785 119.973 136.614 119.696C136.465 119.419 136.39 119.216 136.39 119.088C136.39 118.853 136.401 118.619 136.422 118.384C136.465 118.149 136.486 117.915 136.486 117.68C136.486 117.616 136.475 117.552 136.454 117.488C136.454 117.424 136.454 117.36 136.454 117.296C136.582 116.997 136.731 116.688 136.902 116.368C137.073 116.048 137.158 115.739 137.158 115.44C137.158 115.397 137.147 115.365 137.126 115.344C137.126 115.323 137.126 115.291 137.126 115.248C137.126 115.141 137.158 115.056 137.222 114.992C137.307 114.907 137.35 114.832 137.35 114.768L137.318 114.736ZM139.654 116.912C139.654 116.912 139.825 116.816 140.166 116.624C140.507 116.411 140.881 116.165 141.286 115.888C141.691 115.589 142.054 115.291 142.374 114.992C142.715 114.672 142.886 114.384 142.886 114.128C142.886 114.107 142.875 114.032 142.854 113.904C142.833 113.755 142.801 113.605 142.758 113.456C142.737 113.285 142.694 113.147 142.63 113.04C142.566 112.912 142.491 112.848 142.406 112.848C142.257 112.848 142.086 112.933 141.894 113.104C141.723 113.253 141.542 113.445 141.35 113.68C141.158 113.893 140.977 114.107 140.806 114.32C140.657 114.533 140.518 114.693 140.39 114.8C140.39 114.8 140.347 114.875 140.262 115.024C140.177 115.152 140.081 115.323 139.974 115.536C139.867 115.728 139.761 115.931 139.654 116.144C139.569 116.357 139.526 116.517 139.526 116.624C139.526 116.688 139.569 116.784 139.654 116.912ZM137.382 114.768C137.339 114.768 137.318 114.757 137.318 114.736L137.382 114.768ZM161.586 123.888C161.372 125.019 160.722 125.712 159.634 125.968C159.356 125.84 159.047 125.637 158.706 125.36C158.364 125.083 158.194 124.763 158.194 124.4C158.194 124.357 158.194 124.315 158.194 124.272C158.215 124.229 158.226 124.187 158.226 124.144C158.226 124.059 158.204 123.995 158.162 123.952C158.119 123.909 158.066 123.856 158.002 123.792C157.938 123.728 157.884 123.664 157.842 123.6C157.799 123.515 157.778 123.397 157.778 123.248C157.778 123.163 157.778 123.088 157.778 123.024C157.799 122.939 157.81 122.853 157.81 122.768C157.767 122.32 157.714 121.893 157.65 121.488C157.607 121.061 157.586 120.635 157.586 120.208C157.586 120.144 157.586 120.08 157.586 120.016C157.607 119.931 157.618 119.856 157.618 119.792C157.618 119.643 157.586 119.493 157.522 119.344C157.479 119.195 157.458 119.035 157.458 118.864C157.458 118.757 157.479 118.64 157.522 118.512C157.586 118.363 157.618 118.224 157.618 118.096C157.618 117.968 157.596 117.84 157.554 117.712C157.532 117.563 157.522 117.424 157.522 117.296C157.522 116.869 157.564 116.443 157.65 116.016C157.735 115.568 157.778 115.131 157.778 114.704C157.778 114.555 157.692 114.48 157.522 114.48C157.415 114.48 157.33 114.523 157.266 114.608C157.202 114.693 157.148 114.789 157.106 114.896C157.063 115.003 157.01 115.12 156.946 115.248C156.882 115.355 156.796 115.44 156.69 115.504C156.498 115.611 156.348 115.771 156.242 115.984C156.156 116.176 156.028 116.347 155.858 116.496C155.836 116.496 155.783 116.571 155.698 116.72C155.634 116.848 155.559 117.008 155.474 117.2C155.388 117.371 155.314 117.541 155.25 117.712C155.186 117.883 155.143 118.011 155.122 118.096C155.015 118.267 154.887 118.416 154.738 118.544C154.61 118.651 154.524 118.768 154.482 118.896C154.418 119.301 154.268 119.621 154.034 119.856C153.799 120.091 153.607 120.389 153.458 120.752C153.33 121.029 153.159 121.36 152.946 121.744C152.732 122.128 152.476 122.491 152.178 122.832C151.879 123.173 151.548 123.472 151.186 123.728C150.823 123.963 150.428 124.08 150.002 124.08C149.362 124.08 148.86 123.899 148.498 123.536C148.135 123.152 147.858 122.683 147.666 122.128C147.474 121.552 147.346 120.923 147.282 120.24C147.239 119.557 147.218 118.907 147.218 118.288C147.218 118.053 147.228 117.84 147.25 117.648C147.271 117.435 147.303 117.243 147.346 117.072C147.452 116.688 147.506 116.293 147.506 115.888C147.506 115.483 147.527 115.088 147.57 114.704C147.634 114.213 147.676 113.691 147.698 113.136C147.74 112.56 147.762 112.005 147.762 111.472C147.762 111.344 147.762 111.227 147.762 111.12C147.762 110.992 147.751 110.864 147.73 110.736C147.73 110.651 147.772 110.565 147.858 110.48C147.943 110.395 148.039 110.352 148.146 110.352C148.508 110.395 148.882 110.501 149.266 110.672C149.65 110.843 149.842 111.12 149.842 111.504C149.842 111.739 149.831 111.984 149.81 112.24C149.81 112.496 149.788 112.731 149.746 112.944C149.554 113.755 149.447 114.555 149.426 115.344C149.426 116.133 149.404 116.933 149.362 117.744C149.362 117.979 149.34 118.213 149.298 118.448C149.255 118.683 149.234 118.917 149.234 119.152C149.234 119.344 149.244 119.579 149.266 119.856C149.287 120.133 149.319 120.411 149.362 120.688C149.404 120.944 149.458 121.168 149.522 121.36C149.607 121.552 149.703 121.648 149.81 121.648C149.938 121.648 150.034 121.616 150.098 121.552C150.162 121.488 150.247 121.424 150.354 121.36C150.994 120.507 151.58 119.632 152.114 118.736C152.668 117.819 153.266 116.933 153.906 116.08C154.012 115.845 154.172 115.653 154.385 115.504C154.599 115.355 154.748 115.141 154.834 114.864C154.94 114.523 155.122 114.277 155.378 114.128C155.634 113.957 155.815 113.744 155.922 113.488C155.986 113.296 156.092 113.157 156.242 113.072C156.391 112.965 156.519 112.837 156.626 112.688C156.967 112.133 157.372 111.653 157.842 111.248C158.332 110.821 158.919 110.608 159.602 110.608C160.114 110.608 160.508 110.693 160.786 110.864C161.063 111.013 161.266 111.216 161.394 111.472C161.522 111.707 161.596 111.984 161.618 112.304C161.66 112.603 161.682 112.901 161.682 113.2C161.682 113.819 161.607 114.405 161.458 114.96C161.308 115.515 161.234 116.059 161.234 116.592C161.234 117.125 161.191 117.659 161.106 118.192C161.02 118.704 160.978 119.216 160.978 119.728C160.978 119.813 160.988 119.877 161.01 119.92C161.095 120.24 161.138 120.581 161.138 120.944C161.159 121.285 161.17 121.637 161.17 122C161.191 122.341 161.223 122.672 161.266 122.992C161.308 123.312 161.415 123.611 161.586 123.888ZM153.938 107.44C153.02 107.269 152.348 106.96 151.922 106.512C151.516 106.064 151.228 105.509 151.058 104.848C151.058 104.741 151.068 104.624 151.09 104.496C151.111 104.347 151.207 104.272 151.378 104.272C151.548 104.272 151.74 104.368 151.954 104.56C152.167 104.731 152.338 104.848 152.466 104.912C153.02 105.339 153.607 105.552 154.226 105.552C154.524 105.552 154.908 105.477 155.378 105.328C155.868 105.157 156.252 104.923 156.53 104.624C156.679 104.496 156.85 104.368 157.042 104.24C157.255 104.091 157.447 104.016 157.618 104.016C157.831 104.016 158.002 104.08 158.13 104.208C158.258 104.336 158.322 104.485 158.322 104.656C158.322 104.912 158.215 105.157 158.002 105.392C157.81 105.605 157.564 105.808 157.266 106C156.988 106.192 156.69 106.373 156.37 106.544C156.05 106.715 155.783 106.864 155.57 106.992C155.314 107.163 155.047 107.259 154.77 107.28C154.492 107.301 154.215 107.355 153.938 107.44Z" fill="#D33756"/>
<path d="M140.56 141.047C141.304 139.642 143.025 138.558 144.627 139.179C145.595 139.553 146.355 140.367 146.725 141.325C147.397 140.515 148.349 139.932 149.4 139.887C150.638 139.834 151.648 140.641 152.127 141.714C152.985 141.535 153.864 141.69 154.575 142.419C155.43 143.296 155.726 144.608 155.491 145.798C156.595 145.268 157.923 145.176 158.941 145.932C160.357 146.984 160.22 149.141 159.311 150.488C158.243 152.072 156.425 152.872 154.655 153.405C152.955 153.918 151.384 153.807 149.647 153.579C149.577 153.57 149.557 153.533 149.565 153.486C148.484 152.702 148.134 151.102 148.044 149.671C147.254 150.2 146.404 150.638 145.499 151.046C145.409 151.086 145.365 151.062 145.352 151.014C143.274 150.675 141.788 148.422 140.92 146.678C140.019 144.868 139.57 142.913 140.56 141.047ZM152.426 143.198C152.37 145.097 151.197 146.707 149.956 148.051C149.802 148.217 149.644 148.377 149.483 148.529C149.533 150.103 149.795 151.69 149.845 153.252C151.286 153.17 152.593 152.679 154.002 152.42C155.346 152.173 156.766 151.774 157.835 150.878C158.81 150.06 159.308 148.259 158.302 147.25C157.361 146.307 155.752 146.343 154.828 147.292C154.493 147.635 153.635 147.633 154.02 146.986C154.732 145.792 154.347 144.064 153.06 143.385C152.849 143.273 152.636 143.203 152.426 143.166C152.426 143.177 152.427 143.188 152.426 143.198ZM143.813 140.564C142.587 140.201 141.575 140.833 141.489 142.189C141.275 145.553 144.104 148.002 145.56 150.716C146.476 150.117 147.228 149.362 148.022 148.627C148.023 148.528 148.022 148.432 148.024 148.339C148.07 146.561 148.372 144.486 149.665 143.146C150.003 142.796 150.415 142.472 150.862 142.214C150.623 141.753 150.257 141.376 149.743 141.189C148.482 140.732 147.267 141.539 146.954 142.79C146.862 143.16 145.799 143.946 145.809 143.211C145.827 141.945 145.016 140.921 143.813 140.564ZM151.191 143.355C150.682 143.617 150.264 144.093 150.031 144.694C149.706 145.534 149.554 146.387 149.5 147.247C150.204 146.517 150.827 145.684 151.093 144.726C151.208 144.313 151.243 143.832 151.191 143.355Z" fill="#D33756"/>
<path d="M174.35 168.067C174.18 168.173 174.02 168.259 173.87 168.323C173.721 168.387 173.55 168.419 173.358 168.419C172.078 168.419 170.745 168.387 169.358 168.323C167.972 168.237 166.628 168.088 165.326 167.875C164.964 167.875 164.75 167.949 164.686 168.099C164.622 168.227 164.59 168.408 164.59 168.643C164.59 169.027 164.601 169.411 164.622 169.795C164.644 170.179 164.654 170.573 164.654 170.979C164.654 171.149 164.654 171.331 164.654 171.523C164.654 171.693 164.644 171.864 164.622 172.035C164.622 172.333 164.633 172.621 164.654 172.899C164.697 173.176 164.718 173.464 164.718 173.763C164.718 173.997 164.708 174.221 164.686 174.435C164.686 174.648 164.686 174.861 164.686 175.075C164.686 175.523 164.74 175.821 164.846 175.971C164.974 176.099 165.262 176.163 165.71 176.163C165.966 176.163 166.233 176.152 166.51 176.131C166.809 176.109 167.097 176.099 167.374 176.099C167.524 176.099 167.673 176.12 167.822 176.163C167.972 176.205 168.121 176.227 168.27 176.227C168.377 176.227 168.462 176.216 168.526 176.195C168.59 176.173 168.665 176.163 168.75 176.163C168.878 176.163 169.038 176.184 169.23 176.227C169.422 176.269 169.593 176.333 169.742 176.419C169.913 176.483 170.052 176.568 170.158 176.675C170.286 176.781 170.35 176.899 170.35 177.027C170.35 177.475 170.212 177.805 169.934 178.019C169.678 178.211 169.348 178.349 168.942 178.435C168.537 178.499 168.1 178.531 167.63 178.531C167.182 178.531 166.756 178.552 166.35 178.595C165.945 178.637 165.604 178.733 165.326 178.883C165.07 179.032 164.942 179.288 164.942 179.651C164.964 179.821 164.974 179.992 164.974 180.163C164.996 180.333 165.006 180.504 165.006 180.675C165.006 180.824 164.996 180.973 164.974 181.123C164.953 181.251 164.942 181.389 164.942 181.539C164.942 181.667 164.942 181.805 164.942 181.955C164.964 182.083 164.974 182.211 164.974 182.339C164.974 182.381 164.964 182.435 164.942 182.499C164.942 182.563 164.942 182.616 164.942 182.659C164.942 182.787 164.974 182.904 165.038 183.011C165.124 183.117 165.166 183.235 165.166 183.363C165.166 183.576 165.102 183.811 164.974 184.067C164.868 184.323 164.814 184.568 164.814 184.803C164.814 185.016 164.846 185.176 164.91 185.283C164.996 185.368 165.07 185.443 165.134 185.507C165.22 185.549 165.294 185.592 165.358 185.635C165.444 185.677 165.486 185.763 165.486 185.891C165.486 186.04 165.444 186.221 165.358 186.435C165.273 186.648 165.23 186.84 165.23 187.011C165.23 187.117 165.284 187.192 165.39 187.235C165.518 187.277 165.657 187.299 165.806 187.299C166.276 187.299 166.734 187.277 167.182 187.235C167.652 187.171 168.121 187.139 168.59 187.139C168.633 187.139 168.676 187.149 168.718 187.171C168.782 187.171 168.846 187.171 168.91 187.171C169.209 187.171 169.54 187.139 169.902 187.075C170.265 187.011 170.628 186.979 170.99 186.979C171.033 186.979 171.193 186.979 171.47 186.979C171.748 186.979 172.046 187.011 172.366 187.075C172.686 187.139 172.974 187.245 173.23 187.395C173.508 187.544 173.646 187.779 173.646 188.099C173.646 188.653 173.497 188.995 173.198 189.123C172.9 189.251 172.58 189.315 172.238 189.315C171.726 189.315 171.225 189.304 170.734 189.283C170.244 189.261 169.753 189.251 169.262 189.251C168.174 189.251 167.108 189.283 166.062 189.347C165.017 189.432 163.961 189.475 162.894 189.475C162.596 189.475 162.34 189.4 162.126 189.251C161.934 189.101 161.774 188.909 161.646 188.675C161.54 188.419 161.454 188.131 161.39 187.811C161.348 187.491 161.326 187.171 161.326 186.851C161.326 186.509 161.294 186.179 161.23 185.859C161.188 185.517 161.166 185.165 161.166 184.803C161.166 184.696 161.188 184.611 161.23 184.547C161.273 184.483 161.294 184.408 161.294 184.323C161.294 184.259 161.284 184.205 161.262 184.163C161.262 184.099 161.262 184.035 161.262 183.971C161.262 183.864 161.294 183.768 161.358 183.683C161.444 183.576 161.486 183.469 161.486 183.363C161.486 183.235 161.433 183.053 161.326 182.819C161.241 182.584 161.198 182.147 161.198 181.507C161.198 181.187 161.198 180.856 161.198 180.515C161.22 180.173 161.23 179.853 161.23 179.555C161.23 179.277 161.273 179.043 161.358 178.851C161.444 178.659 161.486 178.467 161.486 178.275C161.486 178.061 161.401 177.816 161.23 177.539C161.06 177.24 160.974 176.973 160.974 176.739C160.974 176.589 161.017 176.461 161.102 176.355C161.209 176.227 161.262 176.077 161.262 175.907C161.262 175.608 161.273 175.299 161.294 174.979C161.337 174.659 161.358 174.349 161.358 174.051C161.358 173.965 161.348 173.88 161.326 173.795C161.326 173.709 161.326 173.624 161.326 173.539C161.326 173.453 161.337 173.368 161.358 173.283C161.401 173.197 161.422 173.112 161.422 173.027C161.422 172.899 161.38 172.76 161.294 172.611C161.23 172.461 161.198 172.312 161.198 172.163C161.198 171.779 161.23 171.384 161.294 170.979C161.38 170.573 161.422 170.179 161.422 169.795C161.422 169.645 161.412 169.507 161.39 169.379C161.369 169.251 161.358 169.112 161.358 168.963C161.358 168.771 161.358 168.461 161.358 168.035C161.38 167.608 161.422 167.181 161.486 166.755C161.55 166.307 161.646 165.923 161.774 165.603C161.924 165.261 162.126 165.091 162.382 165.091C162.916 165.283 163.449 165.4 163.982 165.443C164.516 165.464 165.06 165.475 165.614 165.475C165.849 165.475 166.062 165.507 166.254 165.571C166.468 165.635 166.692 165.667 166.926 165.667C167.054 165.667 167.182 165.667 167.31 165.667C167.438 165.645 167.566 165.635 167.694 165.635C168.249 165.635 168.825 165.677 169.422 165.763C170.041 165.827 170.638 165.859 171.214 165.859C171.321 165.859 171.428 165.848 171.534 165.827C171.641 165.784 171.748 165.763 171.854 165.763C172.068 165.763 172.313 165.773 172.59 165.795C172.868 165.816 173.124 165.859 173.358 165.923C173.614 165.987 173.828 166.083 173.998 166.211C174.169 166.317 174.254 166.467 174.254 166.659C174.254 166.723 174.244 166.797 174.222 166.883C174.222 166.947 174.222 167.011 174.222 167.075C174.222 167.245 174.233 167.416 174.254 167.587C174.276 167.736 174.308 167.896 174.35 168.067ZM163.182 184.963C163.246 184.813 163.278 184.643 163.278 184.451C163.278 184.28 163.236 184.056 163.15 183.779C163.086 183.48 163.001 183.331 162.894 183.331C162.852 183.331 162.809 183.352 162.766 183.395C162.745 183.437 162.734 183.48 162.734 183.523C162.777 183.757 162.83 184.035 162.894 184.355C162.958 184.653 163.054 184.856 163.182 184.963ZM164.142 181.859C164.27 181.645 164.334 181.432 164.334 181.219C164.334 181.133 164.324 181.027 164.302 180.899C164.281 180.749 164.228 180.675 164.142 180.675C164.057 180.675 164.004 180.739 163.982 180.867C163.982 180.995 163.982 181.08 163.982 181.123C163.982 181.4 164.036 181.645 164.142 181.859ZM162.894 176.035C162.916 175.885 162.937 175.747 162.958 175.619C162.98 175.469 162.99 175.32 162.99 175.171C162.99 175.107 162.98 175.021 162.958 174.915C162.958 174.808 162.937 174.755 162.894 174.755C162.809 174.755 162.756 174.829 162.734 174.979C162.734 175.107 162.734 175.203 162.734 175.267C162.734 175.501 162.788 175.757 162.894 176.035ZM164.142 173.955C164.1 173.912 164.068 173.88 164.046 173.859C164.025 173.816 163.993 173.795 163.95 173.795C163.886 173.795 163.844 173.827 163.822 173.891C163.801 173.955 163.79 174.008 163.79 174.051C163.79 174.115 163.79 174.189 163.79 174.275C163.812 174.339 163.844 174.371 163.886 174.371C163.95 174.371 163.993 174.328 164.014 174.243C164.057 174.136 164.1 174.04 164.142 173.955ZM163.982 175.779C163.94 175.736 163.918 175.704 163.918 175.683C163.897 175.704 163.876 175.715 163.854 175.715C163.833 175.715 163.822 175.725 163.822 175.747C163.822 175.832 163.844 175.875 163.886 175.875C163.929 175.875 163.94 175.875 163.918 175.875C163.918 175.853 163.94 175.821 163.982 175.779ZM162.702 179.971C162.702 179.949 162.692 179.939 162.67 179.939C162.67 179.917 162.67 179.896 162.67 179.875C162.628 179.917 162.606 179.939 162.606 179.939C162.606 179.981 162.617 180.013 162.638 180.035L162.702 179.971ZM179.415 177.059C179.309 177.4 179.181 177.72 179.031 178.019C178.903 178.317 178.839 178.648 178.839 179.011C178.839 179.053 178.839 179.107 178.839 179.171C178.861 179.235 178.871 179.288 178.871 179.331C178.871 179.501 178.807 179.715 178.679 179.971C178.551 180.205 178.487 180.525 178.487 180.931C178.466 180.995 178.402 181.091 178.295 181.219C178.21 181.347 178.114 181.496 178.007 181.667C177.901 181.837 177.805 182.019 177.719 182.211C177.634 182.403 177.591 182.595 177.591 182.787C177.591 182.872 177.602 182.947 177.623 183.011C177.645 183.075 177.655 183.149 177.655 183.235C177.655 183.32 177.645 183.384 177.623 183.427C177.453 183.789 177.293 184.248 177.143 184.803C176.994 185.336 176.823 185.859 176.631 186.371C176.439 186.883 176.215 187.32 175.959 187.683C175.703 188.045 175.394 188.227 175.031 188.227C174.861 188.227 174.701 188.184 174.551 188.099C174.402 188.013 174.263 187.917 174.135 187.811C174.007 187.704 173.911 187.608 173.847 187.523C173.762 187.416 173.719 187.341 173.719 187.299C173.719 187.171 173.805 187 173.975 186.787C174.274 186.339 174.498 185.795 174.647 185.155C174.797 184.515 175.021 183.907 175.319 183.331C175.362 183.203 175.383 183.085 175.383 182.979C175.469 182.296 175.65 181.581 175.927 180.835C176.226 180.088 176.589 179.405 177.015 178.787C177.058 178.701 177.101 178.552 177.143 178.339C177.25 177.784 177.453 177.283 177.751 176.835C178.05 176.387 178.359 175.96 178.679 175.555C178.807 175.384 178.989 175.117 179.223 174.755C179.458 174.371 179.735 173.997 180.055 173.635C180.375 173.251 180.727 172.92 181.111 172.643C181.495 172.344 181.911 172.195 182.359 172.195C182.722 172.195 183.063 172.291 183.383 172.483C183.725 172.653 184.045 172.824 184.343 172.995H184.311C184.311 173.016 184.343 173.091 184.407 173.219C184.471 173.325 184.535 173.453 184.599 173.603C184.663 173.731 184.727 173.859 184.791 173.987C184.855 174.093 184.887 174.157 184.887 174.179C184.887 174.371 184.834 174.573 184.727 174.787C184.642 174.979 184.599 175.192 184.599 175.427C184.599 175.469 184.599 175.512 184.599 175.555C184.621 175.576 184.631 175.608 184.631 175.651C184.482 175.885 184.418 176.141 184.439 176.419C184.482 176.675 184.461 176.92 184.375 177.155C184.311 177.389 184.279 177.613 184.279 177.827C184.279 177.955 184.279 178.083 184.279 178.211C184.301 178.339 184.322 178.467 184.343 178.595C184.343 178.701 184.333 178.808 184.311 178.915C184.311 179 184.301 179.096 184.279 179.203C184.279 179.501 184.173 179.779 183.959 180.035C183.767 180.269 183.671 180.525 183.671 180.803C183.671 180.867 183.682 180.909 183.703 180.931C183.81 181.165 183.874 181.421 183.895 181.699C183.938 181.955 183.959 182.189 183.959 182.403C183.959 182.915 183.853 183.341 183.639 183.683C183.81 184.301 183.917 184.824 183.959 185.251C184.023 185.677 184.055 186.147 184.055 186.659C184.055 186.957 184.087 187.245 184.151 187.523C184.237 187.8 184.279 188.056 184.279 188.291C184.279 188.461 184.237 188.621 184.151 188.771C184.087 188.963 184.034 189.101 183.991 189.187C183.949 189.293 183.906 189.368 183.863 189.411C183.821 189.475 183.746 189.507 183.639 189.507C183.554 189.528 183.426 189.539 183.255 189.539C182.743 189.539 182.327 189.336 182.007 188.931C181.709 188.547 181.474 188.077 181.303 187.523C181.154 186.968 181.047 186.403 180.983 185.827C180.941 185.229 180.919 184.739 180.919 184.355C180.919 184.035 180.93 183.672 180.951 183.267C180.994 182.861 181.015 182.413 181.015 181.923C181.015 181.752 181.005 181.571 180.983 181.379C180.983 181.187 180.983 181.005 180.983 180.835C180.983 180.536 181.005 180.195 181.047 179.811C181.09 179.405 181.133 178.979 181.175 178.531C181.218 178.083 181.261 177.624 181.303 177.155C181.346 176.685 181.367 176.227 181.367 175.779C181.367 175.715 181.367 175.64 181.367 175.555C181.367 175.469 181.325 175.427 181.239 175.427C181.133 175.427 181.015 175.512 180.887 175.683C180.781 175.832 180.631 175.907 180.439 175.907C180.333 175.907 180.194 176.045 180.023 176.323C179.874 176.579 179.661 176.835 179.383 177.091C179.383 177.048 179.394 177.027 179.415 177.027C179.437 177.005 179.447 176.984 179.447 176.963C179.447 176.963 179.415 176.941 179.351 176.899C179.373 176.941 179.383 176.973 179.383 176.995C179.383 176.995 179.394 177.016 179.415 177.059ZM188.052 177.507C188.223 177.208 188.372 176.909 188.5 176.611C188.65 176.312 188.778 176.003 188.884 175.683C188.948 175.427 189.087 175.171 189.3 174.915C189.535 174.659 189.77 174.435 190.004 174.243C190.239 174.029 190.442 173.869 190.612 173.763C190.804 173.635 190.9 173.581 190.9 173.603C191.071 173.368 191.274 173.251 191.508 173.251C191.764 173.251 192.01 173.229 192.244 173.187C192.607 173.187 192.97 173.293 193.332 173.507C193.695 173.72 194.09 173.837 194.516 173.859C194.644 173.944 194.804 174.04 194.996 174.147C195.21 174.253 195.412 174.392 195.604 174.563C195.796 174.733 195.956 174.936 196.084 175.171C196.234 175.405 196.308 175.683 196.308 176.003C196.308 176.301 196.223 176.632 196.052 176.995C195.903 177.336 195.69 177.688 195.412 178.051C195.156 178.392 194.858 178.723 194.516 179.043C194.196 179.363 193.866 179.64 193.524 179.875C193.332 180.003 193.151 180.152 192.98 180.323C192.81 180.493 192.639 180.664 192.468 180.835C192.298 180.984 192.116 181.123 191.924 181.251C191.732 181.357 191.498 181.421 191.22 181.443C190.666 181.507 190.314 181.741 190.164 182.147C190.036 182.531 189.972 183.256 189.972 184.323C189.972 184.877 190.036 185.379 190.164 185.827C190.292 186.253 190.58 186.467 191.028 186.467C191.114 186.467 191.327 186.381 191.668 186.211C192.01 186.019 192.383 185.795 192.788 185.539C193.194 185.261 193.588 184.973 193.972 184.675C194.356 184.355 194.644 184.077 194.836 183.843C195.028 183.779 195.199 183.683 195.348 183.555C195.498 183.405 195.647 183.267 195.796 183.139C195.946 182.989 196.095 182.872 196.244 182.787C196.394 182.68 196.554 182.627 196.724 182.627C196.874 182.627 197.002 182.68 197.108 182.787C197.236 182.893 197.3 183.011 197.3 183.139C197.3 183.224 197.236 183.373 197.108 183.587C196.98 183.779 196.82 183.981 196.628 184.195C196.436 184.408 196.234 184.6 196.02 184.771C195.828 184.941 195.668 185.048 195.54 185.091C195.327 185.155 195.167 185.272 195.06 185.443C194.954 185.613 194.794 185.731 194.58 185.795C194.516 185.837 194.41 185.976 194.26 186.211C194.132 186.445 193.962 186.637 193.748 186.787C193.642 186.872 193.524 187 193.396 187.171C193.268 187.341 193.119 187.512 192.948 187.683C192.799 187.853 192.607 188.003 192.372 188.131C192.159 188.259 191.892 188.323 191.572 188.323C191.423 188.323 191.263 188.312 191.092 188.291C190.922 188.248 190.751 188.227 190.58 188.227C190.516 188.227 190.452 188.237 190.388 188.259C190.324 188.259 190.26 188.259 190.196 188.259C190.004 188.259 189.802 188.216 189.588 188.131C189.375 188.045 189.172 187.939 188.98 187.811C188.788 187.661 188.628 187.512 188.5 187.363C188.372 187.192 188.308 187.032 188.308 186.883C188.308 186.797 188.276 186.733 188.212 186.691C188.17 186.648 188.116 186.616 188.052 186.595C188.01 186.552 187.956 186.509 187.892 186.467C187.85 186.424 187.828 186.339 187.828 186.211C187.828 185.976 187.732 185.752 187.54 185.539C187.348 185.304 187.252 185.037 187.252 184.739C187.252 184.675 187.306 184.461 187.412 184.099C187.54 183.736 187.604 183.405 187.604 183.107C187.604 182.957 187.519 182.744 187.348 182.467C187.199 182.189 187.124 181.987 187.124 181.859C187.124 181.624 187.135 181.389 187.156 181.155C187.199 180.92 187.22 180.685 187.22 180.451C187.22 180.387 187.21 180.323 187.188 180.259C187.188 180.195 187.188 180.131 187.188 180.067C187.316 179.768 187.466 179.459 187.636 179.139C187.807 178.819 187.892 178.509 187.892 178.211C187.892 178.168 187.882 178.136 187.86 178.115C187.86 178.093 187.86 178.061 187.86 178.019C187.86 177.912 187.892 177.827 187.956 177.763C188.042 177.677 188.084 177.603 188.084 177.539L188.052 177.507ZM190.388 179.683C190.388 179.683 190.559 179.587 190.9 179.395C191.242 179.181 191.615 178.936 192.02 178.659C192.426 178.36 192.788 178.061 193.108 177.763C193.45 177.443 193.62 177.155 193.62 176.899C193.62 176.877 193.61 176.803 193.588 176.675C193.567 176.525 193.535 176.376 193.492 176.227C193.471 176.056 193.428 175.917 193.364 175.811C193.3 175.683 193.226 175.619 193.14 175.619C192.991 175.619 192.82 175.704 192.628 175.875C192.458 176.024 192.276 176.216 192.084 176.451C191.892 176.664 191.711 176.877 191.54 177.091C191.391 177.304 191.252 177.464 191.124 177.571C191.124 177.571 191.082 177.645 190.996 177.795C190.911 177.923 190.815 178.093 190.708 178.307C190.602 178.499 190.495 178.701 190.388 178.915C190.303 179.128 190.26 179.288 190.26 179.395C190.26 179.459 190.303 179.555 190.388 179.683ZM188.116 177.539C188.074 177.539 188.052 177.528 188.052 177.507L188.116 177.539ZM210.976 186.243C210.997 186.371 211.019 186.531 211.04 186.723C211.061 186.915 211.093 187.107 211.136 187.299C211.2 187.469 211.285 187.619 211.392 187.747C211.499 187.875 211.637 187.939 211.808 187.939C211.915 187.939 212.032 187.907 212.16 187.843C212.309 187.757 212.448 187.672 212.576 187.587C212.725 187.48 212.864 187.395 212.992 187.331C213.12 187.245 213.237 187.203 213.344 187.203C213.387 187.203 213.44 187.235 213.504 187.299C213.589 187.341 213.632 187.395 213.632 187.459C213.632 188.077 213.515 188.568 213.28 188.931C213.045 189.293 212.779 189.688 212.48 190.115C212.352 190.157 212.224 190.168 212.096 190.147C211.968 190.125 211.861 190.179 211.776 190.307C211.221 190.733 210.635 190.947 210.016 190.947C209.803 190.947 209.547 190.915 209.248 190.851C208.949 190.787 208.779 190.659 208.736 190.467C208.715 190.275 208.651 190.115 208.544 189.987C208.437 189.859 208.32 189.731 208.192 189.603C208.085 189.475 207.979 189.336 207.872 189.187C207.765 189.059 207.701 188.888 207.68 188.675C207.637 188.397 207.52 188.152 207.328 187.939C207.136 187.704 207.04 187.459 207.04 187.203C207.04 187.117 207.072 187.021 207.136 186.915C207.008 186.445 206.944 186.051 206.944 185.731C206.944 185.389 206.912 185.08 206.848 184.803C206.848 184.653 206.901 184.515 207.008 184.387C207.115 184.259 207.168 184.131 207.168 184.003C207.168 183.896 207.072 183.832 206.88 183.811C206.709 183.789 206.624 183.715 206.624 183.587C206.624 183.501 206.635 183.416 206.656 183.331C206.699 183.224 206.72 183.139 206.72 183.075C206.72 182.861 206.677 182.648 206.592 182.435C206.507 182.221 206.464 181.997 206.464 181.763C206.464 181.293 206.368 180.995 206.176 180.867C206.005 180.717 205.771 180.643 205.472 180.643C205.109 180.643 204.725 180.675 204.32 180.739C203.936 180.781 203.563 180.824 203.2 180.867C202.645 180.973 202.155 181.069 201.728 181.155C201.365 181.24 201.035 181.336 200.736 181.443C200.437 181.549 200.288 181.645 200.288 181.731C200.288 181.88 200.288 182.029 200.288 182.179C200.309 182.307 200.32 182.445 200.32 182.595C200.32 182.808 200.299 183.021 200.256 183.235C200.213 183.448 200.192 183.672 200.192 183.907C200.192 184.013 200.203 184.131 200.224 184.259C200.267 184.387 200.288 184.504 200.288 184.611C200.288 184.717 200.235 184.824 200.128 184.931C200.043 185.037 199.925 185.144 199.776 185.251C199.648 185.357 199.509 185.443 199.36 185.507C199.211 185.571 199.072 185.603 198.944 185.603C198.624 185.603 198.379 185.453 198.208 185.155C198.037 184.835 197.909 184.44 197.824 183.971C197.76 183.48 197.717 182.957 197.696 182.403C197.675 181.848 197.653 181.315 197.632 180.803C197.632 180.568 197.653 180.323 197.696 180.067C197.76 179.789 197.792 179.533 197.792 179.299C197.792 179.192 197.771 179.085 197.728 178.979C197.685 178.851 197.664 178.723 197.664 178.595C197.685 178.168 197.728 177.731 197.792 177.283C197.856 176.835 197.909 176.397 197.952 175.971C197.973 175.864 198.048 175.779 198.176 175.715C198.304 175.629 198.443 175.565 198.592 175.523C198.763 175.48 198.923 175.448 199.072 175.427C199.243 175.405 199.371 175.395 199.456 175.395C199.712 175.395 199.957 175.48 200.192 175.651C200.427 175.8 200.544 176.024 200.544 176.323C200.544 176.813 200.512 177.293 200.448 177.763C200.405 178.211 200.384 178.659 200.384 179.107C200.384 179.277 200.437 179.448 200.544 179.619C200.651 179.768 200.789 179.843 200.96 179.843C201.088 179.843 201.323 179.832 201.664 179.811C202.005 179.789 202.389 179.757 202.816 179.715C203.243 179.672 203.691 179.629 204.16 179.587C204.629 179.523 205.056 179.459 205.44 179.395C205.824 179.309 206.133 179.224 206.368 179.139C206.624 179.032 206.752 178.925 206.752 178.819C206.752 178.712 206.741 178.605 206.72 178.499C206.699 178.371 206.688 178.253 206.688 178.147C206.688 177.976 206.731 177.805 206.816 177.635C206.901 177.464 206.944 177.293 206.944 177.123C206.944 177.016 206.923 176.931 206.88 176.867C206.859 176.781 206.848 176.685 206.848 176.579C206.848 176.216 206.912 175.864 207.04 175.523C207.189 175.16 207.264 174.797 207.264 174.435C207.264 174.2 207.253 173.976 207.232 173.763C207.211 173.528 207.2 173.293 207.2 173.059C207.2 172.824 207.232 172.621 207.296 172.451C207.381 172.28 207.595 172.195 207.936 172.195C208.512 172.195 208.96 172.291 209.28 172.483C209.621 172.675 209.877 172.931 210.048 173.251C210.219 173.571 210.325 173.933 210.368 174.339C210.432 174.723 210.464 175.117 210.464 175.523C210.464 176.12 210.485 176.696 210.528 177.251C210.592 177.805 210.624 178.36 210.624 178.915C210.624 179.256 210.571 179.587 210.464 179.907C210.379 180.227 210.336 180.557 210.336 180.899C210.336 181.069 210.261 181.208 210.112 181.315C209.963 181.4 209.888 181.56 209.888 181.795C209.888 181.837 209.909 181.88 209.952 181.923C210.016 181.944 210.08 181.976 210.144 182.019C210.229 182.04 210.293 182.093 210.336 182.179C210.4 182.243 210.432 182.339 210.432 182.467C210.432 182.509 210.411 182.563 210.368 182.627C210.325 182.669 210.304 182.733 210.304 182.819C210.304 183.395 210.368 183.885 210.496 184.291C210.624 184.675 210.688 184.984 210.688 185.219C210.688 185.304 210.667 185.389 210.624 185.475C210.603 185.56 210.592 185.656 210.592 185.763C210.592 185.869 210.635 185.965 210.72 186.051C210.805 186.115 210.891 186.179 210.976 186.243ZM210.08 179.683V179.619C210.059 179.619 210.037 179.629 210.016 179.651C210.037 179.672 210.059 179.683 210.08 179.683C210.123 179.683 210.144 179.651 210.144 179.587C210.144 179.587 210.123 179.576 210.08 179.555C210.08 179.555 210.059 179.576 210.016 179.619L210.08 179.683ZM232.504 181.859C232.334 182.413 232.131 182.968 231.896 183.523C231.662 184.077 231.448 184.632 231.256 185.187C231.15 185.485 231.054 185.816 230.968 186.179C230.883 186.541 230.798 186.893 230.712 187.235C230.648 187.555 230.574 187.864 230.488 188.163C230.424 188.461 230.328 188.696 230.2 188.867C230.2 188.909 230.094 189.229 229.88 189.827C229.667 190.424 229.56 191.203 229.56 192.163C229.56 192.547 229.486 192.856 229.336 193.091C229.187 193.325 229.016 193.613 228.824 193.955C228.675 194.211 228.451 194.36 228.152 194.403C227.854 194.445 227.576 194.467 227.32 194.467C227.064 194.467 226.862 194.435 226.712 194.371C226.584 194.328 226.467 194.264 226.36 194.179C226.275 194.093 226.19 193.997 226.104 193.891C226.019 193.784 225.891 193.677 225.72 193.571C225.528 193.464 225.422 193.304 225.4 193.091C225.379 192.899 225.315 192.76 225.208 192.675C224.974 192.44 224.846 192.184 224.824 191.907C224.824 191.651 224.814 191.373 224.792 191.075C224.792 190.904 224.803 190.733 224.824 190.563C224.846 190.413 224.856 190.253 224.856 190.083C224.856 189.869 224.771 189.699 224.6 189.571C224.43 189.443 224.344 189.261 224.344 189.027C224.344 188.237 224.355 187.437 224.376 186.627C224.419 185.795 224.472 184.973 224.536 184.163C224.558 183.779 224.579 183.363 224.6 182.915C224.622 182.445 224.643 181.997 224.664 181.571C224.707 181.123 224.76 180.717 224.824 180.355C224.91 179.971 225.038 179.672 225.208 179.459C225.294 179.373 225.336 179.256 225.336 179.107C225.336 179 225.326 178.893 225.304 178.787C225.283 178.659 225.272 178.531 225.272 178.403C225.272 178.232 225.283 178.061 225.304 177.891C225.347 177.72 225.368 177.549 225.368 177.379C225.368 177.293 225.358 177.219 225.336 177.155C225.315 177.069 225.304 176.984 225.304 176.899C225.304 176.707 225.39 176.568 225.56 176.483C225.731 176.376 225.816 176.259 225.816 176.131C225.774 175.96 225.731 175.789 225.688 175.619C225.646 175.448 225.603 175.277 225.56 175.107C225.198 175.149 224.952 175.224 224.824 175.331C224.696 175.437 224.6 175.555 224.536 175.683C224.494 175.789 224.44 175.896 224.376 176.003C224.334 176.088 224.216 176.141 224.024 176.163C223.875 176.205 223.768 176.344 223.704 176.579C223.64 176.813 223.512 176.973 223.32 177.059C223.171 177.144 223.064 177.229 223 177.315C222.936 177.379 222.862 177.453 222.776 177.539C222.712 177.624 222.616 177.731 222.488 177.859C222.382 177.965 222.2 178.093 221.944 178.243C221.838 178.392 221.774 178.563 221.752 178.755C221.752 178.925 221.742 179.096 221.72 179.267C221.699 179.416 221.646 179.565 221.56 179.715C221.475 179.843 221.326 179.928 221.112 179.971C220.856 180.141 220.728 180.28 220.728 180.387C220.728 180.493 220.686 180.643 220.6 180.835C220.494 181.091 220.312 181.368 220.056 181.667C219.822 181.944 219.683 182.253 219.64 182.595C219.619 182.68 219.576 182.765 219.512 182.851C219.47 182.936 219.427 183.021 219.384 183.107C219.15 183.555 218.936 184.003 218.744 184.451C218.574 184.899 218.36 185.304 218.104 185.667C217.87 186.029 217.571 186.328 217.208 186.563C216.846 186.776 216.376 186.883 215.8 186.883C215.224 186.883 214.712 186.627 214.264 186.115C213.838 185.603 213.624 184.803 213.624 183.715C213.624 183.181 213.688 182.659 213.816 182.147C213.944 181.613 214.051 181.091 214.136 180.579C214.179 180.323 214.264 180.099 214.392 179.907C214.542 179.693 214.638 179.437 214.68 179.139C214.723 178.904 214.787 178.691 214.872 178.499C214.958 178.307 215.054 178.104 215.16 177.891C215.288 177.677 215.427 177.443 215.576 177.187C215.726 176.931 215.896 176.621 216.088 176.259C216.302 175.96 216.515 175.661 216.728 175.363C216.963 175.043 217.144 174.701 217.272 174.339C217.336 174.147 217.464 173.976 217.656 173.827C217.87 173.656 218.094 173.528 218.328 173.443C218.584 173.336 218.83 173.261 219.064 173.219C219.32 173.155 219.544 173.123 219.736 173.123C220.376 173.123 221.027 173.304 221.688 173.667C221.923 173.795 222.126 174.008 222.296 174.307C222.467 174.584 222.627 174.723 222.776 174.723C222.904 174.701 223.043 174.616 223.192 174.467C223.342 174.317 223.512 174.147 223.704 173.955C223.896 173.741 224.099 173.549 224.312 173.379C224.547 173.187 224.782 173.048 225.016 172.963C225.23 172.899 225.464 172.749 225.72 172.515C225.998 172.28 226.264 172.163 226.52 172.163C226.99 172.163 227.427 172.291 227.832 172.547C228.238 172.803 228.44 173.176 228.44 173.667C228.398 174.264 228.366 174.861 228.344 175.459C228.323 176.056 228.184 176.643 227.928 177.219C227.822 177.517 227.747 177.88 227.704 178.307C227.683 178.733 227.662 179.16 227.64 179.587C227.64 179.992 227.619 180.365 227.576 180.707C227.534 181.048 227.448 181.293 227.32 181.443C227.192 181.635 227.086 181.912 227 182.275C226.936 182.616 226.883 183 226.84 183.427C226.819 183.832 226.798 184.248 226.776 184.675C226.776 185.08 226.776 185.453 226.776 185.795C226.776 185.837 226.776 185.891 226.776 185.955C226.798 185.997 226.808 186.051 226.808 186.115C226.808 186.349 226.776 186.573 226.712 186.787C226.67 187 226.648 187.224 226.648 187.459C226.648 187.992 226.691 188.515 226.776 189.027C226.862 189.539 226.904 189.944 226.904 190.243C226.904 190.285 226.894 190.328 226.872 190.371C226.872 190.435 226.872 190.488 226.872 190.531C226.872 190.531 226.883 190.595 226.904 190.723C226.947 190.851 226.99 190.989 227.032 191.139C227.075 191.288 227.118 191.427 227.16 191.555C227.224 191.683 227.278 191.747 227.32 191.747C227.427 191.747 227.544 191.587 227.672 191.267C227.822 190.947 227.96 190.68 228.088 190.467C228.302 190.125 228.44 189.656 228.504 189.059C228.59 188.483 228.718 187.949 228.888 187.459C228.952 187.245 229.016 187 229.08 186.723C229.166 186.445 229.24 186.179 229.304 185.923C229.39 185.645 229.475 185.4 229.56 185.187C229.667 184.952 229.774 184.781 229.88 184.675C229.966 184.632 230.03 184.504 230.072 184.291C230.115 184.056 230.158 183.8 230.2 183.523C230.264 183.245 230.328 182.968 230.392 182.691C230.478 182.392 230.595 182.147 230.744 181.955C231.043 181.592 231.288 181.187 231.48 180.739C231.694 180.291 232.003 179.885 232.408 179.523C232.472 179.523 232.536 179.555 232.6 179.619C232.643 179.661 232.686 179.736 232.728 179.843C232.771 179.949 232.792 180.099 232.792 180.291C232.792 180.461 232.771 180.675 232.728 180.931C232.686 181.187 232.611 181.496 232.504 181.859ZM221.976 175.491C221.742 175.299 221.475 175.203 221.176 175.203C220.92 175.203 220.675 175.277 220.44 175.427C219.928 175.789 219.47 176.227 219.064 176.739C218.659 177.251 218.296 177.805 217.976 178.403C217.656 179 217.368 179.619 217.112 180.259C216.878 180.899 216.686 181.517 216.536 182.115C216.515 182.136 216.504 182.179 216.504 182.243C216.504 182.285 216.515 182.339 216.536 182.403C216.558 182.445 216.59 182.467 216.632 182.467C216.696 182.467 216.814 182.371 216.984 182.179C217.176 181.987 217.368 181.763 217.56 181.507C217.774 181.229 217.976 180.952 218.168 180.675C218.36 180.397 218.51 180.173 218.616 180.003C218.851 179.64 219.096 179.299 219.352 178.979C219.608 178.659 219.886 178.36 220.184 178.083C220.44 177.848 220.654 177.581 220.824 177.283C220.995 176.984 221.23 176.749 221.528 176.579C221.507 176.579 221.56 176.461 221.688 176.227C221.816 175.992 221.923 175.789 222.008 175.619C222.008 175.597 221.998 175.587 221.976 175.587C221.976 175.565 221.976 175.533 221.976 175.491Z" fill="#D33756"/>
</svg>
