<svg width="300" height="233" viewBox="0 0 300 233" fill="none" xmlns="http://www.w3.org/2000/svg">
<g opacity="0.8">
<path d="M209.508 77.3261C209.763 72.8573 210.833 63.5158 211.753 59.2139C216.002 39.3532 240.01 42.945 252.817 40.4809C269.482 37.2733 279.375 28.6835 287.368 9.95044C288.069 8.30489 289.655 1.38579 289.963 1.0099C292.99 -2.6543 290.863 4.81057 290.863 5.08344V36.5438C290.863 39.5592 286.856 53.2165 285.537 56.5577C284.644 58.8241 278.973 68.4162 278.999 69.1763C279.111 72.3811 291.948 72.2141 294.015 72.0192C296.033 71.827 297.479 69.1067 300 70.9249C295.799 82.4688 296.164 95.6555 292.47 107.341C286.872 125.05 276.671 135.681 261.607 137.34C263.719 147.469 264.307 188.012 259.121 194.492C252.5 198.017 246.356 205.147 239.693 207.856C218.009 216.666 190.361 221.508 168.41 212.445C157.624 207.993 147.484 198.635 136.182 194.102C124.994 189.616 112.329 187.57 100.732 185.119C99.6068 186.35 106.82 216.686 104.849 222.374C101.638 231.649 76.1072 225.172 69.1827 224.741C53.0991 223.738 37.815 226.854 22.4828 232.851C21.4889 233.464 19.4334 232.041 19.3941 231.147C19.3482 230.064 24.6737 214.867 25.364 210.813C27.6838 197.173 27.035 181.809 30.9101 168.182C30.6655 165.86 13.5071 149.986 10.6631 146.695C8.96361 144.727 -1.49081 132.428 0.180244 130.357L40.5209 131C40.7787 133.823 38.5511 134.486 36.275 135.001C26.1678 137.293 15.8008 135.784 5.66087 135.023C8.77361 143.608 32.3518 160.976 33.811 167.291C35.2964 173.726 29.9993 205.376 28.0202 213.03C26.6637 218.275 24.1975 222.925 23.0376 228.224C36.1767 222.452 51.5373 217.741 65.5239 218.919C73.711 219.606 82.822 223.151 91.0899 223.61C110.904 224.713 101.791 212.033 89.7771 207.815C76.8281 203.268 67.9551 208.978 57.387 207.152C52.9724 206.389 47.2405 202.806 46.1112 197.064C43.5926 184.245 39.9557 157.785 39.4882 144.883C39.1474 135.508 44.7438 110.179 38.6647 103.129C37.0679 101.277 33.7542 104.042 34.901 99.4756C35.1806 98.3646 43.3239 96.8639 45.5935 95.611C46.5525 95.0792 53.7195 88.057 52.2734 92.4674C50.8557 96.7943 41.8189 99.5424 41.3777 101.92C45.5193 112.331 46.4171 122.87 45.8732 134.419C45.2375 147.87 43.9225 157.513 44.9841 171.699C45.6241 180.238 48.0335 189.402 47.8959 198.281C51.7841 206.874 55.6286 194.375 58.654 190.329C76.828 166.041 103.711 178.412 125.802 186.367C158.963 198.309 173.869 218.125 211.672 211.76C226.983 209.182 244.097 203.747 256.592 192.117C257.153 180.066 257.396 167.525 257.081 155.357C256.605 136.989 255.155 127.085 257.166 107.79C257.623 103.415 259.641 97.159 259.731 93.5171C260.035 81.2687 242.612 86.0551 237.339 86.03C232.037 86.0049 222.393 83.3988 218.337 78.9049C216.838 77.2454 214.846 72.2113 214.527 72.086C212.31 71.2368 212.976 78.5512 213.16 79.4116C213.75 82.1848 229.733 93.893 213.166 88.405V105.882C222.417 106.361 232.192 104.568 240.613 99.5035C244.331 97.2676 246.994 93.8067 250.644 91.9105C245.622 99.8042 236.399 105.378 228.737 107.67C168.146 125.785 130.4 34.695 65.9542 78.451L52.2734 91.0726C58.0314 82.5246 69.6043 73.2136 77.8918 69.1986C123.607 47.0547 150.713 83.7496 190.991 100.94C197.03 103.518 203.219 104.83 209.51 105.882C209.896 96.5381 208.977 86.5869 209.508 77.3261ZM295.43 75.5859C292.315 78.4872 276.876 73.4419 276.295 70.2177C285.22 52.7932 289.72 33.6508 289.026 12.6568C286.5 15.082 285.59 19.356 283.528 22.5329C276.658 33.1107 267.71 38.7796 257.228 41.4442C247.415 43.939 212.02 42.6415 216.316 63.9446C221.297 88.6389 253.374 73.8763 260.699 87.8064C263.735 93.5784 261.57 95.3381 261.568 100.584C261.564 111.668 261.66 122.769 261.612 133.843C287.075 132.523 291.114 101.311 295.43 75.5859ZM82.4091 182.8C82.2868 182.672 79.8075 182.669 79.7071 182.781C78.9644 183.605 84.0234 194.6 81.0745 194.402C77.5598 191.949 78.9709 182.758 74.2177 183.95C74.7638 185.687 78.3899 194.97 77.87 195.583C74.8861 199.108 72.7454 185.253 71.0176 185.125C67.1359 184.841 73.4029 196.513 72.3828 197.914C68.0315 197.914 68.9162 190.713 65.9979 188.597C65.3273 191.089 69.5628 199.094 68.7262 200.241C66.4064 203.427 64.8096 190.967 63.7043 190.95C63.5492 190.947 61.0066 191.994 61.5046 193.706C61.9153 195.118 66.0525 200.33 65.0695 201.408C60.7008 202.549 60.3403 199.913 57.7737 196.755L55.0191 202.566C66.5265 203.19 78.6105 198.406 89.7465 203.741C87.8745 198.014 85.227 192.685 83.1627 187.052C82.6778 185.735 82.5402 182.942 82.4091 182.8ZM98.7702 184.103C97.9336 183.037 88.3572 182.494 86.5376 182.778C85.2947 182.973 84.8928 182.146 85.2838 184.382C86.3782 190.627 90.9304 196.649 92.1056 201.411C92.4748 202.9 91.529 204.713 91.612 204.855C91.9811 205.487 101.228 208.742 102.545 211.908C100.861 208.057 99.6221 185.189 98.7702 184.103Z" fill="#D33756"/>
<path d="M52.2734 91.0726C52.5126 91.2122 52.5456 91.6373 52.2734 92.4674C50.8557 96.7943 41.8189 99.5424 41.3777 101.92C45.5193 112.331 46.4171 122.87 45.8732 134.419C45.2375 147.87 43.9225 157.513 44.9841 171.699C45.6241 180.238 48.0335 189.402 47.8959 198.281C51.7841 206.874 55.6286 194.375 58.654 190.329C76.828 166.041 103.711 178.412 125.802 186.367C158.963 198.309 173.869 218.125 211.672 211.76C226.983 209.182 244.097 203.747 256.592 192.117C257.153 180.066 257.396 167.525 257.081 155.357C256.605 136.989 255.155 127.085 257.166 107.79C257.623 103.415 259.641 97.159 259.731 93.5171C260.035 81.2687 242.612 86.0551 237.339 86.03C232.037 86.0049 222.393 83.3988 218.337 78.9049C216.838 77.2454 214.846 72.2113 214.527 72.086C212.31 71.2368 212.976 78.5512 213.16 79.4116C213.75 82.1848 229.733 93.893 213.166 88.405V105.882C222.417 106.361 232.192 104.568 240.613 99.5035C244.331 97.2676 246.994 93.8067 250.644 91.9105C245.622 99.8042 236.399 105.378 228.737 107.67C168.146 125.785 130.4 34.695 65.9542 78.451L52.2734 91.0726Z" fill="#FBF8F3"/>
</g>
</svg>
